<svg width="1289" height="74" viewBox="0 0 1289 74" fill="none" xmlns="http://www.w3.org/2000/svg">
<mask id="path-1-inside-1_76_20157" fill="white">
<path d="M0 8C0 3.58172 3.58172 0 8 0H1281C1285.42 0 1289 3.58172 1289 8V66C1289 70.4183 1285.42 74 1281 74H7.99996C3.58169 74 0 70.4183 0 66V8Z"/>
</mask>
<path d="M0 8C0 3.58172 3.58172 0 8 0H1281C1285.42 0 1289 3.58172 1289 8V66C1289 70.4183 1285.42 74 1281 74H7.99996C3.58169 74 0 70.4183 0 66V8Z" fill="white"/>
<path d="M-12 8C-12 2.47715 -7.52285 -2 -2 -2H1281C1286.52 -2 1291 2.47715 1291 8H1287C1287 4.68629 1284.31 2 1281 2H12C12 2 12 4.68629 12 8H-12ZM1291 66C1291 71.5229 1286.52 76 1281 76H-2C-7.52285 76 -12 71.5229 -12 66H12C12 69.3137 12 72 12 72H1281C1284.31 72 1287 69.3137 1287 66H1291ZM-2 76C-7.52285 76 -12 71.5229 -12 66V8C-12 2.47715 -7.52285 -2 -2 -2L12 2C12 2 12 4.68629 12 8V66C12 69.3137 12 72 12 72L-2 76ZM1281 -2C1286.52 -2 1291 2.47715 1291 8V66C1291 71.5229 1286.52 76 1281 76V72C1284.31 72 1287 69.3137 1287 66V8C1287 4.68629 1284.31 2 1281 2V-2Z" fill="#145D02" mask="url(#path-1-inside-1_76_20157)"/>
<path d="M35.3438 17.375C33.3721 17.375 31.4448 17.9395 29.8054 18.9971C28.1661 20.0547 26.8883 21.5579 26.1338 23.3167C25.3793 25.0754 25.1819 27.0107 25.5666 28.8777C25.9512 30.7448 26.9006 32.4598 28.2948 33.8059C29.6889 35.152 31.4652 36.0687 33.3989 36.4401C35.3327 36.8114 37.3371 36.6208 39.1586 35.8923C40.9802 35.1638 42.5371 33.9302 43.6325 32.3474C44.7278 30.7645 45.3125 28.9036 45.3125 27C45.3125 24.4473 44.2622 21.9991 42.3927 20.1941C40.5232 18.3891 37.9876 17.375 35.3438 17.375ZM33.9196 30.8431L30.3594 27.4056L31.4915 26.3125L33.9196 28.6569L39.196 23.5625L40.3324 24.6529L33.9196 30.8431Z" fill="#145D02"/>
<path d="M54.1699 22.0059C55.0768 22.0059 55.8242 22.1152 56.4121 22.334C57.0046 22.5527 57.4443 22.8831 57.7314 23.3252C58.0186 23.7673 58.1621 24.3255 58.1621 25C58.1621 25.4557 58.0755 25.8545 57.9023 26.1963C57.7292 26.5381 57.5013 26.8275 57.2188 27.0645C56.9362 27.3014 56.6309 27.4951 56.3027 27.6455L59.2422 32H56.8906L54.5049 28.165H53.377V32H51.2578V22.0059H54.1699ZM54.0195 23.7422H53.377V26.4424H54.0605C54.7624 26.4424 55.2637 26.3262 55.5645 26.0938C55.8698 25.8568 56.0225 25.5104 56.0225 25.0547C56.0225 24.5807 55.8584 24.2435 55.5303 24.043C55.2067 23.8424 54.7031 23.7422 54.0195 23.7422ZM63.4873 24.2139C64.1937 24.2139 64.8021 24.3506 65.3125 24.624C65.8229 24.8929 66.2171 25.2848 66.4951 25.7998C66.7731 26.3148 66.9121 26.9437 66.9121 27.6865V28.6982H61.9834C62.0062 29.2861 62.1816 29.7487 62.5098 30.0859C62.8424 30.4186 63.3027 30.585 63.8906 30.585C64.3783 30.585 64.8249 30.5348 65.2305 30.4346C65.6361 30.3343 66.0531 30.1839 66.4814 29.9834V31.5967C66.1032 31.7835 65.7067 31.9202 65.292 32.0068C64.8818 32.0934 64.3828 32.1367 63.7949 32.1367C63.0293 32.1367 62.3503 31.9954 61.7578 31.7129C61.1699 31.4303 60.7074 30.9997 60.3701 30.4209C60.0374 29.8421 59.8711 29.113 59.8711 28.2334C59.8711 27.3402 60.0215 26.5973 60.3223 26.0049C60.6276 25.4079 61.0514 24.9613 61.5938 24.665C62.1361 24.3643 62.7673 24.2139 63.4873 24.2139ZM63.501 25.6973C63.0954 25.6973 62.7581 25.8271 62.4893 26.0869C62.2249 26.3467 62.0723 26.7546 62.0312 27.3105H64.957C64.9525 27.0007 64.8955 26.7249 64.7861 26.4834C64.6813 26.2419 64.5218 26.0505 64.3076 25.9092C64.098 25.7679 63.8291 25.6973 63.501 25.6973ZM70.4258 32L67.5137 24.3574H69.6943L71.1709 28.7119C71.2529 28.9671 71.3167 29.236 71.3623 29.5186C71.4124 29.8011 71.4466 30.054 71.4648 30.2773H71.5195C71.5332 30.0358 71.5651 29.7783 71.6152 29.5049C71.6699 29.2314 71.7406 28.9671 71.8271 28.7119L73.2969 24.3574H75.4775L72.5654 32H70.4258ZM78.6631 24.3574V32H76.5781V24.3574H78.6631ZM77.624 21.3633C77.9339 21.3633 78.2005 21.4362 78.4238 21.582C78.6471 21.7233 78.7588 21.9899 78.7588 22.3818C78.7588 22.7692 78.6471 23.0381 78.4238 23.1885C78.2005 23.3343 77.9339 23.4072 77.624 23.4072C77.3096 23.4072 77.0407 23.3343 76.8174 23.1885C76.5986 23.0381 76.4893 22.7692 76.4893 22.3818C76.4893 21.9899 76.5986 21.7233 76.8174 21.582C77.0407 21.4362 77.3096 21.3633 77.624 21.3633ZM84.0088 24.2139C84.7152 24.2139 85.3236 24.3506 85.834 24.624C86.3444 24.8929 86.7386 25.2848 87.0166 25.7998C87.2946 26.3148 87.4336 26.9437 87.4336 27.6865V28.6982H82.5049C82.5277 29.2861 82.7031 29.7487 83.0312 30.0859C83.3639 30.4186 83.8242 30.585 84.4121 30.585C84.8997 30.585 85.3464 30.5348 85.752 30.4346C86.1576 30.3343 86.5745 30.1839 87.0029 29.9834V31.5967C86.6247 31.7835 86.2282 31.9202 85.8135 32.0068C85.4033 32.0934 84.9043 32.1367 84.3164 32.1367C83.5508 32.1367 82.8717 31.9954 82.2793 31.7129C81.6914 31.4303 81.2288 30.9997 80.8916 30.4209C80.5589 29.8421 80.3926 29.113 80.3926 28.2334C80.3926 27.3402 80.543 26.5973 80.8438 26.0049C81.1491 25.4079 81.5729 24.9613 82.1152 24.665C82.6576 24.3643 83.2887 24.2139 84.0088 24.2139ZM84.0225 25.6973C83.6169 25.6973 83.2796 25.8271 83.0107 26.0869C82.7464 26.3467 82.5938 26.7546 82.5527 27.3105H85.4785C85.474 27.0007 85.417 26.7249 85.3076 26.4834C85.2028 26.2419 85.0433 26.0505 84.8291 25.9092C84.6195 25.7679 84.3506 25.6973 84.0225 25.6973ZM95.4111 32L94.8232 29.3271C94.7913 29.1676 94.7389 28.9329 94.666 28.623C94.5931 28.3086 94.5133 27.9736 94.4268 27.6182C94.3447 27.2581 94.2673 26.9255 94.1943 26.6201C94.126 26.3148 94.0758 26.0915 94.0439 25.9502H93.9824C93.9505 26.0915 93.9004 26.3148 93.832 26.6201C93.7637 26.9255 93.6862 27.2581 93.5996 27.6182C93.5176 27.9782 93.4401 28.3177 93.3672 28.6367C93.2943 28.9512 93.2396 29.1904 93.2031 29.3545L92.5879 32H90.3457L88.1719 24.3574H90.25L91.1318 27.7412C91.1911 27.9782 91.248 28.2607 91.3027 28.5889C91.3574 28.9124 91.4053 29.2269 91.4463 29.5322C91.4919 29.833 91.526 30.0723 91.5488 30.25H91.6035C91.6126 30.1178 91.6309 29.9424 91.6582 29.7236C91.6901 29.5049 91.7243 29.2793 91.7607 29.0469C91.8018 28.8099 91.8382 28.598 91.8701 28.4111C91.9066 28.2197 91.9339 28.0898 91.9521 28.0215L92.8955 24.3574H95.1924L96.0879 28.0215C96.1198 28.1536 96.1608 28.3633 96.2109 28.6504C96.2656 28.9375 96.3135 29.2337 96.3545 29.5391C96.3955 29.8398 96.4183 30.0768 96.4229 30.25H96.4775C96.4958 30.0951 96.5277 29.8649 96.5732 29.5596C96.6188 29.2542 96.6712 28.9352 96.7305 28.6025C96.7943 28.2653 96.8581 27.9782 96.9219 27.7412L97.8379 24.3574H99.8818L97.6807 32H95.4111ZM110.088 29.7305C110.088 30.25 109.965 30.6898 109.719 31.0498C109.477 31.4053 109.115 31.6764 108.632 31.8633C108.149 32.0456 107.547 32.1367 106.827 32.1367C106.294 32.1367 105.836 32.1025 105.453 32.0342C105.075 31.9658 104.692 31.8519 104.305 31.6924V29.9697C104.719 30.1566 105.164 30.3115 105.638 30.4346C106.116 30.5531 106.535 30.6123 106.896 30.6123C107.301 30.6123 107.59 30.5531 107.764 30.4346C107.941 30.3115 108.03 30.152 108.03 29.9561C108.03 29.8285 107.994 29.7145 107.921 29.6143C107.853 29.5094 107.702 29.3932 107.47 29.2656C107.237 29.1335 106.873 28.9626 106.376 28.7529C105.897 28.5524 105.503 28.3496 105.193 28.1445C104.888 27.9395 104.66 27.6979 104.51 27.4199C104.364 27.1374 104.291 26.7796 104.291 26.3467C104.291 25.6403 104.564 25.1094 105.111 24.7539C105.663 24.3939 106.399 24.2139 107.319 24.2139C107.793 24.2139 108.244 24.2617 108.673 24.3574C109.106 24.4531 109.55 24.6058 110.006 24.8154L109.377 26.3193C108.999 26.1553 108.641 26.0208 108.304 25.916C107.971 25.8112 107.632 25.7588 107.285 25.7588C106.98 25.7588 106.75 25.7998 106.595 25.8818C106.44 25.9639 106.362 26.0892 106.362 26.2578C106.362 26.3809 106.401 26.4902 106.479 26.5859C106.561 26.6816 106.715 26.7887 106.943 26.9072C107.176 27.0212 107.515 27.1693 107.962 27.3516C108.395 27.5293 108.771 27.7161 109.09 27.9121C109.409 28.1035 109.655 28.3428 109.828 28.6299C110.001 28.9124 110.088 29.2793 110.088 29.7305ZM118.729 24.3574V32H117.129L116.849 31.0225H116.739C116.575 31.2822 116.37 31.4941 116.124 31.6582C115.878 31.8223 115.607 31.943 115.311 32.0205C115.014 32.098 114.707 32.1367 114.388 32.1367C113.841 32.1367 113.365 32.041 112.959 31.8496C112.553 31.6536 112.237 31.3506 112.009 30.9404C111.785 30.5303 111.674 29.9971 111.674 29.3408V24.3574H113.759V28.8213C113.759 29.3682 113.857 29.7806 114.053 30.0586C114.249 30.3366 114.561 30.4756 114.989 30.4756C115.413 30.4756 115.746 30.3799 115.987 30.1885C116.229 29.9925 116.397 29.7077 116.493 29.334C116.593 28.9557 116.644 28.4954 116.644 27.9531V24.3574H118.729ZM123.001 21.3633V23.8379C123.001 24.125 122.992 24.4098 122.974 24.6924C122.96 24.9749 122.942 25.1937 122.919 25.3486H123.001C123.201 25.0342 123.475 24.7676 123.821 24.5488C124.168 24.3255 124.617 24.2139 125.168 24.2139C126.025 24.2139 126.72 24.5488 127.253 25.2188C127.786 25.8887 128.053 26.8708 128.053 28.165C128.053 29.0355 127.93 29.7669 127.684 30.3594C127.438 30.9473 127.093 31.3916 126.651 31.6924C126.209 31.9886 125.697 32.1367 125.113 32.1367C124.553 32.1367 124.111 32.0365 123.787 31.8359C123.464 31.6354 123.201 31.4098 123.001 31.1592H122.857L122.509 32H120.916V21.3633H123.001ZM124.498 25.8818C124.133 25.8818 123.844 25.957 123.63 26.1074C123.416 26.2578 123.258 26.4834 123.158 26.7842C123.062 27.085 123.01 27.4655 123.001 27.9258V28.1514C123.001 28.8942 123.11 29.4639 123.329 29.8604C123.548 30.2523 123.947 30.4482 124.525 30.4482C124.954 30.4482 125.293 30.25 125.544 29.8535C125.799 29.457 125.927 28.8851 125.927 28.1377C125.927 27.3903 125.799 26.8275 125.544 26.4492C125.289 26.071 124.94 25.8818 124.498 25.8818ZM138.751 24.2139C139.617 24.2139 140.271 24.4372 140.713 24.8838C141.16 25.3258 141.383 26.0368 141.383 27.0166V32H139.291V27.5361C139.291 26.9893 139.198 26.5768 139.011 26.2988C138.824 26.0208 138.535 25.8818 138.143 25.8818C137.591 25.8818 137.199 26.0801 136.967 26.4766C136.734 26.8685 136.618 27.4313 136.618 28.165V32H134.533V27.5361C134.533 27.1715 134.492 26.8662 134.41 26.6201C134.328 26.374 134.203 26.1895 134.034 26.0664C133.866 25.9434 133.649 25.8818 133.385 25.8818C132.997 25.8818 132.692 25.9798 132.469 26.1758C132.25 26.3672 132.093 26.652 131.997 27.0303C131.906 27.404 131.86 27.862 131.86 28.4043V32H129.775V24.3574H131.368L131.648 25.335H131.765C131.92 25.0706 132.113 24.8564 132.346 24.6924C132.583 24.5283 132.842 24.4076 133.125 24.3301C133.408 24.2526 133.695 24.2139 133.986 24.2139C134.547 24.2139 135.021 24.305 135.408 24.4873C135.8 24.6696 136.101 24.9521 136.311 25.335H136.495C136.723 24.943 137.044 24.6582 137.459 24.4805C137.878 24.3027 138.309 24.2139 138.751 24.2139ZM145.614 24.3574V32H143.529V24.3574H145.614ZM144.575 21.3633C144.885 21.3633 145.152 21.4362 145.375 21.582C145.598 21.7233 145.71 21.9899 145.71 22.3818C145.71 22.7692 145.598 23.0381 145.375 23.1885C145.152 23.3343 144.885 23.4072 144.575 23.4072C144.261 23.4072 143.992 23.3343 143.769 23.1885C143.55 23.0381 143.44 22.7692 143.44 22.3818C143.44 21.9899 143.55 21.7233 143.769 21.582C143.992 21.4362 144.261 21.3633 144.575 21.3633ZM151.028 30.4756C151.256 30.4756 151.477 30.4528 151.691 30.4072C151.91 30.3617 152.127 30.3047 152.341 30.2363V31.7881C152.118 31.8883 151.84 31.9704 151.507 32.0342C151.179 32.1025 150.819 32.1367 150.427 32.1367C149.971 32.1367 149.561 32.0638 149.196 31.918C148.836 31.7676 148.551 31.5101 148.342 31.1455C148.137 30.7764 148.034 30.2637 148.034 29.6074V25.9229H147.036V25.041L148.185 24.3438L148.786 22.7305H150.119V24.3574H152.259V25.9229H150.119V29.6074C150.119 29.8991 150.201 30.1178 150.365 30.2637C150.534 30.4049 150.755 30.4756 151.028 30.4756ZM157.112 30.4756C157.34 30.4756 157.561 30.4528 157.775 30.4072C157.994 30.3617 158.211 30.3047 158.425 30.2363V31.7881C158.201 31.8883 157.924 31.9704 157.591 32.0342C157.263 32.1025 156.903 32.1367 156.511 32.1367C156.055 32.1367 155.645 32.0638 155.28 31.918C154.92 31.7676 154.635 31.5101 154.426 31.1455C154.221 30.7764 154.118 30.2637 154.118 29.6074V25.9229H153.12V25.041L154.269 24.3438L154.87 22.7305H156.203V24.3574H158.343V25.9229H156.203V29.6074C156.203 29.8991 156.285 30.1178 156.449 30.2637C156.618 30.4049 156.839 30.4756 157.112 30.4756ZM163.128 24.2139C163.834 24.2139 164.443 24.3506 164.953 24.624C165.464 24.8929 165.858 25.2848 166.136 25.7998C166.414 26.3148 166.553 26.9437 166.553 27.6865V28.6982H161.624C161.647 29.2861 161.822 29.7487 162.15 30.0859C162.483 30.4186 162.943 30.585 163.531 30.585C164.019 30.585 164.465 30.5348 164.871 30.4346C165.277 30.3343 165.694 30.1839 166.122 29.9834V31.5967C165.744 31.7835 165.347 31.9202 164.933 32.0068C164.522 32.0934 164.023 32.1367 163.436 32.1367C162.67 32.1367 161.991 31.9954 161.398 31.7129C160.811 31.4303 160.348 30.9997 160.011 30.4209C159.678 29.8421 159.512 29.113 159.512 28.2334C159.512 27.3402 159.662 26.5973 159.963 26.0049C160.268 25.4079 160.692 24.9613 161.234 24.665C161.777 24.3643 162.408 24.2139 163.128 24.2139ZM163.142 25.6973C162.736 25.6973 162.399 25.8271 162.13 26.0869C161.866 26.3467 161.713 26.7546 161.672 27.3105H164.598C164.593 27.0007 164.536 26.7249 164.427 26.4834C164.322 26.2419 164.162 26.0505 163.948 25.9092C163.739 25.7679 163.47 25.6973 163.142 25.6973ZM170.668 32.1367C169.816 32.1367 169.121 31.804 168.583 31.1387C168.05 30.4688 167.783 29.4867 167.783 28.1924C167.783 26.8844 168.054 25.8955 168.597 25.2256C169.139 24.5511 169.848 24.2139 170.723 24.2139C171.087 24.2139 171.409 24.264 171.687 24.3643C171.965 24.4645 172.204 24.599 172.404 24.7676C172.609 24.9362 172.783 25.1253 172.924 25.335H172.992C172.965 25.1891 172.931 24.9749 172.89 24.6924C172.853 24.4053 172.835 24.1113 172.835 23.8105V21.3633H174.927V32H173.327L172.924 31.0088H172.835C172.703 31.2184 172.536 31.4098 172.336 31.583C172.14 31.7516 171.905 31.8861 171.632 31.9863C171.358 32.0866 171.037 32.1367 170.668 32.1367ZM171.399 30.4756C171.969 30.4756 172.37 30.307 172.603 29.9697C172.84 29.6279 172.965 29.1152 172.979 28.4316V28.2061C172.979 27.4632 172.865 26.8958 172.637 26.5039C172.409 26.1074 171.985 25.9092 171.365 25.9092C170.905 25.9092 170.545 26.1074 170.285 26.5039C170.025 26.9004 169.896 27.4723 169.896 28.2197C169.896 28.9671 170.025 29.5299 170.285 29.9082C170.549 30.2865 170.921 30.4756 171.399 30.4756ZM180.067 29.1016V27.3926H183.738V29.1016H180.067ZM192.912 32H190.793V23.7695H188.079V22.0059H195.626V23.7695H192.912V32ZM199.085 21.3633V23.5303C199.085 23.9085 199.071 24.2686 199.044 24.6104C199.021 24.9521 199.003 25.1937 198.989 25.335H199.099C199.263 25.0706 199.456 24.8564 199.68 24.6924C199.908 24.5283 200.158 24.4076 200.432 24.3301C200.705 24.2526 200.999 24.2139 201.313 24.2139C201.865 24.2139 202.346 24.3118 202.756 24.5078C203.166 24.6992 203.485 25.0023 203.713 25.417C203.941 25.8271 204.055 26.3604 204.055 27.0166V32H201.97V27.5361C201.97 26.9893 201.869 26.5768 201.669 26.2988C201.468 26.0208 201.159 25.8818 200.739 25.8818C200.32 25.8818 199.99 25.9798 199.748 26.1758C199.507 26.3672 199.336 26.652 199.235 27.0303C199.135 27.404 199.085 27.862 199.085 28.4043V32H197V21.3633H199.085ZM209.332 24.2002C210.357 24.2002 211.144 24.4235 211.69 24.8701C212.237 25.3167 212.511 25.9958 212.511 26.9072V32H211.055L210.651 30.9609H210.597C210.378 31.2344 210.155 31.4577 209.927 31.6309C209.699 31.804 209.437 31.9316 209.141 32.0137C208.844 32.0957 208.484 32.1367 208.061 32.1367C207.609 32.1367 207.204 32.0501 206.844 31.877C206.488 31.7038 206.208 31.4395 206.003 31.084C205.798 30.724 205.695 30.2682 205.695 29.7168C205.695 28.9056 205.98 28.3086 206.55 27.9258C207.119 27.5384 207.974 27.3242 209.113 27.2832L210.439 27.2422V26.9072C210.439 26.5062 210.335 26.2122 210.125 26.0254C209.915 25.8385 209.624 25.7451 209.25 25.7451C208.881 25.7451 208.519 25.7975 208.163 25.9023C207.808 26.0072 207.452 26.1393 207.097 26.2988L206.406 24.8906C206.812 24.6764 207.265 24.5078 207.767 24.3848C208.272 24.2617 208.794 24.2002 209.332 24.2002ZM210.439 28.459L209.633 28.4863C208.958 28.5046 208.489 28.6253 208.225 28.8486C207.965 29.0719 207.835 29.3659 207.835 29.7305C207.835 30.0495 207.928 30.2773 208.115 30.4141C208.302 30.5462 208.546 30.6123 208.847 30.6123C209.293 30.6123 209.669 30.4801 209.975 30.2158C210.285 29.9515 210.439 29.5755 210.439 29.0879V28.459ZM219.005 24.2139C219.821 24.2139 220.477 24.4372 220.974 24.8838C221.47 25.3258 221.719 26.0368 221.719 27.0166V32H219.634V27.5361C219.634 26.9893 219.534 26.5768 219.333 26.2988C219.137 26.0208 218.827 25.8818 218.403 25.8818C217.765 25.8818 217.33 26.0983 217.098 26.5312C216.865 26.9642 216.749 27.5885 216.749 28.4043V32H214.664V24.3574H216.257L216.537 25.335H216.653C216.817 25.0706 217.02 24.8564 217.262 24.6924C217.508 24.5283 217.779 24.4076 218.075 24.3301C218.376 24.2526 218.686 24.2139 219.005 24.2139ZM225.95 21.3633V26.1211C225.95 26.4082 225.939 26.6953 225.916 26.9824C225.893 27.2695 225.868 27.5566 225.841 27.8438H225.868C226.009 27.6432 226.153 27.445 226.299 27.249C226.449 27.0531 226.609 26.8639 226.777 26.6816L228.917 24.3574H231.269L228.233 27.6729L231.453 32H229.047L226.846 28.9033L225.95 29.6211V32H223.865V21.3633H225.95ZM235.09 24.3574H237.373L238.815 28.6572C238.861 28.7939 238.9 28.9329 238.932 29.0742C238.964 29.2155 238.991 29.3613 239.014 29.5117C239.036 29.6621 239.055 29.8193 239.068 29.9834H239.109C239.137 29.7373 239.173 29.5072 239.219 29.293C239.269 29.0788 239.33 28.8669 239.403 28.6572L240.818 24.3574H243.054L239.82 32.9775C239.624 33.5062 239.369 33.946 239.055 34.2969C238.74 34.6523 238.378 34.9189 237.968 35.0967C237.562 35.2744 237.116 35.3633 236.628 35.3633C236.391 35.3633 236.186 35.3496 236.013 35.3223C235.84 35.2995 235.691 35.2744 235.568 35.2471V33.5928C235.664 33.6156 235.785 33.6361 235.931 33.6543C236.076 33.6725 236.229 33.6816 236.389 33.6816C236.68 33.6816 236.931 33.6201 237.141 33.4971C237.35 33.374 237.526 33.2077 237.667 32.998C237.808 32.793 237.92 32.5674 238.002 32.3213L238.125 31.9453L235.09 24.3574ZM251.1 28.165C251.1 28.8031 251.013 29.3682 250.84 29.8604C250.671 30.3525 250.423 30.7695 250.095 31.1113C249.771 31.4486 249.379 31.7038 248.919 31.877C248.463 32.0501 247.948 32.1367 247.374 32.1367C246.836 32.1367 246.342 32.0501 245.891 31.877C245.444 31.7038 245.054 31.4486 244.722 31.1113C244.394 30.7695 244.138 30.3525 243.956 29.8604C243.778 29.3682 243.689 28.8031 243.689 28.165C243.689 27.3174 243.84 26.5996 244.141 26.0117C244.441 25.4238 244.87 24.9772 245.426 24.6719C245.982 24.3665 246.645 24.2139 247.415 24.2139C248.131 24.2139 248.764 24.3665 249.315 24.6719C249.871 24.9772 250.307 25.4238 250.621 26.0117C250.94 26.5996 251.1 27.3174 251.1 28.165ZM245.815 28.165C245.815 28.6663 245.87 29.0879 245.979 29.4297C246.089 29.7715 246.26 30.029 246.492 30.2021C246.725 30.3753 247.028 30.4619 247.401 30.4619C247.771 30.4619 248.069 30.3753 248.297 30.2021C248.529 30.029 248.698 29.7715 248.803 29.4297C248.912 29.0879 248.967 28.6663 248.967 28.165C248.967 27.6592 248.912 27.2399 248.803 26.9072C248.698 26.57 248.529 26.3171 248.297 26.1484C248.064 25.9798 247.761 25.8955 247.388 25.8955C246.836 25.8955 246.435 26.0846 246.185 26.4629C245.938 26.8411 245.815 27.4085 245.815 28.165ZM259.836 24.3574V32H258.236L257.956 31.0225H257.847C257.683 31.2822 257.478 31.4941 257.231 31.6582C256.985 31.8223 256.714 31.943 256.418 32.0205C256.122 32.098 255.814 32.1367 255.495 32.1367C254.948 32.1367 254.472 32.041 254.066 31.8496C253.661 31.6536 253.344 31.3506 253.116 30.9404C252.893 30.5303 252.781 29.9971 252.781 29.3408V24.3574H254.866V28.8213C254.866 29.3682 254.964 29.7806 255.16 30.0586C255.356 30.3366 255.668 30.4756 256.097 30.4756C256.521 30.4756 256.853 30.3799 257.095 30.1885C257.336 29.9925 257.505 29.7077 257.601 29.334C257.701 28.9557 257.751 28.4954 257.751 27.9531V24.3574H259.836ZM263.773 28.6846H262.105L261.757 22.0059H264.122L263.773 28.6846ZM261.729 31.0225C261.729 30.5941 261.846 30.2933 262.078 30.1201C262.315 29.9469 262.6 29.8604 262.933 29.8604C263.256 29.8604 263.534 29.9469 263.767 30.1201C264.004 30.2933 264.122 30.5941 264.122 31.0225C264.122 31.4326 264.004 31.7288 263.767 31.9111C263.534 32.0934 263.256 32.1846 262.933 32.1846C262.6 32.1846 262.315 32.0934 262.078 31.9111C261.846 31.7288 261.729 31.4326 261.729 31.0225Z" fill="#145D02"/>
<path d="M53.3574 50.7285L55.6367 46.4336H56.709L53.8555 51.6777V55H52.8594V51.7246L50 46.4336H51.0898L53.3574 50.7285ZM63.2773 51.7773C63.2773 52.3047 63.209 52.7754 63.0723 53.1895C62.9355 53.6035 62.7383 53.9531 62.4805 54.2383C62.2227 54.5234 61.9102 54.7422 61.543 54.8945C61.1797 55.043 60.7676 55.1172 60.3066 55.1172C59.877 55.1172 59.4824 55.043 59.123 54.8945C58.7676 54.7422 58.459 54.5234 58.1973 54.2383C57.9395 53.9531 57.7383 53.6035 57.5938 53.1895C57.4531 52.7754 57.3828 52.3047 57.3828 51.7773C57.3828 51.0742 57.502 50.4766 57.7402 49.9844C57.9785 49.4883 58.3184 49.1113 58.7598 48.8535C59.2051 48.5918 59.7344 48.4609 60.3477 48.4609C60.9336 48.4609 61.4453 48.5918 61.8828 48.8535C62.3242 49.1152 62.666 49.4941 62.9082 49.9902C63.1543 50.4824 63.2773 51.0781 63.2773 51.7773ZM58.3906 51.7773C58.3906 52.293 58.459 52.7402 58.5957 53.1191C58.7324 53.498 58.9434 53.791 59.2285 53.998C59.5137 54.2051 59.8809 54.3086 60.3301 54.3086C60.7754 54.3086 61.1406 54.2051 61.4258 53.998C61.7148 53.791 61.9277 53.498 62.0645 53.1191C62.2012 52.7402 62.2695 52.293 62.2695 51.7773C62.2695 51.2656 62.2012 50.8242 62.0645 50.4531C61.9277 50.0781 61.7168 49.7891 61.4316 49.5859C61.1465 49.3828 60.7773 49.2812 60.3242 49.2812C59.6562 49.2812 59.166 49.502 58.8535 49.9434C58.5449 50.3848 58.3906 50.9961 58.3906 51.7773ZM70.2617 48.5781V55H69.4648L69.3242 54.0977H69.2715C69.1387 54.3203 68.9668 54.5078 68.7559 54.6602C68.5449 54.8125 68.3066 54.9258 68.041 55C67.7793 55.0781 67.5 55.1172 67.2031 55.1172C66.6953 55.1172 66.2695 55.0352 65.9258 54.8711C65.582 54.707 65.3223 54.4531 65.1465 54.1094C64.9746 53.7656 64.8887 53.3242 64.8887 52.7852V48.5781H65.873V52.7148C65.873 53.25 65.9941 53.6504 66.2363 53.916C66.4785 54.1777 66.8477 54.3086 67.3438 54.3086C67.8203 54.3086 68.1992 54.2188 68.4805 54.0391C68.7656 53.8594 68.9707 53.5957 69.0957 53.248C69.2207 52.8965 69.2832 52.4668 69.2832 51.959V48.5781H70.2617ZM75.2363 48.4609C75.3652 48.4609 75.5 48.4688 75.6406 48.4844C75.7812 48.4961 75.9062 48.5137 76.0156 48.5371L75.8926 49.4395C75.7871 49.4121 75.6699 49.3906 75.541 49.375C75.4121 49.3594 75.291 49.3516 75.1777 49.3516C74.9199 49.3516 74.6758 49.4043 74.4453 49.5098C74.2188 49.6113 74.0195 49.7598 73.8477 49.9551C73.6758 50.1465 73.541 50.3789 73.4434 50.6523C73.3457 50.9219 73.2969 51.2227 73.2969 51.5547V55H72.3184V48.5781H73.127L73.2324 49.7617H73.2734C73.4062 49.5234 73.5664 49.3066 73.7539 49.1113C73.9414 48.9121 74.1582 48.7539 74.4043 48.6367C74.6543 48.5195 74.9316 48.4609 75.2363 48.4609ZM83.2051 49.3398H81.6055V55H80.6328V49.3398H79.4961V48.8711L80.6328 48.5488V48.1211C80.6328 47.582 80.7129 47.1445 80.873 46.8086C81.0332 46.4688 81.2656 46.2188 81.5703 46.0586C81.875 45.8984 82.2461 45.8184 82.6836 45.8184C82.9297 45.8184 83.1543 45.8398 83.3574 45.8828C83.5645 45.9258 83.7461 45.9746 83.9023 46.0293L83.6504 46.7969C83.5176 46.7539 83.3672 46.7148 83.1992 46.6797C83.0352 46.6406 82.8672 46.6211 82.6953 46.6211C82.3242 46.6211 82.0488 46.7422 81.8691 46.9844C81.6934 47.2227 81.6055 47.5977 81.6055 48.1094V48.5781H83.2051V49.3398ZM86.8613 48.4609C87.4082 48.4609 87.877 48.582 88.2676 48.8242C88.6582 49.0664 88.957 49.4062 89.1641 49.8438C89.3711 50.2773 89.4746 50.7852 89.4746 51.3672V51.9707H85.0391C85.0508 52.7246 85.2383 53.2988 85.6016 53.6934C85.9648 54.0879 86.4766 54.2852 87.1367 54.2852C87.543 54.2852 87.9023 54.248 88.2148 54.1738C88.5273 54.0996 88.8516 53.9902 89.1875 53.8457V54.7012C88.8633 54.8457 88.541 54.9512 88.2207 55.0176C87.9043 55.084 87.5293 55.1172 87.0957 55.1172C86.4785 55.1172 85.9395 54.9922 85.4785 54.7422C85.0215 54.4883 84.666 54.1172 84.4121 53.6289C84.1582 53.1406 84.0312 52.543 84.0312 51.8359C84.0312 51.1445 84.1465 50.5469 84.377 50.043C84.6113 49.5352 84.9395 49.1445 85.3613 48.8711C85.7871 48.5977 86.2871 48.4609 86.8613 48.4609ZM86.8496 49.2578C86.3301 49.2578 85.916 49.4277 85.6074 49.7676C85.2988 50.1074 85.1152 50.582 85.0566 51.1914H88.4551C88.4512 50.8086 88.3906 50.4727 88.2734 50.1836C88.1602 49.8906 87.9863 49.6641 87.752 49.5039C87.5176 49.3398 87.2168 49.2578 86.8496 49.2578ZM93.5996 48.4609C94.1465 48.4609 94.6152 48.582 95.0059 48.8242C95.3965 49.0664 95.6953 49.4062 95.9023 49.8438C96.1094 50.2773 96.2129 50.7852 96.2129 51.3672V51.9707H91.7773C91.7891 52.7246 91.9766 53.2988 92.3398 53.6934C92.7031 54.0879 93.2148 54.2852 93.875 54.2852C94.2812 54.2852 94.6406 54.248 94.9531 54.1738C95.2656 54.0996 95.5898 53.9902 95.9258 53.8457V54.7012C95.6016 54.8457 95.2793 54.9512 94.959 55.0176C94.6426 55.084 94.2676 55.1172 93.834 55.1172C93.2168 55.1172 92.6777 54.9922 92.2168 54.7422C91.7598 54.4883 91.4043 54.1172 91.1504 53.6289C90.8965 53.1406 90.7695 52.543 90.7695 51.8359C90.7695 51.1445 90.8848 50.5469 91.1152 50.043C91.3496 49.5352 91.6777 49.1445 92.0996 48.8711C92.5254 48.5977 93.0254 48.4609 93.5996 48.4609ZM93.5879 49.2578C93.0684 49.2578 92.6543 49.4277 92.3457 49.7676C92.0371 50.1074 91.8535 50.582 91.7949 51.1914H95.1934C95.1895 50.8086 95.1289 50.4727 95.0117 50.1836C94.8984 49.8906 94.7246 49.6641 94.4902 49.5039C94.2559 49.3398 93.9551 49.2578 93.5879 49.2578ZM100.15 55.1172C99.3379 55.1172 98.6934 54.8398 98.2168 54.2852C97.7441 53.7305 97.5078 52.9062 97.5078 51.8125C97.5078 50.707 97.75 49.873 98.2344 49.3105C98.7188 48.7441 99.3633 48.4609 100.168 48.4609C100.508 48.4609 100.805 48.5059 101.059 48.5957C101.312 48.6855 101.531 48.8066 101.715 48.959C101.898 49.1074 102.053 49.2773 102.178 49.4688H102.248C102.232 49.3477 102.217 49.1816 102.201 48.9707C102.186 48.7598 102.178 48.5879 102.178 48.4551V45.8828H103.15V55H102.365L102.219 54.0859H102.178C102.057 54.2773 101.902 54.4512 101.715 54.6074C101.531 54.7637 101.311 54.8887 101.053 54.9824C100.799 55.0723 100.498 55.1172 100.15 55.1172ZM100.303 54.3086C100.99 54.3086 101.477 54.1133 101.762 53.7227C102.047 53.332 102.189 52.752 102.189 51.9824V51.8066C102.189 50.9902 102.053 50.3633 101.779 49.9258C101.51 49.4883 101.018 49.2695 100.303 49.2695C99.7051 49.2695 99.2578 49.5 98.9609 49.9609C98.6641 50.418 98.5156 51.043 98.5156 51.8359C98.5156 52.625 98.6621 53.2344 98.9551 53.6641C99.252 54.0938 99.7012 54.3086 100.303 54.3086ZM106.186 45.8828V48.1621C106.186 48.4238 106.178 48.6777 106.162 48.9238C106.15 49.1699 106.141 49.3613 106.133 49.498H106.186C106.361 49.209 106.615 48.9648 106.947 48.7656C107.279 48.5664 107.703 48.4668 108.219 48.4668C109.023 48.4668 109.664 48.7461 110.141 49.3047C110.621 49.8594 110.861 50.6855 110.861 51.7832C110.861 52.5059 110.752 53.1152 110.533 53.6113C110.314 54.1074 110.006 54.4824 109.607 54.7363C109.209 54.9902 108.738 55.1172 108.195 55.1172C107.688 55.1172 107.27 55.0234 106.941 54.8359C106.617 54.6445 106.367 54.4121 106.191 54.1387H106.115L105.916 55H105.213V45.8828H106.186ZM108.061 49.2812C107.596 49.2812 107.227 49.373 106.953 49.5566C106.68 49.7363 106.482 50.0098 106.361 50.377C106.244 50.7402 106.186 51.2012 106.186 51.7598V51.8125C106.186 52.6211 106.32 53.2402 106.59 53.6699C106.859 54.0957 107.35 54.3086 108.061 54.3086C108.658 54.3086 109.105 54.0898 109.402 53.6523C109.703 53.2148 109.854 52.5898 109.854 51.7773C109.854 50.9492 109.705 50.3262 109.408 49.9082C109.115 49.4902 108.666 49.2812 108.061 49.2812ZM114.963 48.4727C115.729 48.4727 116.297 48.6445 116.668 48.9883C117.039 49.332 117.225 49.8809 117.225 50.6348V55H116.516L116.328 54.0508H116.281C116.102 54.2852 115.914 54.4824 115.719 54.6426C115.523 54.7988 115.297 54.918 115.039 55C114.785 55.0781 114.473 55.1172 114.102 55.1172C113.711 55.1172 113.363 55.0488 113.059 54.9121C112.758 54.7754 112.52 54.5684 112.344 54.291C112.172 54.0137 112.086 53.6621 112.086 53.2363C112.086 52.5957 112.34 52.1035 112.848 51.7598C113.355 51.416 114.129 51.2285 115.168 51.1973L116.275 51.1504V50.7578C116.275 50.2031 116.156 49.8145 115.918 49.5918C115.68 49.3691 115.344 49.2578 114.91 49.2578C114.574 49.2578 114.254 49.3066 113.949 49.4043C113.645 49.502 113.355 49.6172 113.082 49.75L112.783 49.0117C113.072 48.8633 113.404 48.7363 113.779 48.6309C114.154 48.5254 114.549 48.4727 114.963 48.4727ZM116.264 51.8359L115.285 51.877C114.484 51.9082 113.92 52.0391 113.592 52.2695C113.264 52.5 113.1 52.8262 113.1 53.248C113.1 53.6152 113.211 53.8867 113.434 54.0625C113.656 54.2383 113.951 54.3262 114.318 54.3262C114.889 54.3262 115.355 54.168 115.719 53.8516C116.082 53.5352 116.264 53.0605 116.264 52.4277V51.8359ZM121.801 55.1172C121.223 55.1172 120.713 54.998 120.271 54.7598C119.83 54.5215 119.486 54.1582 119.24 53.6699C118.994 53.1816 118.871 52.5664 118.871 51.8242C118.871 51.0469 119 50.4121 119.258 49.9199C119.52 49.4238 119.879 49.0566 120.336 48.8184C120.793 48.5801 121.312 48.4609 121.895 48.4609C122.215 48.4609 122.523 48.4941 122.82 48.5605C123.121 48.623 123.367 48.7031 123.559 48.8008L123.266 49.6152C123.07 49.5371 122.844 49.4668 122.586 49.4043C122.332 49.3418 122.094 49.3105 121.871 49.3105C121.426 49.3105 121.055 49.4062 120.758 49.5977C120.465 49.7891 120.244 50.0703 120.096 50.4414C119.951 50.8125 119.879 51.2695 119.879 51.8125C119.879 52.332 119.949 52.7754 120.09 53.1426C120.234 53.5098 120.447 53.791 120.729 53.9863C121.014 54.1777 121.369 54.2734 121.795 54.2734C122.135 54.2734 122.441 54.2383 122.715 54.168C122.988 54.0938 123.236 54.0078 123.459 53.9102V54.7773C123.244 54.8867 123.004 54.9707 122.738 55.0293C122.477 55.0879 122.164 55.1172 121.801 55.1172ZM125.949 45.8828V50.6172C125.949 50.7734 125.943 50.9648 125.932 51.1914C125.92 51.4141 125.91 51.6113 125.902 51.7832H125.943C126.025 51.6816 126.145 51.5312 126.301 51.332C126.461 51.1328 126.596 50.9727 126.705 50.8516L128.838 48.5781H129.98L127.396 51.3203L130.168 55H128.996L126.729 51.959L125.949 52.6738V55H124.982V45.8828H125.949ZM135.377 45.8828V48.6074C135.377 48.7637 135.373 48.9219 135.365 49.082C135.357 49.2383 135.344 49.3828 135.324 49.5156H135.389C135.521 49.2891 135.689 49.0996 135.893 48.9473C136.1 48.791 136.334 48.6738 136.596 48.5957C136.857 48.5137 137.135 48.4727 137.428 48.4727C137.943 48.4727 138.373 48.5547 138.717 48.7188C139.064 48.8828 139.324 49.1367 139.496 49.4805C139.672 49.8242 139.76 50.2695 139.76 50.8164V55H138.799V50.8809C138.799 50.3457 138.676 49.9453 138.43 49.6797C138.188 49.4141 137.814 49.2812 137.311 49.2812C136.834 49.2812 136.453 49.373 136.168 49.5566C135.887 49.7363 135.684 50.002 135.559 50.3535C135.438 50.7051 135.377 51.1348 135.377 51.6426V55H134.404V45.8828H135.377ZM144.166 48.4727C144.932 48.4727 145.5 48.6445 145.871 48.9883C146.242 49.332 146.428 49.8809 146.428 50.6348V55H145.719L145.531 54.0508H145.484C145.305 54.2852 145.117 54.4824 144.922 54.6426C144.727 54.7988 144.5 54.918 144.242 55C143.988 55.0781 143.676 55.1172 143.305 55.1172C142.914 55.1172 142.566 55.0488 142.262 54.9121C141.961 54.7754 141.723 54.5684 141.547 54.291C141.375 54.0137 141.289 53.6621 141.289 53.2363C141.289 52.5957 141.543 52.1035 142.051 51.7598C142.559 51.416 143.332 51.2285 144.371 51.1973L145.479 51.1504V50.7578C145.479 50.2031 145.359 49.8145 145.121 49.5918C144.883 49.3691 144.547 49.2578 144.113 49.2578C143.777 49.2578 143.457 49.3066 143.152 49.4043C142.848 49.502 142.559 49.6172 142.285 49.75L141.986 49.0117C142.275 48.8633 142.607 48.7363 142.982 48.6309C143.357 48.5254 143.752 48.4727 144.166 48.4727ZM145.467 51.8359L144.488 51.877C143.688 51.9082 143.123 52.0391 142.795 52.2695C142.467 52.5 142.303 52.8262 142.303 53.248C142.303 53.6152 142.414 53.8867 142.637 54.0625C142.859 54.2383 143.154 54.3262 143.521 54.3262C144.092 54.3262 144.559 54.168 144.922 53.8516C145.285 53.5352 145.467 53.0605 145.467 52.4277V51.8359ZM152.586 53.2422C152.586 53.6523 152.482 53.998 152.275 54.2793C152.072 54.5566 151.779 54.7656 151.396 54.9062C151.018 55.0469 150.564 55.1172 150.037 55.1172C149.588 55.1172 149.199 55.082 148.871 55.0117C148.543 54.9414 148.256 54.8418 148.01 54.7129V53.8164C148.271 53.9453 148.584 54.0625 148.947 54.168C149.311 54.2734 149.682 54.3262 150.061 54.3262C150.615 54.3262 151.018 54.2363 151.268 54.0566C151.518 53.877 151.643 53.6328 151.643 53.3242C151.643 53.1484 151.592 52.9941 151.49 52.8613C151.393 52.7246 151.227 52.5938 150.992 52.4688C150.758 52.3398 150.434 52.1992 150.02 52.0469C149.609 51.8906 149.254 51.7363 148.953 51.584C148.656 51.4277 148.426 51.2383 148.262 51.0156C148.102 50.793 148.021 50.5039 148.021 50.1484C148.021 49.6055 148.24 49.1895 148.678 48.9004C149.119 48.6074 149.697 48.4609 150.412 48.4609C150.799 48.4609 151.16 48.5 151.496 48.5781C151.836 48.6523 152.152 48.7539 152.445 48.8828L152.117 49.6621C151.852 49.5488 151.568 49.4531 151.268 49.375C150.967 49.2969 150.66 49.2578 150.348 49.2578C149.898 49.2578 149.553 49.332 149.311 49.4805C149.072 49.6289 148.953 49.832 148.953 50.0898C148.953 50.2891 149.008 50.4531 149.117 50.582C149.23 50.7109 149.41 50.832 149.656 50.9453C149.902 51.0586 150.227 51.1914 150.629 51.3438C151.031 51.4922 151.379 51.6465 151.672 51.8066C151.965 51.9629 152.189 52.1543 152.346 52.3809C152.506 52.6035 152.586 52.8906 152.586 53.2422ZM158.24 45.8828V48.1621C158.24 48.4238 158.232 48.6777 158.217 48.9238C158.205 49.1699 158.195 49.3613 158.188 49.498H158.24C158.416 49.209 158.67 48.9648 159.002 48.7656C159.334 48.5664 159.758 48.4668 160.273 48.4668C161.078 48.4668 161.719 48.7461 162.195 49.3047C162.676 49.8594 162.916 50.6855 162.916 51.7832C162.916 52.5059 162.807 53.1152 162.588 53.6113C162.369 54.1074 162.061 54.4824 161.662 54.7363C161.264 54.9902 160.793 55.1172 160.25 55.1172C159.742 55.1172 159.324 55.0234 158.996 54.8359C158.672 54.6445 158.422 54.4121 158.246 54.1387H158.17L157.971 55H157.268V45.8828H158.24ZM160.115 49.2812C159.65 49.2812 159.281 49.373 159.008 49.5566C158.734 49.7363 158.537 50.0098 158.416 50.377C158.299 50.7402 158.24 51.2012 158.24 51.7598V51.8125C158.24 52.6211 158.375 53.2402 158.645 53.6699C158.914 54.0957 159.404 54.3086 160.115 54.3086C160.713 54.3086 161.16 54.0898 161.457 53.6523C161.758 53.2148 161.908 52.5898 161.908 51.7773C161.908 50.9492 161.76 50.3262 161.463 49.9082C161.17 49.4902 160.721 49.2812 160.115 49.2812ZM167.088 48.4609C167.635 48.4609 168.104 48.582 168.494 48.8242C168.885 49.0664 169.184 49.4062 169.391 49.8438C169.598 50.2773 169.701 50.7852 169.701 51.3672V51.9707H165.266C165.277 52.7246 165.465 53.2988 165.828 53.6934C166.191 54.0879 166.703 54.2852 167.363 54.2852C167.77 54.2852 168.129 54.248 168.441 54.1738C168.754 54.0996 169.078 53.9902 169.414 53.8457V54.7012C169.09 54.8457 168.768 54.9512 168.447 55.0176C168.131 55.084 167.756 55.1172 167.322 55.1172C166.705 55.1172 166.166 54.9922 165.705 54.7422C165.248 54.4883 164.893 54.1172 164.639 53.6289C164.385 53.1406 164.258 52.543 164.258 51.8359C164.258 51.1445 164.373 50.5469 164.604 50.043C164.838 49.5352 165.166 49.1445 165.588 48.8711C166.014 48.5977 166.514 48.4609 167.088 48.4609ZM167.076 49.2578C166.557 49.2578 166.143 49.4277 165.834 49.7676C165.525 50.1074 165.342 50.582 165.283 51.1914H168.682C168.678 50.8086 168.617 50.4727 168.5 50.1836C168.387 49.8906 168.213 49.6641 167.979 49.5039C167.744 49.3398 167.443 49.2578 167.076 49.2578ZM173.826 48.4609C174.373 48.4609 174.842 48.582 175.232 48.8242C175.623 49.0664 175.922 49.4062 176.129 49.8438C176.336 50.2773 176.439 50.7852 176.439 51.3672V51.9707H172.004C172.016 52.7246 172.203 53.2988 172.566 53.6934C172.93 54.0879 173.441 54.2852 174.102 54.2852C174.508 54.2852 174.867 54.248 175.18 54.1738C175.492 54.0996 175.816 53.9902 176.152 53.8457V54.7012C175.828 54.8457 175.506 54.9512 175.186 55.0176C174.869 55.084 174.494 55.1172 174.061 55.1172C173.443 55.1172 172.904 54.9922 172.443 54.7422C171.986 54.4883 171.631 54.1172 171.377 53.6289C171.123 53.1406 170.996 52.543 170.996 51.8359C170.996 51.1445 171.111 50.5469 171.342 50.043C171.576 49.5352 171.904 49.1445 172.326 48.8711C172.752 48.5977 173.252 48.4609 173.826 48.4609ZM173.814 49.2578C173.295 49.2578 172.881 49.4277 172.572 49.7676C172.264 50.1074 172.08 50.582 172.021 51.1914H175.42C175.416 50.8086 175.355 50.4727 175.238 50.1836C175.125 49.8906 174.951 49.6641 174.717 49.5039C174.482 49.3398 174.182 49.2578 173.814 49.2578ZM181.133 48.4609C181.895 48.4609 182.471 48.6484 182.861 49.0234C183.252 49.3945 183.447 49.9922 183.447 50.8164V55H182.486V50.8809C182.486 50.3457 182.363 49.9453 182.117 49.6797C181.875 49.4141 181.502 49.2812 180.998 49.2812C180.287 49.2812 179.787 49.4824 179.498 49.8848C179.209 50.2871 179.064 50.8711 179.064 51.6367V55H178.092V48.5781H178.877L179.023 49.5039H179.076C179.213 49.2773 179.387 49.0879 179.598 48.9355C179.809 48.7793 180.045 48.6621 180.307 48.584C180.568 48.502 180.844 48.4609 181.133 48.4609ZM192.723 53.2422C192.723 53.6523 192.619 53.998 192.412 54.2793C192.209 54.5566 191.916 54.7656 191.533 54.9062C191.154 55.0469 190.701 55.1172 190.174 55.1172C189.725 55.1172 189.336 55.082 189.008 55.0117C188.68 54.9414 188.393 54.8418 188.146 54.7129V53.8164C188.408 53.9453 188.721 54.0625 189.084 54.168C189.447 54.2734 189.818 54.3262 190.197 54.3262C190.752 54.3262 191.154 54.2363 191.404 54.0566C191.654 53.877 191.779 53.6328 191.779 53.3242C191.779 53.1484 191.729 52.9941 191.627 52.8613C191.529 52.7246 191.363 52.5938 191.129 52.4688C190.895 52.3398 190.57 52.1992 190.156 52.0469C189.746 51.8906 189.391 51.7363 189.09 51.584C188.793 51.4277 188.562 51.2383 188.398 51.0156C188.238 50.793 188.158 50.5039 188.158 50.1484C188.158 49.6055 188.377 49.1895 188.814 48.9004C189.256 48.6074 189.834 48.4609 190.549 48.4609C190.936 48.4609 191.297 48.5 191.633 48.5781C191.973 48.6523 192.289 48.7539 192.582 48.8828L192.254 49.6621C191.988 49.5488 191.705 49.4531 191.404 49.375C191.104 49.2969 190.797 49.2578 190.484 49.2578C190.035 49.2578 189.689 49.332 189.447 49.4805C189.209 49.6289 189.09 49.832 189.09 50.0898C189.09 50.2891 189.145 50.4531 189.254 50.582C189.367 50.7109 189.547 50.832 189.793 50.9453C190.039 51.0586 190.363 51.1914 190.766 51.3438C191.168 51.4922 191.516 51.6465 191.809 51.8066C192.102 51.9629 192.326 52.1543 192.482 52.3809C192.643 52.6035 192.723 52.8906 192.723 53.2422ZM199.59 48.5781V55H198.793L198.652 54.0977H198.6C198.467 54.3203 198.295 54.5078 198.084 54.6602C197.873 54.8125 197.635 54.9258 197.369 55C197.107 55.0781 196.828 55.1172 196.531 55.1172C196.023 55.1172 195.598 55.0352 195.254 54.8711C194.91 54.707 194.65 54.4531 194.475 54.1094C194.303 53.7656 194.217 53.3242 194.217 52.7852V48.5781H195.201V52.7148C195.201 53.25 195.322 53.6504 195.564 53.916C195.807 54.1777 196.176 54.3086 196.672 54.3086C197.148 54.3086 197.527 54.2188 197.809 54.0391C198.094 53.8594 198.299 53.5957 198.424 53.248C198.549 52.8965 198.611 52.4668 198.611 51.959V48.5781H199.59ZM204.219 55.1172C203.641 55.1172 203.131 54.998 202.689 54.7598C202.248 54.5215 201.904 54.1582 201.658 53.6699C201.412 53.1816 201.289 52.5664 201.289 51.8242C201.289 51.0469 201.418 50.4121 201.676 49.9199C201.938 49.4238 202.297 49.0566 202.754 48.8184C203.211 48.5801 203.73 48.4609 204.312 48.4609C204.633 48.4609 204.941 48.4941 205.238 48.5605C205.539 48.623 205.785 48.7031 205.977 48.8008L205.684 49.6152C205.488 49.5371 205.262 49.4668 205.004 49.4043C204.75 49.3418 204.512 49.3105 204.289 49.3105C203.844 49.3105 203.473 49.4062 203.176 49.5977C202.883 49.7891 202.662 50.0703 202.514 50.4414C202.369 50.8125 202.297 51.2695 202.297 51.8125C202.297 52.332 202.367 52.7754 202.508 53.1426C202.652 53.5098 202.865 53.791 203.146 53.9863C203.432 54.1777 203.787 54.2734 204.213 54.2734C204.553 54.2734 204.859 54.2383 205.133 54.168C205.406 54.0938 205.654 54.0078 205.877 53.9102V54.7773C205.662 54.8867 205.422 54.9707 205.156 55.0293C204.895 55.0879 204.582 55.1172 204.219 55.1172ZM209.973 55.1172C209.395 55.1172 208.885 54.998 208.443 54.7598C208.002 54.5215 207.658 54.1582 207.412 53.6699C207.166 53.1816 207.043 52.5664 207.043 51.8242C207.043 51.0469 207.172 50.4121 207.43 49.9199C207.691 49.4238 208.051 49.0566 208.508 48.8184C208.965 48.5801 209.484 48.4609 210.066 48.4609C210.387 48.4609 210.695 48.4941 210.992 48.5605C211.293 48.623 211.539 48.7031 211.73 48.8008L211.438 49.6152C211.242 49.5371 211.016 49.4668 210.758 49.4043C210.504 49.3418 210.266 49.3105 210.043 49.3105C209.598 49.3105 209.227 49.4062 208.93 49.5977C208.637 49.7891 208.416 50.0703 208.268 50.4414C208.123 50.8125 208.051 51.2695 208.051 51.8125C208.051 52.332 208.121 52.7754 208.262 53.1426C208.406 53.5098 208.619 53.791 208.9 53.9863C209.186 54.1777 209.541 54.2734 209.967 54.2734C210.307 54.2734 210.613 54.2383 210.887 54.168C211.16 54.0938 211.408 54.0078 211.631 53.9102V54.7773C211.416 54.8867 211.176 54.9707 210.91 55.0293C210.648 55.0879 210.336 55.1172 209.973 55.1172ZM215.627 48.4609C216.174 48.4609 216.643 48.582 217.033 48.8242C217.424 49.0664 217.723 49.4062 217.93 49.8438C218.137 50.2773 218.24 50.7852 218.24 51.3672V51.9707H213.805C213.816 52.7246 214.004 53.2988 214.367 53.6934C214.73 54.0879 215.242 54.2852 215.902 54.2852C216.309 54.2852 216.668 54.248 216.98 54.1738C217.293 54.0996 217.617 53.9902 217.953 53.8457V54.7012C217.629 54.8457 217.307 54.9512 216.986 55.0176C216.67 55.084 216.295 55.1172 215.861 55.1172C215.244 55.1172 214.705 54.9922 214.244 54.7422C213.787 54.4883 213.432 54.1172 213.178 53.6289C212.924 53.1406 212.797 52.543 212.797 51.8359C212.797 51.1445 212.912 50.5469 213.143 50.043C213.377 49.5352 213.705 49.1445 214.127 48.8711C214.553 48.5977 215.053 48.4609 215.627 48.4609ZM215.615 49.2578C215.096 49.2578 214.682 49.4277 214.373 49.7676C214.064 50.1074 213.881 50.582 213.822 51.1914H217.221C217.217 50.8086 217.156 50.4727 217.039 50.1836C216.926 49.8906 216.752 49.6641 216.518 49.5039C216.283 49.3398 215.982 49.2578 215.615 49.2578ZM224.047 53.2422C224.047 53.6523 223.943 53.998 223.736 54.2793C223.533 54.5566 223.24 54.7656 222.857 54.9062C222.479 55.0469 222.025 55.1172 221.498 55.1172C221.049 55.1172 220.66 55.082 220.332 55.0117C220.004 54.9414 219.717 54.8418 219.471 54.7129V53.8164C219.732 53.9453 220.045 54.0625 220.408 54.168C220.771 54.2734 221.143 54.3262 221.521 54.3262C222.076 54.3262 222.479 54.2363 222.729 54.0566C222.979 53.877 223.104 53.6328 223.104 53.3242C223.104 53.1484 223.053 52.9941 222.951 52.8613C222.854 52.7246 222.688 52.5938 222.453 52.4688C222.219 52.3398 221.895 52.1992 221.48 52.0469C221.07 51.8906 220.715 51.7363 220.414 51.584C220.117 51.4277 219.887 51.2383 219.723 51.0156C219.562 50.793 219.482 50.5039 219.482 50.1484C219.482 49.6055 219.701 49.1895 220.139 48.9004C220.58 48.6074 221.158 48.4609 221.873 48.4609C222.26 48.4609 222.621 48.5 222.957 48.5781C223.297 48.6523 223.613 48.7539 223.906 48.8828L223.578 49.6621C223.312 49.5488 223.029 49.4531 222.729 49.375C222.428 49.2969 222.121 49.2578 221.809 49.2578C221.359 49.2578 221.014 49.332 220.771 49.4805C220.533 49.6289 220.414 49.832 220.414 50.0898C220.414 50.2891 220.469 50.4531 220.578 50.582C220.691 50.7109 220.871 50.832 221.117 50.9453C221.363 51.0586 221.688 51.1914 222.09 51.3438C222.492 51.4922 222.84 51.6465 223.133 51.8066C223.426 51.9629 223.65 52.1543 223.807 52.3809C223.967 52.6035 224.047 52.8906 224.047 53.2422ZM229.766 53.2422C229.766 53.6523 229.662 53.998 229.455 54.2793C229.252 54.5566 228.959 54.7656 228.576 54.9062C228.197 55.0469 227.744 55.1172 227.217 55.1172C226.768 55.1172 226.379 55.082 226.051 55.0117C225.723 54.9414 225.436 54.8418 225.189 54.7129V53.8164C225.451 53.9453 225.764 54.0625 226.127 54.168C226.49 54.2734 226.861 54.3262 227.24 54.3262C227.795 54.3262 228.197 54.2363 228.447 54.0566C228.697 53.877 228.822 53.6328 228.822 53.3242C228.822 53.1484 228.771 52.9941 228.67 52.8613C228.572 52.7246 228.406 52.5938 228.172 52.4688C227.938 52.3398 227.613 52.1992 227.199 52.0469C226.789 51.8906 226.434 51.7363 226.133 51.584C225.836 51.4277 225.605 51.2383 225.441 51.0156C225.281 50.793 225.201 50.5039 225.201 50.1484C225.201 49.6055 225.42 49.1895 225.857 48.9004C226.299 48.6074 226.877 48.4609 227.592 48.4609C227.979 48.4609 228.34 48.5 228.676 48.5781C229.016 48.6523 229.332 48.7539 229.625 48.8828L229.297 49.6621C229.031 49.5488 228.748 49.4531 228.447 49.375C228.146 49.2969 227.84 49.2578 227.527 49.2578C227.078 49.2578 226.732 49.332 226.49 49.4805C226.252 49.6289 226.133 49.832 226.133 50.0898C226.133 50.2891 226.188 50.4531 226.297 50.582C226.41 50.7109 226.59 50.832 226.836 50.9453C227.082 51.0586 227.406 51.1914 227.809 51.3438C228.211 51.4922 228.559 51.6465 228.852 51.8066C229.145 51.9629 229.369 52.1543 229.525 52.3809C229.686 52.6035 229.766 52.8906 229.766 53.2422ZM234.189 49.3398H232.59V55H231.617V49.3398H230.48V48.8711L231.617 48.5488V48.1211C231.617 47.582 231.697 47.1445 231.857 46.8086C232.018 46.4688 232.25 46.2188 232.555 46.0586C232.859 45.8984 233.23 45.8184 233.668 45.8184C233.914 45.8184 234.139 45.8398 234.342 45.8828C234.549 45.9258 234.73 45.9746 234.887 46.0293L234.635 46.7969C234.502 46.7539 234.352 46.7148 234.184 46.6797C234.02 46.6406 233.852 46.6211 233.68 46.6211C233.309 46.6211 233.033 46.7422 232.854 46.9844C232.678 47.2227 232.59 47.5977 232.59 48.1094V48.5781H234.189V49.3398ZM240.676 48.5781V55H239.879L239.738 54.0977H239.686C239.553 54.3203 239.381 54.5078 239.17 54.6602C238.959 54.8125 238.721 54.9258 238.455 55C238.193 55.0781 237.914 55.1172 237.617 55.1172C237.109 55.1172 236.684 55.0352 236.34 54.8711C235.996 54.707 235.736 54.4531 235.561 54.1094C235.389 53.7656 235.303 53.3242 235.303 52.7852V48.5781H236.287V52.7148C236.287 53.25 236.408 53.6504 236.65 53.916C236.893 54.1777 237.262 54.3086 237.758 54.3086C238.234 54.3086 238.613 54.2188 238.895 54.0391C239.18 53.8594 239.385 53.5957 239.51 53.248C239.635 52.8965 239.697 52.4668 239.697 51.959V48.5781H240.676ZM243.711 55H242.732V45.8828H243.711V55ZM246.746 55H245.768V45.8828H246.746V55ZM247.789 48.5781H248.832L250.25 52.3047C250.332 52.5234 250.408 52.7344 250.479 52.9375C250.549 53.1367 250.611 53.3281 250.666 53.5117C250.721 53.6953 250.764 53.873 250.795 54.0449H250.836C250.891 53.8496 250.969 53.5938 251.07 53.2773C251.172 52.957 251.281 52.6309 251.398 52.2988L252.74 48.5781H253.789L250.994 55.9434C250.846 56.3379 250.672 56.6816 250.473 56.9746C250.277 57.2676 250.039 57.4922 249.758 57.6484C249.477 57.8086 249.137 57.8887 248.738 57.8887C248.555 57.8887 248.393 57.877 248.252 57.8535C248.111 57.834 247.99 57.8105 247.889 57.7832V57.0039C247.975 57.0234 248.078 57.041 248.199 57.0566C248.324 57.0723 248.453 57.0801 248.586 57.0801C248.828 57.0801 249.037 57.0332 249.213 56.9395C249.393 56.8496 249.547 56.7168 249.676 56.541C249.805 56.3652 249.916 56.1562 250.01 55.9141L250.361 55.0117L247.789 48.5781ZM262.086 53.2422C262.086 53.6523 261.982 53.998 261.775 54.2793C261.572 54.5566 261.279 54.7656 260.896 54.9062C260.518 55.0469 260.064 55.1172 259.537 55.1172C259.088 55.1172 258.699 55.082 258.371 55.0117C258.043 54.9414 257.756 54.8418 257.51 54.7129V53.8164C257.771 53.9453 258.084 54.0625 258.447 54.168C258.811 54.2734 259.182 54.3262 259.561 54.3262C260.115 54.3262 260.518 54.2363 260.768 54.0566C261.018 53.877 261.143 53.6328 261.143 53.3242C261.143 53.1484 261.092 52.9941 260.99 52.8613C260.893 52.7246 260.727 52.5938 260.492 52.4688C260.258 52.3398 259.934 52.1992 259.52 52.0469C259.109 51.8906 258.754 51.7363 258.453 51.584C258.156 51.4277 257.926 51.2383 257.762 51.0156C257.602 50.793 257.521 50.5039 257.521 50.1484C257.521 49.6055 257.74 49.1895 258.178 48.9004C258.619 48.6074 259.197 48.4609 259.912 48.4609C260.299 48.4609 260.66 48.5 260.996 48.5781C261.336 48.6523 261.652 48.7539 261.945 48.8828L261.617 49.6621C261.352 49.5488 261.068 49.4531 260.768 49.375C260.467 49.2969 260.16 49.2578 259.848 49.2578C259.398 49.2578 259.053 49.332 258.811 49.4805C258.572 49.6289 258.453 49.832 258.453 50.0898C258.453 50.2891 258.508 50.4531 258.617 50.582C258.73 50.7109 258.91 50.832 259.156 50.9453C259.402 51.0586 259.727 51.1914 260.129 51.3438C260.531 51.4922 260.879 51.6465 261.172 51.8066C261.465 51.9629 261.689 52.1543 261.846 52.3809C262.006 52.6035 262.086 52.8906 262.086 53.2422ZM266.123 48.4609C266.67 48.4609 267.139 48.582 267.529 48.8242C267.92 49.0664 268.219 49.4062 268.426 49.8438C268.633 50.2773 268.736 50.7852 268.736 51.3672V51.9707H264.301C264.312 52.7246 264.5 53.2988 264.863 53.6934C265.227 54.0879 265.738 54.2852 266.398 54.2852C266.805 54.2852 267.164 54.248 267.477 54.1738C267.789 54.0996 268.113 53.9902 268.449 53.8457V54.7012C268.125 54.8457 267.803 54.9512 267.482 55.0176C267.166 55.084 266.791 55.1172 266.357 55.1172C265.74 55.1172 265.201 54.9922 264.74 54.7422C264.283 54.4883 263.928 54.1172 263.674 53.6289C263.42 53.1406 263.293 52.543 263.293 51.8359C263.293 51.1445 263.408 50.5469 263.639 50.043C263.873 49.5352 264.201 49.1445 264.623 48.8711C265.049 48.5977 265.549 48.4609 266.123 48.4609ZM266.111 49.2578C265.592 49.2578 265.178 49.4277 264.869 49.7676C264.561 50.1074 264.377 50.582 264.318 51.1914H267.717C267.713 50.8086 267.652 50.4727 267.535 50.1836C267.422 49.8906 267.248 49.6641 267.014 49.5039C266.779 49.3398 266.479 49.2578 266.111 49.2578ZM273.43 48.4609C274.191 48.4609 274.768 48.6484 275.158 49.0234C275.549 49.3945 275.744 49.9922 275.744 50.8164V55H274.783V50.8809C274.783 50.3457 274.66 49.9453 274.414 49.6797C274.172 49.4141 273.799 49.2812 273.295 49.2812C272.584 49.2812 272.084 49.4824 271.795 49.8848C271.506 50.2871 271.361 50.8711 271.361 51.6367V55H270.389V48.5781H271.174L271.32 49.5039H271.373C271.51 49.2773 271.684 49.0879 271.895 48.9355C272.105 48.7793 272.342 48.6621 272.604 48.584C272.865 48.502 273.141 48.4609 273.43 48.4609ZM279.822 54.3203C279.982 54.3203 280.146 54.3066 280.314 54.2793C280.482 54.252 280.619 54.2188 280.725 54.1797V54.9355C280.611 54.9863 280.453 55.0293 280.25 55.0645C280.051 55.0996 279.855 55.1172 279.664 55.1172C279.324 55.1172 279.016 55.0586 278.738 54.9414C278.461 54.8203 278.238 54.6172 278.07 54.332C277.906 54.0469 277.824 53.6523 277.824 53.1484V49.3398H276.91V48.8652L277.83 48.4844L278.217 47.0898H278.803V48.5781H280.684V49.3398H278.803V53.1191C278.803 53.5215 278.895 53.8223 279.078 54.0215C279.266 54.2207 279.514 54.3203 279.822 54.3203ZM281.879 54.3906C281.879 54.1172 281.945 53.9238 282.078 53.8105C282.211 53.6934 282.373 53.6348 282.564 53.6348C282.764 53.6348 282.932 53.6934 283.068 53.8105C283.205 53.9238 283.273 54.1172 283.273 54.3906C283.273 54.6602 283.205 54.8574 283.068 54.9824C282.932 55.1035 282.764 55.1641 282.564 55.1641C282.373 55.1641 282.211 55.1035 282.078 54.9824C281.945 54.8574 281.879 54.6602 281.879 54.3906ZM291.072 55H290.07V47.3125H287.375V46.4336H293.756V47.3125H291.072V55ZM295.877 45.8828V48.6074C295.877 48.7637 295.873 48.9219 295.865 49.082C295.857 49.2383 295.844 49.3828 295.824 49.5156H295.889C296.021 49.2891 296.189 49.0996 296.393 48.9473C296.6 48.791 296.834 48.6738 297.096 48.5957C297.357 48.5137 297.635 48.4727 297.928 48.4727C298.443 48.4727 298.873 48.5547 299.217 48.7188C299.564 48.8828 299.824 49.1367 299.996 49.4805C300.172 49.8242 300.26 50.2695 300.26 50.8164V55H299.299V50.8809C299.299 50.3457 299.176 49.9453 298.93 49.6797C298.688 49.4141 298.314 49.2812 297.811 49.2812C297.334 49.2812 296.953 49.373 296.668 49.5566C296.387 49.7363 296.184 50.002 296.059 50.3535C295.938 50.7051 295.877 51.1348 295.877 51.6426V55H294.904V45.8828H295.877ZM304.666 48.4727C305.432 48.4727 306 48.6445 306.371 48.9883C306.742 49.332 306.928 49.8809 306.928 50.6348V55H306.219L306.031 54.0508H305.984C305.805 54.2852 305.617 54.4824 305.422 54.6426C305.227 54.7988 305 54.918 304.742 55C304.488 55.0781 304.176 55.1172 303.805 55.1172C303.414 55.1172 303.066 55.0488 302.762 54.9121C302.461 54.7754 302.223 54.5684 302.047 54.291C301.875 54.0137 301.789 53.6621 301.789 53.2363C301.789 52.5957 302.043 52.1035 302.551 51.7598C303.059 51.416 303.832 51.2285 304.871 51.1973L305.979 51.1504V50.7578C305.979 50.2031 305.859 49.8145 305.621 49.5918C305.383 49.3691 305.047 49.2578 304.613 49.2578C304.277 49.2578 303.957 49.3066 303.652 49.4043C303.348 49.502 303.059 49.6172 302.785 49.75L302.486 49.0117C302.775 48.8633 303.107 48.7363 303.482 48.6309C303.857 48.5254 304.252 48.4727 304.666 48.4727ZM305.967 51.8359L304.988 51.877C304.188 51.9082 303.623 52.0391 303.295 52.2695C302.967 52.5 302.803 52.8262 302.803 53.248C302.803 53.6152 302.914 53.8867 303.137 54.0625C303.359 54.2383 303.654 54.3262 304.021 54.3262C304.592 54.3262 305.059 54.168 305.422 53.8516C305.785 53.5352 305.967 53.0605 305.967 52.4277V51.8359ZM311.973 48.4609C312.734 48.4609 313.311 48.6484 313.701 49.0234C314.092 49.3945 314.287 49.9922 314.287 50.8164V55H313.326V50.8809C313.326 50.3457 313.203 49.9453 312.957 49.6797C312.715 49.4141 312.342 49.2812 311.838 49.2812C311.127 49.2812 310.627 49.4824 310.338 49.8848C310.049 50.2871 309.904 50.8711 309.904 51.6367V55H308.932V48.5781H309.717L309.863 49.5039H309.916C310.053 49.2773 310.227 49.0879 310.438 48.9355C310.648 48.7793 310.885 48.6621 311.146 48.584C311.408 48.502 311.684 48.4609 311.973 48.4609ZM317.258 45.8828V50.6172C317.258 50.7734 317.252 50.9648 317.24 51.1914C317.229 51.4141 317.219 51.6113 317.211 51.7832H317.252C317.334 51.6816 317.453 51.5312 317.609 51.332C317.77 51.1328 317.904 50.9727 318.014 50.8516L320.146 48.5781H321.289L318.705 51.3203L321.477 55H320.305L318.037 51.959L317.258 52.6738V55H316.291V45.8828H317.258ZM326.75 53.2422C326.75 53.6523 326.646 53.998 326.439 54.2793C326.236 54.5566 325.943 54.7656 325.561 54.9062C325.182 55.0469 324.729 55.1172 324.201 55.1172C323.752 55.1172 323.363 55.082 323.035 55.0117C322.707 54.9414 322.42 54.8418 322.174 54.7129V53.8164C322.436 53.9453 322.748 54.0625 323.111 54.168C323.475 54.2734 323.846 54.3262 324.225 54.3262C324.779 54.3262 325.182 54.2363 325.432 54.0566C325.682 53.877 325.807 53.6328 325.807 53.3242C325.807 53.1484 325.756 52.9941 325.654 52.8613C325.557 52.7246 325.391 52.5938 325.156 52.4688C324.922 52.3398 324.598 52.1992 324.184 52.0469C323.773 51.8906 323.418 51.7363 323.117 51.584C322.82 51.4277 322.59 51.2383 322.426 51.0156C322.266 50.793 322.186 50.5039 322.186 50.1484C322.186 49.6055 322.404 49.1895 322.842 48.9004C323.283 48.6074 323.861 48.4609 324.576 48.4609C324.963 48.4609 325.324 48.5 325.66 48.5781C326 48.6523 326.316 48.7539 326.609 48.8828L326.281 49.6621C326.016 49.5488 325.732 49.4531 325.432 49.375C325.131 49.2969 324.824 49.2578 324.512 49.2578C324.062 49.2578 323.717 49.332 323.475 49.4805C323.236 49.6289 323.117 49.832 323.117 50.0898C323.117 50.2891 323.172 50.4531 323.281 50.582C323.395 50.7109 323.574 50.832 323.82 50.9453C324.066 51.0586 324.391 51.1914 324.793 51.3438C325.195 51.4922 325.543 51.6465 325.836 51.8066C326.129 51.9629 326.354 52.1543 326.51 52.3809C326.67 52.6035 326.75 52.8906 326.75 53.2422ZM334.291 49.3398H332.691V55H331.719V49.3398H330.582V48.8711L331.719 48.5488V48.1211C331.719 47.582 331.799 47.1445 331.959 46.8086C332.119 46.4688 332.352 46.2188 332.656 46.0586C332.961 45.8984 333.332 45.8184 333.77 45.8184C334.016 45.8184 334.24 45.8398 334.443 45.8828C334.65 45.9258 334.832 45.9746 334.988 46.0293L334.736 46.7969C334.604 46.7539 334.453 46.7148 334.285 46.6797C334.121 46.6406 333.953 46.6211 333.781 46.6211C333.41 46.6211 333.135 46.7422 332.955 46.9844C332.779 47.2227 332.691 47.5977 332.691 48.1094V48.5781H334.291V49.3398ZM341.012 51.7773C341.012 52.3047 340.943 52.7754 340.807 53.1895C340.67 53.6035 340.473 53.9531 340.215 54.2383C339.957 54.5234 339.645 54.7422 339.277 54.8945C338.914 55.043 338.502 55.1172 338.041 55.1172C337.611 55.1172 337.217 55.043 336.857 54.8945C336.502 54.7422 336.193 54.5234 335.932 54.2383C335.674 53.9531 335.473 53.6035 335.328 53.1895C335.188 52.7754 335.117 52.3047 335.117 51.7773C335.117 51.0742 335.236 50.4766 335.475 49.9844C335.713 49.4883 336.053 49.1113 336.494 48.8535C336.939 48.5918 337.469 48.4609 338.082 48.4609C338.668 48.4609 339.18 48.5918 339.617 48.8535C340.059 49.1152 340.4 49.4941 340.643 49.9902C340.889 50.4824 341.012 51.0781 341.012 51.7773ZM336.125 51.7773C336.125 52.293 336.193 52.7402 336.33 53.1191C336.467 53.498 336.678 53.791 336.963 53.998C337.248 54.2051 337.615 54.3086 338.064 54.3086C338.51 54.3086 338.875 54.2051 339.16 53.998C339.449 53.791 339.662 53.498 339.799 53.1191C339.936 52.7402 340.004 52.293 340.004 51.7773C340.004 51.2656 339.936 50.8242 339.799 50.4531C339.662 50.0781 339.451 49.7891 339.166 49.5859C338.881 49.3828 338.512 49.2812 338.059 49.2812C337.391 49.2812 336.9 49.502 336.588 49.9434C336.279 50.3848 336.125 50.9961 336.125 51.7773ZM345.611 48.4609C345.74 48.4609 345.875 48.4688 346.016 48.4844C346.156 48.4961 346.281 48.5137 346.391 48.5371L346.268 49.4395C346.162 49.4121 346.045 49.3906 345.916 49.375C345.787 49.3594 345.666 49.3516 345.553 49.3516C345.295 49.3516 345.051 49.4043 344.82 49.5098C344.594 49.6113 344.395 49.7598 344.223 49.9551C344.051 50.1465 343.916 50.3789 343.818 50.6523C343.721 50.9219 343.672 51.2227 343.672 51.5547V55H342.693V48.5781H343.502L343.607 49.7617H343.648C343.781 49.5234 343.941 49.3066 344.129 49.1113C344.316 48.9121 344.533 48.7539 344.779 48.6367C345.029 48.5195 345.307 48.4609 345.611 48.4609ZM352.795 54.3203C352.955 54.3203 353.119 54.3066 353.287 54.2793C353.455 54.252 353.592 54.2188 353.697 54.1797V54.9355C353.584 54.9863 353.426 55.0293 353.223 55.0645C353.023 55.0996 352.828 55.1172 352.637 55.1172C352.297 55.1172 351.988 55.0586 351.711 54.9414C351.434 54.8203 351.211 54.6172 351.043 54.332C350.879 54.0469 350.797 53.6523 350.797 53.1484V49.3398H349.883V48.8652L350.803 48.4844L351.189 47.0898H351.775V48.5781H353.656V49.3398H351.775V53.1191C351.775 53.5215 351.867 53.8223 352.051 54.0215C352.238 54.2207 352.486 54.3203 352.795 54.3203ZM357.4 48.4727C358.166 48.4727 358.734 48.6445 359.105 48.9883C359.477 49.332 359.662 49.8809 359.662 50.6348V55H358.953L358.766 54.0508H358.719C358.539 54.2852 358.352 54.4824 358.156 54.6426C357.961 54.7988 357.734 54.918 357.477 55C357.223 55.0781 356.91 55.1172 356.539 55.1172C356.148 55.1172 355.801 55.0488 355.496 54.9121C355.195 54.7754 354.957 54.5684 354.781 54.291C354.609 54.0137 354.523 53.6621 354.523 53.2363C354.523 52.5957 354.777 52.1035 355.285 51.7598C355.793 51.416 356.566 51.2285 357.605 51.1973L358.713 51.1504V50.7578C358.713 50.2031 358.594 49.8145 358.355 49.5918C358.117 49.3691 357.781 49.2578 357.348 49.2578C357.012 49.2578 356.691 49.3066 356.387 49.4043C356.082 49.502 355.793 49.6172 355.52 49.75L355.221 49.0117C355.51 48.8633 355.842 48.7363 356.217 48.6309C356.592 48.5254 356.986 48.4727 357.4 48.4727ZM358.701 51.8359L357.723 51.877C356.922 51.9082 356.357 52.0391 356.029 52.2695C355.701 52.5 355.537 52.8262 355.537 53.248C355.537 53.6152 355.648 53.8867 355.871 54.0625C356.094 54.2383 356.389 54.3262 356.756 54.3262C357.326 54.3262 357.793 54.168 358.156 53.8516C358.52 53.5352 358.701 53.0605 358.701 52.4277V51.8359ZM362.633 45.8828V50.6172C362.633 50.7734 362.627 50.9648 362.615 51.1914C362.604 51.4141 362.594 51.6113 362.586 51.7832H362.627C362.709 51.6816 362.828 51.5312 362.984 51.332C363.145 51.1328 363.279 50.9727 363.389 50.8516L365.521 48.5781H366.664L364.08 51.3203L366.852 55H365.68L363.412 51.959L362.633 52.6738V55H361.666V45.8828H362.633ZM368.943 48.5781V55H367.971V48.5781H368.943ZM368.469 46.1758C368.629 46.1758 368.766 46.2285 368.879 46.334C368.996 46.4355 369.055 46.5957 369.055 46.8145C369.055 47.0293 368.996 47.1895 368.879 47.2949C368.766 47.4004 368.629 47.4531 368.469 47.4531C368.301 47.4531 368.16 47.4004 368.047 47.2949C367.938 47.1895 367.883 47.0293 367.883 46.8145C367.883 46.5957 367.938 46.4355 368.047 46.334C368.16 46.2285 368.301 46.1758 368.469 46.1758ZM374.047 48.4609C374.809 48.4609 375.385 48.6484 375.775 49.0234C376.166 49.3945 376.361 49.9922 376.361 50.8164V55H375.4V50.8809C375.4 50.3457 375.277 49.9453 375.031 49.6797C374.789 49.4141 374.416 49.2812 373.912 49.2812C373.201 49.2812 372.701 49.4824 372.412 49.8848C372.123 50.2871 371.979 50.8711 371.979 51.6367V55H371.006V48.5781H371.791L371.938 49.5039H371.99C372.127 49.2773 372.301 49.0879 372.512 48.9355C372.723 48.7793 372.959 48.6621 373.221 48.584C373.482 48.502 373.758 48.4609 374.047 48.4609ZM380.158 57.8828C379.314 57.8828 378.664 57.7246 378.207 57.4082C377.75 57.0957 377.521 56.6562 377.521 56.0898C377.521 55.6875 377.648 55.3438 377.902 55.0586C378.16 54.7734 378.516 54.584 378.969 54.4902C378.801 54.4121 378.656 54.2949 378.535 54.1387C378.418 53.9824 378.359 53.8027 378.359 53.5996C378.359 53.3652 378.424 53.1602 378.553 52.9844C378.686 52.8047 378.887 52.6328 379.156 52.4688C378.82 52.332 378.547 52.1016 378.336 51.7773C378.129 51.4492 378.025 51.0684 378.025 50.6348C378.025 50.1738 378.121 49.7812 378.312 49.457C378.504 49.1289 378.781 48.8789 379.145 48.707C379.508 48.5352 379.947 48.4492 380.463 48.4492C380.576 48.4492 380.689 48.4551 380.803 48.4668C380.92 48.4746 381.031 48.4883 381.137 48.5078C381.242 48.5234 381.334 48.543 381.412 48.5664H383.615V49.1934L382.432 49.3398C382.549 49.4922 382.646 49.6758 382.725 49.8906C382.803 50.1055 382.842 50.3438 382.842 50.6055C382.842 51.2461 382.625 51.7559 382.191 52.1348C381.758 52.5098 381.162 52.6973 380.404 52.6973C380.225 52.6973 380.041 52.6816 379.854 52.6504C379.662 52.7559 379.516 52.873 379.414 53.002C379.316 53.1309 379.268 53.2793 379.268 53.4473C379.268 53.5723 379.305 53.6719 379.379 53.7461C379.457 53.8203 379.568 53.875 379.713 53.9102C379.857 53.9414 380.031 53.957 380.234 53.957H381.365C382.064 53.957 382.6 54.1035 382.971 54.3965C383.346 54.6895 383.533 55.1172 383.533 55.6797C383.533 56.3906 383.244 56.9355 382.666 57.3145C382.088 57.6934 381.252 57.8828 380.158 57.8828ZM380.188 57.1211C380.719 57.1211 381.158 57.0664 381.506 56.957C381.857 56.8516 382.119 56.6973 382.291 56.4941C382.467 56.2949 382.555 56.0566 382.555 55.7793C382.555 55.5215 382.496 55.3262 382.379 55.1934C382.262 55.0645 382.09 54.9785 381.863 54.9355C381.637 54.8887 381.359 54.8652 381.031 54.8652H379.918C379.629 54.8652 379.377 54.9102 379.162 55C378.947 55.0898 378.781 55.2227 378.664 55.3984C378.551 55.5742 378.494 55.793 378.494 56.0547C378.494 56.4023 378.641 56.666 378.934 56.8457C379.227 57.0293 379.645 57.1211 380.188 57.1211ZM380.439 51.9883C380.904 51.9883 381.254 51.8711 381.488 51.6367C381.723 51.4023 381.84 51.0605 381.84 50.6113C381.84 50.1309 381.721 49.7715 381.482 49.5332C381.244 49.291 380.893 49.1699 380.428 49.1699C379.982 49.1699 379.639 49.2949 379.396 49.5449C379.158 49.791 379.039 50.1523 379.039 50.6289C379.039 51.0664 379.16 51.4023 379.402 51.6367C379.645 51.8711 379.99 51.9883 380.439 51.9883ZM390.072 54.3203C390.232 54.3203 390.396 54.3066 390.564 54.2793C390.732 54.252 390.869 54.2188 390.975 54.1797V54.9355C390.861 54.9863 390.703 55.0293 390.5 55.0645C390.301 55.0996 390.105 55.1172 389.914 55.1172C389.574 55.1172 389.266 55.0586 388.988 54.9414C388.711 54.8203 388.488 54.6172 388.32 54.332C388.156 54.0469 388.074 53.6523 388.074 53.1484V49.3398H387.16V48.8652L388.08 48.4844L388.467 47.0898H389.053V48.5781H390.934V49.3398H389.053V53.1191C389.053 53.5215 389.145 53.8223 389.328 54.0215C389.516 54.2207 389.764 54.3203 390.072 54.3203ZM393.248 45.8828V48.6074C393.248 48.7637 393.244 48.9219 393.236 49.082C393.229 49.2383 393.215 49.3828 393.195 49.5156H393.26C393.393 49.2891 393.561 49.0996 393.764 48.9473C393.971 48.791 394.205 48.6738 394.467 48.5957C394.729 48.5137 395.006 48.4727 395.299 48.4727C395.814 48.4727 396.244 48.5547 396.588 48.7188C396.936 48.8828 397.195 49.1367 397.367 49.4805C397.543 49.8242 397.631 50.2695 397.631 50.8164V55H396.67V50.8809C396.67 50.3457 396.547 49.9453 396.301 49.6797C396.059 49.4141 395.686 49.2812 395.182 49.2812C394.705 49.2812 394.324 49.373 394.039 49.5566C393.758 49.7363 393.555 50.002 393.43 50.3535C393.309 50.7051 393.248 51.1348 393.248 51.6426V55H392.275V45.8828H393.248ZM402.107 48.4609C402.654 48.4609 403.123 48.582 403.514 48.8242C403.904 49.0664 404.203 49.4062 404.41 49.8438C404.617 50.2773 404.721 50.7852 404.721 51.3672V51.9707H400.285C400.297 52.7246 400.484 53.2988 400.848 53.6934C401.211 54.0879 401.723 54.2852 402.383 54.2852C402.789 54.2852 403.148 54.248 403.461 54.1738C403.773 54.0996 404.098 53.9902 404.434 53.8457V54.7012C404.109 54.8457 403.787 54.9512 403.467 55.0176C403.15 55.084 402.775 55.1172 402.342 55.1172C401.725 55.1172 401.186 54.9922 400.725 54.7422C400.268 54.4883 399.912 54.1172 399.658 53.6289C399.404 53.1406 399.277 52.543 399.277 51.8359C399.277 51.1445 399.393 50.5469 399.623 50.043C399.857 49.5352 400.186 49.1445 400.607 48.8711C401.033 48.5977 401.533 48.4609 402.107 48.4609ZM402.096 49.2578C401.576 49.2578 401.162 49.4277 400.854 49.7676C400.545 50.1074 400.361 50.582 400.303 51.1914H403.701C403.697 50.8086 403.637 50.4727 403.52 50.1836C403.406 49.8906 403.232 49.6641 402.998 49.5039C402.764 49.3398 402.463 49.2578 402.096 49.2578ZM411.564 54.3203C411.725 54.3203 411.889 54.3066 412.057 54.2793C412.225 54.252 412.361 54.2188 412.467 54.1797V54.9355C412.354 54.9863 412.195 55.0293 411.992 55.0645C411.793 55.0996 411.598 55.1172 411.406 55.1172C411.066 55.1172 410.758 55.0586 410.48 54.9414C410.203 54.8203 409.98 54.6172 409.812 54.332C409.648 54.0469 409.566 53.6523 409.566 53.1484V49.3398H408.652V48.8652L409.572 48.4844L409.959 47.0898H410.545V48.5781H412.426V49.3398H410.545V53.1191C410.545 53.5215 410.637 53.8223 410.82 54.0215C411.008 54.2207 411.256 54.3203 411.564 54.3203ZM414.74 48.5781V55H413.768V48.5781H414.74ZM414.266 46.1758C414.426 46.1758 414.562 46.2285 414.676 46.334C414.793 46.4355 414.852 46.5957 414.852 46.8145C414.852 47.0293 414.793 47.1895 414.676 47.2949C414.562 47.4004 414.426 47.4531 414.266 47.4531C414.098 47.4531 413.957 47.4004 413.844 47.2949C413.734 47.1895 413.68 47.0293 413.68 46.8145C413.68 46.5957 413.734 46.4355 413.844 46.334C413.957 46.2285 414.098 46.1758 414.266 46.1758ZM423.775 48.4609C424.482 48.4609 425.016 48.6465 425.375 49.0176C425.734 49.3848 425.914 49.9766 425.914 50.793V55H424.953V50.8398C424.953 50.3203 424.84 49.9316 424.613 49.6738C424.391 49.4121 424.059 49.2812 423.617 49.2812C422.996 49.2812 422.545 49.4609 422.264 49.8203C421.982 50.1797 421.842 50.709 421.842 51.4082V55H420.875V50.8398C420.875 50.4922 420.824 50.2031 420.723 49.9727C420.625 49.7422 420.477 49.5703 420.277 49.457C420.082 49.3398 419.834 49.2812 419.533 49.2812C419.107 49.2812 418.766 49.3691 418.508 49.5449C418.25 49.7207 418.062 49.9824 417.945 50.3301C417.832 50.6738 417.775 51.0977 417.775 51.6016V55H416.803V48.5781H417.588L417.734 49.4863H417.787C417.916 49.2637 418.078 49.0762 418.273 48.9238C418.469 48.7715 418.688 48.6562 418.93 48.5781C419.172 48.5 419.43 48.4609 419.703 48.4609C420.191 48.4609 420.6 48.5527 420.928 48.7363C421.26 48.916 421.5 49.1914 421.648 49.5625H421.701C421.912 49.1914 422.201 48.916 422.568 48.7363C422.936 48.5527 423.338 48.4609 423.775 48.4609ZM430.385 48.4609C430.932 48.4609 431.4 48.582 431.791 48.8242C432.182 49.0664 432.48 49.4062 432.688 49.8438C432.895 50.2773 432.998 50.7852 432.998 51.3672V51.9707H428.562C428.574 52.7246 428.762 53.2988 429.125 53.6934C429.488 54.0879 430 54.2852 430.66 54.2852C431.066 54.2852 431.426 54.248 431.738 54.1738C432.051 54.0996 432.375 53.9902 432.711 53.8457V54.7012C432.387 54.8457 432.064 54.9512 431.744 55.0176C431.428 55.084 431.053 55.1172 430.619 55.1172C430.002 55.1172 429.463 54.9922 429.002 54.7422C428.545 54.4883 428.189 54.1172 427.936 53.6289C427.682 53.1406 427.555 52.543 427.555 51.8359C427.555 51.1445 427.67 50.5469 427.9 50.043C428.135 49.5352 428.463 49.1445 428.885 48.8711C429.311 48.5977 429.811 48.4609 430.385 48.4609ZM430.373 49.2578C429.854 49.2578 429.439 49.4277 429.131 49.7676C428.822 50.1074 428.639 50.582 428.58 51.1914H431.979C431.975 50.8086 431.914 50.4727 431.797 50.1836C431.684 49.8906 431.51 49.6641 431.275 49.5039C431.041 49.3398 430.74 49.2578 430.373 49.2578ZM439.842 54.3203C440.002 54.3203 440.166 54.3066 440.334 54.2793C440.502 54.252 440.639 54.2188 440.744 54.1797V54.9355C440.631 54.9863 440.473 55.0293 440.27 55.0645C440.07 55.0996 439.875 55.1172 439.684 55.1172C439.344 55.1172 439.035 55.0586 438.758 54.9414C438.48 54.8203 438.258 54.6172 438.09 54.332C437.926 54.0469 437.844 53.6523 437.844 53.1484V49.3398H436.93V48.8652L437.85 48.4844L438.236 47.0898H438.822V48.5781H440.703V49.3398H438.822V53.1191C438.822 53.5215 438.914 53.8223 439.098 54.0215C439.285 54.2207 439.533 54.3203 439.842 54.3203ZM447.582 51.7773C447.582 52.3047 447.514 52.7754 447.377 53.1895C447.24 53.6035 447.043 53.9531 446.785 54.2383C446.527 54.5234 446.215 54.7422 445.848 54.8945C445.484 55.043 445.072 55.1172 444.611 55.1172C444.182 55.1172 443.787 55.043 443.428 54.8945C443.072 54.7422 442.764 54.5234 442.502 54.2383C442.244 53.9531 442.043 53.6035 441.898 53.1895C441.758 52.7754 441.688 52.3047 441.688 51.7773C441.688 51.0742 441.807 50.4766 442.045 49.9844C442.283 49.4883 442.623 49.1113 443.064 48.8535C443.51 48.5918 444.039 48.4609 444.652 48.4609C445.238 48.4609 445.75 48.5918 446.188 48.8535C446.629 49.1152 446.971 49.4941 447.213 49.9902C447.459 50.4824 447.582 51.0781 447.582 51.7773ZM442.695 51.7773C442.695 52.293 442.764 52.7402 442.9 53.1191C443.037 53.498 443.248 53.791 443.533 53.998C443.818 54.2051 444.186 54.3086 444.635 54.3086C445.08 54.3086 445.445 54.2051 445.73 53.998C446.02 53.791 446.232 53.498 446.369 53.1191C446.506 52.7402 446.574 52.293 446.574 51.7773C446.574 51.2656 446.506 50.8242 446.369 50.4531C446.232 50.0781 446.021 49.7891 445.736 49.5859C445.451 49.3828 445.082 49.2812 444.629 49.2812C443.961 49.2812 443.471 49.502 443.158 49.9434C442.85 50.3848 442.695 50.9961 442.695 51.7773ZM456.535 53.2422C456.535 53.6523 456.432 53.998 456.225 54.2793C456.021 54.5566 455.729 54.7656 455.346 54.9062C454.967 55.0469 454.514 55.1172 453.986 55.1172C453.537 55.1172 453.148 55.082 452.82 55.0117C452.492 54.9414 452.205 54.8418 451.959 54.7129V53.8164C452.221 53.9453 452.533 54.0625 452.896 54.168C453.26 54.2734 453.631 54.3262 454.01 54.3262C454.564 54.3262 454.967 54.2363 455.217 54.0566C455.467 53.877 455.592 53.6328 455.592 53.3242C455.592 53.1484 455.541 52.9941 455.439 52.8613C455.342 52.7246 455.176 52.5938 454.941 52.4688C454.707 52.3398 454.383 52.1992 453.969 52.0469C453.559 51.8906 453.203 51.7363 452.902 51.584C452.605 51.4277 452.375 51.2383 452.211 51.0156C452.051 50.793 451.971 50.5039 451.971 50.1484C451.971 49.6055 452.189 49.1895 452.627 48.9004C453.068 48.6074 453.646 48.4609 454.361 48.4609C454.748 48.4609 455.109 48.5 455.445 48.5781C455.785 48.6523 456.102 48.7539 456.395 48.8828L456.066 49.6621C455.801 49.5488 455.518 49.4531 455.217 49.375C454.916 49.2969 454.609 49.2578 454.297 49.2578C453.848 49.2578 453.502 49.332 453.26 49.4805C453.021 49.6289 452.902 49.832 452.902 50.0898C452.902 50.2891 452.957 50.4531 453.066 50.582C453.18 50.7109 453.359 50.832 453.605 50.9453C453.852 51.0586 454.176 51.1914 454.578 51.3438C454.98 51.4922 455.328 51.6465 455.621 51.8066C455.914 51.9629 456.139 52.1543 456.295 52.3809C456.455 52.6035 456.535 52.8906 456.535 53.2422ZM459.072 45.8828V48.6074C459.072 48.7637 459.068 48.9219 459.061 49.082C459.053 49.2383 459.039 49.3828 459.02 49.5156H459.084C459.217 49.2891 459.385 49.0996 459.588 48.9473C459.795 48.791 460.029 48.6738 460.291 48.5957C460.553 48.5137 460.83 48.4727 461.123 48.4727C461.639 48.4727 462.068 48.5547 462.412 48.7188C462.76 48.8828 463.02 49.1367 463.191 49.4805C463.367 49.8242 463.455 50.2695 463.455 50.8164V55H462.494V50.8809C462.494 50.3457 462.371 49.9453 462.125 49.6797C461.883 49.4141 461.51 49.2812 461.006 49.2812C460.529 49.2812 460.148 49.373 459.863 49.5566C459.582 49.7363 459.379 50.002 459.254 50.3535C459.133 50.7051 459.072 51.1348 459.072 51.6426V55H458.1V45.8828H459.072ZM467.861 48.4727C468.627 48.4727 469.195 48.6445 469.566 48.9883C469.938 49.332 470.123 49.8809 470.123 50.6348V55H469.414L469.227 54.0508H469.18C469 54.2852 468.812 54.4824 468.617 54.6426C468.422 54.7988 468.195 54.918 467.938 55C467.684 55.0781 467.371 55.1172 467 55.1172C466.609 55.1172 466.262 55.0488 465.957 54.9121C465.656 54.7754 465.418 54.5684 465.242 54.291C465.07 54.0137 464.984 53.6621 464.984 53.2363C464.984 52.5957 465.238 52.1035 465.746 51.7598C466.254 51.416 467.027 51.2285 468.066 51.1973L469.174 51.1504V50.7578C469.174 50.2031 469.055 49.8145 468.816 49.5918C468.578 49.3691 468.242 49.2578 467.809 49.2578C467.473 49.2578 467.152 49.3066 466.848 49.4043C466.543 49.502 466.254 49.6172 465.98 49.75L465.682 49.0117C465.971 48.8633 466.303 48.7363 466.678 48.6309C467.053 48.5254 467.447 48.4727 467.861 48.4727ZM469.162 51.8359L468.184 51.877C467.383 51.9082 466.818 52.0391 466.49 52.2695C466.162 52.5 465.998 52.8262 465.998 53.248C465.998 53.6152 466.109 53.8867 466.332 54.0625C466.555 54.2383 466.85 54.3262 467.217 54.3262C467.787 54.3262 468.254 54.168 468.617 53.8516C468.98 53.5352 469.162 53.0605 469.162 52.4277V51.8359ZM475.045 48.4609C475.174 48.4609 475.309 48.4688 475.449 48.4844C475.59 48.4961 475.715 48.5137 475.824 48.5371L475.701 49.4395C475.596 49.4121 475.479 49.3906 475.35 49.375C475.221 49.3594 475.1 49.3516 474.986 49.3516C474.729 49.3516 474.484 49.4043 474.254 49.5098C474.027 49.6113 473.828 49.7598 473.656 49.9551C473.484 50.1465 473.35 50.3789 473.252 50.6523C473.154 50.9219 473.105 51.2227 473.105 51.5547V55H472.127V48.5781H472.936L473.041 49.7617H473.082C473.215 49.5234 473.375 49.3066 473.562 49.1113C473.75 48.9121 473.967 48.7539 474.213 48.6367C474.463 48.5195 474.74 48.4609 475.045 48.4609ZM479.51 48.4609C480.057 48.4609 480.525 48.582 480.916 48.8242C481.307 49.0664 481.605 49.4062 481.812 49.8438C482.02 50.2773 482.123 50.7852 482.123 51.3672V51.9707H477.688C477.699 52.7246 477.887 53.2988 478.25 53.6934C478.613 54.0879 479.125 54.2852 479.785 54.2852C480.191 54.2852 480.551 54.248 480.863 54.1738C481.176 54.0996 481.5 53.9902 481.836 53.8457V54.7012C481.512 54.8457 481.189 54.9512 480.869 55.0176C480.553 55.084 480.178 55.1172 479.744 55.1172C479.127 55.1172 478.588 54.9922 478.127 54.7422C477.67 54.4883 477.314 54.1172 477.061 53.6289C476.807 53.1406 476.68 52.543 476.68 51.8359C476.68 51.1445 476.795 50.5469 477.025 50.043C477.26 49.5352 477.588 49.1445 478.01 48.8711C478.436 48.5977 478.936 48.4609 479.51 48.4609ZM479.498 49.2578C478.979 49.2578 478.564 49.4277 478.256 49.7676C477.947 50.1074 477.764 50.582 477.705 51.1914H481.104C481.1 50.8086 481.039 50.4727 480.922 50.1836C480.809 49.8906 480.635 49.6641 480.4 49.5039C480.166 49.3398 479.865 49.2578 479.498 49.2578ZM485.879 48.5781H486.922L488.34 52.3047C488.422 52.5234 488.498 52.7344 488.568 52.9375C488.639 53.1367 488.701 53.3281 488.756 53.5117C488.811 53.6953 488.854 53.873 488.885 54.0449H488.926C488.98 53.8496 489.059 53.5938 489.16 53.2773C489.262 52.957 489.371 52.6309 489.488 52.2988L490.83 48.5781H491.879L489.084 55.9434C488.936 56.3379 488.762 56.6816 488.562 56.9746C488.367 57.2676 488.129 57.4922 487.848 57.6484C487.566 57.8086 487.227 57.8887 486.828 57.8887C486.645 57.8887 486.482 57.877 486.342 57.8535C486.201 57.834 486.08 57.8105 485.979 57.7832V57.0039C486.064 57.0234 486.168 57.041 486.289 57.0566C486.414 57.0723 486.543 57.0801 486.676 57.0801C486.918 57.0801 487.127 57.0332 487.303 56.9395C487.482 56.8496 487.637 56.7168 487.766 56.541C487.895 56.3652 488.006 56.1562 488.1 55.9141L488.451 55.0117L485.879 48.5781ZM498.441 51.7773C498.441 52.3047 498.373 52.7754 498.236 53.1895C498.1 53.6035 497.902 53.9531 497.645 54.2383C497.387 54.5234 497.074 54.7422 496.707 54.8945C496.344 55.043 495.932 55.1172 495.471 55.1172C495.041 55.1172 494.646 55.043 494.287 54.8945C493.932 54.7422 493.623 54.5234 493.361 54.2383C493.104 53.9531 492.902 53.6035 492.758 53.1895C492.617 52.7754 492.547 52.3047 492.547 51.7773C492.547 51.0742 492.666 50.4766 492.904 49.9844C493.143 49.4883 493.482 49.1113 493.924 48.8535C494.369 48.5918 494.898 48.4609 495.512 48.4609C496.098 48.4609 496.609 48.5918 497.047 48.8535C497.488 49.1152 497.83 49.4941 498.072 49.9902C498.318 50.4824 498.441 51.0781 498.441 51.7773ZM493.555 51.7773C493.555 52.293 493.623 52.7402 493.76 53.1191C493.896 53.498 494.107 53.791 494.393 53.998C494.678 54.2051 495.045 54.3086 495.494 54.3086C495.939 54.3086 496.305 54.2051 496.59 53.998C496.879 53.791 497.092 53.498 497.229 53.1191C497.365 52.7402 497.434 52.293 497.434 51.7773C497.434 51.2656 497.365 50.8242 497.229 50.4531C497.092 50.0781 496.881 49.7891 496.596 49.5859C496.311 49.3828 495.941 49.2812 495.488 49.2812C494.82 49.2812 494.33 49.502 494.018 49.9434C493.709 50.3848 493.555 50.9961 493.555 51.7773ZM505.426 48.5781V55H504.629L504.488 54.0977H504.436C504.303 54.3203 504.131 54.5078 503.92 54.6602C503.709 54.8125 503.471 54.9258 503.205 55C502.943 55.0781 502.664 55.1172 502.367 55.1172C501.859 55.1172 501.434 55.0352 501.09 54.8711C500.746 54.707 500.486 54.4531 500.311 54.1094C500.139 53.7656 500.053 53.3242 500.053 52.7852V48.5781H501.037V52.7148C501.037 53.25 501.158 53.6504 501.4 53.916C501.643 54.1777 502.012 54.3086 502.508 54.3086C502.984 54.3086 503.363 54.2188 503.645 54.0391C503.93 53.8594 504.135 53.5957 504.26 53.248C504.385 52.8965 504.447 52.4668 504.447 51.959V48.5781H505.426ZM510.4 48.4609C510.529 48.4609 510.664 48.4688 510.805 48.4844C510.945 48.4961 511.07 48.5137 511.18 48.5371L511.057 49.4395C510.951 49.4121 510.834 49.3906 510.705 49.375C510.576 49.3594 510.455 49.3516 510.342 49.3516C510.084 49.3516 509.84 49.4043 509.609 49.5098C509.383 49.6113 509.184 49.7598 509.012 49.9551C508.84 50.1465 508.705 50.3789 508.607 50.6523C508.51 50.9219 508.461 51.2227 508.461 51.5547V55H507.482V48.5781H508.291L508.396 49.7617H508.438C508.57 49.5234 508.73 49.3066 508.918 49.1113C509.105 48.9121 509.322 48.7539 509.568 48.6367C509.818 48.5195 510.096 48.4609 510.4 48.4609ZM517.584 54.3203C517.744 54.3203 517.908 54.3066 518.076 54.2793C518.244 54.252 518.381 54.2188 518.486 54.1797V54.9355C518.373 54.9863 518.215 55.0293 518.012 55.0645C517.812 55.0996 517.617 55.1172 517.426 55.1172C517.086 55.1172 516.777 55.0586 516.5 54.9414C516.223 54.8203 516 54.6172 515.832 54.332C515.668 54.0469 515.586 53.6523 515.586 53.1484V49.3398H514.672V48.8652L515.592 48.4844L515.979 47.0898H516.564V48.5781H518.445V49.3398H516.564V53.1191C516.564 53.5215 516.656 53.8223 516.84 54.0215C517.027 54.2207 517.275 54.3203 517.584 54.3203ZM520.76 45.8828V48.6074C520.76 48.7637 520.756 48.9219 520.748 49.082C520.74 49.2383 520.727 49.3828 520.707 49.5156H520.771C520.904 49.2891 521.072 49.0996 521.275 48.9473C521.482 48.791 521.717 48.6738 521.979 48.5957C522.24 48.5137 522.518 48.4727 522.811 48.4727C523.326 48.4727 523.756 48.5547 524.1 48.7188C524.447 48.8828 524.707 49.1367 524.879 49.4805C525.055 49.8242 525.143 50.2695 525.143 50.8164V55H524.182V50.8809C524.182 50.3457 524.059 49.9453 523.812 49.6797C523.57 49.4141 523.197 49.2812 522.693 49.2812C522.217 49.2812 521.836 49.373 521.551 49.5566C521.27 49.7363 521.066 50.002 520.941 50.3535C520.82 50.7051 520.76 51.1348 520.76 51.6426V55H519.787V45.8828H520.76ZM532.684 51.7773C532.684 52.3047 532.615 52.7754 532.479 53.1895C532.342 53.6035 532.145 53.9531 531.887 54.2383C531.629 54.5234 531.316 54.7422 530.949 54.8945C530.586 55.043 530.174 55.1172 529.713 55.1172C529.283 55.1172 528.889 55.043 528.529 54.8945C528.174 54.7422 527.865 54.5234 527.604 54.2383C527.346 53.9531 527.145 53.6035 527 53.1895C526.859 52.7754 526.789 52.3047 526.789 51.7773C526.789 51.0742 526.908 50.4766 527.146 49.9844C527.385 49.4883 527.725 49.1113 528.166 48.8535C528.611 48.5918 529.141 48.4609 529.754 48.4609C530.34 48.4609 530.852 48.5918 531.289 48.8535C531.73 49.1152 532.072 49.4941 532.314 49.9902C532.561 50.4824 532.684 51.0781 532.684 51.7773ZM527.797 51.7773C527.797 52.293 527.865 52.7402 528.002 53.1191C528.139 53.498 528.35 53.791 528.635 53.998C528.92 54.2051 529.287 54.3086 529.736 54.3086C530.182 54.3086 530.547 54.2051 530.832 53.998C531.121 53.791 531.334 53.498 531.471 53.1191C531.607 52.7402 531.676 52.293 531.676 51.7773C531.676 51.2656 531.607 50.8242 531.471 50.4531C531.334 50.0781 531.123 49.7891 530.838 49.5859C530.553 49.3828 530.184 49.2812 529.73 49.2812C529.062 49.2812 528.572 49.502 528.26 49.9434C527.951 50.3848 527.797 50.9961 527.797 51.7773ZM539.668 48.5781V55H538.871L538.73 54.0977H538.678C538.545 54.3203 538.373 54.5078 538.162 54.6602C537.951 54.8125 537.713 54.9258 537.447 55C537.186 55.0781 536.906 55.1172 536.609 55.1172C536.102 55.1172 535.676 55.0352 535.332 54.8711C534.988 54.707 534.729 54.4531 534.553 54.1094C534.381 53.7656 534.295 53.3242 534.295 52.7852V48.5781H535.279V52.7148C535.279 53.25 535.4 53.6504 535.643 53.916C535.885 54.1777 536.254 54.3086 536.75 54.3086C537.227 54.3086 537.605 54.2188 537.887 54.0391C538.172 53.8594 538.377 53.5957 538.502 53.248C538.627 52.8965 538.689 52.4668 538.689 51.959V48.5781H539.668ZM543.518 57.8828C542.674 57.8828 542.023 57.7246 541.566 57.4082C541.109 57.0957 540.881 56.6562 540.881 56.0898C540.881 55.6875 541.008 55.3438 541.262 55.0586C541.52 54.7734 541.875 54.584 542.328 54.4902C542.16 54.4121 542.016 54.2949 541.895 54.1387C541.777 53.9824 541.719 53.8027 541.719 53.5996C541.719 53.3652 541.783 53.1602 541.912 52.9844C542.045 52.8047 542.246 52.6328 542.516 52.4688C542.18 52.332 541.906 52.1016 541.695 51.7773C541.488 51.4492 541.385 51.0684 541.385 50.6348C541.385 50.1738 541.48 49.7812 541.672 49.457C541.863 49.1289 542.141 48.8789 542.504 48.707C542.867 48.5352 543.307 48.4492 543.822 48.4492C543.936 48.4492 544.049 48.4551 544.162 48.4668C544.279 48.4746 544.391 48.4883 544.496 48.5078C544.602 48.5234 544.693 48.543 544.771 48.5664H546.975V49.1934L545.791 49.3398C545.908 49.4922 546.006 49.6758 546.084 49.8906C546.162 50.1055 546.201 50.3438 546.201 50.6055C546.201 51.2461 545.984 51.7559 545.551 52.1348C545.117 52.5098 544.521 52.6973 543.764 52.6973C543.584 52.6973 543.4 52.6816 543.213 52.6504C543.021 52.7559 542.875 52.873 542.773 53.002C542.676 53.1309 542.627 53.2793 542.627 53.4473C542.627 53.5723 542.664 53.6719 542.738 53.7461C542.816 53.8203 542.928 53.875 543.072 53.9102C543.217 53.9414 543.391 53.957 543.594 53.957H544.725C545.424 53.957 545.959 54.1035 546.33 54.3965C546.705 54.6895 546.893 55.1172 546.893 55.6797C546.893 56.3906 546.604 56.9355 546.025 57.3145C545.447 57.6934 544.611 57.8828 543.518 57.8828ZM543.547 57.1211C544.078 57.1211 544.518 57.0664 544.865 56.957C545.217 56.8516 545.479 56.6973 545.65 56.4941C545.826 56.2949 545.914 56.0566 545.914 55.7793C545.914 55.5215 545.855 55.3262 545.738 55.1934C545.621 55.0645 545.449 54.9785 545.223 54.9355C544.996 54.8887 544.719 54.8652 544.391 54.8652H543.277C542.988 54.8652 542.736 54.9102 542.521 55C542.307 55.0898 542.141 55.2227 542.023 55.3984C541.91 55.5742 541.854 55.793 541.854 56.0547C541.854 56.4023 542 56.666 542.293 56.8457C542.586 57.0293 543.004 57.1211 543.547 57.1211ZM543.799 51.9883C544.264 51.9883 544.613 51.8711 544.848 51.6367C545.082 51.4023 545.199 51.0605 545.199 50.6113C545.199 50.1309 545.08 49.7715 544.842 49.5332C544.604 49.291 544.252 49.1699 543.787 49.1699C543.342 49.1699 542.998 49.2949 542.756 49.5449C542.518 49.791 542.398 50.1523 542.398 50.6289C542.398 51.0664 542.52 51.4023 542.762 51.6367C543.004 51.8711 543.35 51.9883 543.799 51.9883ZM549.213 45.8828V48.6074C549.213 48.7637 549.209 48.9219 549.201 49.082C549.193 49.2383 549.18 49.3828 549.16 49.5156H549.225C549.357 49.2891 549.525 49.0996 549.729 48.9473C549.936 48.791 550.17 48.6738 550.432 48.5957C550.693 48.5137 550.971 48.4727 551.264 48.4727C551.779 48.4727 552.209 48.5547 552.553 48.7188C552.9 48.8828 553.16 49.1367 553.332 49.4805C553.508 49.8242 553.596 50.2695 553.596 50.8164V55H552.635V50.8809C552.635 50.3457 552.512 49.9453 552.266 49.6797C552.023 49.4141 551.65 49.2812 551.146 49.2812C550.67 49.2812 550.289 49.373 550.004 49.5566C549.723 49.7363 549.52 50.002 549.395 50.3535C549.273 50.7051 549.213 51.1348 549.213 51.6426V55H548.24V45.8828H549.213ZM557.674 54.3203C557.834 54.3203 557.998 54.3066 558.166 54.2793C558.334 54.252 558.471 54.2188 558.576 54.1797V54.9355C558.463 54.9863 558.305 55.0293 558.102 55.0645C557.902 55.0996 557.707 55.1172 557.516 55.1172C557.176 55.1172 556.867 55.0586 556.59 54.9414C556.312 54.8203 556.09 54.6172 555.922 54.332C555.758 54.0469 555.676 53.6523 555.676 53.1484V49.3398H554.762V48.8652L555.682 48.4844L556.068 47.0898H556.654V48.5781H558.535V49.3398H556.654V53.1191C556.654 53.5215 556.746 53.8223 556.93 54.0215C557.117 54.2207 557.365 54.3203 557.674 54.3203ZM564.031 53.2422C564.031 53.6523 563.928 53.998 563.721 54.2793C563.518 54.5566 563.225 54.7656 562.842 54.9062C562.463 55.0469 562.01 55.1172 561.482 55.1172C561.033 55.1172 560.645 55.082 560.316 55.0117C559.988 54.9414 559.701 54.8418 559.455 54.7129V53.8164C559.717 53.9453 560.029 54.0625 560.393 54.168C560.756 54.2734 561.127 54.3262 561.506 54.3262C562.061 54.3262 562.463 54.2363 562.713 54.0566C562.963 53.877 563.088 53.6328 563.088 53.3242C563.088 53.1484 563.037 52.9941 562.936 52.8613C562.838 52.7246 562.672 52.5938 562.438 52.4688C562.203 52.3398 561.879 52.1992 561.465 52.0469C561.055 51.8906 560.699 51.7363 560.398 51.584C560.102 51.4277 559.871 51.2383 559.707 51.0156C559.547 50.793 559.467 50.5039 559.467 50.1484C559.467 49.6055 559.686 49.1895 560.123 48.9004C560.564 48.6074 561.143 48.4609 561.857 48.4609C562.244 48.4609 562.605 48.5 562.941 48.5781C563.281 48.6523 563.598 48.7539 563.891 48.8828L563.562 49.6621C563.297 49.5488 563.014 49.4531 562.713 49.375C562.412 49.2969 562.105 49.2578 561.793 49.2578C561.344 49.2578 560.998 49.332 560.756 49.4805C560.518 49.6289 560.398 49.832 560.398 50.0898C560.398 50.2891 560.453 50.4531 560.562 50.582C560.676 50.7109 560.855 50.832 561.102 50.9453C561.348 51.0586 561.672 51.1914 562.074 51.3438C562.477 51.4922 562.824 51.6465 563.117 51.8066C563.41 51.9629 563.635 52.1543 563.791 52.3809C563.951 52.6035 564.031 52.8906 564.031 53.2422ZM566.475 52.6211H565.836L565.566 46.4336H566.744L566.475 52.6211ZM565.449 54.3906C565.449 54.1172 565.516 53.9238 565.648 53.8105C565.781 53.6934 565.947 53.6348 566.146 53.6348C566.342 53.6348 566.506 53.6934 566.639 53.8105C566.775 53.9238 566.844 54.1172 566.844 54.3906C566.844 54.6602 566.775 54.8574 566.639 54.9824C566.506 55.1035 566.342 55.1641 566.146 55.1641C565.947 55.1641 565.781 55.1035 565.648 54.9824C565.516 54.8574 565.449 54.6602 565.449 54.3906Z" fill="#232F3E"/>
</svg>
