<svg width="255" height="34" viewBox="0 0 255 34" fill="none" xmlns="http://www.w3.org/2000/svg">
<rect x="1" y="1" width="253" height="32" rx="7" fill="white"/>
<rect x="1" y="1" width="253" height="32" rx="7" stroke="#9BA7B6" stroke-width="2"/>
<path fill-rule="evenodd" clip-rule="evenodd" d="M19 22C15.6863 22 13 19.3137 13 16C13 12.6863 15.6863 10 19 10C22.3137 10 25 12.6863 25 16C25 17.2958 24.5892 18.4957 23.8907 19.4765L27.7071 23.2929L26.2929 24.7071L22.4765 20.8907C21.4957 21.5892 20.2958 22 19 22ZM19 20C21.2091 20 23 18.2091 23 16C23 13.7909 21.2091 12 19 12C16.7909 12 15 13.7909 15 16C15 18.2091 16.7909 20 19 20Z" fill="#5F6B7A"/>
<path d="M40.6113 22.1367C40.1146 22.1367 39.6794 22.1003 39.3057 22.0273C38.932 21.9544 38.5856 21.8428 38.2666 21.6924V20.5508C38.5537 20.6966 38.891 20.8311 39.2783 20.9541C39.6657 21.0726 40.1146 21.1318 40.625 21.1318C40.9395 21.1318 41.2402 21.0954 41.5273 21.0225C41.8145 20.9495 42.0697 20.8356 42.293 20.6807C42.5208 20.5257 42.6986 20.3275 42.8262 20.0859C42.9583 19.8444 43.0244 19.5573 43.0244 19.2246C43.0244 18.9557 42.9652 18.7188 42.8467 18.5137C42.7327 18.304 42.5505 18.1035 42.2998 17.9121C42.0492 17.7161 41.721 17.5065 41.3154 17.2832C40.9691 17.0781 40.6569 16.8639 40.3789 16.6406C40.1055 16.4128 39.889 16.1484 39.7295 15.8477C39.57 15.5423 39.4902 15.1732 39.4902 14.7402C39.4902 14.2754 39.5768 13.8652 39.75 13.5098C39.9232 13.1497 40.1602 12.849 40.4609 12.6074C40.7663 12.3613 41.1149 12.1768 41.5068 12.0537C41.9033 11.9261 42.3226 11.8623 42.7646 11.8623C43.2887 11.8623 43.7445 11.9147 44.1318 12.0195C44.5192 12.1243 44.8929 12.2656 45.2529 12.4434L44.8086 13.4277C44.5534 13.291 44.2458 13.168 43.8857 13.0586C43.5303 12.9447 43.1566 12.8877 42.7646 12.8877C42.4775 12.8877 42.2087 12.9264 41.958 13.0039C41.7119 13.0768 41.4954 13.1885 41.3086 13.3389C41.1217 13.4893 40.9759 13.6761 40.8711 13.8994C40.7663 14.1182 40.7139 14.3734 40.7139 14.665C40.7139 14.9613 40.7686 15.2074 40.8779 15.4033C40.9919 15.5993 41.1559 15.777 41.3701 15.9365C41.5889 16.096 41.8577 16.2692 42.1768 16.4561C42.5824 16.693 42.9401 16.93 43.25 17.167C43.5599 17.3994 43.8014 17.6706 43.9746 17.9805C44.1478 18.2858 44.2344 18.6709 44.2344 19.1357C44.2344 19.637 44.1455 20.0768 43.9678 20.4551C43.7946 20.8288 43.5462 21.141 43.2227 21.3916C42.8991 21.6377 42.5163 21.8245 42.0742 21.9521C41.6322 22.0752 41.1445 22.1367 40.6113 22.1367ZM48.4521 22.1367C47.8916 22.1367 47.4085 22.0251 47.0029 21.8018C46.5973 21.5739 46.2852 21.2503 46.0664 20.8311C45.8522 20.4072 45.7451 19.9014 45.7451 19.3135C45.7451 18.7074 45.8317 18.1126 46.0049 17.5293C46.1826 16.9414 46.4355 16.4105 46.7637 15.9365C47.0918 15.458 47.486 15.0775 47.9463 14.7949C48.4111 14.5124 48.9307 14.3711 49.5049 14.3711C50.193 14.3711 50.7148 14.526 51.0703 14.8359C51.4258 15.1413 51.6035 15.5628 51.6035 16.1006C51.6035 16.4788 51.5146 16.8275 51.3369 17.1465C51.1637 17.4655 50.8949 17.7435 50.5303 17.9805C50.1702 18.2129 49.7122 18.3952 49.1562 18.5273C48.6048 18.6549 47.9508 18.7188 47.1943 18.7188H46.9346C46.9255 18.8008 46.9163 18.8919 46.9072 18.9922C46.9027 19.0924 46.9004 19.1859 46.9004 19.2725C46.9004 19.874 47.0462 20.3457 47.3379 20.6875C47.6296 21.0247 48.0671 21.1934 48.6504 21.1934C49.0104 21.1934 49.3499 21.1432 49.6689 21.043C49.9925 20.9382 50.3298 20.8014 50.6807 20.6328V21.6104C50.3434 21.7653 50.0039 21.8929 49.6621 21.9932C49.3203 22.0889 48.917 22.1367 48.4521 22.1367ZM47.0986 17.7891H47.2627C47.846 17.7891 48.3815 17.7389 48.8691 17.6387C49.3568 17.5339 49.7487 17.3652 50.0449 17.1328C50.3411 16.8958 50.4893 16.5814 50.4893 16.1895C50.4893 15.9342 50.4027 15.7246 50.2295 15.5605C50.0563 15.3965 49.792 15.3145 49.4365 15.3145C49.1221 15.3145 48.8122 15.4124 48.5068 15.6084C48.2015 15.7998 47.9235 16.0801 47.6729 16.4492C47.4268 16.8184 47.2354 17.265 47.0986 17.7891ZM54.7344 22.1367C54.3288 22.1367 53.9733 22.0387 53.668 21.8428C53.3626 21.6468 53.1257 21.3574 52.957 20.9746C52.7884 20.5918 52.7041 20.1247 52.7041 19.5732C52.7041 19.0218 52.7611 18.4909 52.875 17.9805C52.9935 17.4701 53.1598 16.9961 53.374 16.5586C53.5882 16.1211 53.8457 15.7383 54.1465 15.4102C54.4518 15.082 54.7936 14.8268 55.1719 14.6445C55.5501 14.4622 55.958 14.3711 56.3955 14.3711C56.7327 14.3711 57.0244 14.4349 57.2705 14.5625C57.5212 14.6901 57.7285 14.8587 57.8926 15.0684C58.0612 15.2734 58.1934 15.4922 58.2891 15.7246H58.3574L58.7949 14.5078H59.6631L58.0771 22H57.168L57.373 20.5508H57.3184C57.1133 20.8242 56.8786 21.0817 56.6143 21.3232C56.3499 21.5648 56.0605 21.7607 55.7461 21.9111C55.4316 22.0615 55.0944 22.1367 54.7344 22.1367ZM55.1035 21.1934C55.4544 21.1934 55.8008 21.0658 56.1426 20.8105C56.4889 20.5508 56.7988 20.2021 57.0723 19.7646C57.3503 19.3226 57.5622 18.8258 57.708 18.2744C57.7809 18.0055 57.8288 17.7594 57.8516 17.5361C57.8789 17.3083 57.8926 17.0964 57.8926 16.9004C57.8926 16.431 57.7673 16.0527 57.5166 15.7656C57.2705 15.474 56.9333 15.3281 56.5049 15.3281C56.1995 15.3281 55.9124 15.4056 55.6436 15.5605C55.3747 15.7109 55.1309 15.9229 54.9121 16.1963C54.6979 16.4652 54.5133 16.7796 54.3584 17.1396C54.2035 17.4951 54.0827 17.8825 53.9961 18.3018C53.9141 18.721 53.873 19.1517 53.873 19.5938C53.873 20.1178 53.9801 20.5166 54.1943 20.79C54.4085 21.0589 54.7116 21.1934 55.1035 21.1934ZM60.3398 22L61.9326 14.5078H62.8623L62.6846 15.957H62.7529C62.9443 15.6973 63.1494 15.4466 63.3682 15.2051C63.5869 14.959 63.8353 14.7585 64.1133 14.6035C64.3958 14.4486 64.7194 14.3711 65.084 14.3711C65.2207 14.3711 65.3597 14.3802 65.501 14.3984C65.6423 14.4121 65.7744 14.4372 65.8975 14.4736L65.6514 15.4922C65.5283 15.4648 65.4076 15.4443 65.2891 15.4307C65.1751 15.417 65.0566 15.4102 64.9336 15.4102C64.5872 15.4102 64.266 15.5013 63.9697 15.6836C63.6735 15.8613 63.4069 16.1006 63.1699 16.4014C62.9375 16.7021 62.7393 17.0371 62.5752 17.4062C62.4157 17.7754 62.2949 18.1514 62.2129 18.5342L61.4814 22H60.3398ZM68.9395 22.1367C68.3835 22.1367 67.8958 22.0319 67.4766 21.8223C67.0618 21.6081 66.7383 21.2936 66.5059 20.8789C66.278 20.4642 66.1641 19.9492 66.1641 19.334C66.1641 18.8008 66.221 18.2881 66.335 17.7959C66.4535 17.3037 66.6243 16.8503 66.8477 16.4355C67.071 16.0208 67.3421 15.6585 67.6611 15.3486C67.9801 15.0387 68.3424 14.7995 68.748 14.6309C69.1582 14.4577 69.6048 14.3711 70.0879 14.3711C70.4115 14.3711 70.7327 14.403 71.0518 14.4668C71.3753 14.526 71.667 14.6126 71.9268 14.7266L71.6055 15.6836C71.4141 15.5924 71.1885 15.5104 70.9287 15.4375C70.6689 15.3646 70.391 15.3281 70.0947 15.3281C69.68 15.3281 69.3018 15.4329 68.96 15.6426C68.6227 15.8522 68.3311 16.1439 68.085 16.5176C67.8434 16.8867 67.6566 17.3105 67.5244 17.7891C67.3923 18.2676 67.3262 18.778 67.3262 19.3203C67.3262 19.7077 67.3945 20.0426 67.5312 20.3252C67.668 20.6032 67.8639 20.8174 68.1191 20.9678C68.3789 21.1182 68.6888 21.1934 69.0488 21.1934C69.3815 21.1934 69.6937 21.1478 69.9854 21.0566C70.2816 20.9655 70.571 20.8561 70.8535 20.7285V21.6992C70.6029 21.8268 70.3158 21.9316 69.9922 22.0137C69.6732 22.0957 69.3223 22.1367 68.9395 22.1367ZM72.2207 22L74.4766 11.3633H75.6113L75.0098 14.125C74.9733 14.321 74.9277 14.5238 74.873 14.7334C74.8229 14.9385 74.7705 15.1458 74.7158 15.3555C74.6611 15.5605 74.6064 15.7633 74.5518 15.9639H74.6201C74.7979 15.7223 75.0075 15.4808 75.249 15.2393C75.4951 14.9977 75.7799 14.7949 76.1035 14.6309C76.4316 14.4668 76.8008 14.3848 77.2109 14.3848C77.6029 14.3848 77.9378 14.4554 78.2158 14.5967C78.4984 14.738 78.7148 14.9499 78.8652 15.2324C79.0202 15.5104 79.0977 15.8613 79.0977 16.2852C79.0977 16.4629 79.084 16.6452 79.0566 16.832C79.0293 17.0143 78.9951 17.2057 78.9541 17.4062L77.9697 22H76.8281L77.8262 17.2832C77.8717 17.0781 77.9036 16.9027 77.9219 16.7568C77.9401 16.611 77.9492 16.4834 77.9492 16.374C77.9492 16.0413 77.8649 15.7839 77.6963 15.6016C77.5322 15.4193 77.2679 15.3281 76.9033 15.3281C76.5615 15.3281 76.2015 15.4443 75.8232 15.6768C75.4495 15.9046 75.1032 16.2669 74.7842 16.7637C74.4697 17.2559 74.2282 17.9007 74.0596 18.6982L73.3623 22H72.2207ZM83.9238 22L85.5166 14.5078H86.6582L85.0654 22H83.9238ZM86.4736 13.1953C86.2913 13.1953 86.1387 13.1429 86.0156 13.0381C85.8971 12.9287 85.8379 12.776 85.8379 12.5801C85.8379 12.4297 85.8675 12.2884 85.9268 12.1562C85.9906 12.0241 86.0794 11.9193 86.1934 11.8418C86.3118 11.7598 86.4554 11.7188 86.624 11.7188C86.8245 11.7188 86.9749 11.7712 87.0752 11.876C87.1755 11.9808 87.2256 12.1266 87.2256 12.3135C87.2256 12.5824 87.1481 12.7965 86.9932 12.9561C86.8382 13.1156 86.665 13.1953 86.4736 13.1953ZM87.417 22L89.0234 14.4736H90.0283L89.8506 15.916H89.8643C90.0374 15.679 90.2448 15.4398 90.4863 15.1982C90.7324 14.9521 91.0173 14.7471 91.3408 14.583C91.6689 14.4144 92.0404 14.3301 92.4551 14.3301C92.8561 14.3301 93.2002 14.4053 93.4873 14.5557C93.7744 14.7015 93.9954 14.9157 94.1504 15.1982C94.3053 15.4762 94.3828 15.8135 94.3828 16.21C94.3828 16.4196 94.3669 16.6315 94.335 16.8457C94.3031 17.0599 94.2689 17.2513 94.2324 17.4199L93.2344 22H92.0244L93.0361 17.2695C93.0771 17.0645 93.109 16.889 93.1318 16.7432C93.1592 16.5973 93.1729 16.4606 93.1729 16.333C93.1729 16.014 93.0863 15.7725 92.9131 15.6084C92.7399 15.4443 92.4847 15.3623 92.1475 15.3623C91.8148 15.3623 91.4639 15.4762 91.0947 15.7041C90.7256 15.932 90.3838 16.292 90.0693 16.7842C89.7549 17.2718 89.5111 17.9098 89.3379 18.6982L88.6338 22H87.417ZM99.168 22L100.761 14.5078H101.69L101.513 15.957H101.581C101.772 15.6973 101.978 15.4466 102.196 15.2051C102.415 14.959 102.663 14.7585 102.941 14.6035C103.224 14.4486 103.548 14.3711 103.912 14.3711C104.049 14.3711 104.188 14.3802 104.329 14.3984C104.47 14.4121 104.603 14.4372 104.726 14.4736L104.479 15.4922C104.356 15.4648 104.236 15.4443 104.117 15.4307C104.003 15.417 103.885 15.4102 103.762 15.4102C103.415 15.4102 103.094 15.5013 102.798 15.6836C102.502 15.8613 102.235 16.1006 101.998 16.4014C101.766 16.7021 101.567 17.0371 101.403 17.4062C101.244 17.7754 101.123 18.1514 101.041 18.5342L100.31 22H99.168ZM107.706 22.1367C107.146 22.1367 106.662 22.0251 106.257 21.8018C105.851 21.5739 105.539 21.2503 105.32 20.8311C105.106 20.4072 104.999 19.9014 104.999 19.3135C104.999 18.7074 105.086 18.1126 105.259 17.5293C105.437 16.9414 105.689 16.4105 106.018 15.9365C106.346 15.458 106.74 15.0775 107.2 14.7949C107.665 14.5124 108.185 14.3711 108.759 14.3711C109.447 14.3711 109.969 14.526 110.324 14.8359C110.68 15.1413 110.857 15.5628 110.857 16.1006C110.857 16.4788 110.769 16.8275 110.591 17.1465C110.418 17.4655 110.149 17.7435 109.784 17.9805C109.424 18.2129 108.966 18.3952 108.41 18.5273C107.859 18.6549 107.205 18.7188 106.448 18.7188H106.188C106.179 18.8008 106.17 18.8919 106.161 18.9922C106.157 19.0924 106.154 19.1859 106.154 19.2725C106.154 19.874 106.3 20.3457 106.592 20.6875C106.883 21.0247 107.321 21.1934 107.904 21.1934C108.264 21.1934 108.604 21.1432 108.923 21.043C109.246 20.9382 109.584 20.8014 109.935 20.6328V21.6104C109.597 21.7653 109.258 21.8929 108.916 21.9932C108.574 22.0889 108.171 22.1367 107.706 22.1367ZM106.353 17.7891H106.517C107.1 17.7891 107.635 17.7389 108.123 17.6387C108.611 17.5339 109.003 17.3652 109.299 17.1328C109.595 16.8958 109.743 16.5814 109.743 16.1895C109.743 15.9342 109.657 15.7246 109.483 15.5605C109.31 15.3965 109.046 15.3145 108.69 15.3145C108.376 15.3145 108.066 15.4124 107.761 15.6084C107.455 15.7998 107.177 16.0801 106.927 16.4492C106.681 16.8184 106.489 17.265 106.353 17.7891ZM112.854 22L111.951 14.5078H113.1L113.558 18.8213C113.585 19.0628 113.61 19.3363 113.633 19.6416C113.656 19.9469 113.674 20.234 113.688 20.5029C113.706 20.7718 113.715 20.9746 113.715 21.1113H113.756C113.856 20.888 113.972 20.6351 114.104 20.3525C114.241 20.0654 114.378 19.7829 114.515 19.5049C114.651 19.2223 114.772 18.9808 114.877 18.7803L117.188 14.5078H118.404L114.323 22H112.854ZM118.131 22L119.724 14.5078H120.865L119.272 22H118.131ZM120.681 13.1953C120.498 13.1953 120.346 13.1429 120.223 13.0381C120.104 12.9287 120.045 12.776 120.045 12.5801C120.045 12.4297 120.075 12.2884 120.134 12.1562C120.198 12.0241 120.286 11.9193 120.4 11.8418C120.519 11.7598 120.662 11.7188 120.831 11.7188C121.032 11.7188 121.182 11.7712 121.282 11.876C121.382 11.9808 121.433 12.1266 121.433 12.3135C121.433 12.5824 121.355 12.7965 121.2 12.9561C121.045 13.1156 120.872 13.1953 120.681 13.1953ZM124.673 22.1367C124.112 22.1367 123.629 22.0251 123.224 21.8018C122.818 21.5739 122.506 21.2503 122.287 20.8311C122.073 20.4072 121.966 19.9014 121.966 19.3135C121.966 18.7074 122.052 18.1126 122.226 17.5293C122.403 16.9414 122.656 16.4105 122.984 15.9365C123.312 15.458 123.707 15.0775 124.167 14.7949C124.632 14.5124 125.151 14.3711 125.726 14.3711C126.414 14.3711 126.936 14.526 127.291 14.8359C127.646 15.1413 127.824 15.5628 127.824 16.1006C127.824 16.4788 127.735 16.8275 127.558 17.1465C127.384 17.4655 127.116 17.7435 126.751 17.9805C126.391 18.2129 125.933 18.3952 125.377 18.5273C124.826 18.6549 124.172 18.7188 123.415 18.7188H123.155C123.146 18.8008 123.137 18.8919 123.128 18.9922C123.123 19.0924 123.121 19.1859 123.121 19.2725C123.121 19.874 123.267 20.3457 123.559 20.6875C123.85 21.0247 124.288 21.1934 124.871 21.1934C125.231 21.1934 125.571 21.1432 125.89 21.043C126.213 20.9382 126.55 20.8014 126.901 20.6328V21.6104C126.564 21.7653 126.225 21.8929 125.883 21.9932C125.541 22.0889 125.138 22.1367 124.673 22.1367ZM123.319 17.7891H123.483C124.067 17.7891 124.602 17.7389 125.09 17.6387C125.577 17.5339 125.969 17.3652 126.266 17.1328C126.562 16.8958 126.71 16.5814 126.71 16.1895C126.71 15.9342 126.623 15.7246 126.45 15.5605C126.277 15.3965 126.013 15.3145 125.657 15.3145C125.343 15.3145 125.033 15.4124 124.728 15.6084C124.422 15.7998 124.144 16.0801 123.894 16.4492C123.647 16.8184 123.456 17.265 123.319 17.7891ZM129.369 22L129.041 14.5078H130.155L130.285 18.6436C130.299 19.1403 130.299 19.5869 130.285 19.9834C130.276 20.3799 130.262 20.7103 130.244 20.9746H130.292C130.365 20.7832 130.451 20.5622 130.552 20.3115C130.657 20.0563 130.764 19.8011 130.873 19.5459C130.987 19.2907 131.092 19.0605 131.188 18.8555L133.245 14.5078H134.462L134.735 18.6572C134.744 18.999 134.754 19.3864 134.763 19.8193C134.772 20.2477 134.772 20.6328 134.763 20.9746H134.811C134.888 20.7467 134.979 20.4938 135.084 20.2158C135.189 19.9333 135.305 19.6348 135.433 19.3203C135.565 19.0059 135.701 18.6846 135.843 18.3564L137.579 14.5078H138.782L135.303 22H133.949L133.696 17.7891C133.683 17.5521 133.674 17.3219 133.669 17.0986C133.669 16.8753 133.669 16.6452 133.669 16.4082C133.674 16.1712 133.676 15.9137 133.676 15.6357H133.621C133.539 15.859 133.457 16.0687 133.375 16.2646C133.298 16.4606 133.209 16.668 133.108 16.8867C133.013 17.1055 132.894 17.3652 132.753 17.666L130.702 22H129.369ZM140.45 22.1367C139.994 22.1367 139.593 22.0911 139.247 22C138.905 21.9089 138.607 21.7949 138.352 21.6582V20.6055C138.593 20.7513 138.898 20.888 139.268 21.0156C139.641 21.1432 140.024 21.207 140.416 21.207C140.803 21.207 141.125 21.1546 141.38 21.0498C141.64 20.945 141.833 20.8014 141.961 20.6191C142.093 20.4323 142.159 20.2158 142.159 19.9697C142.159 19.7738 142.116 19.6051 142.029 19.4639C141.947 19.318 141.811 19.1768 141.619 19.04C141.432 18.9033 141.182 18.7461 140.867 18.5684C140.516 18.3724 140.22 18.1742 139.979 17.9736C139.737 17.7731 139.552 17.5544 139.425 17.3174C139.302 17.0758 139.24 16.7956 139.24 16.4766C139.24 16.0482 139.345 15.6768 139.555 15.3623C139.764 15.0479 140.058 14.804 140.437 14.6309C140.819 14.4577 141.266 14.3711 141.776 14.3711C142.228 14.3711 142.645 14.4235 143.027 14.5283C143.41 14.6286 143.741 14.7448 144.019 14.877L143.649 15.7861C143.412 15.6722 143.141 15.5674 142.836 15.4717C142.531 15.376 142.177 15.3281 141.776 15.3281C141.348 15.3281 141.006 15.4261 140.751 15.6221C140.5 15.818 140.375 16.0824 140.375 16.415C140.375 16.5882 140.411 16.7432 140.484 16.8799C140.562 17.0166 140.694 17.1533 140.881 17.29C141.068 17.4222 141.323 17.5771 141.646 17.7549C141.961 17.9372 142.243 18.124 142.494 18.3154C142.749 18.5023 142.95 18.7188 143.096 18.9648C143.246 19.2064 143.321 19.5049 143.321 19.8604C143.321 20.348 143.205 20.7627 142.973 21.1045C142.74 21.4417 142.408 21.6992 141.975 21.877C141.546 22.0501 141.038 22.1367 140.45 22.1367Z" fill="#5F6B7A"/>
</svg>
