<svg width="1440" height="39" viewBox="0 0 1440 39" fill="none" xmlns="http://www.w3.org/2000/svg">
<rect width="1440" height="39" fill="#252F3D"/>
<path d="M17.8625 12.2498C16.8625 12.2498 16.8625 13.7498 17.8625 13.7498H30.1427C31.1427 13.7498 31.1427 12.2498 30.1427 12.2498H17.8625ZM30.1627 18.2499H30.1427H17.8625C16.8225 18.2099 16.8225 19.8098 17.8625 19.7498H30.1427C31.1627 19.7898 31.1827 18.2499 30.1627 18.2499H30.1627ZM17.8625 24.2499C16.8625 24.2499 16.8625 25.7499 17.8625 25.7499H30.1427C31.1427 25.7499 31.1427 24.2499 30.1427 24.2499H17.8625Z" fill="white"/>
<path d="M43.196 24L42.384 21.564H38.66L37.876 24H36.112L39.64 14.298H41.488L45.002 24H43.196ZM39.066 20.318H41.992L40.522 15.838L39.066 20.318ZM48.9131 23.888C48.5678 24.0187 48.1991 24.084 47.8071 24.084C47.2565 24.084 46.8365 23.93 46.5471 23.622C46.2671 23.3047 46.1271 22.8473 46.1271 22.25V13.64H47.7791V22.124C47.7791 22.3573 47.8211 22.5253 47.9051 22.628C47.9985 22.7307 48.1478 22.782 48.3531 22.782C48.5211 22.782 48.7078 22.768 48.9131 22.74V23.888ZM53.1241 23.888C52.7787 24.0187 52.4101 24.084 52.0181 24.084C51.4674 24.084 51.0474 23.93 50.7581 23.622C50.4781 23.3047 50.3381 22.8473 50.3381 22.25V13.64H51.9901V22.124C51.9901 22.3573 52.0321 22.5253 52.1161 22.628C52.2094 22.7307 52.3587 22.782 52.5641 22.782C52.7321 22.782 52.9187 22.768 53.1241 22.74V23.888Z" fill="white"/>
<path d="M79.148 25V15.298H85.042V16.67H80.856V19.47H84.286V20.842H80.856V25H79.148ZM90.234 25L90.108 24.314C89.7814 24.594 89.4174 24.8133 89.016 24.972C88.624 25.1307 88.232 25.21 87.84 25.21C87.1867 25.21 86.6547 25.014 86.244 24.622C85.8427 24.23 85.642 23.7213 85.642 23.096C85.642 22.4053 85.8894 21.8547 86.384 21.444C86.888 21.0333 87.56 20.828 88.4 20.828C88.8947 20.828 89.436 20.898 90.024 21.038V20.212C90.024 19.736 89.9214 19.4047 89.716 19.218C89.5107 19.0313 89.1514 18.938 88.638 18.938C87.91 18.938 87.0747 19.092 86.132 19.4V18.238C86.4774 18.0607 86.8974 17.9207 87.392 17.818C87.896 17.7153 88.4 17.664 88.904 17.664C89.8187 17.664 90.4907 17.8507 90.92 18.224C91.3587 18.5973 91.578 19.1807 91.578 19.974V25H90.234ZM88.302 24.034C88.5727 24.034 88.8574 23.978 89.156 23.866C89.4547 23.7447 89.744 23.5767 90.024 23.362V22.018C89.5294 21.9153 89.0907 21.864 88.708 21.864C87.7374 21.864 87.252 22.242 87.252 22.998C87.252 23.3247 87.3454 23.5813 87.532 23.768C87.7187 23.9453 87.9754 24.034 88.302 24.034ZM96.7749 23.068C96.7749 22.8627 96.7095 22.6993 96.5789 22.578C96.4482 22.4473 96.2055 22.3167 95.8509 22.186L94.6889 21.738C93.6435 21.3367 93.1209 20.6833 93.1209 19.778C93.1209 19.1247 93.3635 18.6113 93.8489 18.238C94.3342 17.8553 94.9829 17.664 95.7949 17.664C96.5695 17.664 97.2695 17.8133 97.8949 18.112V19.274C97.1669 19.0407 96.4995 18.924 95.8929 18.924C95.4635 18.924 95.1462 18.9893 94.9409 19.12C94.7449 19.2413 94.6469 19.4373 94.6469 19.708C94.6469 19.9133 94.7169 20.0813 94.8569 20.212C95.0062 20.3333 95.2675 20.4687 95.6409 20.618L96.7189 21.038C97.2789 21.2527 97.6802 21.5093 97.9229 21.808C98.1749 22.1067 98.3009 22.4847 98.3009 22.942C98.3009 23.642 98.0489 24.1973 97.5449 24.608C97.0409 25.0093 96.3409 25.21 95.4449 25.21C95.0062 25.21 94.5769 25.1633 94.1569 25.07C93.7369 24.9767 93.3682 24.846 93.0509 24.678V23.516C93.9469 23.8053 94.7402 23.95 95.4309 23.95C95.8975 23.95 96.2382 23.88 96.4529 23.74C96.6675 23.5907 96.7749 23.3667 96.7749 23.068ZM104.384 25V20.282C104.384 19.8247 104.291 19.4933 104.104 19.288C103.918 19.0733 103.619 18.966 103.208 18.966C102.592 18.966 101.962 19.1713 101.318 19.582V25H99.6662V14.64H101.318V18.574C102.186 17.9673 103.064 17.664 103.95 17.664C104.632 17.664 105.15 17.846 105.504 18.21C105.859 18.5647 106.036 19.0827 106.036 19.764V25H104.384ZM108.062 25V17.874H109.714V25H108.062ZM108.888 16.698C108.58 16.698 108.337 16.614 108.16 16.446C107.983 16.278 107.894 16.0447 107.894 15.746C107.894 15.4473 107.983 15.214 108.16 15.046C108.337 14.878 108.58 14.794 108.888 14.794C109.196 14.794 109.439 14.878 109.616 15.046C109.793 15.214 109.882 15.4473 109.882 15.746C109.882 16.0447 109.793 16.278 109.616 16.446C109.439 16.614 109.196 16.698 108.888 16.698ZM114.859 25.21C113.777 25.21 112.932 24.8787 112.325 24.216C111.719 23.544 111.415 22.6153 111.415 21.43C111.415 20.2447 111.719 19.3207 112.325 18.658C112.932 17.9953 113.777 17.664 114.859 17.664C115.942 17.664 116.787 17.9953 117.393 18.658C118 19.3207 118.303 20.2447 118.303 21.43C118.303 22.6153 118 23.544 117.393 24.216C116.787 24.8787 115.942 25.21 114.859 25.21ZM114.859 23.908C116.035 23.908 116.623 23.082 116.623 21.43C116.623 19.7873 116.035 18.966 114.859 18.966C113.683 18.966 113.095 19.7873 113.095 21.43C113.095 23.082 113.683 23.908 114.859 23.908ZM124.673 25V20.282C124.673 19.8247 124.58 19.4933 124.393 19.288C124.207 19.0733 123.908 18.966 123.497 18.966C122.881 18.966 122.251 19.1713 121.607 19.582V25H119.955V17.874H121.327L121.495 18.658C122.373 17.9953 123.287 17.664 124.239 17.664C124.921 17.664 125.439 17.846 125.793 18.21C126.148 18.5647 126.325 19.0827 126.325 19.764V25H124.673Z" fill="white"/>
<path d="M161.212 25V17.734L158.678 22.564H157.138L154.688 17.762V25H153.148V15.298H155.024L157.95 21.08L160.932 15.298H162.752V25H161.212ZM167.983 25.21C166.9 25.21 166.055 24.8787 165.449 24.216C164.842 23.544 164.539 22.6153 164.539 21.43C164.539 20.2447 164.842 19.3207 165.449 18.658C166.055 17.9953 166.9 17.664 167.983 17.664C169.065 17.664 169.91 17.9953 170.517 18.658C171.123 19.3207 171.427 20.2447 171.427 21.43C171.427 22.6153 171.123 23.544 170.517 24.216C169.91 24.8787 169.065 25.21 167.983 25.21ZM167.983 23.908C169.159 23.908 169.747 23.082 169.747 21.43C169.747 19.7873 169.159 18.966 167.983 18.966C166.807 18.966 166.219 19.7873 166.219 21.43C166.219 23.082 166.807 23.908 167.983 23.908ZM173.078 25V14.64H174.73V18.504C175.393 17.944 176.126 17.664 176.928 17.664C177.815 17.664 178.52 17.9953 179.042 18.658C179.574 19.3207 179.84 20.212 179.84 21.332C179.84 22.0787 179.719 22.7413 179.476 23.32C179.234 23.8893 178.884 24.3373 178.426 24.664C177.969 24.9907 177.432 25.154 176.816 25.154C176.396 25.154 175.995 25.0793 175.612 24.93C175.23 24.7713 174.898 24.552 174.618 24.272L174.45 25H173.078ZM176.41 18.966C175.804 18.966 175.244 19.1433 174.73 19.498V23.306C175.253 23.67 175.808 23.852 176.396 23.852C176.994 23.852 177.437 23.6513 177.726 23.25C178.016 22.8393 178.16 22.2187 178.16 21.388C178.16 20.5667 178.016 19.96 177.726 19.568C177.446 19.1667 177.008 18.966 176.41 18.966ZM181.543 25V17.874H183.195V25H181.543ZM182.369 16.698C182.061 16.698 181.818 16.614 181.641 16.446C181.463 16.278 181.375 16.0447 181.375 15.746C181.375 15.4473 181.463 15.214 181.641 15.046C181.818 14.878 182.061 14.794 182.369 14.794C182.677 14.794 182.919 14.878 183.097 15.046C183.274 15.214 183.363 15.4473 183.363 15.746C183.363 16.0447 183.274 16.278 183.097 16.446C182.919 16.614 182.677 16.698 182.369 16.698ZM188.046 24.888C187.701 25.0187 187.332 25.084 186.94 25.084C186.389 25.084 185.969 24.93 185.68 24.622C185.4 24.3047 185.26 23.8473 185.26 23.25V14.64H186.912V23.124C186.912 23.3573 186.954 23.5253 187.038 23.628C187.131 23.7307 187.281 23.782 187.486 23.782C187.654 23.782 187.841 23.768 188.046 23.74V24.888ZM190.633 21.836C190.661 22.5453 190.857 23.068 191.221 23.404C191.594 23.7307 192.164 23.894 192.929 23.894C193.62 23.894 194.366 23.7633 195.169 23.502V24.664C194.852 24.832 194.474 24.9627 194.035 25.056C193.606 25.1587 193.158 25.21 192.691 25.21C191.515 25.21 190.624 24.8927 190.017 24.258C189.41 23.6233 189.107 22.6993 189.107 21.486C189.107 20.282 189.401 19.344 189.989 18.672C190.586 18 191.417 17.664 192.481 17.664C193.396 17.664 194.096 17.916 194.581 18.42C195.076 18.9147 195.323 19.6193 195.323 20.534C195.323 21.0193 195.281 21.4533 195.197 21.836H190.633ZM192.411 18.868C191.907 18.868 191.496 19.036 191.179 19.372C190.862 19.708 190.68 20.1607 190.633 20.73H193.867V20.618C193.867 20.0487 193.741 19.6147 193.489 19.316C193.246 19.0173 192.887 18.868 192.411 18.868ZM200.156 23.068C200.156 22.8627 200.09 22.6993 199.96 22.578C199.829 22.4473 199.586 22.3167 199.232 22.186L198.07 21.738C197.024 21.3367 196.502 20.6833 196.502 19.778C196.502 19.1247 196.744 18.6113 197.23 18.238C197.715 17.8553 198.364 17.664 199.176 17.664C199.95 17.664 200.65 17.8133 201.276 18.112V19.274C200.548 19.0407 199.88 18.924 199.274 18.924C198.844 18.924 198.527 18.9893 198.322 19.12C198.126 19.2413 198.028 19.4373 198.028 19.708C198.028 19.9133 198.098 20.0813 198.238 20.212C198.387 20.3333 198.648 20.4687 199.022 20.618L200.1 21.038C200.66 21.2527 201.061 21.5093 201.304 21.808C201.556 22.1067 201.682 22.4847 201.682 22.942C201.682 23.642 201.43 24.1973 200.926 24.608C200.422 25.0093 199.722 25.21 198.826 25.21C198.387 25.21 197.958 25.1633 197.538 25.07C197.118 24.9767 196.749 24.846 196.432 24.678V23.516C197.328 23.8053 198.121 23.95 198.812 23.95C199.278 23.95 199.619 23.88 199.834 23.74C200.048 23.5907 200.156 23.3667 200.156 23.068Z" fill="white"/>
<path d="M232.74 23.726C233.188 23.726 233.627 23.684 234.056 23.6V21.038H232.054V19.694H235.652V24.454C235.232 24.678 234.737 24.8553 234.168 24.986C233.608 25.1073 233.029 25.168 232.432 25.168C230.901 25.168 229.735 24.7433 228.932 23.894C228.129 23.0447 227.728 21.8173 227.728 20.212C227.728 18.5787 228.139 17.328 228.96 16.46C229.791 15.5827 230.981 15.144 232.53 15.144C233.575 15.144 234.504 15.3353 235.316 15.718V17.076C234.355 16.7493 233.468 16.586 232.656 16.586C231.573 16.586 230.771 16.866 230.248 17.426C229.725 17.986 229.464 18.8587 229.464 20.044V20.338C229.464 21.5047 229.725 22.3633 230.248 22.914C230.78 23.4553 231.611 23.726 232.74 23.726ZM237.703 25V17.874H239.355V25H237.703ZM238.529 16.698C238.221 16.698 237.978 16.614 237.801 16.446C237.623 16.278 237.535 16.0447 237.535 15.746C237.535 15.4473 237.623 15.214 237.801 15.046C237.978 14.878 238.221 14.794 238.529 14.794C238.837 14.794 239.079 14.878 239.257 15.046C239.434 15.214 239.523 15.4473 239.523 15.746C239.523 16.0447 239.434 16.278 239.257 16.446C239.079 16.614 238.837 16.698 238.529 16.698ZM241.896 25V19.134H240.65V18.098L241.896 17.916V16.964C241.896 15.284 242.685 14.444 244.262 14.444C244.831 14.444 245.321 14.5327 245.732 14.71V15.844C245.2 15.7787 244.845 15.746 244.668 15.746C244.267 15.746 243.977 15.8253 243.8 15.984C243.632 16.1333 243.548 16.39 243.548 16.754V17.874H245.648V19.134H243.548V25H241.896ZM251.114 24.832C250.629 25.0093 250.106 25.098 249.546 25.098C248.809 25.098 248.263 24.9253 247.908 24.58C247.554 24.2347 247.376 23.7073 247.376 22.998V19.134H246.172V18.098L247.432 17.916L247.684 15.914H249.028V17.874H251.058V19.134H249.028V22.914C249.028 23.2313 249.103 23.46 249.252 23.6C249.411 23.7307 249.672 23.796 250.036 23.796C250.428 23.796 250.788 23.7587 251.114 23.684V24.832ZM256.3 25V15.298H258.008V25H256.3ZM265.175 25L265.007 24.314C264.372 24.874 263.64 25.154 262.809 25.154C261.913 25.154 261.194 24.8227 260.653 24.16C260.121 23.488 259.855 22.5873 259.855 21.458C259.855 20.7113 259.976 20.0533 260.219 19.484C260.462 18.9147 260.812 18.4713 261.269 18.154C261.726 17.8273 262.268 17.664 262.893 17.664C263.64 17.664 264.321 17.9067 264.937 18.392V14.64H266.589V25H265.175ZM263.327 23.852C263.878 23.852 264.414 23.6747 264.937 23.32V19.47C264.461 19.134 263.934 18.966 263.355 18.966C262.73 18.966 262.268 19.1667 261.969 19.568C261.68 19.96 261.535 20.5667 261.535 21.388C261.535 23.0307 262.132 23.852 263.327 23.852ZM269.762 21.836C269.79 22.5453 269.986 23.068 270.35 23.404C270.723 23.7307 271.292 23.894 272.058 23.894C272.748 23.894 273.495 23.7633 274.298 23.502V24.664C273.98 24.832 273.602 24.9627 273.164 25.056C272.734 25.1587 272.286 25.21 271.82 25.21C270.644 25.21 269.752 24.8927 269.146 24.258C268.539 23.6233 268.236 22.6993 268.236 21.486C268.236 20.282 268.53 19.344 269.118 18.672C269.715 18 270.546 17.664 271.61 17.664C272.524 17.664 273.224 17.916 273.71 18.42C274.204 18.9147 274.452 19.6193 274.452 20.534C274.452 21.0193 274.41 21.4533 274.326 21.836H269.762ZM271.54 18.868C271.036 18.868 270.625 19.036 270.308 19.372C269.99 19.708 269.808 20.1607 269.762 20.73H272.996V20.618C272.996 20.0487 272.87 19.6147 272.618 19.316C272.375 19.0173 272.016 18.868 271.54 18.868ZM280.209 25L280.083 24.314C279.756 24.594 279.392 24.8133 278.991 24.972C278.599 25.1307 278.207 25.21 277.815 25.21C277.161 25.21 276.629 25.014 276.219 24.622C275.817 24.23 275.617 23.7213 275.617 23.096C275.617 22.4053 275.864 21.8547 276.359 21.444C276.863 21.0333 277.535 20.828 278.375 20.828C278.869 20.828 279.411 20.898 279.999 21.038V20.212C279.999 19.736 279.896 19.4047 279.691 19.218C279.485 19.0313 279.126 18.938 278.613 18.938C277.885 18.938 277.049 19.092 276.107 19.4V18.238C276.452 18.0607 276.872 17.9207 277.367 17.818C277.871 17.7153 278.375 17.664 278.879 17.664C279.793 17.664 280.465 17.8507 280.895 18.224C281.333 18.5973 281.553 19.1807 281.553 19.974V25H280.209ZM278.277 24.034C278.547 24.034 278.832 23.978 279.131 23.866C279.429 23.7447 279.719 23.5767 279.999 23.362V22.018C279.504 21.9153 279.065 21.864 278.683 21.864C277.712 21.864 277.227 22.242 277.227 22.998C277.227 23.3247 277.32 23.5813 277.507 23.768C277.693 23.9453 277.95 24.034 278.277 24.034ZM286.749 23.068C286.749 22.8627 286.684 22.6993 286.553 22.578C286.423 22.4473 286.18 22.3167 285.825 22.186L284.663 21.738C283.618 21.3367 283.095 20.6833 283.095 19.778C283.095 19.1247 283.338 18.6113 283.823 18.238C284.309 17.8553 284.957 17.664 285.769 17.664C286.544 17.664 287.244 17.8133 287.869 18.112V19.274C287.141 19.0407 286.474 18.924 285.867 18.924C285.438 18.924 285.121 18.9893 284.915 19.12C284.719 19.2413 284.621 19.4373 284.621 19.708C284.621 19.9133 284.691 20.0813 284.831 20.212C284.981 20.3333 285.242 20.4687 285.615 20.618L286.693 21.038C287.253 21.2527 287.655 21.5093 287.897 21.808C288.149 22.1067 288.275 22.4847 288.275 22.942C288.275 23.642 288.023 24.1973 287.519 24.608C287.015 25.0093 286.315 25.21 285.419 25.21C284.981 25.21 284.551 25.1633 284.131 25.07C283.711 24.9767 283.343 24.846 283.025 24.678V23.516C283.921 23.8053 284.715 23.95 285.405 23.95C285.872 23.95 286.213 23.88 286.427 23.74C286.642 23.5907 286.749 23.3667 286.749 23.068Z" fill="white"/>
<path d="M315.814 21.346V25H314.148V15.298H317.746C318.717 15.298 319.482 15.5687 320.042 16.11C320.611 16.6513 320.896 17.3887 320.896 18.322C320.896 19.2553 320.611 19.9927 320.042 20.534C319.482 21.0753 318.717 21.346 317.746 21.346H315.814ZM315.814 20.03H317.578C318.119 20.03 318.525 19.8853 318.796 19.596C319.076 19.3067 319.216 18.882 319.216 18.322C319.216 17.762 319.076 17.3373 318.796 17.048C318.525 16.7587 318.119 16.614 317.578 16.614H315.814V20.03ZM322.498 25V17.874H323.87L324.094 18.938C324.468 18.5273 324.818 18.238 325.144 18.07C325.471 17.902 325.826 17.818 326.208 17.818C326.386 17.818 326.577 17.832 326.782 17.86V19.372C326.521 19.3253 326.255 19.302 325.984 19.302C325.294 19.302 324.682 19.4793 324.15 19.834V25H322.498ZM327.955 25V17.874H329.607V25H327.955ZM328.781 16.698C328.473 16.698 328.23 16.614 328.053 16.446C327.875 16.278 327.787 16.0447 327.787 15.746C327.787 15.4473 327.875 15.214 328.053 15.046C328.23 14.878 328.473 14.794 328.781 14.794C329.089 14.794 329.331 14.878 329.509 15.046C329.686 15.214 329.775 15.4473 329.775 15.746C329.775 16.0447 329.686 16.278 329.509 16.446C329.331 16.614 329.089 16.698 328.781 16.698ZM340.688 25V20.17C340.688 19.7407 340.604 19.4327 340.436 19.246C340.268 19.0593 339.993 18.966 339.61 18.966C339.321 18.966 339.013 19.0173 338.686 19.12C338.359 19.2133 338.075 19.3347 337.832 19.484V25H336.18V20.17C336.18 19.7407 336.096 19.4327 335.928 19.246C335.76 19.0593 335.485 18.966 335.102 18.966C334.831 18.966 334.537 19.0127 334.22 19.106C333.912 19.19 333.613 19.316 333.324 19.484V25H331.672V17.874H333.044L333.198 18.588C333.665 18.2707 334.103 18.0373 334.514 17.888C334.934 17.7387 335.354 17.664 335.774 17.664C336.642 17.664 337.239 17.986 337.566 18.63C338.499 17.986 339.395 17.664 340.254 17.664C340.917 17.664 341.43 17.846 341.794 18.21C342.158 18.5647 342.34 19.0827 342.34 19.764V25H340.688ZM345.481 21.836C345.509 22.5453 345.705 23.068 346.069 23.404C346.442 23.7307 347.011 23.894 347.777 23.894C348.467 23.894 349.214 23.7633 350.017 23.502V24.664C349.699 24.832 349.321 24.9627 348.883 25.056C348.453 25.1587 348.005 25.21 347.539 25.21C346.363 25.21 345.471 24.8927 344.865 24.258C344.258 23.6233 343.955 22.6993 343.955 21.486C343.955 20.282 344.249 19.344 344.837 18.672C345.434 18 346.265 17.664 347.329 17.664C348.243 17.664 348.943 17.916 349.429 18.42C349.923 18.9147 350.171 19.6193 350.171 20.534C350.171 21.0193 350.129 21.4533 350.045 21.836H345.481ZM347.259 18.868C346.755 18.868 346.344 19.036 346.027 19.372C345.709 19.708 345.527 20.1607 345.481 20.73H348.715V20.618C348.715 20.0487 348.589 19.6147 348.337 19.316C348.094 19.0173 347.735 18.868 347.259 18.868Z" fill="white"/>
<path d="M360.5 19H369.5L365 25.75L360.5 19Z" fill="#A3A3A3"/>
<path d="M402.196 25L401.384 22.564H397.66L396.876 25H395.112L398.64 15.298H400.488L404.002 25H402.196ZM398.066 21.318H400.992L399.522 16.838L398.066 21.318ZM414.143 25V20.17C414.143 19.7407 414.059 19.4327 413.891 19.246C413.723 19.0593 413.448 18.966 413.065 18.966C412.776 18.966 412.468 19.0173 412.141 19.12C411.814 19.2133 411.53 19.3347 411.287 19.484V25H409.635V20.17C409.635 19.7407 409.551 19.4327 409.383 19.246C409.215 19.0593 408.94 18.966 408.557 18.966C408.286 18.966 407.992 19.0127 407.675 19.106C407.367 19.19 407.068 19.316 406.779 19.484V25H405.127V17.874H406.499L406.653 18.588C407.12 18.2707 407.558 18.0373 407.969 17.888C408.389 17.7387 408.809 17.664 409.229 17.664C410.097 17.664 410.694 17.986 411.021 18.63C411.954 17.986 412.85 17.664 413.709 17.664C414.372 17.664 414.885 17.846 415.249 18.21C415.613 18.5647 415.795 19.0827 415.795 19.764V25H414.143ZM421.918 25L421.792 24.314C421.465 24.594 421.101 24.8133 420.7 24.972C420.308 25.1307 419.916 25.21 419.524 25.21C418.87 25.21 418.338 25.014 417.928 24.622C417.526 24.23 417.326 23.7213 417.326 23.096C417.326 22.4053 417.573 21.8547 418.068 21.444C418.572 21.0333 419.244 20.828 420.084 20.828C420.578 20.828 421.12 20.898 421.708 21.038V20.212C421.708 19.736 421.605 19.4047 421.4 19.218C421.194 19.0313 420.835 18.938 420.322 18.938C419.594 18.938 418.758 19.092 417.816 19.4V18.238C418.161 18.0607 418.581 17.9207 419.076 17.818C419.58 17.7153 420.084 17.664 420.588 17.664C421.502 17.664 422.174 17.8507 422.604 18.224C423.042 18.5973 423.262 19.1807 423.262 19.974V25H421.918ZM419.986 24.034C420.256 24.034 420.541 23.978 420.84 23.866C421.138 23.7447 421.428 23.5767 421.708 23.362V22.018C421.213 21.9153 420.774 21.864 420.392 21.864C419.421 21.864 418.936 22.242 418.936 22.998C418.936 23.3247 419.029 23.5813 419.216 23.768C419.402 23.9453 419.659 24.034 419.986 24.034ZM424.706 25V23.782L428.682 19.134H424.846V17.874H430.46V19.092L426.484 23.74H430.502V25H424.706ZM434.936 25.21C433.853 25.21 433.008 24.8787 432.402 24.216C431.795 23.544 431.492 22.6153 431.492 21.43C431.492 20.2447 431.795 19.3207 432.402 18.658C433.008 17.9953 433.853 17.664 434.936 17.664C436.018 17.664 436.863 17.9953 437.47 18.658C438.076 19.3207 438.38 20.2447 438.38 21.43C438.38 22.6153 438.076 23.544 437.47 24.216C436.863 24.8787 436.018 25.21 434.936 25.21ZM434.936 23.908C436.112 23.908 436.7 23.082 436.7 21.43C436.7 19.7873 436.112 18.966 434.936 18.966C433.76 18.966 433.172 19.7873 433.172 21.43C433.172 23.082 433.76 23.908 434.936 23.908ZM444.749 25V20.282C444.749 19.8247 444.656 19.4933 444.469 19.288C444.283 19.0733 443.984 18.966 443.573 18.966C442.957 18.966 442.327 19.1713 441.683 19.582V25H440.031V17.874H441.403L441.571 18.658C442.449 17.9953 443.363 17.664 444.315 17.664C444.997 17.664 445.515 17.846 445.869 18.21C446.224 18.5647 446.401 19.0827 446.401 19.764V25H444.749ZM453.841 21.346V25H452.175V15.298H455.773C456.744 15.298 457.509 15.5687 458.069 16.11C458.639 16.6513 458.923 17.3887 458.923 18.322C458.923 19.2553 458.639 19.9927 458.069 20.534C457.509 21.0753 456.744 21.346 455.773 21.346H453.841ZM453.841 20.03H455.605C456.147 20.03 456.553 19.8853 456.823 19.596C457.103 19.3067 457.243 18.882 457.243 18.322C457.243 17.762 457.103 17.3373 456.823 17.048C456.553 16.7587 456.147 16.614 455.605 16.614H453.841V20.03ZM464.533 25L464.407 24.314C464.08 24.594 463.716 24.8133 463.315 24.972C462.923 25.1307 462.531 25.21 462.139 25.21C461.486 25.21 460.954 25.014 460.543 24.622C460.142 24.23 459.941 23.7213 459.941 23.096C459.941 22.4053 460.188 21.8547 460.683 21.444C461.187 21.0333 461.859 20.828 462.699 20.828C463.194 20.828 463.735 20.898 464.323 21.038V20.212C464.323 19.736 464.22 19.4047 464.015 19.218C463.81 19.0313 463.45 18.938 462.937 18.938C462.209 18.938 461.374 19.092 460.431 19.4V18.238C460.776 18.0607 461.196 17.9207 461.691 17.818C462.195 17.7153 462.699 17.664 463.203 17.664C464.118 17.664 464.79 17.8507 465.219 18.224C465.658 18.5973 465.877 19.1807 465.877 19.974V25H464.533ZM462.601 24.034C462.872 24.034 463.156 23.978 463.455 23.866C463.754 23.7447 464.043 23.5767 464.323 23.362V22.018C463.828 21.9153 463.39 21.864 463.007 21.864C462.036 21.864 461.551 22.242 461.551 22.998C461.551 23.3247 461.644 23.5813 461.831 23.768C462.018 23.9453 462.274 24.034 462.601 24.034ZM469.511 25.084L466.725 17.874H468.489L470.295 23.516L472.129 17.874H473.823L470.631 26.134C470.37 26.8153 470.062 27.3053 469.707 27.604C469.352 27.9027 468.89 28.052 468.321 28.052C467.901 28.052 467.509 27.982 467.145 27.842V26.694C467.369 26.7407 467.607 26.764 467.859 26.764C468.26 26.764 468.559 26.6893 468.755 26.54C468.951 26.4 469.142 26.078 469.329 25.574L469.511 25.084Z" fill="white"/>
<path d="M503.74 23.726C504.188 23.726 504.627 23.684 505.056 23.6V21.038H503.054V19.694H506.652V24.454C506.232 24.678 505.737 24.8553 505.168 24.986C504.608 25.1073 504.029 25.168 503.432 25.168C501.901 25.168 500.735 24.7433 499.932 23.894C499.129 23.0447 498.728 21.8173 498.728 20.212C498.728 18.5787 499.139 17.328 499.96 16.46C500.791 15.5827 501.981 15.144 503.53 15.144C504.575 15.144 505.504 15.3353 506.316 15.718V17.076C505.355 16.7493 504.468 16.586 503.656 16.586C502.573 16.586 501.771 16.866 501.248 17.426C500.725 17.986 500.464 18.8587 500.464 20.044V20.338C500.464 21.5047 500.725 22.3633 501.248 22.914C501.78 23.4553 502.611 23.726 503.74 23.726ZM508.703 25V17.874H510.355V25H508.703ZM509.529 16.698C509.221 16.698 508.978 16.614 508.801 16.446C508.623 16.278 508.535 16.0447 508.535 15.746C508.535 15.4473 508.623 15.214 508.801 15.046C508.978 14.878 509.221 14.794 509.529 14.794C509.837 14.794 510.079 14.878 510.257 15.046C510.434 15.214 510.523 15.4473 510.523 15.746C510.523 16.0447 510.434 16.278 510.257 16.446C510.079 16.614 509.837 16.698 509.529 16.698ZM512.896 25V19.134H511.65V18.098L512.896 17.916V16.964C512.896 15.284 513.685 14.444 515.262 14.444C515.831 14.444 516.321 14.5327 516.732 14.71V15.844C516.2 15.7787 515.845 15.746 515.668 15.746C515.267 15.746 514.977 15.8253 514.8 15.984C514.632 16.1333 514.548 16.39 514.548 16.754V17.874H516.648V19.134H514.548V25H512.896ZM522.114 24.832C521.629 25.0093 521.106 25.098 520.546 25.098C519.809 25.098 519.263 24.9253 518.908 24.58C518.554 24.2347 518.376 23.7073 518.376 22.998V19.134H517.172V18.098L518.432 17.916L518.684 15.914H520.028V17.874H522.058V19.134H520.028V22.914C520.028 23.2313 520.103 23.46 520.252 23.6C520.411 23.7307 520.672 23.796 521.036 23.796C521.428 23.796 521.788 23.7587 522.114 23.684V24.832ZM534.034 24.734C533.296 25.0233 532.456 25.168 531.514 25.168C529.964 25.168 528.793 24.7573 528 23.936C527.216 23.1147 526.824 21.9013 526.824 20.296C526.824 18.644 527.23 17.3747 528.042 16.488C528.863 15.592 530.039 15.144 531.57 15.144C532.41 15.144 533.184 15.27 533.894 15.522V16.922C532.97 16.726 532.246 16.628 531.724 16.628C530.669 16.628 529.885 16.9033 529.372 17.454C528.858 18.0047 528.602 18.854 528.602 20.002V20.338C528.602 21.4767 528.854 22.3213 529.358 22.872C529.871 23.4133 530.65 23.684 531.696 23.684C532.284 23.684 533.063 23.5673 534.034 23.334V24.734ZM539.642 25L539.516 24.314C539.19 24.594 538.826 24.8133 538.424 24.972C538.032 25.1307 537.64 25.21 537.248 25.21C536.595 25.21 536.063 25.014 535.652 24.622C535.251 24.23 535.05 23.7213 535.05 23.096C535.05 22.4053 535.298 21.8547 535.792 21.444C536.296 21.0333 536.968 20.828 537.808 20.828C538.303 20.828 538.844 20.898 539.432 21.038V20.212C539.432 19.736 539.33 19.4047 539.124 19.218C538.919 19.0313 538.56 18.938 538.046 18.938C537.318 18.938 536.483 19.092 535.54 19.4V18.238C535.886 18.0607 536.306 17.9207 536.8 17.818C537.304 17.7153 537.808 17.664 538.312 17.664C539.227 17.664 539.899 17.8507 540.328 18.224C540.767 18.5973 540.986 19.1807 540.986 19.974V25H539.642ZM537.71 24.034C537.981 24.034 538.266 23.978 538.564 23.866C538.863 23.7447 539.152 23.5767 539.432 23.362V22.018C538.938 21.9153 538.499 21.864 538.116 21.864C537.146 21.864 536.66 22.242 536.66 22.998C536.66 23.3247 536.754 23.5813 536.94 23.768C537.127 23.9453 537.384 24.034 537.71 24.034ZM542.963 25V17.874H544.335L544.559 18.938C544.932 18.5273 545.282 18.238 545.609 18.07C545.936 17.902 546.29 17.818 546.673 17.818C546.85 17.818 547.042 17.832 547.247 17.86V19.372C546.986 19.3253 546.72 19.302 546.449 19.302C545.758 19.302 545.147 19.4793 544.615 19.834V25H542.963ZM553.319 25L553.151 24.314C552.517 24.874 551.784 25.154 550.953 25.154C550.057 25.154 549.339 24.8227 548.797 24.16C548.265 23.488 547.999 22.5873 547.999 21.458C547.999 20.7113 548.121 20.0533 548.363 19.484C548.606 18.9147 548.956 18.4713 549.413 18.154C549.871 17.8273 550.412 17.664 551.037 17.664C551.784 17.664 552.465 17.9067 553.081 18.392V14.64H554.733V25H553.319ZM551.471 23.852C552.022 23.852 552.559 23.6747 553.081 23.32V19.47C552.605 19.134 552.078 18.966 551.499 18.966C550.874 18.966 550.412 19.1667 550.113 19.568C549.824 19.96 549.679 20.5667 549.679 21.388C549.679 23.0307 550.277 23.852 551.471 23.852ZM559.964 23.068C559.964 22.8627 559.899 22.6993 559.768 22.578C559.638 22.4473 559.395 22.3167 559.04 22.186L557.878 21.738C556.833 21.3367 556.31 20.6833 556.31 19.778C556.31 19.1247 556.553 18.6113 557.038 18.238C557.524 17.8553 558.172 17.664 558.984 17.664C559.759 17.664 560.459 17.8133 561.084 18.112V19.274C560.356 19.0407 559.689 18.924 559.082 18.924C558.653 18.924 558.336 18.9893 558.13 19.12C557.934 19.2413 557.836 19.4373 557.836 19.708C557.836 19.9133 557.906 20.0813 558.046 20.212C558.196 20.3333 558.457 20.4687 558.83 20.618L559.908 21.038C560.468 21.2527 560.87 21.5093 561.112 21.808C561.364 22.1067 561.49 22.4847 561.49 22.942C561.49 23.642 561.238 24.1973 560.734 24.608C560.23 25.0093 559.53 25.21 558.634 25.21C558.196 25.21 557.766 25.1633 557.346 25.07C556.926 24.9767 556.558 24.846 556.24 24.678V23.516C557.136 23.8053 557.93 23.95 558.62 23.95C559.087 23.95 559.428 23.88 559.642 23.74C559.857 23.5907 559.964 23.3667 559.964 23.068Z" fill="white"/>
<path d="M589.01 20.534C588.226 20.2353 587.657 19.8807 587.302 19.47C586.947 19.05 586.77 18.5273 586.77 17.902C586.77 17.034 587.073 16.348 587.68 15.844C588.296 15.3307 589.122 15.074 590.158 15.074C591.017 15.074 591.889 15.242 592.776 15.578V16.936C591.871 16.656 591.045 16.516 590.298 16.516C589.057 16.516 588.436 16.9313 588.436 17.762C588.436 18.0793 588.548 18.3407 588.772 18.546C588.996 18.7513 589.393 18.9567 589.962 19.162L591.152 19.596C591.936 19.8853 592.501 20.2353 592.846 20.646C593.201 21.0567 593.378 21.5793 593.378 22.214C593.378 23.1567 593.047 23.8987 592.384 24.44C591.721 24.972 590.811 25.238 589.654 25.238C589.159 25.238 588.665 25.1867 588.17 25.084C587.675 24.9907 587.241 24.8553 586.868 24.678V23.32C587.325 23.4693 587.801 23.586 588.296 23.67C588.8 23.754 589.253 23.796 589.654 23.796C590.317 23.796 590.825 23.6793 591.18 23.446C591.535 23.2033 591.712 22.858 591.712 22.41C591.712 22.0927 591.605 21.8313 591.39 21.626C591.175 21.4207 590.797 21.2153 590.256 21.01L589.01 20.534ZM595.088 27.884V17.874H596.46L596.614 18.588C596.941 18.2893 597.3 18.0607 597.692 17.902C598.093 17.7433 598.509 17.664 598.938 17.664C599.825 17.664 600.529 17.9953 601.052 18.658C601.584 19.3207 601.85 20.212 601.85 21.332C601.85 22.0787 601.729 22.7413 601.486 23.32C601.243 23.8893 600.893 24.3373 600.436 24.664C599.979 24.9907 599.442 25.154 598.826 25.154C598.434 25.154 598.056 25.0887 597.692 24.958C597.328 24.818 597.011 24.6267 596.74 24.384V27.884H595.088ZM598.42 18.966C597.813 18.966 597.253 19.1433 596.74 19.498V23.306C597.263 23.67 597.818 23.852 598.406 23.852C599.003 23.852 599.447 23.6513 599.736 23.25C600.025 22.8393 600.17 22.2187 600.17 21.388C600.17 20.5667 600.025 19.96 599.736 19.568C599.456 19.1667 599.017 18.966 598.42 18.966ZM606.576 25.21C605.494 25.21 604.649 24.8787 604.042 24.216C603.436 23.544 603.132 22.6153 603.132 21.43C603.132 20.2447 603.436 19.3207 604.042 18.658C604.649 17.9953 605.494 17.664 606.576 17.664C607.659 17.664 608.504 17.9953 609.11 18.658C609.717 19.3207 610.02 20.2447 610.02 21.43C610.02 22.6153 609.717 23.544 609.11 24.216C608.504 24.8787 607.659 25.21 606.576 25.21ZM606.576 23.908C607.752 23.908 608.34 23.082 608.34 21.43C608.34 19.7873 607.752 18.966 606.576 18.966C605.4 18.966 604.812 19.7873 604.812 21.43C604.812 23.082 605.4 23.908 606.576 23.908ZM611.672 25V17.874H613.044L613.268 18.938C613.641 18.5273 613.991 18.238 614.318 18.07C614.645 17.902 614.999 17.818 615.382 17.818C615.559 17.818 615.751 17.832 615.956 17.86V19.372C615.695 19.3253 615.429 19.302 615.158 19.302C614.467 19.302 613.856 19.4793 613.324 19.834V25H611.672ZM621.653 24.832C621.168 25.0093 620.645 25.098 620.085 25.098C619.348 25.098 618.802 24.9253 618.447 24.58C618.093 24.2347 617.915 23.7073 617.915 22.998V19.134H616.711V18.098L617.971 17.916L618.223 15.914H619.567V17.874H621.597V19.134H619.567V22.914C619.567 23.2313 619.642 23.46 619.791 23.6C619.95 23.7307 620.211 23.796 620.575 23.796C620.967 23.796 621.327 23.7587 621.653 23.684V24.832ZM626.199 23.068C626.199 22.8627 626.133 22.6993 626.003 22.578C625.872 22.4473 625.629 22.3167 625.275 22.186L624.113 21.738C623.067 21.3367 622.545 20.6833 622.545 19.778C622.545 19.1247 622.787 18.6113 623.273 18.238C623.758 17.8553 624.407 17.664 625.219 17.664C625.993 17.664 626.693 17.8133 627.319 18.112V19.274C626.591 19.0407 625.923 18.924 625.317 18.924C624.887 18.924 624.57 18.9893 624.365 19.12C624.169 19.2413 624.071 19.4373 624.071 19.708C624.071 19.9133 624.141 20.0813 624.281 20.212C624.43 20.3333 624.691 20.4687 625.065 20.618L626.143 21.038C626.703 21.2527 627.104 21.5093 627.347 21.808C627.599 22.1067 627.725 22.4847 627.725 22.942C627.725 23.642 627.473 24.1973 626.969 24.608C626.465 25.0093 625.765 25.21 624.869 25.21C624.43 25.21 624.001 25.1633 623.581 25.07C623.161 24.9767 622.792 24.846 622.475 24.678V23.516C623.371 23.8053 624.164 23.95 624.855 23.95C625.321 23.95 625.662 23.88 625.877 23.74C626.091 23.5907 626.199 23.3667 626.199 23.068ZM628.474 27.17L629.23 23.166H629.734C630.098 23.166 630.359 23.2127 630.518 23.306C630.686 23.3993 630.77 23.5533 630.77 23.768C630.77 23.9453 630.695 24.23 630.546 24.622L629.58 27.17H628.474ZM636.558 25V15.298H642.452V16.67H638.266V19.47H641.696V20.842H638.266V25H636.558ZM643.898 25V17.874H645.55V25H643.898ZM644.724 16.698C644.416 16.698 644.173 16.614 643.996 16.446C643.819 16.278 643.73 16.0447 643.73 15.746C643.73 15.4473 643.819 15.214 643.996 15.046C644.173 14.878 644.416 14.794 644.724 14.794C645.032 14.794 645.275 14.878 645.452 15.046C645.629 15.214 645.718 15.4473 645.718 15.746C645.718 16.0447 645.629 16.278 645.452 16.446C645.275 16.614 645.032 16.698 644.724 16.698ZM651.731 24.832C651.246 25.0093 650.723 25.098 650.163 25.098C649.426 25.098 648.88 24.9253 648.525 24.58C648.171 24.2347 647.993 23.7073 647.993 22.998V19.134H646.789V18.098L648.049 17.916L648.301 15.914H649.645V17.874H651.675V19.134H649.645V22.914C649.645 23.2313 649.72 23.46 649.869 23.6C650.028 23.7307 650.289 23.796 650.653 23.796C651.045 23.796 651.405 23.7587 651.731 23.684V24.832ZM657.775 25V20.282C657.775 19.8247 657.681 19.4933 657.495 19.288C657.308 19.0733 657.009 18.966 656.599 18.966C655.983 18.966 655.353 19.1713 654.709 19.582V25H653.057V17.874H654.429L654.597 18.658C655.474 17.9953 656.389 17.664 657.341 17.664C658.022 17.664 658.54 17.846 658.895 18.21C659.249 18.5647 659.427 19.0827 659.427 19.764V25H657.775ZM662.559 21.836C662.587 22.5453 662.783 23.068 663.147 23.404C663.52 23.7307 664.089 23.894 664.855 23.894C665.545 23.894 666.292 23.7633 667.095 23.502V24.664C666.777 24.832 666.399 24.9627 665.961 25.056C665.531 25.1587 665.083 25.21 664.617 25.21C663.441 25.21 662.549 24.8927 661.943 24.258C661.336 23.6233 661.033 22.6993 661.033 21.486C661.033 20.282 661.327 19.344 661.915 18.672C662.512 18 663.343 17.664 664.407 17.664C665.321 17.664 666.021 17.916 666.507 18.42C667.001 18.9147 667.249 19.6193 667.249 20.534C667.249 21.0193 667.207 21.4533 667.123 21.836H662.559ZM664.337 18.868C663.833 18.868 663.422 19.036 663.105 19.372C662.787 19.708 662.605 20.1607 662.559 20.73H665.793V20.618C665.793 20.0487 665.667 19.6147 665.415 19.316C665.172 19.0173 664.813 18.868 664.337 18.868ZM672.082 23.068C672.082 22.8627 672.016 22.6993 671.886 22.578C671.755 22.4473 671.512 22.3167 671.158 22.186L669.996 21.738C668.95 21.3367 668.428 20.6833 668.428 19.778C668.428 19.1247 668.67 18.6113 669.156 18.238C669.641 17.8553 670.29 17.664 671.102 17.664C671.876 17.664 672.576 17.8133 673.202 18.112V19.274C672.474 19.0407 671.806 18.924 671.2 18.924C670.77 18.924 670.453 18.9893 670.248 19.12C670.052 19.2413 669.954 19.4373 669.954 19.708C669.954 19.9133 670.024 20.0813 670.164 20.212C670.313 20.3333 670.574 20.4687 670.948 20.618L672.026 21.038C672.586 21.2527 672.987 21.5093 673.23 21.808C673.482 22.1067 673.608 22.4847 673.608 22.942C673.608 23.642 673.356 24.1973 672.852 24.608C672.348 25.0093 671.648 25.21 670.752 25.21C670.313 25.21 669.884 25.1633 669.464 25.07C669.044 24.9767 668.675 24.846 668.358 24.678V23.516C669.254 23.8053 670.047 23.95 670.738 23.95C671.204 23.95 671.545 23.88 671.76 23.74C671.974 23.5907 672.082 23.3667 672.082 23.068ZM678.193 23.068C678.193 22.8627 678.128 22.6993 677.997 22.578C677.866 22.4473 677.624 22.3167 677.269 22.186L676.107 21.738C675.062 21.3367 674.539 20.6833 674.539 19.778C674.539 19.1247 674.782 18.6113 675.267 18.238C675.752 17.8553 676.401 17.664 677.213 17.664C677.988 17.664 678.688 17.8133 679.313 18.112V19.274C678.585 19.0407 677.918 18.924 677.311 18.924C676.882 18.924 676.564 18.9893 676.359 19.12C676.163 19.2413 676.065 19.4373 676.065 19.708C676.065 19.9133 676.135 20.0813 676.275 20.212C676.424 20.3333 676.686 20.4687 677.059 20.618L678.137 21.038C678.697 21.2527 679.098 21.5093 679.341 21.808C679.593 22.1067 679.719 22.4847 679.719 22.942C679.719 23.642 679.467 24.1973 678.963 24.608C678.459 25.0093 677.759 25.21 676.863 25.21C676.424 25.21 675.995 25.1633 675.575 25.07C675.155 24.9767 674.786 24.846 674.469 24.678V23.516C675.365 23.8053 676.158 23.95 676.849 23.95C677.316 23.95 677.656 23.88 677.871 23.74C678.086 23.5907 678.193 23.3667 678.193 23.068ZM684.23 22.536C684.23 21.9013 684.408 21.346 684.762 20.87C685.117 20.3847 685.63 19.9973 686.302 19.708C685.845 19.1853 685.532 18.7607 685.364 18.434C685.196 18.098 685.112 17.748 685.112 17.384C685.112 16.6747 685.36 16.1147 685.854 15.704C686.358 15.284 687.044 15.074 687.912 15.074C688.743 15.074 689.406 15.2653 689.9 15.648C690.404 16.0213 690.656 16.5207 690.656 17.146C690.656 18.1633 689.975 19.036 688.612 19.764L688.304 19.932L690.558 22.452C690.978 21.7987 691.188 20.9913 691.188 20.03V19.596H692.588V20.142C692.588 21.4393 692.22 22.5453 691.482 23.46C691.641 23.5907 691.814 23.6887 692 23.754C692.196 23.81 692.43 23.838 692.7 23.838C692.99 23.838 693.274 23.8147 693.554 23.768V24.874C693.414 24.9393 693.218 24.9907 692.966 25.028C692.724 25.0747 692.486 25.098 692.252 25.098C691.926 25.098 691.622 25.042 691.342 24.93C691.062 24.818 690.782 24.636 690.502 24.384C689.672 24.9533 688.701 25.238 687.59 25.238C686.545 25.238 685.724 25 685.126 24.524C684.529 24.0387 684.23 23.376 684.23 22.536ZM687.688 23.964C688.388 23.964 689.014 23.796 689.564 23.46L687.002 20.506C686.181 20.9727 685.77 21.6027 685.77 22.396C685.77 22.9 685.934 23.2873 686.26 23.558C686.587 23.8287 687.063 23.964 687.688 23.964ZM686.582 17.412C686.582 17.6547 686.652 17.8973 686.792 18.14C686.932 18.3733 687.208 18.714 687.618 19.162L688.024 18.952C688.398 18.756 688.692 18.5087 688.906 18.21C689.121 17.9113 689.228 17.6033 689.228 17.286C689.228 16.95 689.107 16.6887 688.864 16.502C688.622 16.306 688.304 16.208 687.912 16.208C687.502 16.208 687.175 16.3153 686.932 16.53C686.699 16.7447 686.582 17.0387 686.582 17.412ZM700.218 20.156C700.218 21.3507 700.465 22.2607 700.96 22.886C701.455 23.502 702.173 23.81 703.116 23.81C704.059 23.81 704.777 23.502 705.272 22.886C705.767 22.2607 706.014 21.3507 706.014 20.156C706.014 18.9613 705.767 18.056 705.272 17.44C704.777 16.8147 704.059 16.502 703.116 16.502C702.173 16.502 701.455 16.8147 700.96 17.44C700.465 18.056 700.218 18.9613 700.218 20.156ZM698.482 20.156C698.482 19.1293 698.664 18.2333 699.028 17.468C699.392 16.7027 699.924 16.1147 700.624 15.704C701.324 15.284 702.155 15.074 703.116 15.074C704.049 15.074 704.861 15.2747 705.552 15.676C706.252 16.0773 706.793 16.6607 707.176 17.426C707.559 18.1913 707.75 19.1013 707.75 20.156C707.75 21.1827 707.568 22.0787 707.204 22.844C706.84 23.6093 706.308 24.202 705.608 24.622C704.908 25.0327 704.077 25.238 703.116 25.238C702.183 25.238 701.366 25.0373 700.666 24.636C699.975 24.2347 699.439 23.6513 699.056 22.886C698.673 22.1207 698.482 21.2107 698.482 20.156ZM714.269 25L714.101 24.216C713.223 24.8787 712.351 25.21 711.483 25.21C710.82 25.21 710.307 25.028 709.943 24.664C709.588 24.2907 709.411 23.7587 709.411 23.068V17.874H711.063V22.578C711.063 23.0353 711.156 23.3713 711.343 23.586C711.529 23.8007 711.828 23.908 712.239 23.908C712.817 23.908 713.401 23.7167 713.989 23.334V17.874H715.641V25H714.269ZM721.772 24.832C721.287 25.0093 720.764 25.098 720.204 25.098C719.467 25.098 718.921 24.9253 718.566 24.58C718.212 24.2347 718.034 23.7073 718.034 22.998V19.134H716.83V18.098L718.09 17.916L718.342 15.914H719.686V17.874H721.716V19.134H719.686V22.914C719.686 23.2313 719.761 23.46 719.91 23.6C720.069 23.7307 720.33 23.796 720.694 23.796C721.086 23.796 721.446 23.7587 721.772 23.684V24.832ZM728.054 25L727.886 24.314C727.251 24.874 726.519 25.154 725.688 25.154C724.792 25.154 724.073 24.8227 723.532 24.16C723 23.488 722.734 22.5873 722.734 21.458C722.734 20.7113 722.855 20.0533 723.098 19.484C723.341 18.9147 723.691 18.4713 724.148 18.154C724.605 17.8273 725.147 17.664 725.772 17.664C726.519 17.664 727.2 17.9067 727.816 18.392V14.64H729.468V25H728.054ZM726.206 23.852C726.757 23.852 727.293 23.6747 727.816 23.32V19.47C727.34 19.134 726.813 18.966 726.234 18.966C725.609 18.966 725.147 19.1667 724.848 19.568C724.559 19.96 724.414 20.5667 724.414 21.388C724.414 23.0307 725.011 23.852 726.206 23.852ZM734.559 25.21C733.476 25.21 732.631 24.8787 732.025 24.216C731.418 23.544 731.115 22.6153 731.115 21.43C731.115 20.2447 731.418 19.3207 732.025 18.658C732.631 17.9953 733.476 17.664 734.559 17.664C735.641 17.664 736.486 17.9953 737.093 18.658C737.699 19.3207 738.003 20.2447 738.003 21.43C738.003 22.6153 737.699 23.544 737.093 24.216C736.486 24.8787 735.641 25.21 734.559 25.21ZM734.559 23.908C735.735 23.908 736.323 23.082 736.323 21.43C736.323 19.7873 735.735 18.966 734.559 18.966C733.383 18.966 732.795 19.7873 732.795 21.43C732.795 23.082 733.383 23.908 734.559 23.908ZM742.734 25.21C741.652 25.21 740.807 24.8787 740.2 24.216C739.594 23.544 739.29 22.6153 739.29 21.43C739.29 20.2447 739.594 19.3207 740.2 18.658C740.807 17.9953 741.652 17.664 742.734 17.664C743.817 17.664 744.662 17.9953 745.268 18.658C745.875 19.3207 746.178 20.2447 746.178 21.43C746.178 22.6153 745.875 23.544 745.268 24.216C744.662 24.8787 743.817 25.21 742.734 25.21ZM742.734 23.908C743.91 23.908 744.498 23.082 744.498 21.43C744.498 19.7873 743.91 18.966 742.734 18.966C741.558 18.966 740.97 19.7873 740.97 21.43C740.97 23.082 741.558 23.908 742.734 23.908ZM747.83 25V17.874H749.202L749.426 18.938C749.8 18.5273 750.15 18.238 750.476 18.07C750.803 17.902 751.158 17.818 751.54 17.818C751.718 17.818 751.909 17.832 752.114 17.86V19.372C751.853 19.3253 751.587 19.302 751.316 19.302C750.626 19.302 750.014 19.4793 749.482 19.834V25H747.83ZM756.451 23.068C756.451 22.8627 756.385 22.6993 756.255 22.578C756.124 22.4473 755.881 22.3167 755.527 22.186L754.365 21.738C753.319 21.3367 752.797 20.6833 752.797 19.778C752.797 19.1247 753.039 18.6113 753.525 18.238C754.01 17.8553 754.659 17.664 755.471 17.664C756.245 17.664 756.945 17.8133 757.571 18.112V19.274C756.843 19.0407 756.175 18.924 755.569 18.924C755.139 18.924 754.822 18.9893 754.617 19.12C754.421 19.2413 754.323 19.4373 754.323 19.708C754.323 19.9133 754.393 20.0813 754.533 20.212C754.682 20.3333 754.943 20.4687 755.317 20.618L756.395 21.038C756.955 21.2527 757.356 21.5093 757.599 21.808C757.851 22.1067 757.977 22.4847 757.977 22.942C757.977 23.642 757.725 24.1973 757.221 24.608C756.717 25.0093 756.017 25.21 755.121 25.21C754.682 25.21 754.253 25.1633 753.833 25.07C753.413 24.9767 753.044 24.846 752.727 24.678V23.516C753.623 23.8053 754.416 23.95 755.107 23.95C755.573 23.95 755.914 23.88 756.129 23.74C756.343 23.5907 756.451 23.3667 756.451 23.068Z" fill="white"/>
<path d="M790.938 24.734C790.201 25.0233 789.361 25.168 788.418 25.168C786.869 25.168 785.697 24.7573 784.904 23.936C784.12 23.1147 783.728 21.9013 783.728 20.296C783.728 18.644 784.134 17.3747 784.946 16.488C785.767 15.592 786.943 15.144 788.474 15.144C789.314 15.144 790.089 15.27 790.798 15.522V16.922C789.874 16.726 789.151 16.628 788.628 16.628C787.573 16.628 786.789 16.9033 786.276 17.454C785.763 18.0047 785.506 18.854 785.506 20.002V20.338C785.506 21.4767 785.758 22.3213 786.262 22.872C786.775 23.4133 787.555 23.684 788.6 23.684C789.188 23.684 789.967 23.5673 790.938 23.334V24.734ZM795.483 25.21C794.4 25.21 793.555 24.8787 792.949 24.216C792.342 23.544 792.039 22.6153 792.039 21.43C792.039 20.2447 792.342 19.3207 792.949 18.658C793.555 17.9953 794.4 17.664 795.483 17.664C796.565 17.664 797.41 17.9953 798.017 18.658C798.623 19.3207 798.927 20.2447 798.927 21.43C798.927 22.6153 798.623 23.544 798.017 24.216C797.41 24.8787 796.565 25.21 795.483 25.21ZM795.483 23.908C796.659 23.908 797.247 23.082 797.247 21.43C797.247 19.7873 796.659 18.966 795.483 18.966C794.307 18.966 793.719 19.7873 793.719 21.43C793.719 23.082 794.307 23.908 795.483 23.908ZM809.594 25V20.17C809.594 19.7407 809.51 19.4327 809.342 19.246C809.174 19.0593 808.899 18.966 808.516 18.966C808.227 18.966 807.919 19.0173 807.592 19.12C807.266 19.2133 806.981 19.3347 806.738 19.484V25H805.086V20.17C805.086 19.7407 805.002 19.4327 804.834 19.246C804.666 19.0593 804.391 18.966 804.008 18.966C803.738 18.966 803.444 19.0127 803.126 19.106C802.818 19.19 802.52 19.316 802.23 19.484V25H800.578V17.874H801.95L802.104 18.588C802.571 18.2707 803.01 18.0373 803.42 17.888C803.84 17.7387 804.26 17.664 804.68 17.664C805.548 17.664 806.146 17.986 806.472 18.63C807.406 17.986 808.302 17.664 809.16 17.664C809.823 17.664 810.336 17.846 810.7 18.21C811.064 18.5647 811.246 19.0827 811.246 19.764V25H809.594ZM813.225 27.884V17.874H814.597L814.751 18.588C815.077 18.2893 815.437 18.0607 815.829 17.902C816.23 17.7433 816.645 17.664 817.075 17.664C817.961 17.664 818.666 17.9953 819.189 18.658C819.721 19.3207 819.987 20.212 819.987 21.332C819.987 22.0787 819.865 22.7413 819.623 23.32C819.38 23.8893 819.03 24.3373 818.573 24.664C818.115 24.9907 817.579 25.154 816.963 25.154C816.571 25.154 816.193 25.0887 815.829 24.958C815.465 24.818 815.147 24.6267 814.877 24.384V27.884H813.225ZM816.557 18.966C815.95 18.966 815.39 19.1433 814.877 19.498V23.306C815.399 23.67 815.955 23.852 816.543 23.852C817.14 23.852 817.583 23.6513 817.873 23.25C818.162 22.8393 818.307 22.2187 818.307 21.388C818.307 20.5667 818.162 19.96 817.873 19.568C817.593 19.1667 817.154 18.966 816.557 18.966ZM826.421 25L826.253 24.216C825.376 24.8787 824.503 25.21 823.635 25.21C822.972 25.21 822.459 25.028 822.095 24.664C821.74 24.2907 821.563 23.7587 821.563 23.068V17.874H823.215V22.578C823.215 23.0353 823.308 23.3713 823.495 23.586C823.682 23.8007 823.98 23.908 824.391 23.908C824.97 23.908 825.553 23.7167 826.141 23.334V17.874H827.793V25H826.421ZM833.925 24.832C833.439 25.0093 832.917 25.098 832.357 25.098C831.619 25.098 831.073 24.9253 830.719 24.58C830.364 24.2347 830.187 23.7073 830.187 22.998V19.134H828.983V18.098L830.243 17.916L830.495 15.914H831.839V17.874H833.869V19.134H831.839V22.914C831.839 23.2313 831.913 23.46 832.063 23.6C832.221 23.7307 832.483 23.796 832.847 23.796C833.239 23.796 833.598 23.7587 833.925 23.684V24.832ZM836.412 21.836C836.44 22.5453 836.636 23.068 837 23.404C837.374 23.7307 837.943 23.894 838.708 23.894C839.399 23.894 840.146 23.7633 840.948 23.502V24.664C840.631 24.832 840.253 24.9627 839.814 25.056C839.385 25.1587 838.937 25.21 838.47 25.21C837.294 25.21 836.403 24.8927 835.796 24.258C835.19 23.6233 834.886 22.6993 834.886 21.486C834.886 20.282 835.18 19.344 835.768 18.672C836.366 18 837.196 17.664 838.26 17.664C839.175 17.664 839.875 17.916 840.36 18.42C840.855 18.9147 841.102 19.6193 841.102 20.534C841.102 21.0193 841.06 21.4533 840.976 21.836H836.412ZM838.19 18.868C837.686 18.868 837.276 19.036 836.958 19.372C836.641 19.708 836.459 20.1607 836.412 20.73H839.646V20.618C839.646 20.0487 839.52 19.6147 839.268 19.316C839.026 19.0173 838.666 18.868 838.19 18.868ZM842.715 25V17.874H844.087L844.311 18.938C844.684 18.5273 845.034 18.238 845.361 18.07C845.688 17.902 846.042 17.818 846.425 17.818C846.602 17.818 846.794 17.832 846.999 17.86V19.372C846.738 19.3253 846.472 19.302 846.201 19.302C845.51 19.302 844.899 19.4793 844.367 19.834V25H842.715ZM851.335 23.068C851.335 22.8627 851.27 22.6993 851.139 22.578C851.009 22.4473 850.766 22.3167 850.411 22.186L849.249 21.738C848.204 21.3367 847.681 20.6833 847.681 19.778C847.681 19.1247 847.924 18.6113 848.409 18.238C848.895 17.8553 849.543 17.664 850.355 17.664C851.13 17.664 851.83 17.8133 852.455 18.112V19.274C851.727 19.0407 851.06 18.924 850.453 18.924C850.024 18.924 849.707 18.9893 849.501 19.12C849.305 19.2413 849.207 19.4373 849.207 19.708C849.207 19.9133 849.277 20.0813 849.417 20.212C849.567 20.3333 849.828 20.4687 850.201 20.618L851.279 21.038C851.839 21.2527 852.241 21.5093 852.483 21.808C852.735 22.1067 852.861 22.4847 852.861 22.942C852.861 23.642 852.609 24.1973 852.105 24.608C851.601 25.0093 850.901 25.21 850.005 25.21C849.567 25.21 849.137 25.1633 848.717 25.07C848.297 24.9767 847.929 24.846 847.611 24.678V23.516C848.507 23.8053 849.301 23.95 849.991 23.95C850.458 23.95 850.799 23.88 851.013 23.74C851.228 23.5907 851.335 23.3667 851.335 23.068Z" fill="white"/>
<path d="M885.938 24.734C885.201 25.0233 884.361 25.168 883.418 25.168C881.869 25.168 880.697 24.7573 879.904 23.936C879.12 23.1147 878.728 21.9013 878.728 20.296C878.728 18.644 879.134 17.3747 879.946 16.488C880.767 15.592 881.943 15.144 883.474 15.144C884.314 15.144 885.089 15.27 885.798 15.522V16.922C884.874 16.726 884.151 16.628 883.628 16.628C882.573 16.628 881.789 16.9033 881.276 17.454C880.763 18.0047 880.506 18.854 880.506 20.002V20.338C880.506 21.4767 880.758 22.3213 881.262 22.872C881.775 23.4133 882.555 23.684 883.6 23.684C884.188 23.684 884.967 23.5673 885.938 23.334V24.734ZM892.191 25L892.023 24.216C891.145 24.8787 890.273 25.21 889.405 25.21C888.742 25.21 888.229 25.028 887.865 24.664C887.51 24.2907 887.333 23.7587 887.333 23.068V17.874H888.985V22.578C888.985 23.0353 889.078 23.3713 889.265 23.586C889.451 23.8007 889.75 23.908 890.161 23.908C890.739 23.908 891.323 23.7167 891.911 23.334V17.874H893.563V25H892.191ZM898.798 23.068C898.798 22.8627 898.733 22.6993 898.602 22.578C898.472 22.4473 898.229 22.3167 897.874 22.186L896.712 21.738C895.667 21.3367 895.144 20.6833 895.144 19.778C895.144 19.1247 895.387 18.6113 895.872 18.238C896.358 17.8553 897.006 17.664 897.818 17.664C898.593 17.664 899.293 17.8133 899.918 18.112V19.274C899.19 19.0407 898.523 18.924 897.916 18.924C897.487 18.924 897.17 18.9893 896.964 19.12C896.768 19.2413 896.67 19.4373 896.67 19.708C896.67 19.9133 896.74 20.0813 896.88 20.212C897.03 20.3333 897.291 20.4687 897.664 20.618L898.742 21.038C899.302 21.2527 899.704 21.5093 899.946 21.808C900.198 22.1067 900.324 22.4847 900.324 22.942C900.324 23.642 900.072 24.1973 899.568 24.608C899.064 25.0093 898.364 25.21 897.468 25.21C897.03 25.21 896.6 25.1633 896.18 25.07C895.76 24.9767 895.392 24.846 895.074 24.678V23.516C895.97 23.8053 896.764 23.95 897.454 23.95C897.921 23.95 898.262 23.88 898.476 23.74C898.691 23.5907 898.798 23.3667 898.798 23.068ZM905.806 24.832C905.32 25.0093 904.798 25.098 904.238 25.098C903.5 25.098 902.954 24.9253 902.6 24.58C902.245 24.2347 902.068 23.7073 902.068 22.998V19.134H900.864V18.098L902.124 17.916L902.376 15.914H903.72V17.874H905.75V19.134H903.72V22.914C903.72 23.2313 903.794 23.46 903.944 23.6C904.102 23.7307 904.364 23.796 904.728 23.796C905.12 23.796 905.479 23.7587 905.806 23.684V24.832ZM910.211 25.21C909.128 25.21 908.284 24.8787 907.677 24.216C907.07 23.544 906.767 22.6153 906.767 21.43C906.767 20.2447 907.07 19.3207 907.677 18.658C908.284 17.9953 909.128 17.664 910.211 17.664C911.294 17.664 912.138 17.9953 912.745 18.658C913.352 19.3207 913.655 20.2447 913.655 21.43C913.655 22.6153 913.352 23.544 912.745 24.216C912.138 24.8787 911.294 25.21 910.211 25.21ZM910.211 23.908C911.387 23.908 911.975 23.082 911.975 21.43C911.975 19.7873 911.387 18.966 910.211 18.966C909.035 18.966 908.447 19.7873 908.447 21.43C908.447 23.082 909.035 23.908 910.211 23.908ZM924.323 25V20.17C924.323 19.7407 924.239 19.4327 924.071 19.246C923.903 19.0593 923.627 18.966 923.245 18.966C922.955 18.966 922.647 19.0173 922.321 19.12C921.994 19.2133 921.709 19.3347 921.467 19.484V25H919.815V20.17C919.815 19.7407 919.731 19.4327 919.563 19.246C919.395 19.0593 919.119 18.966 918.737 18.966C918.466 18.966 918.172 19.0127 917.855 19.106C917.547 19.19 917.248 19.316 916.959 19.484V25H915.307V17.874H916.679L916.833 18.588C917.299 18.2707 917.738 18.0373 918.149 17.888C918.569 17.7387 918.989 17.664 919.409 17.664C920.277 17.664 920.874 17.986 921.201 18.63C922.134 17.986 923.03 17.664 923.889 17.664C924.551 17.664 925.065 17.846 925.429 18.21C925.793 18.5647 925.975 19.0827 925.975 19.764V25H924.323ZM929.115 21.836C929.143 22.5453 929.339 23.068 929.703 23.404C930.077 23.7307 930.646 23.894 931.411 23.894C932.102 23.894 932.849 23.7633 933.651 23.502V24.664C933.334 24.832 932.956 24.9627 932.517 25.056C932.088 25.1587 931.64 25.21 931.173 25.21C929.997 25.21 929.106 24.8927 928.499 24.258C927.893 23.6233 927.589 22.6993 927.589 21.486C927.589 20.282 927.883 19.344 928.471 18.672C929.069 18 929.899 17.664 930.963 17.664C931.878 17.664 932.578 17.916 933.063 18.42C933.558 18.9147 933.805 19.6193 933.805 20.534C933.805 21.0193 933.763 21.4533 933.679 21.836H929.115ZM930.893 18.868C930.389 18.868 929.979 19.036 929.661 19.372C929.344 19.708 929.162 20.1607 929.115 20.73H932.349V20.618C932.349 20.0487 932.223 19.6147 931.971 19.316C931.729 19.0173 931.369 18.868 930.893 18.868ZM935.418 25V17.874H936.79L937.014 18.938C937.387 18.5273 937.737 18.238 938.064 18.07C938.391 17.902 938.745 17.818 939.128 17.818C939.305 17.818 939.497 17.832 939.702 17.86V19.372C939.441 19.3253 939.175 19.302 938.904 19.302C938.213 19.302 937.602 19.4793 937.07 19.834V25H935.418ZM946.485 20.534C945.701 20.2353 945.131 19.8807 944.777 19.47C944.422 19.05 944.245 18.5273 944.245 17.902C944.245 17.034 944.548 16.348 945.155 15.844C945.771 15.3307 946.597 15.074 947.633 15.074C948.491 15.074 949.364 15.242 950.251 15.578V16.936C949.345 16.656 948.519 16.516 947.773 16.516C946.531 16.516 945.911 16.9313 945.911 17.762C945.911 18.0793 946.023 18.3407 946.247 18.546C946.471 18.7513 946.867 18.9567 947.437 19.162L948.627 19.596C949.411 19.8853 949.975 20.2353 950.321 20.646C950.675 21.0567 950.853 21.5793 950.853 22.214C950.853 23.1567 950.521 23.8987 949.859 24.44C949.196 24.972 948.286 25.238 947.129 25.238C946.634 25.238 946.139 25.1867 945.645 25.084C945.15 24.9907 944.716 24.8553 944.343 24.678V23.32C944.8 23.4693 945.276 23.586 945.771 23.67C946.275 23.754 946.727 23.796 947.129 23.796C947.791 23.796 948.3 23.6793 948.655 23.446C949.009 23.2033 949.187 22.858 949.187 22.41C949.187 22.0927 949.079 21.8313 948.865 21.626C948.65 21.4207 948.272 21.2153 947.731 21.01L946.485 20.534ZM953.725 21.836C953.753 22.5453 953.949 23.068 954.313 23.404C954.686 23.7307 955.255 23.894 956.021 23.894C956.711 23.894 957.458 23.7633 958.261 23.502V24.664C957.943 24.832 957.565 24.9627 957.127 25.056C956.697 25.1587 956.249 25.21 955.783 25.21C954.607 25.21 953.715 24.8927 953.109 24.258C952.502 23.6233 952.199 22.6993 952.199 21.486C952.199 20.282 952.493 19.344 953.081 18.672C953.678 18 954.509 17.664 955.573 17.664C956.487 17.664 957.187 17.916 957.673 18.42C958.167 18.9147 958.415 19.6193 958.415 20.534C958.415 21.0193 958.373 21.4533 958.289 21.836H953.725ZM955.503 18.868C954.999 18.868 954.588 19.036 954.271 19.372C953.953 19.708 953.771 20.1607 953.725 20.73H956.959V20.618C956.959 20.0487 956.833 19.6147 956.581 19.316C956.338 19.0173 955.979 18.868 955.503 18.868ZM960.028 25V17.874H961.4L961.624 18.938C961.997 18.5273 962.347 18.238 962.674 18.07C963 17.902 963.355 17.818 963.738 17.818C963.915 17.818 964.106 17.832 964.312 17.86V19.372C964.05 19.3253 963.784 19.302 963.514 19.302C962.823 19.302 962.212 19.4793 961.68 19.834V25H960.028ZM967.782 25L965.024 17.874H966.788L968.594 23.516L970.428 17.874H972.122L969.378 25H967.782ZM973.291 25V17.874H974.943V25H973.291ZM974.117 16.698C973.809 16.698 973.566 16.614 973.389 16.446C973.211 16.278 973.123 16.0447 973.123 15.746C973.123 15.4473 973.211 15.214 973.389 15.046C973.566 14.878 973.809 14.794 974.117 14.794C974.425 14.794 974.667 14.878 974.845 15.046C975.022 15.214 975.111 15.4473 975.111 15.746C975.111 16.0447 975.022 16.278 974.845 16.446C974.667 16.614 974.425 16.698 974.117 16.698ZM982.02 24.72C981.469 25.0093 980.811 25.154 980.046 25.154C978.954 25.154 978.114 24.8367 977.526 24.202C976.938 23.5673 976.644 22.6667 976.644 21.5C976.644 20.3053 976.947 19.3767 977.554 18.714C978.161 18.0513 979.01 17.72 980.102 17.72C980.783 17.72 981.404 17.86 981.964 18.14V19.302C981.339 19.1247 980.807 19.036 980.368 19.036C979.668 19.036 979.15 19.2273 978.814 19.61C978.487 19.9833 978.324 20.5667 978.324 21.36V21.542C978.324 22.326 978.487 22.9047 978.814 23.278C979.15 23.6513 979.668 23.838 980.368 23.838C980.872 23.838 981.423 23.7447 982.02 23.558V24.72ZM984.473 21.836C984.501 22.5453 984.697 23.068 985.061 23.404C985.434 23.7307 986.003 23.894 986.769 23.894C987.459 23.894 988.206 23.7633 989.009 23.502V24.664C988.691 24.832 988.313 24.9627 987.875 25.056C987.445 25.1587 986.997 25.21 986.531 25.21C985.355 25.21 984.463 24.8927 983.857 24.258C983.25 23.6233 982.947 22.6993 982.947 21.486C982.947 20.282 983.241 19.344 983.829 18.672C984.426 18 985.257 17.664 986.321 17.664C987.235 17.664 987.935 17.916 988.421 18.42C988.915 18.9147 989.163 19.6193 989.163 20.534C989.163 21.0193 989.121 21.4533 989.037 21.836H984.473ZM986.251 18.868C985.747 18.868 985.336 19.036 985.019 19.372C984.701 19.708 984.519 20.1607 984.473 20.73H987.707V20.618C987.707 20.0487 987.581 19.6147 987.329 19.316C987.086 19.0173 986.727 18.868 986.251 18.868Z" fill="white"/>
<rect width="400" height="39" transform="translate(1040)" fill="#232F3F"/>
<path d="M1065.6 11.416C1063.12 11.416 1061.88 13.808 1061.88 18.592V20.488C1061.88 22.76 1062.21 24.544 1062.86 25.84C1063.52 27.12 1064.49 27.76 1065.77 27.76C1067.53 27.76 1069.14 26.048 1070.62 22.624H1071.05L1070.88 27.976H1070.62C1070.52 27.8 1070.43 27.68 1070.35 27.616C1070.27 27.536 1070.15 27.496 1069.99 27.496C1069.85 27.496 1069.27 27.624 1068.26 27.88C1067.26 28.12 1066.23 28.24 1065.19 28.24C1062.58 28.24 1060.56 27.536 1059.12 26.128C1057.7 24.72 1056.98 22.608 1056.98 19.792C1056.98 16.96 1057.73 14.776 1059.22 13.24C1060.72 11.704 1062.74 10.936 1065.26 10.936C1066.24 10.936 1067.19 11.064 1068.12 11.32C1069.06 11.56 1069.62 11.68 1069.78 11.68C1069.94 11.68 1070.06 11.648 1070.14 11.584C1070.22 11.504 1070.3 11.376 1070.4 11.2H1070.66L1070.86 16.408H1070.42C1069.7 14.792 1068.96 13.56 1068.19 12.712C1067.44 11.848 1066.58 11.416 1065.6 11.416ZM1073.17 11.2H1080.49V11.656H1079.17V27.544H1080.49V28H1073.17V27.544H1074.49V11.656H1073.17V11.2ZM1095.26 11.656V28H1091.9L1083.67 12.472V27.544H1084.99V28H1081.7V27.544H1083.02V11.656H1081.7V11.2H1088.33L1094.61 23.248V11.656H1093.29V11.2H1096.58V11.656H1095.26ZM1114.32 19.312C1114.32 22.608 1113.39 24.904 1111.53 26.2C1109.82 27.4 1107.47 28 1104.48 28H1097.68V27.544H1099.27V11.656H1097.68V11.2H1105.1C1108.17 11.2 1110.48 11.832 1112.01 13.096C1113.55 14.344 1114.32 16.416 1114.32 19.312ZM1103.95 27.544H1104.86C1106.48 27.544 1107.63 26.976 1108.32 25.84C1109.02 24.688 1109.37 22.768 1109.37 20.08V18.688C1109.37 15.088 1108.68 12.92 1107.31 12.184C1106.65 11.832 1105.72 11.656 1104.52 11.656H1103.95V27.544ZM1123.17 19.504H1121.9V27.544H1123.46V28H1115.66V27.544H1117.22V11.656H1115.66V11.2H1122.9C1124.98 11.2 1126.46 11.312 1127.32 11.536C1128.2 11.744 1128.82 12 1129.17 12.304C1129.94 12.928 1130.32 13.92 1130.32 15.28C1130.32 16.64 1129.98 17.616 1129.31 18.208C1128.64 18.784 1127.62 19.128 1126.24 19.24V19.312C1127.54 19.488 1128.44 19.872 1128.95 20.464C1129.46 21.056 1129.72 22.048 1129.72 23.44V24.712C1129.72 25.544 1129.76 26.104 1129.84 26.392C1129.94 26.68 1130.13 26.824 1130.42 26.824C1130.7 26.824 1130.93 26.696 1131.09 26.44C1131.26 26.168 1131.42 25.608 1131.57 24.76L1131.98 24.808C1131.8 26.168 1131.49 27.08 1131.04 27.544C1130.61 28.008 1129.74 28.24 1128.42 28.24C1127.11 28.24 1126.18 27.936 1125.62 27.328C1125.07 26.704 1124.8 25.544 1124.8 23.848V22.096C1124.8 21.2 1124.68 20.544 1124.44 20.128C1124.22 19.712 1123.79 19.504 1123.17 19.504ZM1121.9 11.656V19.048H1122.66C1123.58 19.048 1124.25 18.768 1124.68 18.208C1125.13 17.648 1125.35 16.736 1125.35 15.472V14.776C1125.35 13.512 1125.14 12.68 1124.7 12.28C1124.29 11.864 1123.62 11.656 1122.69 11.656H1121.9ZM1132.98 11.2H1145.46L1145.7 15.952H1145.27C1144.6 14.336 1143.89 13.232 1143.16 12.64C1142.42 12.032 1141.34 11.728 1139.92 11.728H1139.08V19.144H1139.89C1140.64 19.144 1141.28 18.864 1141.79 18.304C1142.3 17.728 1142.66 16.96 1142.87 16H1143.23V23.104H1142.82C1142.53 21.904 1142.14 21.048 1141.64 20.536C1141.16 20.024 1140.5 19.768 1139.65 19.768H1139.08V27.472H1139.99C1141.46 27.472 1142.71 27.032 1143.73 26.152C1144.77 25.272 1145.48 24.144 1145.87 22.768H1146.35L1146.16 28H1132.98V27.472H1134.4V11.728H1132.98V11.2ZM1147.96 11.2H1156.6V11.728H1154.05V27.472H1154.92C1156.28 27.472 1157.36 27.056 1158.16 26.224C1158.97 25.392 1159.8 24.112 1160.63 22.384H1161.13L1160.68 28H1147.96V27.472H1149.37V11.728H1147.96V11.2ZM1162.25 11.2H1170.89V11.728H1168.35V27.472H1169.21C1170.57 27.472 1171.65 27.056 1172.45 26.224C1173.27 25.392 1174.09 24.112 1174.93 22.384H1175.43L1174.97 28H1162.25V27.472H1163.67V11.728H1162.25V11.2ZM1186.41 27.544L1184.66 22.36H1179.91L1178.06 27.544H1179.86V28H1176.19V27.544H1177.32L1183.44 11.056H1185.41L1191.45 27.544H1192.56V28H1184.71V27.544H1186.41ZM1182.38 15.544L1180.13 21.832H1184.47L1182.38 15.544Z" fill="white"/>
<path d="M1202.31 13.944C1202.77 14.096 1203.22 14.172 1203.67 14.172C1204.16 14.172 1204.52 14.048 1204.74 13.8C1204.95 13.544 1205.06 13.128 1205.06 12.552V6.684H1206.28V12.528C1206.28 14.312 1205.45 15.204 1203.78 15.204C1203.3 15.204 1202.82 15.1 1202.31 14.892V13.944ZM1210.47 10.848C1210.47 11.936 1210.69 12.764 1211.14 13.332C1211.59 13.892 1212.25 14.172 1213.11 14.172C1213.96 14.172 1214.61 13.888 1215.06 13.32C1215.51 12.752 1215.73 11.928 1215.73 10.848C1215.73 9.768 1215.51 8.948 1215.06 8.388C1214.61 7.82 1213.96 7.536 1213.11 7.536C1212.24 7.536 1211.59 7.82 1211.14 8.388C1210.69 8.948 1210.47 9.768 1210.47 10.848ZM1209.21 10.848C1209.21 9.96 1209.36 9.192 1209.66 8.544C1209.97 7.888 1210.41 7.384 1210.99 7.032C1211.59 6.68 1212.29 6.504 1213.11 6.504C1214.31 6.504 1215.26 6.892 1215.95 7.668C1216.65 8.436 1216.99 9.496 1216.99 10.848C1216.99 11.736 1216.84 12.508 1216.54 13.164C1216.23 13.812 1215.79 14.316 1215.21 14.676C1214.62 15.028 1213.92 15.204 1213.11 15.204C1212.31 15.204 1211.63 15.036 1211.04 14.7C1210.46 14.356 1210.01 13.856 1209.69 13.2C1209.37 12.544 1209.21 11.76 1209.21 10.848ZM1220.02 15V6.684H1221.25V15H1220.02ZM1225.64 8.388V15H1224.51V6.684H1225.85L1229.94 13.332V6.684H1231.07V15H1229.72L1225.64 8.388ZM1239.81 11.784V15H1238.62V6.684H1241.63C1242.44 6.684 1243.09 6.916 1243.57 7.38C1244.05 7.836 1244.29 8.456 1244.29 9.24C1244.29 10.016 1244.05 10.636 1243.57 11.1C1243.09 11.556 1242.44 11.784 1241.63 11.784H1239.81ZM1239.81 10.812H1241.53C1242.03 10.812 1242.41 10.68 1242.67 10.416C1242.92 10.144 1243.05 9.752 1243.05 9.24C1243.05 8.184 1242.54 7.656 1241.53 7.656H1239.81V10.812ZM1247.02 15V6.684H1250.05C1250.86 6.684 1251.5 6.908 1251.98 7.356C1252.46 7.796 1252.7 8.392 1252.7 9.144C1252.7 9.696 1252.55 10.176 1252.25 10.584C1251.95 10.984 1251.53 11.276 1250.99 11.46L1253.2 15H1251.86L1249.82 11.652H1248.2V15H1247.02ZM1248.2 10.68H1249.9C1250.41 10.68 1250.8 10.552 1251.06 10.296C1251.33 10.04 1251.47 9.66 1251.47 9.156C1251.47 8.66 1251.34 8.288 1251.08 8.04C1250.83 7.784 1250.45 7.656 1249.94 7.656H1248.2V10.68ZM1255.62 15V6.684H1256.85V15H1255.62ZM1267.05 15V8.46L1264.71 12.876H1263.6L1261.24 8.448V15H1260.12V6.684H1261.48L1264.17 11.784L1266.85 6.684H1268.18V15H1267.05ZM1271.39 15V6.684H1276.57V7.668H1272.62V10.224H1275.93V11.208H1272.62V14.016H1276.57V15H1271.39ZM1284.79 8.388V15H1283.66V6.684H1284.99L1289.09 13.332V6.684H1290.21V15H1288.87L1284.79 8.388ZM1294.45 10.848C1294.45 11.936 1294.67 12.764 1295.12 13.332C1295.58 13.892 1296.23 14.172 1297.09 14.172C1297.94 14.172 1298.6 13.888 1299.04 13.32C1299.49 12.752 1299.72 11.928 1299.72 10.848C1299.72 9.768 1299.49 8.948 1299.04 8.388C1298.6 7.82 1297.94 7.536 1297.09 7.536C1296.22 7.536 1295.57 7.82 1295.12 8.388C1294.67 8.948 1294.45 9.768 1294.45 10.848ZM1293.19 10.848C1293.19 9.96 1293.34 9.192 1293.64 8.544C1293.95 7.888 1294.39 7.384 1294.98 7.032C1295.57 6.68 1296.27 6.504 1297.09 6.504C1298.3 6.504 1299.24 6.892 1299.93 7.668C1300.63 8.436 1300.98 9.496 1300.98 10.848C1300.98 11.736 1300.82 12.508 1300.52 13.164C1300.22 13.812 1299.77 14.316 1299.19 14.676C1298.6 15.028 1297.9 15.204 1297.09 15.204C1296.3 15.204 1295.61 15.036 1295.02 14.7C1294.44 14.356 1293.99 13.856 1293.67 13.2C1293.35 12.544 1293.19 11.76 1293.19 10.848ZM1309.79 15L1308.22 8.484L1306.64 15H1305.27L1302.85 6.684H1304.18L1305.97 13.656L1307.56 6.924H1308.91L1310.5 13.668L1312.3 6.684H1313.59L1311.16 15H1309.79Z" fill="white"/>
<rect x="1329" y="4" width="1" height="16" fill="white"/>
<path d="M1346.33 18.884C1346.21 18.884 1346.12 18.856 1346.06 18.8C1346.01 18.7533 1345.98 18.6647 1345.98 18.534V9.196C1345.98 9.06533 1346.01 8.97667 1346.06 8.93C1346.12 8.874 1346.21 8.846 1346.33 8.846H1347.34C1347.55 8.846 1347.68 8.94867 1347.73 9.154L1347.83 9.518C1348.11 9.24733 1348.44 9.03267 1348.84 8.874C1349.24 8.71533 1349.64 8.636 1350.05 8.636C1350.96 8.636 1351.67 8.96733 1352.2 9.63C1352.73 10.2927 1352.99 11.1887 1352.99 12.318C1352.99 13.0927 1352.86 13.7693 1352.6 14.348C1352.34 14.9267 1351.99 15.3747 1351.54 15.692C1351.09 16 1350.58 16.154 1350 16.154C1349.62 16.154 1349.25 16.0933 1348.91 15.972C1348.56 15.8507 1348.27 15.6827 1348.02 15.468V18.534C1348.02 18.6647 1348 18.7533 1347.94 18.8C1347.89 18.856 1347.8 18.884 1347.67 18.884H1346.33ZM1349.4 14.614C1349.92 14.614 1350.3 14.4367 1350.54 14.082C1350.8 13.7273 1350.92 13.1673 1350.92 12.402C1350.92 11.6273 1350.8 11.0627 1350.56 10.708C1350.32 10.3533 1349.93 10.176 1349.4 10.176C1348.91 10.176 1348.45 10.302 1348.02 10.554V14.236C1348.43 14.488 1348.89 14.614 1349.4 14.614ZM1354.94 16C1354.82 16 1354.73 15.972 1354.68 15.916C1354.62 15.86 1354.59 15.7713 1354.59 15.65V9.196C1354.59 9.06533 1354.62 8.97667 1354.68 8.93C1354.73 8.874 1354.82 8.846 1354.94 8.846H1355.95C1356.17 8.846 1356.3 8.94867 1356.34 9.154L1356.53 9.91C1356.9 9.49933 1357.25 9.21 1357.58 9.042C1357.91 8.86467 1358.27 8.776 1358.64 8.776H1358.84C1358.97 8.776 1359.06 8.804 1359.12 8.86C1359.17 8.90667 1359.2 8.99533 1359.2 9.126V10.302C1359.2 10.4233 1359.17 10.512 1359.12 10.568C1359.07 10.624 1358.98 10.652 1358.85 10.652C1358.78 10.652 1358.7 10.6473 1358.6 10.638C1358.49 10.6287 1358.36 10.624 1358.21 10.624C1357.99 10.624 1357.73 10.6567 1357.42 10.722C1357.11 10.778 1356.85 10.8527 1356.64 10.946V15.65C1356.64 15.7713 1356.61 15.86 1356.55 15.916C1356.51 15.972 1356.42 16 1356.29 16H1354.94ZM1360.67 16C1360.55 16 1360.46 15.972 1360.41 15.916C1360.35 15.86 1360.32 15.7713 1360.32 15.65V9.196C1360.32 9.06533 1360.35 8.97667 1360.41 8.93C1360.46 8.874 1360.55 8.846 1360.67 8.846H1362.02C1362.15 8.846 1362.24 8.874 1362.28 8.93C1362.34 8.97667 1362.37 9.06533 1362.37 9.196V15.65C1362.37 15.7713 1362.34 15.86 1362.28 15.916C1362.24 15.972 1362.15 16 1362.02 16H1360.67ZM1361.35 7.74C1360.99 7.74 1360.71 7.642 1360.49 7.446C1360.28 7.25 1360.17 6.984 1360.17 6.648C1360.17 6.312 1360.28 6.046 1360.49 5.85C1360.71 5.654 1360.99 5.556 1361.35 5.556C1361.7 5.556 1361.98 5.654 1362.2 5.85C1362.41 6.046 1362.52 6.312 1362.52 6.648C1362.52 6.984 1362.41 7.25 1362.2 7.446C1361.98 7.642 1361.7 7.74 1361.35 7.74ZM1364.73 16C1364.61 16 1364.52 15.972 1364.47 15.916C1364.41 15.86 1364.38 15.7713 1364.38 15.65V9.196C1364.38 9.06533 1364.41 8.97667 1364.47 8.93C1364.52 8.874 1364.61 8.846 1364.73 8.846H1365.74C1365.96 8.846 1366.09 8.94867 1366.13 9.154L1366.24 9.532C1366.74 9.20533 1367.18 8.97667 1367.57 8.846C1367.98 8.706 1368.39 8.636 1368.81 8.636C1369.65 8.636 1370.24 8.93467 1370.58 9.532C1371.06 9.21467 1371.51 8.986 1371.93 8.846C1372.35 8.706 1372.78 8.636 1373.23 8.636C1373.88 8.636 1374.39 8.818 1374.74 9.182C1375.11 9.546 1375.29 10.0547 1375.29 10.708V15.65C1375.29 15.7713 1375.26 15.86 1375.2 15.916C1375.16 15.972 1375.07 16 1374.94 16H1373.59C1373.47 16 1373.38 15.972 1373.33 15.916C1373.27 15.86 1373.24 15.7713 1373.24 15.65V11.156C1373.24 10.5213 1372.96 10.204 1372.39 10.204C1371.89 10.204 1371.38 10.3253 1370.86 10.568V15.65C1370.86 15.7713 1370.84 15.86 1370.78 15.916C1370.73 15.972 1370.65 16 1370.51 16H1369.17C1369.05 16 1368.96 15.972 1368.9 15.916C1368.85 15.86 1368.82 15.7713 1368.82 15.65V11.156C1368.82 10.5213 1368.54 10.204 1367.97 10.204C1367.44 10.204 1366.93 10.33 1366.43 10.582V15.65C1366.43 15.7713 1366.4 15.86 1366.34 15.916C1366.3 15.972 1366.21 16 1366.08 16H1364.73ZM1380.5 16.21C1379.31 16.21 1378.41 15.888 1377.78 15.244C1377.16 14.6 1376.86 13.6573 1376.86 12.416C1376.86 11.2213 1377.16 10.2927 1377.78 9.63C1378.4 8.96733 1379.25 8.636 1380.34 8.636C1381.27 8.636 1381.98 8.89267 1382.47 9.406C1382.97 9.91 1383.23 10.6333 1383.23 11.576C1383.23 11.8653 1383.2 12.1967 1383.16 12.57C1383.14 12.71 1383.1 12.8033 1383.04 12.85C1382.99 12.8967 1382.9 12.92 1382.79 12.92H1378.75C1378.78 13.536 1378.97 13.984 1379.31 14.264C1379.64 14.5347 1380.17 14.67 1380.89 14.67C1381.4 14.67 1382 14.5813 1382.68 14.404C1382.71 14.3947 1382.74 14.39 1382.76 14.39C1382.79 14.3807 1382.82 14.376 1382.83 14.376C1382.99 14.376 1383.07 14.4833 1383.07 14.698V15.342C1383.07 15.4913 1383.05 15.5987 1383 15.664C1382.96 15.72 1382.89 15.7713 1382.76 15.818C1382.05 16.0793 1381.3 16.21 1380.5 16.21ZM1381.48 11.66V11.422C1381.48 10.5073 1381.07 10.05 1380.27 10.05C1379.81 10.05 1379.45 10.19 1379.18 10.47C1378.92 10.7407 1378.77 11.1373 1378.73 11.66H1381.48Z" fill="#00B9E7"/>
<path d="M1390.61 16C1390.52 16 1390.44 15.9907 1390.38 15.972C1390.32 15.944 1390.27 15.9067 1390.22 15.86C1390.19 15.804 1390.15 15.7293 1390.11 15.636L1387.72 9.406C1387.69 9.33133 1387.67 9.266 1387.65 9.21C1387.63 9.154 1387.62 9.10267 1387.62 9.056C1387.62 8.916 1387.71 8.846 1387.9 8.846H1389.3C1389.45 8.846 1389.56 8.874 1389.62 8.93C1389.7 8.986 1389.75 9.07933 1389.79 9.21L1391.23 14.166L1392.7 9.21C1392.74 9.07933 1392.79 8.986 1392.85 8.93C1392.93 8.874 1393.04 8.846 1393.19 8.846H1394.55C1394.74 8.846 1394.83 8.916 1394.83 9.056C1394.83 9.10267 1394.82 9.154 1394.8 9.21C1394.78 9.266 1394.76 9.33133 1394.73 9.406L1392.34 15.636C1392.3 15.7293 1392.26 15.804 1392.21 15.86C1392.17 15.9067 1392.13 15.944 1392.07 15.972C1392.01 15.9907 1391.94 16 1391.83 16H1390.61ZM1396.36 16C1396.24 16 1396.15 15.972 1396.09 15.916C1396.03 15.86 1396.01 15.7713 1396.01 15.65V9.196C1396.01 9.06533 1396.03 8.97667 1396.09 8.93C1396.15 8.874 1396.24 8.846 1396.36 8.846H1397.7C1397.83 8.846 1397.92 8.874 1397.97 8.93C1398.02 8.97667 1398.05 9.06533 1398.05 9.196V15.65C1398.05 15.7713 1398.02 15.86 1397.97 15.916C1397.92 15.972 1397.83 16 1397.7 16H1396.36ZM1397.03 7.74C1396.67 7.74 1396.39 7.642 1396.17 7.446C1395.96 7.25 1395.85 6.984 1395.85 6.648C1395.85 6.312 1395.96 6.046 1396.17 5.85C1396.39 5.654 1396.67 5.556 1397.03 5.556C1397.38 5.556 1397.67 5.654 1397.88 5.85C1398.1 6.046 1398.2 6.312 1398.2 6.648C1398.2 6.984 1398.1 7.25 1397.88 7.446C1397.67 7.642 1397.38 7.74 1397.03 7.74ZM1402.67 16.154C1402.06 16.154 1401.54 16 1401.09 15.692C1400.64 15.3747 1400.29 14.9407 1400.05 14.39C1399.82 13.83 1399.7 13.186 1399.7 12.458C1399.7 11.3007 1399.98 10.3767 1400.53 9.686C1401.08 8.986 1401.81 8.636 1402.71 8.636C1403.45 8.636 1404.09 8.846 1404.63 9.266V5.99C1404.63 5.85933 1404.66 5.77067 1404.71 5.724C1404.77 5.668 1404.86 5.64 1404.98 5.64H1406.32C1406.45 5.64 1406.54 5.668 1406.59 5.724C1406.65 5.77067 1406.67 5.85933 1406.67 5.99V15.65C1406.67 15.7713 1406.65 15.86 1406.59 15.916C1406.54 15.972 1406.45 16 1406.32 16H1405.2C1405.09 16 1405 15.9767 1404.94 15.93C1404.88 15.8833 1404.84 15.804 1404.81 15.692L1404.73 15.37C1404.15 15.8927 1403.46 16.154 1402.67 16.154ZM1403.34 14.614C1403.79 14.614 1404.22 14.4833 1404.63 14.222V10.526C1404.23 10.2927 1403.77 10.176 1403.24 10.176C1402.75 10.176 1402.38 10.3627 1402.14 10.736C1401.9 11.1 1401.77 11.6553 1401.77 12.402C1401.77 13.1487 1401.9 13.704 1402.15 14.068C1402.41 14.432 1402.81 14.614 1403.34 14.614ZM1411.91 16.21C1410.73 16.21 1409.82 15.888 1409.2 15.244C1408.58 14.6 1408.27 13.6573 1408.27 12.416C1408.27 11.2213 1408.58 10.2927 1409.2 9.63C1409.81 8.96733 1410.67 8.636 1411.76 8.636C1412.68 8.636 1413.39 8.89267 1413.89 9.406C1414.39 9.91 1414.64 10.6333 1414.64 11.576C1414.64 11.8653 1414.62 12.1967 1414.57 12.57C1414.56 12.71 1414.52 12.8033 1414.46 12.85C1414.41 12.8967 1414.32 12.92 1414.21 12.92H1410.16C1410.2 13.536 1410.39 13.984 1410.72 14.264C1411.06 14.5347 1411.59 14.67 1412.31 14.67C1412.82 14.67 1413.42 14.5813 1414.1 14.404C1414.13 14.3947 1414.15 14.39 1414.18 14.39C1414.21 14.3807 1414.23 14.376 1414.25 14.376C1414.41 14.376 1414.49 14.4833 1414.49 14.698V15.342C1414.49 15.4913 1414.47 15.5987 1414.42 15.664C1414.38 15.72 1414.3 15.7713 1414.18 15.818C1413.47 16.0793 1412.72 16.21 1411.91 16.21ZM1412.89 11.66V11.422C1412.89 10.5073 1412.49 10.05 1411.69 10.05C1411.23 10.05 1410.87 10.19 1410.6 10.47C1410.34 10.7407 1410.19 11.1373 1410.15 11.66H1412.89ZM1419.39 16.21C1418.28 16.21 1417.41 15.8787 1416.79 15.216C1416.16 14.544 1415.85 13.6107 1415.85 12.416C1415.85 11.2307 1416.16 10.3067 1416.79 9.644C1417.41 8.972 1418.28 8.636 1419.39 8.636C1420.5 8.636 1421.37 8.972 1421.99 9.644C1422.62 10.3067 1422.93 11.2307 1422.93 12.416C1422.93 13.6107 1422.62 14.544 1421.99 15.216C1421.37 15.8787 1420.5 16.21 1419.39 16.21ZM1419.39 14.642C1420.37 14.642 1420.86 13.9 1420.86 12.416C1420.86 10.9413 1420.37 10.204 1419.39 10.204C1418.41 10.204 1417.92 10.9413 1417.92 12.416C1417.92 13.9 1418.41 14.642 1419.39 14.642Z" fill="white"/>
<path d="M1260.02 29.128C1259.91 29.112 1259.81 29.072 1259.72 29.008C1259.63 28.9387 1259.56 28.8507 1259.5 28.744L1260.22 27.936L1259.3 27.72C1259.29 27.6667 1259.29 27.624 1259.29 27.592C1259.29 27.4107 1259.36 27.2507 1259.5 27.112L1260.36 27.536L1260.25 26.504C1260.35 26.456 1260.47 26.432 1260.58 26.432C1260.71 26.432 1260.82 26.456 1260.92 26.504L1260.81 27.536L1261.67 27.112C1261.81 27.2507 1261.88 27.4107 1261.88 27.592C1261.88 27.624 1261.87 27.6667 1261.86 27.72L1260.94 27.936L1261.66 28.744C1261.61 28.8507 1261.54 28.9387 1261.45 29.008C1261.36 29.072 1261.26 29.112 1261.14 29.128L1260.58 28.16L1260.02 29.128ZM1262.84 32V26.456H1264.87C1265.41 26.456 1265.84 26.6053 1266.16 26.904C1266.48 27.1973 1266.64 27.5947 1266.64 28.096C1266.64 28.464 1266.53 28.784 1266.33 29.056C1266.13 29.3227 1265.85 29.5173 1265.49 29.64L1266.96 32H1266.08L1264.72 29.768H1263.64V32H1262.84ZM1263.64 29.12H1264.76C1265.11 29.12 1265.36 29.0347 1265.54 28.864C1265.72 28.6933 1265.81 28.44 1265.81 28.104C1265.81 27.7733 1265.73 27.5253 1265.56 27.36C1265.39 27.1893 1265.13 27.104 1264.8 27.104H1263.64V29.12ZM1268.15 30.144C1268.16 30.6027 1268.27 30.9413 1268.49 31.16C1268.71 31.3787 1269.04 31.488 1269.5 31.488C1269.92 31.488 1270.35 31.4053 1270.78 31.24V31.808C1270.4 32.016 1269.93 32.12 1269.38 32.12C1268.72 32.12 1268.22 31.9387 1267.89 31.576C1267.55 31.2133 1267.38 30.6773 1267.38 29.968C1267.38 29.2907 1267.55 28.7653 1267.89 28.392C1268.22 28.0133 1268.69 27.824 1269.3 27.824C1269.8 27.824 1270.19 27.968 1270.46 28.256C1270.74 28.5387 1270.87 28.9413 1270.87 29.464C1270.87 29.7147 1270.85 29.9413 1270.81 30.144H1268.15ZM1269.26 28.424C1268.92 28.424 1268.66 28.5253 1268.47 28.728C1268.29 28.9253 1268.18 29.2213 1268.15 29.616H1270.14C1270.15 29.5733 1270.15 29.504 1270.15 29.408C1270.15 29.0827 1270.07 28.8373 1269.92 28.672C1269.77 28.5067 1269.55 28.424 1269.26 28.424ZM1274.71 32L1274.6 31.584C1274.43 31.744 1274.23 31.8693 1274 31.96C1273.78 32.0453 1273.55 32.088 1273.32 32.088C1272.99 32.088 1272.69 32.0053 1272.43 31.84C1272.18 31.6747 1271.98 31.4347 1271.83 31.12C1271.69 30.8 1271.62 30.424 1271.62 29.992C1271.62 29.56 1271.69 29.1813 1271.83 28.856C1271.97 28.5307 1272.16 28.2773 1272.42 28.096C1272.68 27.9147 1272.99 27.824 1273.35 27.824C1273.8 27.824 1274.21 27.9733 1274.57 28.272V26.08H1275.36V32H1274.71ZM1273.56 31.448C1273.89 31.448 1274.23 31.3253 1274.57 31.08V28.816C1274.41 28.6933 1274.24 28.6053 1274.07 28.552C1273.9 28.4933 1273.72 28.464 1273.51 28.464C1272.79 28.464 1272.43 28.9653 1272.43 29.968C1272.43 30.9547 1272.81 31.448 1273.56 31.448ZM1276.58 32V27.944H1277.37V32H1276.58ZM1276.98 27.224C1276.82 27.224 1276.7 27.1813 1276.61 27.096C1276.52 27.0053 1276.48 26.888 1276.48 26.744C1276.48 26.6 1276.52 26.4853 1276.61 26.4C1276.7 26.3093 1276.82 26.264 1276.98 26.264C1277.13 26.264 1277.25 26.3093 1277.34 26.4C1277.43 26.4853 1277.47 26.6 1277.47 26.744C1277.47 26.888 1277.43 27.0053 1277.34 27.096C1277.25 27.1813 1277.13 27.224 1276.98 27.224ZM1278.58 32V27.944H1279.25L1279.34 28.544C1279.49 28.384 1279.62 28.2613 1279.75 28.176C1279.88 28.0853 1280.01 28.0187 1280.14 27.976C1280.28 27.9333 1280.42 27.912 1280.58 27.912C1280.68 27.912 1280.79 27.92 1280.9 27.936V28.656C1280.73 28.6347 1280.59 28.624 1280.47 28.624C1280.05 28.624 1279.68 28.752 1279.38 29.008V32H1278.58ZM1282.05 30.144C1282.06 30.6027 1282.17 30.9413 1282.39 31.16C1282.61 31.3787 1282.94 31.488 1283.39 31.488C1283.82 31.488 1284.25 31.4053 1284.68 31.24V31.808C1284.3 32.016 1283.83 32.12 1283.27 32.12C1282.62 32.12 1282.12 31.9387 1281.79 31.576C1281.45 31.2133 1281.28 30.6773 1281.28 29.968C1281.28 29.2907 1281.45 28.7653 1281.79 28.392C1282.12 28.0133 1282.59 27.824 1283.19 27.824C1283.7 27.824 1284.09 27.968 1284.36 28.256C1284.63 28.5387 1284.77 28.9413 1284.77 29.464C1284.77 29.7147 1284.75 29.9413 1284.71 30.144H1282.05ZM1283.15 28.424C1282.82 28.424 1282.56 28.5253 1282.37 28.728C1282.18 28.9253 1282.08 29.2213 1282.05 29.616H1284.04C1284.05 29.5733 1284.05 29.504 1284.05 29.408C1284.05 29.0827 1283.97 28.8373 1283.82 28.672C1283.67 28.5067 1283.45 28.424 1283.15 28.424ZM1288.53 31.848C1288.22 32.008 1287.87 32.088 1287.46 32.088C1286.83 32.088 1286.35 31.9093 1286.01 31.552C1285.68 31.1893 1285.52 30.6667 1285.52 29.984C1285.52 29.3067 1285.69 28.784 1286.03 28.416C1286.38 28.0427 1286.86 27.856 1287.49 27.856C1287.85 27.856 1288.19 27.9307 1288.5 28.08V28.648C1288.2 28.552 1287.9 28.504 1287.6 28.504C1287.16 28.504 1286.83 28.6187 1286.64 28.848C1286.44 29.072 1286.34 29.432 1286.34 29.928V30.032C1286.34 30.5173 1286.44 30.8747 1286.64 31.104C1286.84 31.328 1287.16 31.44 1287.59 31.44C1287.88 31.44 1288.19 31.3867 1288.53 31.28V31.848ZM1291.77 31.904C1291.51 32.0053 1291.21 32.056 1290.88 32.056C1290.13 32.056 1289.75 31.6773 1289.75 30.92V28.568H1289.01V28.056L1289.77 27.96L1289.89 26.808H1290.54V27.944H1291.74V28.568H1290.54V30.88C1290.54 31.0773 1290.58 31.216 1290.67 31.296C1290.76 31.376 1290.91 31.416 1291.12 31.416C1291.34 31.416 1291.56 31.3893 1291.77 31.336V31.904ZM1294.46 30.912C1294.46 30.784 1294.41 30.68 1294.33 30.6C1294.25 30.52 1294.1 30.44 1293.88 30.36L1293.2 30.104C1292.61 29.8853 1292.31 29.512 1292.31 28.984C1292.31 28.6373 1292.45 28.3573 1292.71 28.144C1292.98 27.9307 1293.34 27.824 1293.78 27.824C1294.2 27.824 1294.6 27.9093 1294.97 28.08V28.64C1294.55 28.5067 1294.17 28.44 1293.82 28.44C1293.3 28.44 1293.05 28.6133 1293.05 28.96C1293.05 29.0987 1293.09 29.208 1293.18 29.288C1293.26 29.368 1293.43 29.456 1293.68 29.552L1294.3 29.792C1294.62 29.9147 1294.85 30.0613 1294.98 30.232C1295.12 30.3973 1295.19 30.6133 1295.19 30.88C1295.19 31.2587 1295.05 31.56 1294.77 31.784C1294.49 32.008 1294.11 32.12 1293.64 32.12C1293.11 32.12 1292.65 32.0187 1292.26 31.816V31.256C1292.77 31.4213 1293.23 31.504 1293.66 31.504C1293.92 31.504 1294.12 31.4533 1294.25 31.352C1294.39 31.2507 1294.46 31.104 1294.46 30.912ZM1300.38 31.904C1300.12 32.0053 1299.82 32.056 1299.49 32.056C1298.73 32.056 1298.36 31.6773 1298.36 30.92V28.568H1297.62V28.056L1298.38 27.96L1298.5 26.808H1299.15V27.944H1300.35V28.568H1299.15V30.88C1299.15 31.0773 1299.19 31.216 1299.28 31.296C1299.37 31.376 1299.52 31.416 1299.73 31.416C1299.95 31.416 1300.17 31.3893 1300.38 31.336V31.904ZM1302.89 32.12C1302.28 32.12 1301.81 31.9307 1301.47 31.552C1301.12 31.1733 1300.95 30.6453 1300.95 29.968C1300.95 29.296 1301.12 28.7707 1301.47 28.392C1301.81 28.0133 1302.28 27.824 1302.89 27.824C1303.5 27.824 1303.97 28.0133 1304.31 28.392C1304.66 28.7707 1304.83 29.296 1304.83 29.968C1304.83 30.6453 1304.66 31.1733 1304.31 31.552C1303.97 31.9307 1303.5 32.12 1302.89 32.12ZM1302.89 31.48C1303.64 31.48 1304.02 30.976 1304.02 29.968C1304.02 28.9653 1303.64 28.464 1302.89 28.464C1302.14 28.464 1301.76 28.9653 1301.76 29.968C1301.76 30.976 1302.14 31.48 1302.89 31.48ZM1308.77 29.856V32H1307.98V26.456H1309.98C1310.52 26.456 1310.95 26.6107 1311.27 26.92C1311.59 27.224 1311.75 27.6373 1311.75 28.16C1311.75 28.6773 1311.59 29.0907 1311.27 29.4C1310.95 29.704 1310.52 29.856 1309.98 29.856H1308.77ZM1308.77 29.208H1309.91C1310.25 29.208 1310.5 29.12 1310.67 28.944C1310.84 28.7627 1310.93 28.5013 1310.93 28.16C1310.93 27.456 1310.59 27.104 1309.91 27.104H1308.77V29.208ZM1312.69 32V27.944H1313.36L1313.45 28.544C1313.59 28.384 1313.73 28.2613 1313.86 28.176C1313.99 28.0853 1314.12 28.0187 1314.25 27.976C1314.39 27.9333 1314.53 27.912 1314.69 27.912C1314.79 27.912 1314.9 27.92 1315.01 27.936V28.656C1314.84 28.6347 1314.7 28.624 1314.58 28.624C1314.15 28.624 1313.79 28.752 1313.49 29.008V32H1312.69ZM1315.71 32V27.944H1316.5V32H1315.71ZM1316.11 27.224C1315.96 27.224 1315.83 27.1813 1315.74 27.096C1315.66 27.0053 1315.61 26.888 1315.61 26.744C1315.61 26.6 1315.66 26.4853 1315.74 26.4C1315.83 26.3093 1315.96 26.264 1316.11 26.264C1316.26 26.264 1316.38 26.3093 1316.47 26.4C1316.56 26.4853 1316.61 26.6 1316.61 26.744C1316.61 26.888 1316.56 27.0053 1316.47 27.096C1316.38 27.1813 1316.26 27.224 1316.11 27.224ZM1322.9 32V29.248C1322.9 28.9813 1322.85 28.784 1322.75 28.656C1322.65 28.528 1322.49 28.464 1322.27 28.464C1321.88 28.464 1321.49 28.584 1321.09 28.824C1321.1 28.8613 1321.1 28.9013 1321.1 28.944C1321.1 28.9867 1321.1 29.0293 1321.1 29.072V32H1320.31V29.248C1320.31 28.9813 1320.26 28.784 1320.16 28.656C1320.06 28.528 1319.9 28.464 1319.68 28.464C1319.27 28.464 1318.88 28.5813 1318.51 28.816V32H1317.72V27.944H1318.38L1318.46 28.352C1318.97 28 1319.47 27.824 1319.96 27.824C1320.45 27.824 1320.79 28.0133 1320.97 28.392C1321.49 28.0133 1322.02 27.824 1322.55 27.824C1322.92 27.824 1323.2 27.928 1323.4 28.136C1323.59 28.344 1323.69 28.64 1323.69 29.024V32H1322.9ZM1325.42 30.144C1325.43 30.6027 1325.54 30.9413 1325.75 31.16C1325.97 31.3787 1326.31 31.488 1326.76 31.488C1327.18 31.488 1327.61 31.4053 1328.05 31.24V31.808C1327.67 32.016 1327.2 32.12 1326.64 32.12C1325.99 32.12 1325.49 31.9387 1325.15 31.576C1324.82 31.2133 1324.65 30.6773 1324.65 29.968C1324.65 29.2907 1324.82 28.7653 1325.15 28.392C1325.49 28.0133 1325.96 27.824 1326.56 27.824C1327.07 27.824 1327.46 27.968 1327.73 28.256C1328 28.5387 1328.14 28.9413 1328.14 29.464C1328.14 29.7147 1328.12 29.9413 1328.07 30.144H1325.42ZM1326.52 28.424C1326.19 28.424 1325.92 28.5253 1325.74 28.728C1325.55 28.9253 1325.44 29.2213 1325.42 29.616H1327.41C1327.41 29.5733 1327.42 29.504 1327.42 29.408C1327.42 29.0827 1327.34 28.8373 1327.19 28.672C1327.04 28.5067 1326.81 28.424 1326.52 28.424ZM1330.62 32L1328.58 26.456H1329.48L1331.08 31.184L1332.68 26.456H1333.54L1331.5 32H1330.62ZM1334.24 32V27.944H1335.03V32H1334.24ZM1334.64 27.224C1334.49 27.224 1334.36 27.1813 1334.27 27.096C1334.19 27.0053 1334.15 26.888 1334.15 26.744C1334.15 26.6 1334.19 26.4853 1334.27 26.4C1334.36 26.3093 1334.49 26.264 1334.64 26.264C1334.8 26.264 1334.92 26.3093 1335 26.4C1335.09 26.4853 1335.14 26.6 1335.14 26.744C1335.14 26.888 1335.09 27.0053 1335 27.096C1334.92 27.1813 1334.8 27.224 1334.64 27.224ZM1339.13 32L1339.02 31.584C1338.85 31.744 1338.65 31.8693 1338.42 31.96C1338.2 32.0453 1337.97 32.088 1337.74 32.088C1337.41 32.088 1337.11 32.0053 1336.86 31.84C1336.6 31.6747 1336.4 31.4347 1336.26 31.12C1336.11 30.8 1336.04 30.424 1336.04 29.992C1336.04 29.56 1336.11 29.1813 1336.25 28.856C1336.39 28.5307 1336.58 28.2773 1336.84 28.096C1337.1 27.9147 1337.41 27.824 1337.77 27.824C1338.22 27.824 1338.63 27.9733 1338.99 28.272V26.08H1339.78V32H1339.13ZM1337.98 31.448C1338.31 31.448 1338.65 31.3253 1338.99 31.08V28.816C1338.83 28.6933 1338.66 28.6053 1338.49 28.552C1338.32 28.4933 1338.14 28.464 1337.94 28.464C1337.21 28.464 1336.85 28.9653 1336.85 29.968C1336.85 30.9547 1337.23 31.448 1337.98 31.448ZM1341.53 30.144C1341.54 30.6027 1341.65 30.9413 1341.86 31.16C1342.08 31.3787 1342.42 31.488 1342.87 31.488C1343.29 31.488 1343.72 31.4053 1344.16 31.24V31.808C1343.78 32.016 1343.31 32.12 1342.75 32.12C1342.1 32.12 1341.6 31.9387 1341.26 31.576C1340.93 31.2133 1340.76 30.6773 1340.76 29.968C1340.76 29.2907 1340.93 28.7653 1341.26 28.392C1341.6 28.0133 1342.07 27.824 1342.67 27.824C1343.18 27.824 1343.57 27.968 1343.84 28.256C1344.11 28.5387 1344.25 28.9413 1344.25 29.464C1344.25 29.7147 1344.23 29.9413 1344.18 30.144H1341.53ZM1342.63 28.424C1342.3 28.424 1342.03 28.5253 1341.85 28.728C1341.66 28.9253 1341.55 29.2213 1341.53 29.616H1343.52C1343.52 29.5733 1343.53 29.504 1343.53 29.408C1343.53 29.0827 1343.45 28.8373 1343.3 28.672C1343.15 28.5067 1342.92 28.424 1342.63 28.424ZM1346.93 32.12C1346.32 32.12 1345.85 31.9307 1345.51 31.552C1345.16 31.1733 1344.99 30.6453 1344.99 29.968C1344.99 29.296 1345.16 28.7707 1345.51 28.392C1345.85 28.0133 1346.32 27.824 1346.93 27.824C1347.54 27.824 1348.01 28.0133 1348.35 28.392C1348.69 28.7707 1348.87 29.296 1348.87 29.968C1348.87 30.6453 1348.69 31.1733 1348.35 31.552C1348.01 31.9307 1347.54 32.12 1346.93 32.12ZM1346.93 31.48C1347.68 31.48 1348.06 30.976 1348.06 29.968C1348.06 28.9653 1347.68 28.464 1346.93 28.464C1346.18 28.464 1345.8 28.9653 1345.8 29.968C1345.8 30.976 1346.18 31.48 1346.93 31.48ZM1350.24 32.08C1350.09 32.08 1349.96 32.032 1349.87 31.936C1349.77 31.8347 1349.72 31.7067 1349.72 31.552C1349.72 31.3973 1349.77 31.272 1349.87 31.176C1349.96 31.0747 1350.09 31.024 1350.24 31.024C1350.4 31.024 1350.52 31.0747 1350.62 31.176C1350.71 31.272 1350.76 31.3973 1350.76 31.552C1350.76 31.7067 1350.71 31.8347 1350.62 31.936C1350.52 32.032 1350.4 32.08 1350.24 32.08ZM1354.63 31.848C1354.33 32.008 1353.97 32.088 1353.56 32.088C1352.93 32.088 1352.45 31.9093 1352.11 31.552C1351.78 31.1893 1351.62 30.6667 1351.62 29.984C1351.62 29.3067 1351.79 28.784 1352.13 28.416C1352.48 28.0427 1352.97 27.856 1353.59 27.856C1353.95 27.856 1354.29 27.9307 1354.6 28.08V28.648C1354.3 28.552 1354 28.504 1353.71 28.504C1353.26 28.504 1352.94 28.6187 1352.74 28.848C1352.54 29.072 1352.44 29.432 1352.44 29.928V30.032C1352.44 30.5173 1352.54 30.8747 1352.74 31.104C1352.94 31.328 1353.26 31.44 1353.69 31.44C1353.98 31.44 1354.29 31.3867 1354.63 31.28V31.848ZM1357.12 32.12C1356.52 32.12 1356.04 31.9307 1355.7 31.552C1355.36 31.1733 1355.19 30.6453 1355.19 29.968C1355.19 29.296 1355.36 28.7707 1355.7 28.392C1356.04 28.0133 1356.52 27.824 1357.12 27.824C1357.73 27.824 1358.21 28.0133 1358.55 28.392C1358.89 28.7707 1359.06 29.296 1359.06 29.968C1359.06 30.6453 1358.89 31.1733 1358.55 31.552C1358.21 31.9307 1357.73 32.12 1357.12 32.12ZM1357.12 31.48C1357.88 31.48 1358.25 30.976 1358.25 29.968C1358.25 28.9653 1357.88 28.464 1357.12 28.464C1356.37 28.464 1356 28.9653 1356 29.968C1356 30.976 1356.37 31.48 1357.12 31.48ZM1365.22 32V29.248C1365.22 28.9813 1365.17 28.784 1365.07 28.656C1364.97 28.528 1364.81 28.464 1364.59 28.464C1364.2 28.464 1363.81 28.584 1363.41 28.824C1363.42 28.8613 1363.42 28.9013 1363.42 28.944C1363.42 28.9867 1363.42 29.0293 1363.42 29.072V32H1362.63V29.248C1362.63 28.9813 1362.58 28.784 1362.48 28.656C1362.38 28.528 1362.22 28.464 1362 28.464C1361.59 28.464 1361.2 28.5813 1360.83 28.816V32H1360.04V27.944H1360.7L1360.78 28.352C1361.29 28 1361.79 27.824 1362.28 27.824C1362.77 27.824 1363.11 28.0133 1363.29 28.392C1363.81 28.0133 1364.34 27.824 1364.87 27.824C1365.24 27.824 1365.52 27.928 1365.72 28.136C1365.91 28.344 1366.01 28.64 1366.01 29.024V32H1365.22Z" fill="white"/>
</svg>
