<svg width="740" height="57" viewBox="0 0 740 57" fill="none" xmlns="http://www.w3.org/2000/svg">
<path d="M24.3164 21.8059C25.1367 21.8059 25.8135 21.9084 26.3467 22.1135C26.8844 22.314 27.2855 22.6217 27.5498 23.0364C27.8141 23.4511 27.9463 23.9797 27.9463 24.6223C27.9463 25.151 27.8506 25.593 27.6592 25.9485C27.4678 26.2994 27.2171 26.5842 26.9072 26.803C26.5973 27.0217 26.2669 27.1903 25.916 27.3088L28.6572 31.8H27.3037L24.8564 27.6301H22.7783V31.8H21.6162V21.8059H24.3164ZM24.248 22.8108H22.7783V26.6458H24.3643C25.18 26.6458 25.7793 26.4794 26.1621 26.1467C26.5495 25.814 26.7432 25.3241 26.7432 24.677C26.7432 23.998 26.5381 23.5172 26.1279 23.2346C25.7223 22.9521 25.0957 22.8108 24.248 22.8108ZM32.9707 24.1711C33.6087 24.1711 34.1556 24.3124 34.6113 24.595C35.0671 24.8775 35.4157 25.274 35.6572 25.7844C35.8988 26.2903 36.0195 26.8827 36.0195 27.5618V28.2659H30.8447C30.8584 29.1454 31.0771 29.8153 31.501 30.2756C31.9248 30.7359 32.5218 30.9661 33.292 30.9661C33.766 30.9661 34.1852 30.9228 34.5498 30.8362C34.9144 30.7496 35.2926 30.622 35.6846 30.4534V31.4514C35.3063 31.62 34.9303 31.7431 34.5566 31.8206C34.1875 31.898 33.75 31.9368 33.2441 31.9368C32.5241 31.9368 31.8952 31.7909 31.3574 31.4993C30.8242 31.203 30.4095 30.7701 30.1133 30.2004C29.8171 29.6308 29.6689 28.9335 29.6689 28.1086C29.6689 27.302 29.8034 26.6047 30.0723 26.0168C30.3457 25.4244 30.7285 24.9687 31.2207 24.6497C31.7174 24.3306 32.3008 24.1711 32.9707 24.1711ZM32.957 25.1008C32.3509 25.1008 31.8678 25.2991 31.5078 25.6956C31.1478 26.092 30.9336 26.6458 30.8652 27.3567H34.8301C34.8255 26.9101 34.7549 26.5181 34.6182 26.1809C34.486 25.8391 34.2832 25.5748 34.0098 25.3879C33.7363 25.1965 33.3854 25.1008 32.957 25.1008ZM39.5947 31.8L36.751 24.3079H37.9678L39.6152 28.8401C39.7292 29.15 39.8454 29.4918 39.9639 29.8655C40.0824 30.2392 40.1644 30.54 40.21 30.7678H40.2578C40.3125 30.54 40.4036 30.2392 40.5312 29.8655C40.6589 29.4872 40.7751 29.1454 40.8799 28.8401L42.5273 24.3079H43.7441L40.8936 31.8H39.5947ZM46.082 24.3079V31.8H44.9473V24.3079H46.082ZM45.5283 21.5051C45.7152 21.5051 45.8747 21.5667 46.0068 21.6897C46.1436 21.8082 46.2119 21.995 46.2119 22.2502C46.2119 22.5009 46.1436 22.6877 46.0068 22.8108C45.8747 22.9338 45.7152 22.9954 45.5283 22.9954C45.3324 22.9954 45.1683 22.9338 45.0361 22.8108C44.9085 22.6877 44.8447 22.5009 44.8447 22.2502C44.8447 21.995 44.9085 21.8082 45.0361 21.6897C45.1683 21.5667 45.3324 21.5051 45.5283 21.5051ZM51.373 24.1711C52.0111 24.1711 52.5579 24.3124 53.0137 24.595C53.4694 24.8775 53.818 25.274 54.0596 25.7844C54.3011 26.2903 54.4219 26.8827 54.4219 27.5618V28.2659H49.2471C49.2607 29.1454 49.4795 29.8153 49.9033 30.2756C50.3271 30.7359 50.9242 30.9661 51.6943 30.9661C52.1683 30.9661 52.5876 30.9228 52.9521 30.8362C53.3167 30.7496 53.695 30.622 54.0869 30.4534V31.4514C53.7087 31.62 53.3327 31.7431 52.959 31.8206C52.5898 31.898 52.1523 31.9368 51.6465 31.9368C50.9264 31.9368 50.2975 31.7909 49.7598 31.4993C49.2266 31.203 48.8118 30.7701 48.5156 30.2004C48.2194 29.6308 48.0713 28.9335 48.0713 28.1086C48.0713 27.302 48.2057 26.6047 48.4746 26.0168C48.748 25.4244 49.1309 24.9687 49.623 24.6497C50.1198 24.3306 50.7031 24.1711 51.373 24.1711ZM51.3594 25.1008C50.7533 25.1008 50.2702 25.2991 49.9102 25.6956C49.5501 26.092 49.3359 26.6458 49.2676 27.3567H53.2324C53.2279 26.9101 53.1572 26.5181 53.0205 26.1809C52.8883 25.8391 52.6855 25.5748 52.4121 25.3879C52.1387 25.1965 51.7878 25.1008 51.3594 25.1008ZM62.4473 31.7864L61.1143 27.425C61.055 27.2382 60.998 27.0559 60.9434 26.8782C60.8932 26.6959 60.8454 26.5227 60.7998 26.3586C60.7588 26.19 60.7201 26.0351 60.6836 25.8938C60.6517 25.748 60.6243 25.6226 60.6016 25.5178H60.5537C60.5355 25.6226 60.5104 25.748 60.4785 25.8938C60.4466 26.0351 60.4079 26.19 60.3623 26.3586C60.3213 26.5273 60.2757 26.705 60.2256 26.8918C60.1755 27.0741 60.1185 27.2587 60.0547 27.4456L58.6602 31.7864H57.3818L55.3174 24.2942H56.4932L57.5732 28.4299C57.6462 28.7034 57.7145 28.9745 57.7783 29.2434C57.8467 29.5077 57.9036 29.7584 57.9492 29.9954C57.9993 30.2278 58.0358 30.4306 58.0586 30.6038H58.1133C58.1406 30.4898 58.1702 30.3531 58.2021 30.1936C58.2386 30.0341 58.2773 29.8655 58.3184 29.6877C58.3639 29.5055 58.4118 29.3254 58.4619 29.1477C58.512 28.9654 58.5622 28.7945 58.6123 28.635L59.9932 24.2942H61.2168L62.5498 28.6282C62.6182 28.8469 62.6842 29.0748 62.748 29.3118C62.8164 29.5487 62.8779 29.7789 62.9326 30.0022C62.9873 30.2209 63.026 30.4169 63.0488 30.5901H63.1035C63.1217 30.4351 63.1559 30.2437 63.2061 30.0159C63.2562 29.788 63.3132 29.5374 63.377 29.2639C63.4453 28.9905 63.516 28.7125 63.5889 28.4299L64.6826 24.2942H65.8379L63.7666 31.7864H62.4473ZM73.624 21.8059C74.9137 21.8059 75.8548 22.0588 76.4473 22.5647C77.0443 23.066 77.3428 23.7861 77.3428 24.7249C77.3428 25.1487 77.2721 25.552 77.1309 25.9348C76.9941 26.3131 76.7708 26.648 76.4609 26.9397C76.151 27.2268 75.7432 27.4547 75.2373 27.6233C74.736 27.7874 74.1208 27.8694 73.3916 27.8694H72.1748V31.8H71.0127V21.8059H73.624ZM73.5146 22.7971H72.1748V26.8713H73.2617C73.8997 26.8713 74.4307 26.803 74.8545 26.6663C75.2829 26.5295 75.6042 26.3085 75.8184 26.0032C76.0326 25.6933 76.1396 25.2831 76.1396 24.7727C76.1396 24.1073 75.9277 23.6129 75.5039 23.2893C75.0801 22.9612 74.417 22.7971 73.5146 22.7971ZM82.668 24.1711C82.8184 24.1711 82.9756 24.1803 83.1396 24.1985C83.3037 24.2122 83.4495 24.2327 83.5771 24.26L83.4336 25.3127C83.3105 25.2808 83.1738 25.2558 83.0234 25.2375C82.873 25.2193 82.7318 25.2102 82.5996 25.2102C82.2988 25.2102 82.014 25.2717 81.7451 25.3948C81.4808 25.5133 81.2484 25.6864 81.0479 25.9143C80.8473 26.1376 80.6901 26.4088 80.5762 26.7278C80.4622 27.0422 80.4053 27.3931 80.4053 27.7805V31.8H79.2637V24.3079H80.207L80.3301 25.6887H80.3779C80.5329 25.4107 80.7197 25.1578 80.9385 24.9299C81.1572 24.6975 81.4102 24.5129 81.6973 24.3762C81.9889 24.2395 82.3125 24.1711 82.668 24.1711ZM91.4521 28.0403C91.4521 28.6555 91.3724 29.2047 91.2129 29.6877C91.0534 30.1708 90.8232 30.5787 90.5225 30.9114C90.2217 31.2441 89.8571 31.4993 89.4287 31.677C89.0049 31.8502 88.5241 31.9368 87.9863 31.9368C87.485 31.9368 87.0247 31.8502 86.6055 31.677C86.1908 31.4993 85.8307 31.2441 85.5254 30.9114C85.2246 30.5787 84.9899 30.1708 84.8213 29.6877C84.6572 29.2047 84.5752 28.6555 84.5752 28.0403C84.5752 27.22 84.7142 26.5227 84.9922 25.9485C85.2702 25.3697 85.6667 24.9299 86.1816 24.6292C86.7012 24.3238 87.3187 24.1711 88.0342 24.1711C88.7178 24.1711 89.3148 24.3238 89.8252 24.6292C90.3402 24.9345 90.7389 25.3765 91.0215 25.9553C91.3086 26.5295 91.4521 27.2245 91.4521 28.0403ZM85.751 28.0403C85.751 28.6418 85.8307 29.1637 85.9902 29.6057C86.1497 30.0478 86.3958 30.3896 86.7285 30.6311C87.0612 30.8726 87.4896 30.9934 88.0137 30.9934C88.5332 30.9934 88.9593 30.8726 89.292 30.6311C89.6292 30.3896 89.8776 30.0478 90.0371 29.6057C90.1966 29.1637 90.2764 28.6418 90.2764 28.0403C90.2764 27.4433 90.1966 26.9283 90.0371 26.4954C89.8776 26.0579 89.6315 25.7206 89.2988 25.4836C88.9661 25.2467 88.5355 25.1282 88.0068 25.1282C87.2275 25.1282 86.6556 25.3857 86.291 25.9006C85.931 26.4156 85.751 27.1288 85.751 28.0403ZM96.0801 31.9368C95.1322 31.9368 94.3802 31.6132 93.8242 30.9661C93.2728 30.3189 92.9971 29.3573 92.9971 28.0813C92.9971 26.7916 93.2796 25.8186 93.8447 25.1624C94.4098 24.5015 95.1618 24.1711 96.1006 24.1711C96.4971 24.1711 96.8434 24.2236 97.1396 24.3284C97.4359 24.4332 97.6911 24.5745 97.9053 24.7522C98.1195 24.9254 98.2995 25.1236 98.4453 25.3469H98.5273C98.5091 25.2056 98.4909 25.012 98.4727 24.7659C98.4544 24.5198 98.4453 24.3193 98.4453 24.1643V21.1633H99.5801V31.8H98.6641L98.4932 30.7336H98.4453C98.304 30.9569 98.124 31.1597 97.9053 31.342C97.6911 31.5243 97.4336 31.6702 97.1328 31.7795C96.8366 31.8844 96.4857 31.9368 96.0801 31.9368ZM96.2578 30.9934C97.0599 30.9934 97.6273 30.7655 97.96 30.3098C98.2926 29.8541 98.459 29.1773 98.459 28.2795V28.0745C98.459 27.122 98.2995 26.3905 97.9805 25.8801C97.666 25.3697 97.0918 25.1145 96.2578 25.1145C95.5605 25.1145 95.0387 25.3834 94.6924 25.9211C94.346 26.4543 94.1729 27.1835 94.1729 28.1086C94.1729 29.0292 94.3438 29.7402 94.6855 30.2415C95.0319 30.7428 95.556 30.9934 96.2578 30.9934ZM108.173 24.3079V31.8H107.243L107.079 30.7473H107.018C106.863 31.0071 106.662 31.2258 106.416 31.4036C106.17 31.5813 105.892 31.7135 105.582 31.8C105.277 31.8912 104.951 31.9368 104.604 31.9368C104.012 31.9368 103.515 31.8411 103.114 31.6497C102.713 31.4583 102.41 31.162 102.205 30.761C102.005 30.3599 101.904 29.845 101.904 29.2161V24.3079H103.053V29.134C103.053 29.7584 103.194 30.2255 103.477 30.5354C103.759 30.8407 104.19 30.9934 104.769 30.9934C105.325 30.9934 105.767 30.8886 106.095 30.679C106.427 30.4693 106.667 30.1617 106.812 29.7561C106.958 29.3459 107.031 28.8446 107.031 28.2522V24.3079H108.173ZM113.573 31.9368C112.899 31.9368 112.304 31.7978 111.789 31.5198C111.274 31.2418 110.873 30.818 110.586 30.2483C110.299 29.6786 110.155 28.9609 110.155 28.095C110.155 27.1881 110.306 26.4475 110.606 25.8733C110.912 25.2945 111.331 24.8661 111.864 24.5881C112.397 24.3101 113.004 24.1711 113.683 24.1711C114.056 24.1711 114.416 24.2099 114.763 24.2874C115.114 24.3603 115.401 24.4537 115.624 24.5676L115.282 25.5178C115.054 25.4267 114.79 25.3446 114.489 25.2717C114.193 25.1988 113.915 25.1624 113.655 25.1624C113.136 25.1624 112.703 25.274 112.356 25.4973C112.015 25.7206 111.757 26.0487 111.584 26.4817C111.415 26.9146 111.331 27.4478 111.331 28.0813C111.331 28.6874 111.413 29.2047 111.577 29.6331C111.746 30.0614 111.994 30.3896 112.322 30.6174C112.655 30.8407 113.07 30.9524 113.566 30.9524C113.963 30.9524 114.321 30.9114 114.64 30.8293C114.959 30.7428 115.248 30.6425 115.508 30.5286V31.5403C115.257 31.6679 114.977 31.7659 114.667 31.8342C114.362 31.9026 113.997 31.9368 113.573 31.9368ZM119.705 31.0071C119.892 31.0071 120.083 30.9911 120.279 30.9592C120.475 30.9273 120.635 30.8886 120.758 30.843V31.7249C120.626 31.7841 120.441 31.8342 120.204 31.8752C119.972 31.9163 119.744 31.9368 119.521 31.9368C119.124 31.9368 118.764 31.8684 118.44 31.7317C118.117 31.5904 117.857 31.3534 117.661 31.0208C117.47 30.6881 117.374 30.2278 117.374 29.6399V25.1965H116.308V24.6428L117.381 24.1985L117.832 22.5715H118.516V24.3079H120.71V25.1965H118.516V29.6057C118.516 30.0751 118.623 30.426 118.837 30.6584C119.056 30.8909 119.345 31.0071 119.705 31.0071ZM127.122 29.7493C127.122 30.2278 127.001 30.6311 126.76 30.9592C126.523 31.2828 126.181 31.5266 125.734 31.6907C125.292 31.8547 124.764 31.9368 124.148 31.9368C123.624 31.9368 123.171 31.8958 122.788 31.8137C122.405 31.7317 122.07 31.6155 121.783 31.4651V30.4192C122.089 30.5696 122.453 30.7063 122.877 30.8293C123.301 30.9524 123.734 31.0139 124.176 31.0139C124.823 31.0139 125.292 30.9091 125.584 30.6995C125.876 30.4898 126.021 30.205 126.021 29.845C126.021 29.6399 125.962 29.4599 125.844 29.3049C125.73 29.1454 125.536 28.9928 125.263 28.8469C124.989 28.6965 124.611 28.5325 124.128 28.3547C123.649 28.1724 123.235 27.9924 122.884 27.8147C122.537 27.6324 122.269 27.4114 122.077 27.1516C121.89 26.8918 121.797 26.5546 121.797 26.1399C121.797 25.5064 122.052 25.0211 122.562 24.6838C123.077 24.342 123.752 24.1711 124.586 24.1711C125.037 24.1711 125.459 24.2167 125.851 24.3079C126.247 24.3944 126.616 24.5129 126.958 24.6633L126.575 25.5725C126.265 25.4403 125.935 25.3287 125.584 25.2375C125.233 25.1464 124.875 25.1008 124.511 25.1008C123.987 25.1008 123.583 25.1874 123.301 25.3606C123.023 25.5338 122.884 25.7708 122.884 26.0715C122.884 26.304 122.948 26.4954 123.075 26.6458C123.207 26.7961 123.417 26.9374 123.704 27.0696C123.991 27.2017 124.369 27.3567 124.839 27.5344C125.308 27.7076 125.714 27.8876 126.056 28.0745C126.397 28.2568 126.66 28.4801 126.842 28.7444C127.029 29.0042 127.122 29.3391 127.122 29.7493Z" fill="#0166AB"/>
<rect x="148" y="12.8" width="2" height="28" fill="#E9EBED"/>
<path d="M174.191 21.8059C175.098 21.8059 175.846 21.9153 176.434 22.134C177.026 22.3528 177.466 22.6832 177.753 23.1252C178.04 23.5673 178.184 24.1256 178.184 24.8C178.184 25.2558 178.097 25.6545 177.924 25.9963C177.751 26.3381 177.523 26.6275 177.24 26.8645C176.958 27.1015 176.652 27.2952 176.324 27.4456L179.264 31.8H176.912L174.526 27.9651H173.398V31.8H171.279V21.8059H174.191ZM174.041 23.5422H173.398V26.2424H174.082C174.784 26.2424 175.285 26.1262 175.586 25.8938C175.891 25.6568 176.044 25.3105 176.044 24.8547C176.044 24.3808 175.88 24.0435 175.552 23.843C175.228 23.6425 174.725 23.5422 174.041 23.5422ZM183.509 24.0139C184.215 24.0139 184.824 24.1506 185.334 24.4241C185.844 24.693 186.239 25.0849 186.517 25.5999C186.795 26.1148 186.934 26.7437 186.934 27.4866V28.4983H182.005C182.028 29.0862 182.203 29.5487 182.531 29.886C182.864 30.2187 183.324 30.385 183.912 30.385C184.4 30.385 184.846 30.3349 185.252 30.2346C185.658 30.1344 186.075 29.984 186.503 29.7834V31.3967C186.125 31.5836 185.728 31.7203 185.313 31.8069C184.903 31.8935 184.404 31.9368 183.816 31.9368C183.051 31.9368 182.372 31.7955 181.779 31.5129C181.191 31.2304 180.729 30.7997 180.392 30.2209C180.059 29.6422 179.893 28.913 179.893 28.0334C179.893 27.1402 180.043 26.3974 180.344 25.8049C180.649 25.2079 181.073 24.7613 181.615 24.4651C182.158 24.1643 182.789 24.0139 183.509 24.0139ZM183.522 25.4973C183.117 25.4973 182.78 25.6272 182.511 25.887C182.246 26.1467 182.094 26.5546 182.053 27.1106H184.979C184.974 26.8007 184.917 26.525 184.808 26.2834C184.703 26.0419 184.543 25.8505 184.329 25.7092C184.119 25.568 183.851 25.4973 183.522 25.4973ZM190.447 31.8L187.535 24.1575H189.716L191.192 28.512C191.274 28.7672 191.338 29.0361 191.384 29.3186C191.434 29.6012 191.468 29.8541 191.486 30.0774H191.541C191.555 29.8359 191.587 29.5784 191.637 29.3049C191.691 29.0315 191.762 28.7672 191.849 28.512L193.318 24.1575H195.499L192.587 31.8H190.447ZM198.685 24.1575V31.8H196.6V24.1575H198.685ZM197.646 21.1633C197.955 21.1633 198.222 21.2362 198.445 21.3821C198.669 21.5234 198.78 21.79 198.78 22.1819C198.78 22.5693 198.669 22.8381 198.445 22.9885C198.222 23.1344 197.955 23.2073 197.646 23.2073C197.331 23.2073 197.062 23.1344 196.839 22.9885C196.62 22.8381 196.511 22.5693 196.511 22.1819C196.511 21.79 196.62 21.5234 196.839 21.3821C197.062 21.2362 197.331 21.1633 197.646 21.1633ZM204.03 24.0139C204.737 24.0139 205.345 24.1506 205.855 24.4241C206.366 24.693 206.76 25.0849 207.038 25.5999C207.316 26.1148 207.455 26.7437 207.455 27.4866V28.4983H202.526C202.549 29.0862 202.725 29.5487 203.053 29.886C203.385 30.2187 203.846 30.385 204.434 30.385C204.921 30.385 205.368 30.3349 205.773 30.2346C206.179 30.1344 206.596 29.984 207.024 29.7834V31.3967C206.646 31.5836 206.25 31.7203 205.835 31.8069C205.425 31.8935 204.926 31.9368 204.338 31.9368C203.572 31.9368 202.893 31.7955 202.301 31.5129C201.713 31.2304 201.25 30.7997 200.913 30.2209C200.58 29.6422 200.414 28.913 200.414 28.0334C200.414 27.1402 200.564 26.3974 200.865 25.8049C201.171 25.2079 201.594 24.7613 202.137 24.4651C202.679 24.1643 203.31 24.0139 204.03 24.0139ZM204.044 25.4973C203.638 25.4973 203.301 25.6272 203.032 25.887C202.768 26.1467 202.615 26.5546 202.574 27.1106H205.5C205.495 26.8007 205.438 26.525 205.329 26.2834C205.224 26.0419 205.065 25.8505 204.851 25.7092C204.641 25.568 204.372 25.4973 204.044 25.4973ZM215.433 31.8L214.845 29.1272C214.813 28.9677 214.76 28.733 214.688 28.4231C214.615 28.1086 214.535 27.7737 214.448 27.4182C214.366 27.0582 214.289 26.7255 214.216 26.4202C214.147 26.1148 214.097 25.8915 214.065 25.7502H214.004C213.972 25.8915 213.922 26.1148 213.854 26.4202C213.785 26.7255 213.708 27.0582 213.621 27.4182C213.539 27.7782 213.462 28.1178 213.389 28.4368C213.316 28.7512 213.261 28.9905 213.225 29.1545L212.609 31.8H210.367L208.193 24.1575H210.271L211.153 27.5413C211.213 27.7782 211.27 28.0608 211.324 28.3889C211.379 28.7125 211.427 29.0269 211.468 29.3323C211.513 29.6331 211.548 29.8723 211.57 30.05H211.625C211.634 29.9179 211.652 29.7424 211.68 29.5237C211.712 29.3049 211.746 29.0793 211.782 28.8469C211.823 28.6099 211.86 28.398 211.892 28.2112C211.928 28.0198 211.955 27.8899 211.974 27.8215L212.917 24.1575H215.214L216.109 27.8215C216.141 27.9537 216.182 28.1633 216.232 28.4504C216.287 28.7375 216.335 29.0338 216.376 29.3391C216.417 29.6399 216.44 29.8769 216.444 30.05H216.499C216.517 29.8951 216.549 29.665 216.595 29.3596C216.64 29.0543 216.693 28.7353 216.752 28.4026C216.816 28.0653 216.88 27.7782 216.943 27.5413L217.859 24.1575H219.903L217.702 31.8H215.433ZM227.026 31.8H224.941V21.8059H230.67V23.5422H227.026V26.1194H230.417V27.8489H227.026V31.8ZM235.612 24.0139C236.319 24.0139 236.927 24.1506 237.438 24.4241C237.948 24.693 238.342 25.0849 238.62 25.5999C238.898 26.1148 239.037 26.7437 239.037 27.4866V28.4983H234.108C234.131 29.0862 234.307 29.5487 234.635 29.886C234.967 30.2187 235.428 30.385 236.016 30.385C236.503 30.385 236.95 30.3349 237.355 30.2346C237.761 30.1344 238.178 29.984 238.606 29.7834V31.3967C238.228 31.5836 237.832 31.7203 237.417 31.8069C237.007 31.8935 236.508 31.9368 235.92 31.9368C235.154 31.9368 234.475 31.7955 233.883 31.5129C233.295 31.2304 232.832 30.7997 232.495 30.2209C232.162 29.6422 231.996 28.913 231.996 28.0334C231.996 27.1402 232.146 26.3974 232.447 25.8049C232.753 25.2079 233.176 24.7613 233.719 24.4651C234.261 24.1643 234.892 24.0139 235.612 24.0139ZM235.626 25.4973C235.22 25.4973 234.883 25.6272 234.614 25.887C234.35 26.1467 234.197 26.5546 234.156 27.1106H237.082C237.077 26.8007 237.021 26.525 236.911 26.2834C236.806 26.0419 236.647 25.8505 236.433 25.7092C236.223 25.568 235.954 25.4973 235.626 25.4973ZM243.884 24.0139C244.59 24.0139 245.199 24.1506 245.709 24.4241C246.219 24.693 246.614 25.0849 246.892 25.5999C247.17 26.1148 247.309 26.7437 247.309 27.4866V28.4983H242.38C242.403 29.0862 242.578 29.5487 242.906 29.886C243.239 30.2187 243.699 30.385 244.287 30.385C244.775 30.385 245.221 30.3349 245.627 30.2346C246.033 30.1344 246.45 29.984 246.878 29.7834V31.3967C246.5 31.5836 246.103 31.7203 245.688 31.8069C245.278 31.8935 244.779 31.9368 244.191 31.9368C243.426 31.9368 242.747 31.7955 242.154 31.5129C241.566 31.2304 241.104 30.7997 240.767 30.2209C240.434 29.6422 240.268 28.913 240.268 28.0334C240.268 27.1402 240.418 26.3974 240.719 25.8049C241.024 25.2079 241.448 24.7613 241.99 24.4651C242.533 24.1643 243.164 24.0139 243.884 24.0139ZM243.897 25.4973C243.492 25.4973 243.155 25.6272 242.886 25.887C242.621 26.1467 242.469 26.5546 242.428 27.1106H245.354C245.349 26.8007 245.292 26.525 245.183 26.2834C245.078 26.0419 244.918 25.8505 244.704 25.7092C244.494 25.568 244.226 25.4973 243.897 25.4973ZM251.424 31.9368C250.572 31.9368 249.877 31.6041 249.339 30.9387C248.806 30.2688 248.539 29.2867 248.539 27.9924C248.539 26.6845 248.81 25.6956 249.353 25.0256C249.895 24.3512 250.604 24.0139 251.479 24.0139C251.843 24.0139 252.164 24.064 252.442 24.1643C252.72 24.2646 252.96 24.399 253.16 24.5676C253.365 24.7362 253.538 24.9254 253.68 25.135H253.748C253.721 24.9892 253.687 24.775 253.646 24.4924C253.609 24.2053 253.591 23.9114 253.591 23.6106V21.1633H255.683V31.8H254.083L253.68 30.8088H253.591C253.459 31.0185 253.292 31.2099 253.092 31.3831C252.896 31.5517 252.661 31.6861 252.388 31.7864C252.114 31.8866 251.793 31.9368 251.424 31.9368ZM252.155 30.2756C252.725 30.2756 253.126 30.107 253.358 29.7698C253.595 29.428 253.721 28.9153 253.734 28.2317V28.0061C253.734 27.2633 253.62 26.6959 253.393 26.304C253.165 25.9075 252.741 25.7092 252.121 25.7092C251.661 25.7092 251.301 25.9075 251.041 26.304C250.781 26.7004 250.651 27.2724 250.651 28.0198C250.651 28.7672 250.781 29.33 251.041 29.7083C251.305 30.0865 251.677 30.2756 252.155 30.2756ZM259.948 21.1633V23.6379C259.948 23.925 259.939 24.2099 259.921 24.4924C259.907 24.775 259.889 24.9937 259.866 25.1487H259.948C260.149 24.8342 260.422 24.5676 260.769 24.3489C261.115 24.1256 261.564 24.0139 262.115 24.0139C262.972 24.0139 263.667 24.3489 264.2 25.0188C264.733 25.6887 265 26.6708 265 27.9651C265 28.8355 264.877 29.567 264.631 30.1594C264.385 30.7473 264.041 31.1917 263.599 31.4924C263.157 31.7887 262.644 31.9368 262.061 31.9368C261.5 31.9368 261.058 31.8365 260.734 31.636C260.411 31.4355 260.149 31.2099 259.948 30.9592H259.805L259.456 31.8H257.863V21.1633H259.948ZM261.445 25.6819C261.081 25.6819 260.791 25.7571 260.577 25.9075C260.363 26.0579 260.206 26.2834 260.105 26.5842C260.01 26.885 259.957 27.2655 259.948 27.7258V27.9514C259.948 28.6943 260.058 29.2639 260.276 29.6604C260.495 30.0523 260.894 30.2483 261.473 30.2483C261.901 30.2483 262.241 30.05 262.491 29.6536C262.746 29.2571 262.874 28.6851 262.874 27.9377C262.874 27.1903 262.746 26.6275 262.491 26.2493C262.236 25.871 261.887 25.6819 261.445 25.6819ZM269.854 24.0002C270.879 24.0002 271.665 24.2236 272.212 24.6702C272.759 25.1168 273.032 25.7958 273.032 26.7073V31.8H271.576L271.173 30.761H271.118C270.899 31.0344 270.676 31.2577 270.448 31.4309C270.22 31.6041 269.958 31.7317 269.662 31.8137C269.366 31.8958 269.006 31.9368 268.582 31.9368C268.131 31.9368 267.725 31.8502 267.365 31.677C267.01 31.5038 266.729 31.2395 266.524 30.884C266.319 30.524 266.217 30.0683 266.217 29.5168C266.217 28.7056 266.502 28.1086 267.071 27.7258C267.641 27.3385 268.495 27.1243 269.635 27.0833L270.961 27.0422V26.7073C270.961 26.3062 270.856 26.0123 270.646 25.8254C270.437 25.6386 270.145 25.5452 269.771 25.5452C269.402 25.5452 269.04 25.5976 268.685 25.7024C268.329 25.8072 267.974 25.9394 267.618 26.0989L266.928 24.6907C267.333 24.4765 267.787 24.3079 268.288 24.1848C268.794 24.0618 269.316 24.0002 269.854 24.0002ZM270.961 28.259L270.154 28.2864C269.48 28.3046 269.01 28.4254 268.746 28.6487C268.486 28.872 268.356 29.1659 268.356 29.5305C268.356 29.8495 268.45 30.0774 268.637 30.2141C268.824 30.3463 269.067 30.4124 269.368 30.4124C269.815 30.4124 270.191 30.2802 270.496 30.0159C270.806 29.7515 270.961 29.3756 270.961 28.8879V28.259ZM278.289 31.9368C277.533 31.9368 276.888 31.8 276.354 31.5266C275.821 31.2486 275.416 30.8202 275.138 30.2415C274.86 29.6627 274.721 28.9221 274.721 28.0198C274.721 27.0855 274.878 26.3245 275.192 25.7366C275.511 25.1441 275.951 24.7089 276.512 24.4309C277.077 24.1529 277.731 24.0139 278.474 24.0139C279.002 24.0139 279.458 24.0663 279.841 24.1711C280.228 24.2714 280.565 24.3922 280.853 24.5334L280.237 26.1467C279.909 26.0146 279.604 25.9075 279.321 25.8254C279.039 25.7389 278.756 25.6956 278.474 25.6956C278.109 25.6956 277.806 25.7821 277.564 25.9553C277.323 26.1239 277.143 26.3792 277.024 26.7209C276.906 27.0627 276.847 27.4911 276.847 28.0061C276.847 28.512 276.91 28.9312 277.038 29.2639C277.166 29.5966 277.35 29.845 277.592 30.009C277.833 30.1685 278.127 30.2483 278.474 30.2483C278.907 30.2483 279.292 30.1913 279.629 30.0774C279.966 29.9589 280.294 29.7948 280.613 29.5852V31.3694C280.294 31.5699 279.959 31.7135 279.608 31.8C279.262 31.8912 278.822 31.9368 278.289 31.9368ZM284.476 21.1633V25.9211C284.476 26.2083 284.464 26.4954 284.441 26.7825C284.419 27.0696 284.394 27.3567 284.366 27.6438H284.394C284.535 27.4433 284.678 27.245 284.824 27.0491C284.975 26.8531 285.134 26.664 285.303 26.4817L287.442 24.1575H289.794L286.759 27.4729L289.979 31.8H287.572L285.371 28.7034L284.476 29.4211V31.8H282.391V21.1633H284.476Z" fill="#000716"/>
<rect x="310" y="12.8" width="2" height="28" fill="#E9EBED"/>
<rect x="152" y="50.8" width="158" height="4" rx="2" fill="#F19D38"/>
<path d="M336.336 21.8059C337.626 21.8059 338.567 22.0588 339.159 22.5647C339.756 23.066 340.055 23.7861 340.055 24.7249C340.055 25.1487 339.984 25.552 339.843 25.9348C339.706 26.3131 339.483 26.648 339.173 26.9397C338.863 27.2268 338.455 27.4547 337.949 27.6233C337.448 27.7874 336.833 27.8694 336.104 27.8694H334.887V31.8H333.725V21.8059H336.336ZM336.227 22.7971H334.887V26.8713H335.974C336.612 26.8713 337.143 26.803 337.566 26.6663C337.995 26.5295 338.316 26.3085 338.53 26.0032C338.744 25.6933 338.852 25.2831 338.852 24.7727C338.852 24.1073 338.64 23.6129 338.216 23.2893C337.792 22.9612 337.129 22.7971 336.227 22.7971ZM344.778 24.1848C345.672 24.1848 346.335 24.3853 346.768 24.7864C347.201 25.1874 347.417 25.8277 347.417 26.7073V31.8H346.59L346.371 30.6926H346.316C346.107 30.9661 345.888 31.1962 345.66 31.3831C345.432 31.5653 345.168 31.7043 344.867 31.8C344.571 31.8912 344.206 31.9368 343.773 31.9368C343.318 31.9368 342.912 31.857 342.557 31.6975C342.206 31.538 341.928 31.2965 341.723 30.9729C341.522 30.6493 341.422 30.2392 341.422 29.7424C341.422 28.995 341.718 28.4208 342.311 28.0198C342.903 27.6187 343.805 27.4 345.018 27.3635L346.31 27.3088V26.8508C346.31 26.2037 346.171 25.7502 345.893 25.4905C345.615 25.2307 345.223 25.1008 344.717 25.1008C344.325 25.1008 343.951 25.1578 343.596 25.2717C343.24 25.3857 342.903 25.5201 342.584 25.675L342.235 24.8137C342.573 24.6405 342.96 24.4924 343.397 24.3694C343.835 24.2463 344.295 24.1848 344.778 24.1848ZM346.296 28.1086L345.154 28.1565C344.22 28.193 343.562 28.3456 343.179 28.6145C342.796 28.8834 342.604 29.2639 342.604 29.7561C342.604 30.1845 342.734 30.5012 342.994 30.7063C343.254 30.9114 343.598 31.0139 344.026 31.0139C344.692 31.0139 345.236 30.8293 345.66 30.4602C346.084 30.0911 346.296 29.5374 346.296 28.7991V28.1086ZM348.572 24.3079H349.789L351.443 28.6555C351.539 28.9107 351.628 29.1568 351.71 29.3938C351.792 29.6262 351.865 29.8495 351.929 30.0637C351.993 30.2779 352.043 30.4853 352.079 30.6858H352.127C352.191 30.4579 352.282 30.1594 352.4 29.7903C352.519 29.4166 352.646 29.0361 352.783 28.6487L354.349 24.3079H355.572L352.312 32.9006C352.138 33.3609 351.936 33.762 351.703 34.1038C351.475 34.4456 351.197 34.7076 350.869 34.8899C350.541 35.0767 350.145 35.1702 349.68 35.1702C349.465 35.1702 349.276 35.1565 349.112 35.1292C348.948 35.1064 348.807 35.079 348.688 35.0471V34.1379C348.789 34.1607 348.91 34.1812 349.051 34.1995C349.197 34.2177 349.347 34.2268 349.502 34.2268C349.785 34.2268 350.028 34.1721 350.233 34.0627C350.443 33.9579 350.623 33.803 350.773 33.5979C350.924 33.3928 351.054 33.149 351.163 32.8665L351.573 31.8137L348.572 24.3079ZM364.903 24.1711C365.728 24.1711 366.35 24.3876 366.77 24.8206C367.189 25.2489 367.398 25.9394 367.398 26.8918V31.8H366.277V26.9465C366.277 26.3404 366.145 25.887 365.881 25.5862C365.621 25.2808 365.234 25.1282 364.719 25.1282C363.994 25.1282 363.468 25.3378 363.14 25.7571C362.812 26.1764 362.647 26.7939 362.647 27.6096V31.8H361.52V26.9465C361.52 26.5409 361.46 26.2037 361.342 25.9348C361.228 25.6659 361.055 25.4654 360.822 25.3333C360.594 25.1965 360.305 25.1282 359.954 25.1282C359.457 25.1282 359.059 25.2307 358.758 25.4358C358.457 25.6409 358.238 25.9462 358.102 26.3518C357.969 26.7528 357.903 27.2473 357.903 27.8352V31.8H356.769V24.3079H357.685L357.855 25.3674H357.917C358.067 25.1077 358.257 24.8889 358.484 24.7112C358.712 24.5334 358.967 24.399 359.25 24.3079C359.533 24.2167 359.833 24.1711 360.152 24.1711C360.722 24.1711 361.198 24.2782 361.581 24.4924C361.968 24.7021 362.249 25.0234 362.422 25.4563H362.483C362.729 25.0234 363.067 24.7021 363.495 24.4924C363.924 24.2782 364.393 24.1711 364.903 24.1711ZM372.614 24.1711C373.252 24.1711 373.799 24.3124 374.255 24.595C374.711 24.8775 375.059 25.274 375.301 25.7844C375.542 26.2903 375.663 26.8827 375.663 27.5618V28.2659H370.488C370.502 29.1454 370.721 29.8153 371.145 30.2756C371.568 30.7359 372.165 30.9661 372.936 30.9661C373.41 30.9661 373.829 30.9228 374.193 30.8362C374.558 30.7496 374.936 30.622 375.328 30.4534V31.4514C374.95 31.62 374.574 31.7431 374.2 31.8206C373.831 31.898 373.394 31.9368 372.888 31.9368C372.168 31.9368 371.539 31.7909 371.001 31.4993C370.468 31.203 370.053 30.7701 369.757 30.2004C369.461 29.6308 369.312 28.9335 369.312 28.1086C369.312 27.302 369.447 26.6047 369.716 26.0168C369.989 25.4244 370.372 24.9687 370.864 24.6497C371.361 24.3306 371.944 24.1711 372.614 24.1711ZM372.601 25.1008C371.994 25.1008 371.511 25.2991 371.151 25.6956C370.791 26.092 370.577 26.6458 370.509 27.3567H374.474C374.469 26.9101 374.398 26.5181 374.262 26.1809C374.13 25.8391 373.927 25.5748 373.653 25.3879C373.38 25.1965 373.029 25.1008 372.601 25.1008ZM381.139 24.1711C382.027 24.1711 382.7 24.3899 383.155 24.8274C383.611 25.2603 383.839 25.9576 383.839 26.9192V31.8H382.718V26.9944C382.718 26.37 382.574 25.9029 382.287 25.593C382.005 25.2831 381.569 25.1282 380.981 25.1282C380.152 25.1282 379.569 25.3629 379.231 25.8323C378.894 26.3017 378.726 26.983 378.726 27.8762V31.8H377.591V24.3079H378.507L378.678 25.3879H378.739C378.899 25.1236 379.102 24.9026 379.348 24.7249C379.594 24.5426 379.869 24.4058 380.175 24.3147C380.48 24.219 380.801 24.1711 381.139 24.1711ZM388.597 31.0071C388.784 31.0071 388.975 30.9911 389.171 30.9592C389.367 30.9273 389.526 30.8886 389.649 30.843V31.7249C389.517 31.7841 389.333 31.8342 389.096 31.8752C388.863 31.9163 388.635 31.9368 388.412 31.9368C388.016 31.9368 387.656 31.8684 387.332 31.7317C387.008 31.5904 386.749 31.3534 386.553 31.0208C386.361 30.6881 386.266 30.2278 386.266 29.6399V25.1965H385.199V24.6428L386.272 24.1985L386.724 22.5715H387.407V24.3079H389.602V25.1965H387.407V29.6057C387.407 30.0751 387.514 30.426 387.729 30.6584C387.947 30.8909 388.237 31.0071 388.597 31.0071ZM396.014 29.7493C396.014 30.2278 395.893 30.6311 395.651 30.9592C395.414 31.2828 395.073 31.5266 394.626 31.6907C394.184 31.8547 393.655 31.9368 393.04 31.9368C392.516 31.9368 392.062 31.8958 391.68 31.8137C391.297 31.7317 390.962 31.6155 390.675 31.4651V30.4192C390.98 30.5696 391.345 30.7063 391.769 30.8293C392.192 30.9524 392.625 31.0139 393.067 31.0139C393.715 31.0139 394.184 30.9091 394.476 30.6995C394.767 30.4898 394.913 30.205 394.913 29.845C394.913 29.6399 394.854 29.4599 394.735 29.3049C394.621 29.1454 394.428 28.9928 394.154 28.8469C393.881 28.6965 393.503 28.5325 393.02 28.3547C392.541 28.1724 392.126 27.9924 391.775 27.8147C391.429 27.6324 391.16 27.4114 390.969 27.1516C390.782 26.8918 390.688 26.5546 390.688 26.1399C390.688 25.5064 390.944 25.0211 391.454 24.6838C391.969 24.342 392.644 24.1711 393.478 24.1711C393.929 24.1711 394.35 24.2167 394.742 24.3079C395.139 24.3944 395.508 24.5129 395.85 24.6633L395.467 25.5725C395.157 25.4403 394.826 25.3287 394.476 25.2375C394.125 25.1464 393.767 25.1008 393.402 25.1008C392.878 25.1008 392.475 25.1874 392.192 25.3606C391.914 25.5338 391.775 25.7708 391.775 26.0715C391.775 26.304 391.839 26.4954 391.967 26.6458C392.099 26.7961 392.309 26.9374 392.596 27.0696C392.883 27.2017 393.261 27.3567 393.73 27.5344C394.2 27.7076 394.605 27.8876 394.947 28.0745C395.289 28.2568 395.551 28.4801 395.733 28.7444C395.92 29.0042 396.014 29.3391 396.014 29.7493Z" fill="#0166AB"/>
<rect x="417" y="12.8" width="2" height="28" fill="#E9EBED"/>
<path d="M443.902 31.8H442.733V22.8313H439.589V21.8059H447.033V22.8313H443.902V31.8ZM451.777 24.1711C451.928 24.1711 452.085 24.1803 452.249 24.1985C452.413 24.2122 452.559 24.2327 452.687 24.26L452.543 25.3127C452.42 25.2808 452.283 25.2558 452.133 25.2375C451.982 25.2193 451.841 25.2102 451.709 25.2102C451.408 25.2102 451.123 25.2717 450.854 25.3948C450.59 25.5133 450.358 25.6864 450.157 25.9143C449.957 26.1376 449.799 26.4088 449.686 26.7278C449.572 27.0422 449.515 27.3931 449.515 27.7805V31.8H448.373V24.3079H449.316L449.439 25.6887H449.487C449.642 25.4107 449.829 25.1578 450.048 24.9299C450.267 24.6975 450.52 24.5129 450.807 24.3762C451.098 24.2395 451.422 24.1711 451.777 24.1711ZM456.904 24.1848C457.798 24.1848 458.461 24.3853 458.894 24.7864C459.326 25.1874 459.543 25.8277 459.543 26.7073V31.8H458.716L458.497 30.6926H458.442C458.233 30.9661 458.014 31.1962 457.786 31.3831C457.558 31.5653 457.294 31.7043 456.993 31.8C456.697 31.8912 456.332 31.9368 455.899 31.9368C455.444 31.9368 455.038 31.857 454.683 31.6975C454.332 31.538 454.054 31.2965 453.849 30.9729C453.648 30.6493 453.548 30.2392 453.548 29.7424C453.548 28.995 453.844 28.4208 454.437 28.0198C455.029 27.6187 455.931 27.4 457.144 27.3635L458.436 27.3088V26.8508C458.436 26.2037 458.297 25.7502 458.019 25.4905C457.741 25.2307 457.349 25.1008 456.843 25.1008C456.451 25.1008 456.077 25.1578 455.722 25.2717C455.366 25.3857 455.029 25.5201 454.71 25.675L454.361 24.8137C454.699 24.6405 455.086 24.4924 455.523 24.3694C455.961 24.2463 456.421 24.1848 456.904 24.1848ZM458.422 28.1086L457.28 28.1565C456.346 28.193 455.688 28.3456 455.305 28.6145C454.922 28.8834 454.73 29.2639 454.73 29.7561C454.73 30.1845 454.86 30.5012 455.12 30.7063C455.38 30.9114 455.724 31.0139 456.152 31.0139C456.818 31.0139 457.362 30.8293 457.786 30.4602C458.21 30.0911 458.422 29.5374 458.422 28.7991V28.1086ZM465.429 24.1711C466.317 24.1711 466.99 24.3899 467.445 24.8274C467.901 25.2603 468.129 25.9576 468.129 26.9192V31.8H467.008V26.9944C467.008 26.37 466.864 25.9029 466.577 25.593C466.295 25.2831 465.859 25.1282 465.271 25.1282C464.442 25.1282 463.859 25.3629 463.521 25.8323C463.184 26.3017 463.016 26.983 463.016 27.8762V31.8H461.881V24.3079H462.797L462.968 25.3879H463.029C463.189 25.1236 463.392 24.9026 463.638 24.7249C463.884 24.5426 464.16 24.4058 464.465 24.3147C464.77 24.219 465.091 24.1711 465.429 24.1711ZM475.313 29.7493C475.313 30.2278 475.193 30.6311 474.951 30.9592C474.714 31.2828 474.372 31.5266 473.926 31.6907C473.484 31.8547 472.955 31.9368 472.34 31.9368C471.816 31.9368 471.362 31.8958 470.979 31.8137C470.597 31.7317 470.262 31.6155 469.975 31.4651V30.4192C470.28 30.5696 470.645 30.7063 471.068 30.8293C471.492 30.9524 471.925 31.0139 472.367 31.0139C473.014 31.0139 473.484 30.9091 473.775 30.6995C474.067 30.4898 474.213 30.205 474.213 29.845C474.213 29.6399 474.154 29.4599 474.035 29.3049C473.921 29.1454 473.728 28.9928 473.454 28.8469C473.181 28.6965 472.802 28.5325 472.319 28.3547C471.841 28.1724 471.426 27.9924 471.075 27.8147C470.729 27.6324 470.46 27.4114 470.269 27.1516C470.082 26.8918 469.988 26.5546 469.988 26.1399C469.988 25.5064 470.243 25.0211 470.754 24.6838C471.269 24.342 471.943 24.1711 472.777 24.1711C473.229 24.1711 473.65 24.2167 474.042 24.3079C474.438 24.3944 474.808 24.5129 475.149 24.6633L474.767 25.5725C474.457 25.4403 474.126 25.3287 473.775 25.2375C473.424 25.1464 473.067 25.1008 472.702 25.1008C472.178 25.1008 471.775 25.1874 471.492 25.3606C471.214 25.5338 471.075 25.7708 471.075 26.0715C471.075 26.304 471.139 26.4954 471.267 26.6458C471.399 26.7961 471.608 26.9374 471.896 27.0696C472.183 27.2017 472.561 27.3567 473.03 27.5344C473.5 27.7076 473.905 27.8876 474.247 28.0745C474.589 28.2568 474.851 28.4801 475.033 28.7444C475.22 29.0042 475.313 29.3391 475.313 29.7493ZM480.475 25.1965H478.608V31.8H477.474V25.1965H476.147V24.6497L477.474 24.2737V23.7747C477.474 23.1458 477.567 22.6353 477.754 22.2434C477.941 21.8469 478.212 21.5553 478.567 21.3684C478.923 21.1816 479.356 21.0881 479.866 21.0881C480.153 21.0881 480.415 21.1132 480.652 21.1633C480.894 21.2135 481.106 21.2704 481.288 21.3342L480.994 22.2297C480.839 22.1796 480.664 22.134 480.468 22.093C480.276 22.0474 480.08 22.0247 479.88 22.0247C479.447 22.0247 479.126 22.1659 478.916 22.4485C478.711 22.7265 478.608 23.164 478.608 23.761V24.3079H480.475V25.1965ZM484.74 24.1711C485.378 24.1711 485.925 24.3124 486.381 24.595C486.837 24.8775 487.185 25.274 487.427 25.7844C487.668 26.2903 487.789 26.8827 487.789 27.5618V28.2659H482.614C482.628 29.1454 482.847 29.8153 483.271 30.2756C483.694 30.7359 484.291 30.9661 485.062 30.9661C485.535 30.9661 485.955 30.9228 486.319 30.8362C486.684 30.7496 487.062 30.622 487.454 30.4534V31.4514C487.076 31.62 486.7 31.7431 486.326 31.8206C485.957 31.898 485.52 31.9368 485.014 31.9368C484.294 31.9368 483.665 31.7909 483.127 31.4993C482.594 31.203 482.179 30.7701 481.883 30.2004C481.587 29.6308 481.438 28.9335 481.438 28.1086C481.438 27.302 481.573 26.6047 481.842 26.0168C482.115 25.4244 482.498 24.9687 482.99 24.6497C483.487 24.3306 484.07 24.1711 484.74 24.1711ZM484.727 25.1008C484.12 25.1008 483.637 25.2991 483.277 25.6956C482.917 26.092 482.703 26.6458 482.635 27.3567H486.6C486.595 26.9101 486.524 26.5181 486.388 26.1809C486.256 25.8391 486.053 25.5748 485.779 25.3879C485.506 25.1965 485.155 25.1008 484.727 25.1008ZM493.121 24.1711C493.271 24.1711 493.429 24.1803 493.593 24.1985C493.757 24.2122 493.903 24.2327 494.03 24.26L493.887 25.3127C493.764 25.2808 493.627 25.2558 493.477 25.2375C493.326 25.2193 493.185 25.2102 493.053 25.2102C492.752 25.2102 492.467 25.2717 492.198 25.3948C491.934 25.5133 491.701 25.6864 491.501 25.9143C491.3 26.1376 491.143 26.4088 491.029 26.7278C490.915 27.0422 490.858 27.3931 490.858 27.7805V31.8H489.717V24.3079H490.66L490.783 25.6887H490.831C490.986 25.4107 491.173 25.1578 491.392 24.9299C491.61 24.6975 491.863 24.5129 492.15 24.3762C492.442 24.2395 492.766 24.1711 493.121 24.1711ZM500.415 31.8H499.253V21.8059H504.817V22.8313H500.415V26.4954H504.551V27.5139H500.415V31.8ZM512.501 24.3079V31.8H511.571L511.407 30.7473H511.346C511.191 31.0071 510.99 31.2258 510.744 31.4036C510.498 31.5813 510.22 31.7135 509.91 31.8C509.605 31.8912 509.279 31.9368 508.933 31.9368C508.34 31.9368 507.843 31.8411 507.442 31.6497C507.041 31.4583 506.738 31.162 506.533 30.761C506.333 30.3599 506.232 29.845 506.232 29.2161V24.3079H507.381V29.134C507.381 29.7584 507.522 30.2255 507.805 30.5354C508.087 30.8407 508.518 30.9934 509.097 30.9934C509.653 30.9934 510.095 30.8886 510.423 30.679C510.756 30.4693 510.995 30.1617 511.141 29.7561C511.286 29.3459 511.359 28.8446 511.359 28.2522V24.3079H512.501ZM518.448 24.1711C519.337 24.1711 520.009 24.3899 520.465 24.8274C520.921 25.2603 521.148 25.9576 521.148 26.9192V31.8H520.027V26.9944C520.027 26.37 519.884 25.9029 519.597 25.593C519.314 25.2831 518.879 25.1282 518.291 25.1282C517.462 25.1282 516.878 25.3629 516.541 25.8323C516.204 26.3017 516.035 26.983 516.035 27.8762V31.8H514.9V24.3079H515.816L515.987 25.3879H516.049C516.208 25.1236 516.411 24.9026 516.657 24.7249C516.903 24.5426 517.179 24.4058 517.484 24.3147C517.79 24.219 518.111 24.1711 518.448 24.1711ZM526.152 31.9368C525.204 31.9368 524.452 31.6132 523.896 30.9661C523.345 30.3189 523.069 29.3573 523.069 28.0813C523.069 26.7916 523.352 25.8186 523.917 25.1624C524.482 24.5015 525.234 24.1711 526.173 24.1711C526.569 24.1711 526.916 24.2236 527.212 24.3284C527.508 24.4332 527.763 24.5745 527.978 24.7522C528.192 24.9254 528.372 25.1236 528.518 25.3469H528.6C528.581 25.2056 528.563 25.012 528.545 24.7659C528.527 24.5198 528.518 24.3193 528.518 24.1643V21.1633H529.652V31.8H528.736L528.565 30.7336H528.518C528.376 30.9569 528.196 31.1597 527.978 31.342C527.763 31.5243 527.506 31.6702 527.205 31.7795C526.909 31.8844 526.558 31.9368 526.152 31.9368ZM526.33 30.9934C527.132 30.9934 527.7 30.7655 528.032 30.3098C528.365 29.8541 528.531 29.1773 528.531 28.2795V28.0745C528.531 27.122 528.372 26.3905 528.053 25.8801C527.738 25.3697 527.164 25.1145 526.33 25.1145C525.633 25.1145 525.111 25.3834 524.765 25.9211C524.418 26.4543 524.245 27.1835 524.245 28.1086C524.245 29.0292 524.416 29.7402 524.758 30.2415C525.104 30.7428 525.628 30.9934 526.33 30.9934ZM536.905 29.7493C536.905 30.2278 536.785 30.6311 536.543 30.9592C536.306 31.2828 535.964 31.5266 535.518 31.6907C535.076 31.8547 534.547 31.9368 533.932 31.9368C533.408 31.9368 532.954 31.8958 532.571 31.8137C532.188 31.7317 531.854 31.6155 531.566 31.4651V30.4192C531.872 30.5696 532.236 30.7063 532.66 30.8293C533.084 30.9524 533.517 31.0139 533.959 31.0139C534.606 31.0139 535.076 30.9091 535.367 30.6995C535.659 30.4898 535.805 30.205 535.805 29.845C535.805 29.6399 535.745 29.4599 535.627 29.3049C535.513 29.1454 535.319 28.9928 535.046 28.8469C534.772 28.6965 534.394 28.5325 533.911 28.3547C533.433 28.1724 533.018 27.9924 532.667 27.8147C532.321 27.6324 532.052 27.4114 531.86 27.1516C531.674 26.8918 531.58 26.5546 531.58 26.1399C531.58 25.5064 531.835 25.0211 532.346 24.6838C532.861 24.342 533.535 24.1711 534.369 24.1711C534.82 24.1711 535.242 24.2167 535.634 24.3079C536.03 24.3944 536.399 24.5129 536.741 24.6633L536.358 25.5725C536.049 25.4403 535.718 25.3287 535.367 25.2375C535.016 25.1464 534.659 25.1008 534.294 25.1008C533.77 25.1008 533.367 25.1874 533.084 25.3606C532.806 25.5338 532.667 25.7708 532.667 26.0715C532.667 26.304 532.731 26.4954 532.858 26.6458C532.991 26.7961 533.2 26.9374 533.487 27.0696C533.774 27.2017 534.153 27.3567 534.622 27.5344C535.091 27.7076 535.497 27.8876 535.839 28.0745C536.181 28.2568 536.443 28.4801 536.625 28.7444C536.812 29.0042 536.905 29.3391 536.905 29.7493Z" fill="#0166AB"/>
<rect x="558" y="12.8" width="2" height="28" fill="#E9EBED"/>
<path d="M584.303 21.8059C585.123 21.8059 585.8 21.9084 586.333 22.1135C586.871 22.314 587.272 22.6217 587.536 23.0364C587.8 23.4511 587.933 23.9797 587.933 24.6223C587.933 25.151 587.837 25.593 587.646 25.9485C587.454 26.2994 587.203 26.5842 586.894 26.803C586.584 27.0217 586.253 27.1903 585.902 27.3088L588.644 31.8H587.29L584.843 27.6301H582.765V31.8H581.603V21.8059H584.303ZM584.234 22.8108H582.765V26.6458H584.351C585.166 26.6458 585.766 26.4794 586.148 26.1467C586.536 25.814 586.729 25.3241 586.729 24.677C586.729 23.998 586.524 23.5172 586.114 23.2346C585.709 22.9521 585.082 22.8108 584.234 22.8108ZM592.957 24.1711C593.595 24.1711 594.142 24.3124 594.598 24.595C595.053 24.8775 595.402 25.274 595.644 25.7844C595.885 26.2903 596.006 26.8827 596.006 27.5618V28.2659H590.831C590.845 29.1454 591.063 29.8153 591.487 30.2756C591.911 30.7359 592.508 30.9661 593.278 30.9661C593.752 30.9661 594.172 30.9228 594.536 30.8362C594.901 30.7496 595.279 30.622 595.671 30.4534V31.4514C595.293 31.62 594.917 31.7431 594.543 31.8206C594.174 31.898 593.736 31.9368 593.23 31.9368C592.51 31.9368 591.882 31.7909 591.344 31.4993C590.811 31.203 590.396 30.7701 590.1 30.2004C589.803 29.6308 589.655 28.9335 589.655 28.1086C589.655 27.302 589.79 26.6047 590.059 26.0168C590.332 25.4244 590.715 24.9687 591.207 24.6497C591.704 24.3306 592.287 24.1711 592.957 24.1711ZM592.943 25.1008C592.337 25.1008 591.854 25.2991 591.494 25.6956C591.134 26.092 590.92 26.6458 590.852 27.3567H594.816C594.812 26.9101 594.741 26.5181 594.604 26.1809C594.472 25.8391 594.27 25.5748 593.996 25.3879C593.723 25.1965 593.372 25.1008 592.943 25.1008ZM601.27 25.1965H599.403V31.8H598.269V25.1965H596.942V24.6497L598.269 24.2737V23.7747C598.269 23.1458 598.362 22.6353 598.549 22.2434C598.736 21.8469 599.007 21.5553 599.362 21.3684C599.718 21.1816 600.151 21.0881 600.661 21.0881C600.948 21.0881 601.21 21.1132 601.447 21.1633C601.689 21.2135 601.901 21.2704 602.083 21.3342L601.789 22.2297C601.634 22.1796 601.459 22.134 601.263 22.093C601.071 22.0474 600.875 22.0247 600.675 22.0247C600.242 22.0247 599.921 22.1659 599.711 22.4485C599.506 22.7265 599.403 23.164 599.403 23.761V24.3079H601.27V25.1965ZM605.535 24.1711C606.173 24.1711 606.72 24.3124 607.176 24.595C607.632 24.8775 607.98 25.274 608.222 25.7844C608.463 26.2903 608.584 26.8827 608.584 27.5618V28.2659H603.409C603.423 29.1454 603.642 29.8153 604.065 30.2756C604.489 30.7359 605.086 30.9661 605.856 30.9661C606.33 30.9661 606.75 30.9228 607.114 30.8362C607.479 30.7496 607.857 30.622 608.249 30.4534V31.4514C607.871 31.62 607.495 31.7431 607.121 31.8206C606.752 31.898 606.314 31.9368 605.809 31.9368C605.089 31.9368 604.46 31.7909 603.922 31.4993C603.389 31.203 602.974 30.7701 602.678 30.2004C602.382 29.6308 602.233 28.9335 602.233 28.1086C602.233 27.302 602.368 26.6047 602.637 26.0168C602.91 25.4244 603.293 24.9687 603.785 24.6497C604.282 24.3306 604.865 24.1711 605.535 24.1711ZM605.521 25.1008C604.915 25.1008 604.432 25.2991 604.072 25.6956C603.712 26.092 603.498 26.6458 603.43 27.3567H607.395C607.39 26.9101 607.319 26.5181 607.183 26.1809C607.05 25.8391 606.848 25.5748 606.574 25.3879C606.301 25.1965 605.95 25.1008 605.521 25.1008ZM613.916 24.1711C614.066 24.1711 614.224 24.1803 614.388 24.1985C614.552 24.2122 614.698 24.2327 614.825 24.26L614.682 25.3127C614.559 25.2808 614.422 25.2558 614.271 25.2375C614.121 25.2193 613.98 25.2102 613.848 25.2102C613.547 25.2102 613.262 25.2717 612.993 25.3948C612.729 25.5133 612.496 25.6864 612.296 25.9143C612.095 26.1376 611.938 26.4088 611.824 26.7278C611.71 27.0422 611.653 27.3931 611.653 27.7805V31.8H610.512V24.3079H611.455L611.578 25.6887H611.626C611.781 25.4107 611.968 25.1578 612.187 24.9299C612.405 24.6975 612.658 24.5129 612.945 24.3762C613.237 24.2395 613.561 24.1711 613.916 24.1711ZM619.645 24.1711C619.795 24.1711 619.952 24.1803 620.116 24.1985C620.28 24.2122 620.426 24.2327 620.554 24.26L620.41 25.3127C620.287 25.2808 620.15 25.2558 620 25.2375C619.85 25.2193 619.708 25.2102 619.576 25.2102C619.275 25.2102 618.991 25.2717 618.722 25.3948C618.457 25.5133 618.225 25.6864 618.024 25.9143C617.824 26.1376 617.667 26.4088 617.553 26.7278C617.439 27.0422 617.382 27.3931 617.382 27.7805V31.8H616.24V24.3079H617.184L617.307 25.6887H617.354C617.509 25.4107 617.696 25.1578 617.915 24.9299C618.134 24.6975 618.387 24.5129 618.674 24.3762C618.965 24.2395 619.289 24.1711 619.645 24.1711ZM624.771 24.1848C625.665 24.1848 626.328 24.3853 626.761 24.7864C627.194 25.1874 627.41 25.8277 627.41 26.7073V31.8H626.583L626.364 30.6926H626.31C626.1 30.9661 625.881 31.1962 625.653 31.3831C625.425 31.5653 625.161 31.7043 624.86 31.8C624.564 31.8912 624.2 31.9368 623.767 31.9368C623.311 31.9368 622.905 31.857 622.55 31.6975C622.199 31.538 621.921 31.2965 621.716 30.9729C621.515 30.6493 621.415 30.2392 621.415 29.7424C621.415 28.995 621.711 28.4208 622.304 28.0198C622.896 27.6187 623.799 27.4 625.011 27.3635L626.303 27.3088V26.8508C626.303 26.2037 626.164 25.7502 625.886 25.4905C625.608 25.2307 625.216 25.1008 624.71 25.1008C624.318 25.1008 623.944 25.1578 623.589 25.2717C623.233 25.3857 622.896 25.5201 622.577 25.675L622.229 24.8137C622.566 24.6405 622.953 24.4924 623.391 24.3694C623.828 24.2463 624.288 24.1848 624.771 24.1848ZM626.289 28.1086L625.147 28.1565C624.213 28.193 623.555 28.3456 623.172 28.6145C622.789 28.8834 622.598 29.2639 622.598 29.7561C622.598 30.1845 622.728 30.5012 622.987 30.7063C623.247 30.9114 623.591 31.0139 624.02 31.0139C624.685 31.0139 625.229 30.8293 625.653 30.4602C626.077 30.0911 626.289 29.5374 626.289 28.7991V28.1086ZM630.89 31.8H629.748V21.1633H630.89V31.8ZM638.136 29.7493C638.136 30.2278 638.015 30.6311 637.773 30.9592C637.536 31.2828 637.195 31.5266 636.748 31.6907C636.306 31.8547 635.777 31.9368 635.162 31.9368C634.638 31.9368 634.185 31.8958 633.802 31.8137C633.419 31.7317 633.084 31.6155 632.797 31.4651V30.4192C633.102 30.5696 633.467 30.7063 633.891 30.8293C634.314 30.9524 634.747 31.0139 635.189 31.0139C635.837 31.0139 636.306 30.9091 636.598 30.6995C636.889 30.4898 637.035 30.205 637.035 29.845C637.035 29.6399 636.976 29.4599 636.857 29.3049C636.743 29.1454 636.55 28.9928 636.276 28.8469C636.003 28.6965 635.625 28.5325 635.142 28.3547C634.663 28.1724 634.248 27.9924 633.897 27.8147C633.551 27.6324 633.282 27.4114 633.091 27.1516C632.904 26.8918 632.811 26.5546 632.811 26.1399C632.811 25.5064 633.066 25.0211 633.576 24.6838C634.091 24.342 634.766 24.1711 635.6 24.1711C636.051 24.1711 636.472 24.2167 636.864 24.3079C637.261 24.3944 637.63 24.5129 637.972 24.6633L637.589 25.5725C637.279 25.4403 636.949 25.3287 636.598 25.2375C636.247 25.1464 635.889 25.1008 635.524 25.1008C635 25.1008 634.597 25.1874 634.314 25.3606C634.036 25.5338 633.897 25.7708 633.897 26.0715C633.897 26.304 633.961 26.4954 634.089 26.6458C634.221 26.7961 634.431 26.9374 634.718 27.0696C635.005 27.2017 635.383 27.3567 635.853 27.5344C636.322 27.7076 636.728 27.8876 637.069 28.0745C637.411 28.2568 637.673 28.4801 637.855 28.7444C638.042 29.0042 638.136 29.3391 638.136 29.7493Z" fill="#0166AB"/>
<rect x="659" y="12.8" width="2" height="28" fill="#E9EBED"/>
<path d="M682.458 31.8V21.8059H683.62V31.8H682.458ZM689.745 24.1711C690.634 24.1711 691.306 24.3899 691.762 24.8274C692.217 25.2603 692.445 25.9576 692.445 26.9192V31.8H691.324V26.9944C691.324 26.37 691.181 25.9029 690.894 25.593C690.611 25.2831 690.176 25.1282 689.588 25.1282C688.758 25.1282 688.175 25.3629 687.838 25.8323C687.501 26.3017 687.332 26.983 687.332 27.8762V31.8H686.197V24.3079H687.113L687.284 25.3879H687.346C687.505 25.1236 687.708 24.9026 687.954 24.7249C688.2 24.5426 688.476 24.4058 688.781 24.3147C689.087 24.219 689.408 24.1711 689.745 24.1711ZM695.918 21.1633V23.8225C695.918 24.1278 695.909 24.4241 695.891 24.7112C695.877 24.9983 695.866 25.2216 695.856 25.3811H695.918C696.123 25.0439 696.419 24.759 696.807 24.5266C697.194 24.2942 697.688 24.178 698.29 24.178C699.229 24.178 699.976 24.5038 700.532 25.1555C701.093 25.8027 701.373 26.7665 701.373 28.0471C701.373 28.8902 701.245 29.6012 700.99 30.1799C700.735 30.7587 700.375 31.1962 699.91 31.4924C699.445 31.7887 698.896 31.9368 698.263 31.9368C697.67 31.9368 697.183 31.8274 696.8 31.6086C696.422 31.3853 696.13 31.1142 695.925 30.7952H695.836L695.604 31.8H694.783V21.1633H695.918ZM698.105 25.1282C697.563 25.1282 697.132 25.2353 696.813 25.4495C696.494 25.6591 696.264 25.9781 696.123 26.4065C695.986 26.8303 695.918 27.3681 695.918 28.0198V28.0813C695.918 29.0247 696.075 29.747 696.39 30.2483C696.704 30.745 697.276 30.9934 698.105 30.9934C698.803 30.9934 699.325 30.7382 699.671 30.2278C700.022 29.7174 700.197 28.9882 700.197 28.0403C700.197 27.0741 700.024 26.3472 699.678 25.8596C699.336 25.372 698.812 25.1282 698.105 25.1282ZM709.815 28.0403C709.815 28.6555 709.736 29.2047 709.576 29.6877C709.417 30.1708 709.187 30.5787 708.886 30.9114C708.585 31.2441 708.22 31.4993 707.792 31.677C707.368 31.8502 706.887 31.9368 706.35 31.9368C705.848 31.9368 705.388 31.8502 704.969 31.677C704.554 31.4993 704.194 31.2441 703.889 30.9114C703.588 30.5787 703.353 30.1708 703.185 29.6877C703.021 29.2047 702.938 28.6555 702.938 28.0403C702.938 27.22 703.077 26.5227 703.355 25.9485C703.633 25.3697 704.03 24.9299 704.545 24.6292C705.064 24.3238 705.682 24.1711 706.397 24.1711C707.081 24.1711 707.678 24.3238 708.188 24.6292C708.703 24.9345 709.102 25.3765 709.385 25.9553C709.672 26.5295 709.815 27.2245 709.815 28.0403ZM704.114 28.0403C704.114 28.6418 704.194 29.1637 704.354 29.6057C704.513 30.0478 704.759 30.3896 705.092 30.6311C705.424 30.8726 705.853 30.9934 706.377 30.9934C706.896 30.9934 707.323 30.8726 707.655 30.6311C707.993 30.3896 708.241 30.0478 708.4 29.6057C708.56 29.1637 708.64 28.6418 708.64 28.0403C708.64 27.4433 708.56 26.9283 708.4 26.4954C708.241 26.0579 707.995 25.7206 707.662 25.4836C707.329 25.2467 706.899 25.1282 706.37 25.1282C705.591 25.1282 705.019 25.3857 704.654 25.9006C704.294 26.4156 704.114 27.1288 704.114 28.0403ZM713.562 27.9651L710.971 24.3079H712.27L714.245 27.1926L716.214 24.3079H717.499L714.908 27.9651L717.643 31.8H716.344L714.245 28.7444L712.133 31.8H710.848L713.562 27.9651Z" fill="#0166AB"/>
<rect y="54.8" width="740" height="2" rx="1" fill="#E9EBED"/>
</svg>
