<svg width="334" height="25" viewBox="0 0 334 25" fill="none" xmlns="http://www.w3.org/2000/svg">
<path fill-rule="evenodd" clip-rule="evenodd" d="M12.5 3.25L14.1056 4.85558L6.96205 12L14.1056 19.1444L12.5 20.75L3.75 12L12.5 3.25Z" fill="#000716"/>
<path d="M48.4785 5.72266L44.9629 20H40.4023L39.0352 13.7793C39.0091 13.6621 38.9668 13.4635 38.9082 13.1836C38.8561 12.9036 38.7943 12.5846 38.7227 12.2266C38.6576 11.8685 38.5957 11.5169 38.5371 11.1719C38.485 10.8203 38.446 10.5241 38.4199 10.2832C38.3939 10.5241 38.3516 10.8203 38.293 11.1719C38.2344 11.5169 38.1693 11.8685 38.0977 12.2266C38.0326 12.5846 37.9674 12.9036 37.9023 13.1836C37.8438 13.4635 37.8014 13.6621 37.7754 13.7793L36.3984 20H31.8379L28.3027 5.72266H32.0234L33.5762 12.8809C33.6152 13.0566 33.6673 13.3073 33.7324 13.6328C33.804 13.9518 33.8757 14.3034 33.9473 14.6875C34.0254 15.0651 34.097 15.4297 34.1621 15.7812C34.2272 16.1328 34.2728 16.4258 34.2988 16.6602C34.3509 16.2565 34.4193 15.7975 34.5039 15.2832C34.5951 14.7689 34.6927 14.248 34.7969 13.7207C34.9076 13.1868 35.0117 12.6921 35.1094 12.2363C35.207 11.7806 35.2917 11.4095 35.3633 11.123L36.623 5.72266H40.1973L41.418 11.123C41.4831 11.403 41.5645 11.7741 41.6621 12.2363C41.7663 12.6921 41.8704 13.1868 41.9746 13.7207C42.0853 14.2546 42.1862 14.7819 42.2773 15.3027C42.3685 15.8171 42.4368 16.2695 42.4824 16.6602C42.5215 16.3346 42.5866 15.9245 42.6777 15.4297C42.7689 14.9284 42.86 14.4434 42.9512 13.9746C43.0488 13.4993 43.1237 13.1413 43.1758 12.9004L44.7578 5.72266H48.4785ZM56.5793 8.74023C56.7876 8.74023 57.0057 8.75651 57.2336 8.78906C57.4615 8.8151 57.6307 8.83789 57.7414 8.85742L57.3996 12.4609C57.2759 12.4284 57.1164 12.4023 56.9211 12.3828C56.7258 12.3568 56.4523 12.3438 56.1008 12.3438C55.8599 12.3438 55.6027 12.3665 55.3293 12.4121C55.0559 12.4577 54.7954 12.5553 54.548 12.7051C54.3072 12.8483 54.1086 13.0697 53.9523 13.3691C53.7961 13.6621 53.718 14.0592 53.718 14.5605V20H49.8996V8.93555H52.7414L53.3371 10.7031H53.5227C53.7245 10.3385 53.9816 10.0098 54.2941 9.7168C54.6132 9.41732 54.968 9.17969 55.3586 9.00391C55.7557 8.82812 56.1626 8.74023 56.5793 8.74023ZM62.932 8.93555V20H59.1137V8.93555H62.932ZM61.0375 4.48242C61.5844 4.48242 62.0596 4.59635 62.4633 4.82422C62.8734 5.05208 63.0785 5.50456 63.0785 6.18164C63.0785 6.83919 62.8734 7.28516 62.4633 7.51953C62.0596 7.7474 61.5844 7.86133 61.0375 7.86133C60.4776 7.86133 59.9991 7.7474 59.602 7.51953C59.2113 7.28516 59.016 6.83919 59.016 6.18164C59.016 5.50456 59.2113 5.05208 59.602 4.82422C59.9991 4.59635 60.4776 4.48242 61.0375 4.48242ZM70.818 17.1777C71.163 17.1777 71.4788 17.1419 71.7652 17.0703C72.0517 16.9987 72.3512 16.9076 72.6637 16.7969V19.5801C72.247 19.7624 71.8043 19.9089 71.3355 20.0195C70.8733 20.1367 70.2809 20.1953 69.5582 20.1953C68.8421 20.1953 68.2105 20.0846 67.6637 19.8633C67.1168 19.6354 66.6904 19.2448 66.3844 18.6914C66.0849 18.1315 65.9352 17.3535 65.9352 16.3574V11.7969H64.5973V10.2441L66.2965 9.04297L67.2828 6.71875H69.7828V8.93555H72.4977V11.7969H69.7828V16.1035C69.7828 16.4616 69.874 16.7318 70.0563 16.9141C70.2385 17.0898 70.4924 17.1777 70.818 17.1777ZM79.3777 8.74023C80.452 8.74023 81.3797 8.92904 82.1609 9.30664C82.9422 9.67773 83.5444 10.2376 83.9676 10.9863C84.3908 11.735 84.6023 12.6725 84.6023 13.7988V15.498H77.7762C77.8087 16.0775 78.0236 16.5527 78.4207 16.9238C78.8243 17.2949 79.4168 17.4805 80.198 17.4805C80.8882 17.4805 81.5197 17.4121 82.0926 17.2754C82.672 17.1387 83.2677 16.9271 83.8797 16.6406V19.3848C83.3458 19.6647 82.7632 19.8698 82.1316 20C81.5001 20.1302 80.7026 20.1953 79.7391 20.1953C78.6258 20.1953 77.6297 19.9967 76.7508 19.5996C75.8719 19.2025 75.1785 18.5872 74.6707 17.7539C74.1694 16.9206 73.9188 15.8496 73.9188 14.541C73.9188 13.2129 74.1466 12.1224 74.6023 11.2695C75.0581 10.4102 75.6961 9.77539 76.5164 9.36523C77.3367 8.94857 78.2905 8.74023 79.3777 8.74023ZM79.5145 11.3379C79.0652 11.3379 78.6876 11.4811 78.3816 11.7676C78.0822 12.0475 77.9064 12.4902 77.8543 13.0957H81.1355C81.129 12.7702 81.0639 12.474 80.9402 12.207C80.8165 11.9401 80.6342 11.7285 80.3934 11.5723C80.159 11.416 79.866 11.3379 79.5145 11.3379ZM90.218 8.93555H94.2414L96.1164 15.2832C96.1424 15.3743 96.1685 15.4883 96.1945 15.625C96.2206 15.7552 96.2434 15.8952 96.2629 16.0449C96.2824 16.1947 96.2954 16.3411 96.302 16.4844H96.3801C96.4126 16.2174 96.4484 15.9863 96.4875 15.791C96.5331 15.5892 96.5754 15.4264 96.6145 15.3027L98.5383 8.93555H102.435L98.0598 20.7031C97.7212 21.6016 97.3273 22.3535 96.8781 22.959C96.4354 23.571 95.8853 24.0299 95.2277 24.3359C94.5767 24.6484 93.7661 24.8047 92.7961 24.8047C92.4445 24.8047 92.1418 24.7852 91.8879 24.7461C91.6405 24.7135 91.4224 24.6777 91.2336 24.6387V21.6406C91.3768 21.6667 91.5526 21.6927 91.7609 21.7188C91.9693 21.7448 92.1874 21.7578 92.4152 21.7578C92.8384 21.7578 93.1802 21.6732 93.4406 21.5039C93.7076 21.3346 93.9257 21.11 94.0949 20.8301C94.2642 20.5566 94.4107 20.2604 94.5344 19.9414L94.5734 19.8438L90.218 8.93555ZM114.129 14.4434C114.129 15.3678 114.002 16.1882 113.748 16.9043C113.495 17.6204 113.127 18.2227 112.645 18.7109C112.163 19.1992 111.58 19.5703 110.897 19.8242C110.213 20.0716 109.442 20.1953 108.582 20.1953C107.782 20.1953 107.046 20.0716 106.375 19.8242C105.711 19.5703 105.132 19.1992 104.637 18.7109C104.142 18.2227 103.758 17.6204 103.485 16.9043C103.218 16.1882 103.084 15.3678 103.084 14.4434C103.084 13.2194 103.306 12.1842 103.748 11.3379C104.198 10.4915 104.836 9.84701 105.662 9.4043C106.496 8.96159 107.489 8.74023 108.641 8.74023C109.702 8.74023 110.646 8.96159 111.473 9.4043C112.3 9.84701 112.948 10.4915 113.416 11.3379C113.892 12.1842 114.129 13.2194 114.129 14.4434ZM106.961 14.4434C106.961 15.0749 107.017 15.6087 107.127 16.0449C107.238 16.4746 107.414 16.8034 107.655 17.0312C107.902 17.2526 108.224 17.3633 108.621 17.3633C109.019 17.3633 109.334 17.2526 109.569 17.0312C109.803 16.8034 109.972 16.4746 110.077 16.0449C110.187 15.6087 110.243 15.0749 110.243 14.4434C110.243 13.8118 110.187 13.2845 110.077 12.8613C109.972 12.4382 109.8 12.1191 109.559 11.9043C109.325 11.6895 109.006 11.582 108.602 11.582C108.023 11.582 107.603 11.8229 107.342 12.3047C107.088 12.7865 106.961 13.4993 106.961 14.4434ZM126.879 8.93555V20H123.998L123.519 18.623H123.295C123.067 18.9941 122.777 19.2969 122.425 19.5312C122.08 19.7591 121.696 19.9251 121.273 20.0293C120.85 20.14 120.41 20.1953 119.955 20.1953C119.232 20.1953 118.578 20.0553 117.992 19.7754C117.412 19.4954 116.95 19.056 116.605 18.457C116.267 17.8581 116.097 17.0866 116.097 16.1426V8.93555H119.916V14.9805C119.916 15.6966 120.017 16.2435 120.218 16.6211C120.427 16.9922 120.765 17.1777 121.234 17.1777C121.716 17.1777 122.087 17.0475 122.347 16.7871C122.614 16.5267 122.8 16.1426 122.904 15.6348C123.008 15.127 123.06 14.5085 123.06 13.7793V8.93555H126.879ZM135.995 8.74023C136.203 8.74023 136.421 8.75651 136.649 8.78906C136.877 8.8151 137.046 8.83789 137.157 8.85742L136.815 12.4609C136.692 12.4284 136.532 12.4023 136.337 12.3828C136.141 12.3568 135.868 12.3438 135.516 12.3438C135.276 12.3438 135.018 12.3665 134.745 12.4121C134.471 12.4577 134.211 12.5553 133.964 12.7051C133.723 12.8483 133.524 13.0697 133.368 13.3691C133.212 13.6621 133.134 14.0592 133.134 14.5605V20H129.315V8.93555H132.157L132.753 10.7031H132.938C133.14 10.3385 133.397 10.0098 133.71 9.7168C134.029 9.41732 134.384 9.17969 134.774 9.00391C135.171 8.82812 135.578 8.74023 135.995 8.74023ZM150.185 8.74023C150.393 8.74023 150.611 8.75651 150.839 8.78906C151.067 8.8151 151.236 8.83789 151.347 8.85742L151.005 12.4609C150.881 12.4284 150.722 12.4023 150.527 12.3828C150.331 12.3568 150.058 12.3438 149.706 12.3438C149.465 12.3438 149.208 12.3665 148.935 12.4121C148.661 12.4577 148.401 12.5553 148.154 12.7051C147.913 12.8483 147.714 13.0697 147.558 13.3691C147.402 13.6621 147.323 14.0592 147.323 14.5605V20H143.505V8.93555H146.347L146.943 10.7031H147.128C147.33 10.3385 147.587 10.0098 147.9 9.7168C148.219 9.41732 148.573 9.17969 148.964 9.00391C149.361 8.82812 149.768 8.74023 150.185 8.74023ZM157.68 8.74023C158.754 8.74023 159.682 8.92904 160.463 9.30664C161.245 9.67773 161.847 10.2376 162.27 10.9863C162.693 11.735 162.905 12.6725 162.905 13.7988V15.498H156.079C156.111 16.0775 156.326 16.5527 156.723 16.9238C157.127 17.2949 157.719 17.4805 158.5 17.4805C159.19 17.4805 159.822 17.4121 160.395 17.2754C160.974 17.1387 161.57 16.9271 162.182 16.6406V19.3848C161.648 19.6647 161.065 19.8698 160.434 20C159.802 20.1302 159.005 20.1953 158.041 20.1953C156.928 20.1953 155.932 19.9967 155.053 19.5996C154.174 19.2025 153.481 18.5872 152.973 17.7539C152.472 16.9206 152.221 15.8496 152.221 14.541C152.221 13.2129 152.449 12.1224 152.905 11.2695C153.36 10.4102 153.998 9.77539 154.819 9.36523C155.639 8.94857 156.593 8.74023 157.68 8.74023ZM157.817 11.3379C157.368 11.3379 156.99 11.4811 156.684 11.7676C156.385 12.0475 156.209 12.4902 156.157 13.0957H159.438C159.431 12.7702 159.366 12.474 159.243 12.207C159.119 11.9401 158.937 11.7285 158.696 11.5723C158.461 11.416 158.168 11.3379 157.817 11.3379ZM170.263 8.74023C171.663 8.74023 172.757 9.08854 173.545 9.78516C174.332 10.4753 174.726 11.4616 174.726 12.7441V20H172.08L171.347 18.5352H171.269C170.957 18.9258 170.634 19.2448 170.302 19.4922C169.977 19.7331 169.602 19.9089 169.179 20.0195C168.756 20.1367 168.239 20.1953 167.627 20.1953C166.989 20.1953 166.416 20.0651 165.908 19.8047C165.4 19.5443 165 19.1504 164.707 18.623C164.414 18.0957 164.267 17.4284 164.267 16.6211C164.267 15.4362 164.677 14.5573 165.498 13.9844C166.318 13.4115 167.506 13.0892 169.062 13.0176L170.908 12.959V12.8027C170.908 12.3079 170.784 11.9564 170.537 11.748C170.296 11.5397 169.97 11.4355 169.56 11.4355C169.124 11.4355 168.636 11.5137 168.095 11.6699C167.561 11.8197 167.024 12.015 166.484 12.2559L165.38 9.73633C166.018 9.41081 166.741 9.16341 167.548 8.99414C168.356 8.82487 169.261 8.74023 170.263 8.74023ZM170.927 15.0586L170.048 15.0977C169.345 15.1237 168.851 15.2474 168.564 15.4688C168.284 15.6836 168.144 15.9928 168.144 16.3965C168.144 16.7741 168.245 17.054 168.447 17.2363C168.649 17.4121 168.916 17.5 169.248 17.5C169.71 17.5 170.104 17.3535 170.429 17.0605C170.761 16.7676 170.927 16.3867 170.927 15.918V15.0586ZM185.346 16.6016C185.346 17.3047 185.19 17.9264 184.878 18.4668C184.565 19.0072 184.064 19.4303 183.374 19.7363C182.69 20.0423 181.789 20.1953 180.669 20.1953C179.881 20.1953 179.175 20.153 178.55 20.0684C177.931 19.9837 177.303 19.821 176.665 19.5801V16.5234C177.361 16.8424 178.071 17.0736 178.794 17.2168C179.516 17.3535 180.086 17.4219 180.503 17.4219C180.932 17.4219 181.245 17.3763 181.44 17.2852C181.642 17.1875 181.743 17.0443 181.743 16.8555C181.743 16.6927 181.675 16.556 181.538 16.4453C181.408 16.3281 181.17 16.1947 180.825 16.0449C180.486 15.8952 180.008 15.6934 179.389 15.4395C178.777 15.1855 178.266 14.9089 177.856 14.6094C177.453 14.3099 177.15 13.9518 176.948 13.5352C176.746 13.1185 176.645 12.6074 176.645 12.002C176.645 10.9212 177.062 10.1074 177.895 9.56055C178.729 9.01367 179.832 8.74023 181.206 8.74023C181.935 8.74023 182.622 8.82161 183.266 8.98438C183.911 9.14062 184.578 9.37174 185.268 9.67773L184.223 12.1387C183.677 11.8913 183.123 11.6927 182.563 11.543C182.003 11.3932 181.557 11.3184 181.225 11.3184C180.926 11.3184 180.695 11.3574 180.532 11.4355C180.369 11.5137 180.288 11.6276 180.288 11.7773C180.288 11.9141 180.343 12.0345 180.454 12.1387C180.571 12.2428 180.789 12.3633 181.108 12.5C181.427 12.6367 181.893 12.8288 182.505 13.0762C183.149 13.3366 183.68 13.6165 184.096 13.916C184.52 14.209 184.832 14.5671 185.034 14.9902C185.242 15.4134 185.346 15.9505 185.346 16.6016ZM197.842 14.4434C197.842 15.3678 197.715 16.1882 197.461 16.9043C197.207 17.6204 196.839 18.2227 196.357 18.7109C195.876 19.1992 195.293 19.5703 194.609 19.8242C193.926 20.0716 193.154 20.1953 192.295 20.1953C191.494 20.1953 190.758 20.0716 190.088 19.8242C189.424 19.5703 188.844 19.1992 188.35 18.7109C187.855 18.2227 187.471 17.6204 187.197 16.9043C186.93 16.1882 186.797 15.3678 186.797 14.4434C186.797 13.2194 187.018 12.1842 187.461 11.3379C187.91 10.4915 188.548 9.84701 189.375 9.4043C190.208 8.96159 191.201 8.74023 192.354 8.74023C193.415 8.74023 194.359 8.96159 195.186 9.4043C196.012 9.84701 196.66 10.4915 197.129 11.3379C197.604 12.1842 197.842 13.2194 197.842 14.4434ZM190.674 14.4434C190.674 15.0749 190.729 15.6087 190.84 16.0449C190.951 16.4746 191.126 16.8034 191.367 17.0312C191.615 17.2526 191.937 17.3633 192.334 17.3633C192.731 17.3633 193.047 17.2526 193.281 17.0312C193.516 16.8034 193.685 16.4746 193.789 16.0449C193.9 15.6087 193.955 15.0749 193.955 14.4434C193.955 13.8118 193.9 13.2845 193.789 12.8613C193.685 12.4382 193.512 12.1191 193.271 11.9043C193.037 11.6895 192.718 11.582 192.314 11.582C191.735 11.582 191.315 11.8229 191.055 12.3047C190.801 12.7865 190.674 13.4993 190.674 14.4434ZM206.753 8.74023C207.892 8.74023 208.823 9.0625 209.546 9.70703C210.269 10.3516 210.63 11.3835 210.63 12.8027V20H206.812V13.9648C206.812 13.2292 206.704 12.6758 206.489 12.3047C206.281 11.9271 205.943 11.7383 205.474 11.7383C204.751 11.7383 204.266 12.0345 204.019 12.627C203.771 13.2129 203.648 14.056 203.648 15.1562V20H199.829V8.93555H202.71L203.228 10.4004H203.374C203.609 10.0488 203.889 9.74935 204.214 9.50195C204.54 9.25456 204.914 9.06576 205.337 8.93555C205.76 8.80534 206.232 8.74023 206.753 8.74023Z" fill="#000716"/>
</svg>
