<svg width="527" height="57" viewBox="0 0 527 57" fill="none" xmlns="http://www.w3.org/2000/svg">
<path d="M24.1777 21.8059C25.0846 21.8059 25.832 21.9153 26.4199 22.134C27.0124 22.3528 27.4521 22.6832 27.7393 23.1252C28.0264 23.5673 28.1699 24.1256 28.1699 24.8C28.1699 25.2558 28.0833 25.6545 27.9102 25.9963C27.737 26.3381 27.5091 26.6275 27.2266 26.8645C26.944 27.1015 26.6387 27.2952 26.3105 27.4456L29.25 31.8H26.8984L24.5127 27.9651H23.3848V31.8H21.2656V21.8059H24.1777ZM24.0273 23.5422H23.3848V26.2424H24.0684C24.7702 26.2424 25.2715 26.1262 25.5723 25.8938C25.8776 25.6568 26.0303 25.3105 26.0303 24.8547C26.0303 24.3808 25.8662 24.0435 25.5381 23.843C25.2145 23.6425 24.7109 23.5422 24.0273 23.5422ZM33.4951 24.0139C34.2015 24.0139 34.8099 24.1506 35.3203 24.4241C35.8307 24.693 36.2249 25.0849 36.5029 25.5999C36.7809 26.1148 36.9199 26.7437 36.9199 27.4866V28.4983H31.9912C32.014 29.0862 32.1895 29.5487 32.5176 29.886C32.8503 30.2187 33.3105 30.385 33.8984 30.385C34.3861 30.385 34.8327 30.3349 35.2383 30.2346C35.6439 30.1344 36.0609 29.984 36.4893 29.7834V31.3967C36.111 31.5836 35.7145 31.7203 35.2998 31.8069C34.8896 31.8935 34.3906 31.9368 33.8027 31.9368C33.0371 31.9368 32.3581 31.7955 31.7656 31.5129C31.1777 31.2304 30.7152 30.7997 30.3779 30.2209C30.0452 29.6422 29.8789 28.913 29.8789 28.0334C29.8789 27.1402 30.0293 26.3974 30.3301 25.8049C30.6354 25.2079 31.0592 24.7613 31.6016 24.4651C32.1439 24.1643 32.7751 24.0139 33.4951 24.0139ZM33.5088 25.4973C33.1032 25.4973 32.766 25.6272 32.4971 25.887C32.2327 26.1467 32.0801 26.5546 32.0391 27.1106H34.9648C34.9603 26.8007 34.9033 26.525 34.7939 26.2834C34.6891 26.0419 34.5296 25.8505 34.3154 25.7092C34.1058 25.568 33.8369 25.4973 33.5088 25.4973ZM40.4336 31.8L37.5215 24.1575H39.7021L41.1787 28.512C41.2607 28.7672 41.3245 29.0361 41.3701 29.3186C41.4202 29.6012 41.4544 29.8541 41.4727 30.0774H41.5273C41.541 29.8359 41.5729 29.5784 41.623 29.3049C41.6777 29.0315 41.7484 28.7672 41.835 28.512L43.3047 24.1575H45.4854L42.5732 31.8H40.4336ZM48.6709 24.1575V31.8H46.5859V24.1575H48.6709ZM47.6318 21.1633C47.9417 21.1633 48.2083 21.2362 48.4316 21.3821C48.6549 21.5234 48.7666 21.79 48.7666 22.1819C48.7666 22.5693 48.6549 22.8381 48.4316 22.9885C48.2083 23.1344 47.9417 23.2073 47.6318 23.2073C47.3174 23.2073 47.0485 23.1344 46.8252 22.9885C46.6064 22.8381 46.4971 22.5693 46.4971 22.1819C46.4971 21.79 46.6064 21.5234 46.8252 21.3821C47.0485 21.2362 47.3174 21.1633 47.6318 21.1633ZM54.0166 24.0139C54.723 24.0139 55.3314 24.1506 55.8418 24.4241C56.3522 24.693 56.7464 25.0849 57.0244 25.5999C57.3024 26.1148 57.4414 26.7437 57.4414 27.4866V28.4983H52.5127C52.5355 29.0862 52.7109 29.5487 53.0391 29.886C53.3717 30.2187 53.832 30.385 54.4199 30.385C54.9076 30.385 55.3542 30.3349 55.7598 30.2346C56.1654 30.1344 56.5824 29.984 57.0107 29.7834V31.3967C56.6325 31.5836 56.236 31.7203 55.8213 31.8069C55.4111 31.8935 54.9121 31.9368 54.3242 31.9368C53.5586 31.9368 52.8796 31.7955 52.2871 31.5129C51.6992 31.2304 51.2367 30.7997 50.8994 30.2209C50.5667 29.6422 50.4004 28.913 50.4004 28.0334C50.4004 27.1402 50.5508 26.3974 50.8516 25.8049C51.1569 25.2079 51.5807 24.7613 52.123 24.4651C52.6654 24.1643 53.2965 24.0139 54.0166 24.0139ZM54.0303 25.4973C53.6247 25.4973 53.2874 25.6272 53.0186 25.887C52.7542 26.1467 52.6016 26.5546 52.5605 27.1106H55.4863C55.4818 26.8007 55.4248 26.525 55.3154 26.2834C55.2106 26.0419 55.0511 25.8505 54.8369 25.7092C54.6273 25.568 54.3584 25.4973 54.0303 25.4973ZM65.4189 31.8L64.8311 29.1272C64.7992 28.9677 64.7467 28.733 64.6738 28.4231C64.6009 28.1086 64.5212 27.7737 64.4346 27.4182C64.3525 27.0582 64.2751 26.7255 64.2021 26.4202C64.1338 26.1148 64.0837 25.8915 64.0518 25.7502H63.9902C63.9583 25.8915 63.9082 26.1148 63.8398 26.4202C63.7715 26.7255 63.694 27.0582 63.6074 27.4182C63.5254 27.7782 63.4479 28.1178 63.375 28.4368C63.3021 28.7512 63.2474 28.9905 63.2109 29.1545L62.5957 31.8H60.3535L58.1797 24.1575H60.2578L61.1396 27.5413C61.1989 27.7782 61.2559 28.0608 61.3105 28.3889C61.3652 28.7125 61.4131 29.0269 61.4541 29.3323C61.4997 29.6331 61.5339 29.8723 61.5566 30.05H61.6113C61.6204 29.9179 61.6387 29.7424 61.666 29.5237C61.6979 29.3049 61.7321 29.0793 61.7686 28.8469C61.8096 28.6099 61.846 28.398 61.8779 28.2112C61.9144 28.0198 61.9417 27.8899 61.96 27.8215L62.9033 24.1575H65.2002L66.0957 27.8215C66.1276 27.9537 66.1686 28.1633 66.2188 28.4504C66.2734 28.7375 66.3213 29.0338 66.3623 29.3391C66.4033 29.6399 66.4261 29.8769 66.4307 30.05H66.4854C66.5036 29.8951 66.5355 29.665 66.5811 29.3596C66.6266 29.0543 66.679 28.7353 66.7383 28.4026C66.8021 28.0653 66.8659 27.7782 66.9297 27.5413L67.8457 24.1575H69.8896L67.6885 31.8H65.4189ZM76.459 29.5305C76.459 30.05 76.3359 30.4898 76.0898 30.8499C75.8483 31.2053 75.486 31.4765 75.0029 31.6633C74.5199 31.8456 73.9183 31.9368 73.1982 31.9368C72.665 31.9368 72.207 31.9026 71.8242 31.8342C71.446 31.7659 71.0632 31.6519 70.6758 31.4924V29.7698C71.0905 29.9566 71.5348 30.1116 72.0088 30.2346C72.4873 30.3531 72.9066 30.4124 73.2666 30.4124C73.6722 30.4124 73.9616 30.3531 74.1348 30.2346C74.3125 30.1116 74.4014 29.9521 74.4014 29.7561C74.4014 29.6285 74.3649 29.5146 74.292 29.4143C74.2236 29.3095 74.0732 29.1933 73.8408 29.0657C73.6084 28.9335 73.2438 28.7626 72.7471 28.553C72.2686 28.3525 71.8743 28.1497 71.5645 27.9446C71.2591 27.7395 71.0312 27.498 70.8809 27.22C70.735 26.9374 70.6621 26.5797 70.6621 26.1467C70.6621 25.4403 70.9355 24.9094 71.4824 24.554C72.0339 24.1939 72.7699 24.0139 73.6904 24.0139C74.1644 24.0139 74.6156 24.0618 75.0439 24.1575C75.4769 24.2532 75.9212 24.4058 76.377 24.6155L75.748 26.1194C75.3698 25.9553 75.012 25.8209 74.6748 25.7161C74.3421 25.6112 74.0026 25.5588 73.6562 25.5588C73.3509 25.5588 73.1208 25.5999 72.9658 25.6819C72.8109 25.7639 72.7334 25.8892 72.7334 26.0579C72.7334 26.1809 72.7721 26.2903 72.8496 26.386C72.9316 26.4817 73.0866 26.5888 73.3145 26.7073C73.5469 26.8212 73.8864 26.9693 74.333 27.1516C74.766 27.3293 75.1419 27.5162 75.4609 27.7122C75.7799 27.9036 76.026 28.1428 76.1992 28.4299C76.3724 28.7125 76.459 29.0793 76.459 29.5305Z" fill="#000716"/>
<rect x="97" y="12.8" width="2" height="28" fill="#E9EBED"/>
<rect x="2" y="50.8" width="95" height="4" rx="2" fill="#F19D38"/>
<path d="M123.336 21.8059C124.626 21.8059 125.567 22.0588 126.159 22.5647C126.756 23.066 127.055 23.7861 127.055 24.7249C127.055 25.1487 126.984 25.552 126.843 25.9348C126.706 26.3131 126.483 26.648 126.173 26.9397C125.863 27.2268 125.455 27.4547 124.949 27.6233C124.448 27.7874 123.833 27.8694 123.104 27.8694H121.887V31.8H120.725V21.8059H123.336ZM123.227 22.7971H121.887V26.8713H122.974C123.612 26.8713 124.143 26.803 124.566 26.6663C124.995 26.5295 125.316 26.3085 125.53 26.0032C125.744 25.6933 125.852 25.2831 125.852 24.7727C125.852 24.1073 125.64 23.6129 125.216 23.2893C124.792 22.9612 124.129 22.7971 123.227 22.7971ZM131.778 24.1848C132.672 24.1848 133.335 24.3853 133.768 24.7864C134.201 25.1874 134.417 25.8277 134.417 26.7073V31.8H133.59L133.371 30.6926H133.316C133.107 30.9661 132.888 31.1962 132.66 31.3831C132.432 31.5653 132.168 31.7043 131.867 31.8C131.571 31.8912 131.206 31.9368 130.773 31.9368C130.318 31.9368 129.912 31.857 129.557 31.6975C129.206 31.538 128.928 31.2965 128.723 30.9729C128.522 30.6493 128.422 30.2392 128.422 29.7424C128.422 28.995 128.718 28.4208 129.311 28.0198C129.903 27.6187 130.805 27.4 132.018 27.3635L133.31 27.3088V26.8508C133.31 26.2037 133.171 25.7502 132.893 25.4905C132.615 25.2307 132.223 25.1008 131.717 25.1008C131.325 25.1008 130.951 25.1578 130.596 25.2717C130.24 25.3857 129.903 25.5201 129.584 25.675L129.235 24.8137C129.573 24.6405 129.96 24.4924 130.397 24.3694C130.835 24.2463 131.295 24.1848 131.778 24.1848ZM133.296 28.1086L132.154 28.1565C131.22 28.193 130.562 28.3456 130.179 28.6145C129.796 28.8834 129.604 29.2639 129.604 29.7561C129.604 30.1845 129.734 30.5012 129.994 30.7063C130.254 30.9114 130.598 31.0139 131.026 31.0139C131.692 31.0139 132.236 30.8293 132.66 30.4602C133.084 30.0911 133.296 29.5374 133.296 28.7991V28.1086ZM135.572 24.3079H136.789L138.443 28.6555C138.539 28.9107 138.628 29.1568 138.71 29.3938C138.792 29.6262 138.865 29.8495 138.929 30.0637C138.993 30.2779 139.043 30.4853 139.079 30.6858H139.127C139.191 30.4579 139.282 30.1594 139.4 29.7903C139.519 29.4166 139.646 29.0361 139.783 28.6487L141.349 24.3079H142.572L139.312 32.9006C139.138 33.3609 138.936 33.762 138.703 34.1038C138.475 34.4456 138.197 34.7076 137.869 34.8899C137.541 35.0767 137.145 35.1702 136.68 35.1702C136.465 35.1702 136.276 35.1565 136.112 35.1292C135.948 35.1064 135.807 35.079 135.688 35.0471V34.1379C135.789 34.1607 135.91 34.1812 136.051 34.1995C136.197 34.2177 136.347 34.2268 136.502 34.2268C136.785 34.2268 137.028 34.1721 137.233 34.0627C137.443 33.9579 137.623 33.803 137.773 33.5979C137.924 33.3928 138.054 33.149 138.163 32.8665L138.573 31.8137L135.572 24.3079ZM151.903 24.1711C152.728 24.1711 153.35 24.3876 153.77 24.8206C154.189 25.2489 154.398 25.9394 154.398 26.8918V31.8H153.277V26.9465C153.277 26.3404 153.145 25.887 152.881 25.5862C152.621 25.2808 152.234 25.1282 151.719 25.1282C150.994 25.1282 150.468 25.3378 150.14 25.7571C149.812 26.1764 149.647 26.7939 149.647 27.6096V31.8H148.52V26.9465C148.52 26.5409 148.46 26.2037 148.342 25.9348C148.228 25.6659 148.055 25.4654 147.822 25.3333C147.594 25.1965 147.305 25.1282 146.954 25.1282C146.457 25.1282 146.059 25.2307 145.758 25.4358C145.457 25.6409 145.238 25.9462 145.102 26.3518C144.969 26.7528 144.903 27.2473 144.903 27.8352V31.8H143.769V24.3079H144.685L144.855 25.3674H144.917C145.067 25.1077 145.257 24.8889 145.484 24.7112C145.712 24.5334 145.967 24.399 146.25 24.3079C146.533 24.2167 146.833 24.1711 147.152 24.1711C147.722 24.1711 148.198 24.2782 148.581 24.4924C148.968 24.7021 149.249 25.0234 149.422 25.4563H149.483C149.729 25.0234 150.067 24.7021 150.495 24.4924C150.924 24.2782 151.393 24.1711 151.903 24.1711ZM159.614 24.1711C160.252 24.1711 160.799 24.3124 161.255 24.595C161.711 24.8775 162.059 25.274 162.301 25.7844C162.542 26.2903 162.663 26.8827 162.663 27.5618V28.2659H157.488C157.502 29.1454 157.721 29.8153 158.145 30.2756C158.568 30.7359 159.165 30.9661 159.936 30.9661C160.41 30.9661 160.829 30.9228 161.193 30.8362C161.558 30.7496 161.936 30.622 162.328 30.4534V31.4514C161.95 31.62 161.574 31.7431 161.2 31.8206C160.831 31.898 160.394 31.9368 159.888 31.9368C159.168 31.9368 158.539 31.7909 158.001 31.4993C157.468 31.203 157.053 30.7701 156.757 30.2004C156.461 29.6308 156.312 28.9335 156.312 28.1086C156.312 27.302 156.447 26.6047 156.716 26.0168C156.989 25.4244 157.372 24.9687 157.864 24.6497C158.361 24.3306 158.944 24.1711 159.614 24.1711ZM159.601 25.1008C158.994 25.1008 158.511 25.2991 158.151 25.6956C157.791 26.092 157.577 26.6458 157.509 27.3567H161.474C161.469 26.9101 161.398 26.5181 161.262 26.1809C161.13 25.8391 160.927 25.5748 160.653 25.3879C160.38 25.1965 160.029 25.1008 159.601 25.1008ZM168.139 24.1711C169.027 24.1711 169.7 24.3899 170.155 24.8274C170.611 25.2603 170.839 25.9576 170.839 26.9192V31.8H169.718V26.9944C169.718 26.37 169.574 25.9029 169.287 25.593C169.005 25.2831 168.569 25.1282 167.981 25.1282C167.152 25.1282 166.569 25.3629 166.231 25.8323C165.894 26.3017 165.726 26.983 165.726 27.8762V31.8H164.591V24.3079H165.507L165.678 25.3879H165.739C165.899 25.1236 166.102 24.9026 166.348 24.7249C166.594 24.5426 166.869 24.4058 167.175 24.3147C167.48 24.219 167.801 24.1711 168.139 24.1711ZM175.597 31.0071C175.784 31.0071 175.975 30.9911 176.171 30.9592C176.367 30.9273 176.526 30.8886 176.649 30.843V31.7249C176.517 31.7841 176.333 31.8342 176.096 31.8752C175.863 31.9163 175.635 31.9368 175.412 31.9368C175.016 31.9368 174.656 31.8684 174.332 31.7317C174.008 31.5904 173.749 31.3534 173.553 31.0208C173.361 30.6881 173.266 30.2278 173.266 29.6399V25.1965H172.199V24.6428L173.272 24.1985L173.724 22.5715H174.407V24.3079H176.602V25.1965H174.407V29.6057C174.407 30.0751 174.514 30.426 174.729 30.6584C174.947 30.8909 175.237 31.0071 175.597 31.0071ZM183.014 29.7493C183.014 30.2278 182.893 30.6311 182.651 30.9592C182.414 31.2828 182.073 31.5266 181.626 31.6907C181.184 31.8547 180.655 31.9368 180.04 31.9368C179.516 31.9368 179.062 31.8958 178.68 31.8137C178.297 31.7317 177.962 31.6155 177.675 31.4651V30.4192C177.98 30.5696 178.345 30.7063 178.769 30.8293C179.192 30.9524 179.625 31.0139 180.067 31.0139C180.715 31.0139 181.184 30.9091 181.476 30.6995C181.767 30.4898 181.913 30.205 181.913 29.845C181.913 29.6399 181.854 29.4599 181.735 29.3049C181.621 29.1454 181.428 28.9928 181.154 28.8469C180.881 28.6965 180.503 28.5325 180.02 28.3547C179.541 28.1724 179.126 27.9924 178.775 27.8147C178.429 27.6324 178.16 27.4114 177.969 27.1516C177.782 26.8918 177.688 26.5546 177.688 26.1399C177.688 25.5064 177.944 25.0211 178.454 24.6838C178.969 24.342 179.644 24.1711 180.478 24.1711C180.929 24.1711 181.35 24.2167 181.742 24.3079C182.139 24.3944 182.508 24.5129 182.85 24.6633L182.467 25.5725C182.157 25.4403 181.826 25.3287 181.476 25.2375C181.125 25.1464 180.767 25.1008 180.402 25.1008C179.878 25.1008 179.475 25.1874 179.192 25.3606C178.914 25.5338 178.775 25.7708 178.775 26.0715C178.775 26.304 178.839 26.4954 178.967 26.6458C179.099 26.7961 179.309 26.9374 179.596 27.0696C179.883 27.2017 180.261 27.3567 180.73 27.5344C181.2 27.7076 181.605 27.8876 181.947 28.0745C182.289 28.2568 182.551 28.4801 182.733 28.7444C182.92 29.0042 183.014 29.3391 183.014 29.7493Z" fill="#0166AB"/>
<rect x="204" y="12.8" width="2" height="28" fill="#E9EBED"/>
<path d="M230.902 31.8H229.733V22.8313H226.589V21.8059H234.033V22.8313H230.902V31.8ZM238.777 24.1711C238.928 24.1711 239.085 24.1803 239.249 24.1985C239.413 24.2122 239.559 24.2327 239.687 24.26L239.543 25.3127C239.42 25.2808 239.283 25.2558 239.133 25.2375C238.982 25.2193 238.841 25.2102 238.709 25.2102C238.408 25.2102 238.123 25.2717 237.854 25.3948C237.59 25.5133 237.358 25.6864 237.157 25.9143C236.957 26.1376 236.799 26.4088 236.686 26.7278C236.572 27.0422 236.515 27.3931 236.515 27.7805V31.8H235.373V24.3079H236.316L236.439 25.6887H236.487C236.642 25.4107 236.829 25.1578 237.048 24.9299C237.267 24.6975 237.52 24.5129 237.807 24.3762C238.098 24.2395 238.422 24.1711 238.777 24.1711ZM243.904 24.1848C244.798 24.1848 245.461 24.3853 245.894 24.7864C246.326 25.1874 246.543 25.8277 246.543 26.7073V31.8H245.716L245.497 30.6926H245.442C245.233 30.9661 245.014 31.1962 244.786 31.3831C244.558 31.5653 244.294 31.7043 243.993 31.8C243.697 31.8912 243.332 31.9368 242.899 31.9368C242.444 31.9368 242.038 31.857 241.683 31.6975C241.332 31.538 241.054 31.2965 240.849 30.9729C240.648 30.6493 240.548 30.2392 240.548 29.7424C240.548 28.995 240.844 28.4208 241.437 28.0198C242.029 27.6187 242.931 27.4 244.144 27.3635L245.436 27.3088V26.8508C245.436 26.2037 245.297 25.7502 245.019 25.4905C244.741 25.2307 244.349 25.1008 243.843 25.1008C243.451 25.1008 243.077 25.1578 242.722 25.2717C242.366 25.3857 242.029 25.5201 241.71 25.675L241.361 24.8137C241.699 24.6405 242.086 24.4924 242.523 24.3694C242.961 24.2463 243.421 24.1848 243.904 24.1848ZM245.422 28.1086L244.28 28.1565C243.346 28.193 242.688 28.3456 242.305 28.6145C241.922 28.8834 241.73 29.2639 241.73 29.7561C241.73 30.1845 241.86 30.5012 242.12 30.7063C242.38 30.9114 242.724 31.0139 243.152 31.0139C243.818 31.0139 244.362 30.8293 244.786 30.4602C245.21 30.0911 245.422 29.5374 245.422 28.7991V28.1086ZM252.429 24.1711C253.317 24.1711 253.99 24.3899 254.445 24.8274C254.901 25.2603 255.129 25.9576 255.129 26.9192V31.8H254.008V26.9944C254.008 26.37 253.864 25.9029 253.577 25.593C253.295 25.2831 252.859 25.1282 252.271 25.1282C251.442 25.1282 250.859 25.3629 250.521 25.8323C250.184 26.3017 250.016 26.983 250.016 27.8762V31.8H248.881V24.3079H249.797L249.968 25.3879H250.029C250.189 25.1236 250.392 24.9026 250.638 24.7249C250.884 24.5426 251.16 24.4058 251.465 24.3147C251.77 24.219 252.091 24.1711 252.429 24.1711ZM262.313 29.7493C262.313 30.2278 262.193 30.6311 261.951 30.9592C261.714 31.2828 261.372 31.5266 260.926 31.6907C260.484 31.8547 259.955 31.9368 259.34 31.9368C258.816 31.9368 258.362 31.8958 257.979 31.8137C257.597 31.7317 257.262 31.6155 256.975 31.4651V30.4192C257.28 30.5696 257.645 30.7063 258.068 30.8293C258.492 30.9524 258.925 31.0139 259.367 31.0139C260.014 31.0139 260.484 30.9091 260.775 30.6995C261.067 30.4898 261.213 30.205 261.213 29.845C261.213 29.6399 261.154 29.4599 261.035 29.3049C260.921 29.1454 260.728 28.9928 260.454 28.8469C260.181 28.6965 259.802 28.5325 259.319 28.3547C258.841 28.1724 258.426 27.9924 258.075 27.8147C257.729 27.6324 257.46 27.4114 257.269 27.1516C257.082 26.8918 256.988 26.5546 256.988 26.1399C256.988 25.5064 257.243 25.0211 257.754 24.6838C258.269 24.342 258.943 24.1711 259.777 24.1711C260.229 24.1711 260.65 24.2167 261.042 24.3079C261.438 24.3944 261.808 24.5129 262.149 24.6633L261.767 25.5725C261.457 25.4403 261.126 25.3287 260.775 25.2375C260.424 25.1464 260.067 25.1008 259.702 25.1008C259.178 25.1008 258.775 25.1874 258.492 25.3606C258.214 25.5338 258.075 25.7708 258.075 26.0715C258.075 26.304 258.139 26.4954 258.267 26.6458C258.399 26.7961 258.608 26.9374 258.896 27.0696C259.183 27.2017 259.561 27.3567 260.03 27.5344C260.5 27.7076 260.905 27.8876 261.247 28.0745C261.589 28.2568 261.851 28.4801 262.033 28.7444C262.22 29.0042 262.313 29.3391 262.313 29.7493ZM267.475 25.1965H265.608V31.8H264.474V25.1965H263.147V24.6497L264.474 24.2737V23.7747C264.474 23.1458 264.567 22.6353 264.754 22.2434C264.941 21.8469 265.212 21.5553 265.567 21.3684C265.923 21.1816 266.356 21.0881 266.866 21.0881C267.153 21.0881 267.415 21.1132 267.652 21.1633C267.894 21.2135 268.106 21.2704 268.288 21.3342L267.994 22.2297C267.839 22.1796 267.664 22.134 267.468 22.093C267.276 22.0474 267.08 22.0247 266.88 22.0247C266.447 22.0247 266.126 22.1659 265.916 22.4485C265.711 22.7265 265.608 23.164 265.608 23.761V24.3079H267.475V25.1965ZM271.74 24.1711C272.378 24.1711 272.925 24.3124 273.381 24.595C273.837 24.8775 274.185 25.274 274.427 25.7844C274.668 26.2903 274.789 26.8827 274.789 27.5618V28.2659H269.614C269.628 29.1454 269.847 29.8153 270.271 30.2756C270.694 30.7359 271.291 30.9661 272.062 30.9661C272.535 30.9661 272.955 30.9228 273.319 30.8362C273.684 30.7496 274.062 30.622 274.454 30.4534V31.4514C274.076 31.62 273.7 31.7431 273.326 31.8206C272.957 31.898 272.52 31.9368 272.014 31.9368C271.294 31.9368 270.665 31.7909 270.127 31.4993C269.594 31.203 269.179 30.7701 268.883 30.2004C268.587 29.6308 268.438 28.9335 268.438 28.1086C268.438 27.302 268.573 26.6047 268.842 26.0168C269.115 25.4244 269.498 24.9687 269.99 24.6497C270.487 24.3306 271.07 24.1711 271.74 24.1711ZM271.727 25.1008C271.12 25.1008 270.637 25.2991 270.277 25.6956C269.917 26.092 269.703 26.6458 269.635 27.3567H273.6C273.595 26.9101 273.524 26.5181 273.388 26.1809C273.256 25.8391 273.053 25.5748 272.779 25.3879C272.506 25.1965 272.155 25.1008 271.727 25.1008ZM280.121 24.1711C280.271 24.1711 280.429 24.1803 280.593 24.1985C280.757 24.2122 280.903 24.2327 281.03 24.26L280.887 25.3127C280.764 25.2808 280.627 25.2558 280.477 25.2375C280.326 25.2193 280.185 25.2102 280.053 25.2102C279.752 25.2102 279.467 25.2717 279.198 25.3948C278.934 25.5133 278.701 25.6864 278.501 25.9143C278.3 26.1376 278.143 26.4088 278.029 26.7278C277.915 27.0422 277.858 27.3931 277.858 27.7805V31.8H276.717V24.3079H277.66L277.783 25.6887H277.831C277.986 25.4107 278.173 25.1578 278.392 24.9299C278.61 24.6975 278.863 24.5129 279.15 24.3762C279.442 24.2395 279.766 24.1711 280.121 24.1711ZM287.415 31.8H286.253V21.8059H291.817V22.8313H287.415V26.4954H291.551V27.5139H287.415V31.8ZM299.501 24.3079V31.8H298.571L298.407 30.7473H298.346C298.191 31.0071 297.99 31.2258 297.744 31.4036C297.498 31.5813 297.22 31.7135 296.91 31.8C296.605 31.8912 296.279 31.9368 295.933 31.9368C295.34 31.9368 294.843 31.8411 294.442 31.6497C294.041 31.4583 293.738 31.162 293.533 30.761C293.333 30.3599 293.232 29.845 293.232 29.2161V24.3079H294.381V29.134C294.381 29.7584 294.522 30.2255 294.805 30.5354C295.087 30.8407 295.518 30.9934 296.097 30.9934C296.653 30.9934 297.095 30.8886 297.423 30.679C297.756 30.4693 297.995 30.1617 298.141 29.7561C298.286 29.3459 298.359 28.8446 298.359 28.2522V24.3079H299.501ZM305.448 24.1711C306.337 24.1711 307.009 24.3899 307.465 24.8274C307.921 25.2603 308.148 25.9576 308.148 26.9192V31.8H307.027V26.9944C307.027 26.37 306.884 25.9029 306.597 25.593C306.314 25.2831 305.879 25.1282 305.291 25.1282C304.462 25.1282 303.878 25.3629 303.541 25.8323C303.204 26.3017 303.035 26.983 303.035 27.8762V31.8H301.9V24.3079H302.816L302.987 25.3879H303.049C303.208 25.1236 303.411 24.9026 303.657 24.7249C303.903 24.5426 304.179 24.4058 304.484 24.3147C304.79 24.219 305.111 24.1711 305.448 24.1711ZM313.152 31.9368C312.204 31.9368 311.452 31.6132 310.896 30.9661C310.345 30.3189 310.069 29.3573 310.069 28.0813C310.069 26.7916 310.352 25.8186 310.917 25.1624C311.482 24.5015 312.234 24.1711 313.173 24.1711C313.569 24.1711 313.916 24.2236 314.212 24.3284C314.508 24.4332 314.763 24.5745 314.978 24.7522C315.192 24.9254 315.372 25.1236 315.518 25.3469H315.6C315.581 25.2056 315.563 25.012 315.545 24.7659C315.527 24.5198 315.518 24.3193 315.518 24.1643V21.1633H316.652V31.8H315.736L315.565 30.7336H315.518C315.376 30.9569 315.196 31.1597 314.978 31.342C314.763 31.5243 314.506 31.6702 314.205 31.7795C313.909 31.8844 313.558 31.9368 313.152 31.9368ZM313.33 30.9934C314.132 30.9934 314.7 30.7655 315.032 30.3098C315.365 29.8541 315.531 29.1773 315.531 28.2795V28.0745C315.531 27.122 315.372 26.3905 315.053 25.8801C314.738 25.3697 314.164 25.1145 313.33 25.1145C312.633 25.1145 312.111 25.3834 311.765 25.9211C311.418 26.4543 311.245 27.1835 311.245 28.1086C311.245 29.0292 311.416 29.7402 311.758 30.2415C312.104 30.7428 312.628 30.9934 313.33 30.9934ZM323.905 29.7493C323.905 30.2278 323.785 30.6311 323.543 30.9592C323.306 31.2828 322.964 31.5266 322.518 31.6907C322.076 31.8547 321.547 31.9368 320.932 31.9368C320.408 31.9368 319.954 31.8958 319.571 31.8137C319.188 31.7317 318.854 31.6155 318.566 31.4651V30.4192C318.872 30.5696 319.236 30.7063 319.66 30.8293C320.084 30.9524 320.517 31.0139 320.959 31.0139C321.606 31.0139 322.076 30.9091 322.367 30.6995C322.659 30.4898 322.805 30.205 322.805 29.845C322.805 29.6399 322.745 29.4599 322.627 29.3049C322.513 29.1454 322.319 28.9928 322.046 28.8469C321.772 28.6965 321.394 28.5325 320.911 28.3547C320.433 28.1724 320.018 27.9924 319.667 27.8147C319.321 27.6324 319.052 27.4114 318.86 27.1516C318.674 26.8918 318.58 26.5546 318.58 26.1399C318.58 25.5064 318.835 25.0211 319.346 24.6838C319.861 24.342 320.535 24.1711 321.369 24.1711C321.82 24.1711 322.242 24.2167 322.634 24.3079C323.03 24.3944 323.399 24.5129 323.741 24.6633L323.358 25.5725C323.049 25.4403 322.718 25.3287 322.367 25.2375C322.016 25.1464 321.659 25.1008 321.294 25.1008C320.77 25.1008 320.367 25.1874 320.084 25.3606C319.806 25.5338 319.667 25.7708 319.667 26.0715C319.667 26.304 319.731 26.4954 319.858 26.6458C319.991 26.7961 320.2 26.9374 320.487 27.0696C320.774 27.2017 321.153 27.3567 321.622 27.5344C322.091 27.7076 322.497 27.8876 322.839 28.0745C323.181 28.2568 323.443 28.4801 323.625 28.7444C323.812 29.0042 323.905 29.3391 323.905 29.7493Z" fill="#0166AB"/>
<rect x="345" y="12.8" width="2" height="28" fill="#E9EBED"/>
<path d="M371.303 21.8059C372.123 21.8059 372.8 21.9084 373.333 22.1135C373.871 22.314 374.272 22.6217 374.536 23.0364C374.8 23.4511 374.933 23.9797 374.933 24.6223C374.933 25.151 374.837 25.593 374.646 25.9485C374.454 26.2994 374.203 26.5842 373.894 26.803C373.584 27.0217 373.253 27.1903 372.902 27.3088L375.644 31.8H374.29L371.843 27.6301H369.765V31.8H368.603V21.8059H371.303ZM371.234 22.8108H369.765V26.6458H371.351C372.166 26.6458 372.766 26.4794 373.148 26.1467C373.536 25.814 373.729 25.3241 373.729 24.677C373.729 23.998 373.524 23.5172 373.114 23.2346C372.709 22.9521 372.082 22.8108 371.234 22.8108ZM379.957 24.1711C380.595 24.1711 381.142 24.3124 381.598 24.595C382.053 24.8775 382.402 25.274 382.644 25.7844C382.885 26.2903 383.006 26.8827 383.006 27.5618V28.2659H377.831C377.845 29.1454 378.063 29.8153 378.487 30.2756C378.911 30.7359 379.508 30.9661 380.278 30.9661C380.752 30.9661 381.172 30.9228 381.536 30.8362C381.901 30.7496 382.279 30.622 382.671 30.4534V31.4514C382.293 31.62 381.917 31.7431 381.543 31.8206C381.174 31.898 380.736 31.9368 380.23 31.9368C379.51 31.9368 378.882 31.7909 378.344 31.4993C377.811 31.203 377.396 30.7701 377.1 30.2004C376.803 29.6308 376.655 28.9335 376.655 28.1086C376.655 27.302 376.79 26.6047 377.059 26.0168C377.332 25.4244 377.715 24.9687 378.207 24.6497C378.704 24.3306 379.287 24.1711 379.957 24.1711ZM379.943 25.1008C379.337 25.1008 378.854 25.2991 378.494 25.6956C378.134 26.092 377.92 26.6458 377.852 27.3567H381.816C381.812 26.9101 381.741 26.5181 381.604 26.1809C381.472 25.8391 381.27 25.5748 380.996 25.3879C380.723 25.1965 380.372 25.1008 379.943 25.1008ZM388.27 25.1965H386.403V31.8H385.269V25.1965H383.942V24.6497L385.269 24.2737V23.7747C385.269 23.1458 385.362 22.6353 385.549 22.2434C385.736 21.8469 386.007 21.5553 386.362 21.3684C386.718 21.1816 387.151 21.0881 387.661 21.0881C387.948 21.0881 388.21 21.1132 388.447 21.1633C388.689 21.2135 388.901 21.2704 389.083 21.3342L388.789 22.2297C388.634 22.1796 388.459 22.134 388.263 22.093C388.071 22.0474 387.875 22.0247 387.675 22.0247C387.242 22.0247 386.921 22.1659 386.711 22.4485C386.506 22.7265 386.403 23.164 386.403 23.761V24.3079H388.27V25.1965ZM392.535 24.1711C393.173 24.1711 393.72 24.3124 394.176 24.595C394.632 24.8775 394.98 25.274 395.222 25.7844C395.463 26.2903 395.584 26.8827 395.584 27.5618V28.2659H390.409C390.423 29.1454 390.642 29.8153 391.065 30.2756C391.489 30.7359 392.086 30.9661 392.856 30.9661C393.33 30.9661 393.75 30.9228 394.114 30.8362C394.479 30.7496 394.857 30.622 395.249 30.4534V31.4514C394.871 31.62 394.495 31.7431 394.121 31.8206C393.752 31.898 393.314 31.9368 392.809 31.9368C392.089 31.9368 391.46 31.7909 390.922 31.4993C390.389 31.203 389.974 30.7701 389.678 30.2004C389.382 29.6308 389.233 28.9335 389.233 28.1086C389.233 27.302 389.368 26.6047 389.637 26.0168C389.91 25.4244 390.293 24.9687 390.785 24.6497C391.282 24.3306 391.865 24.1711 392.535 24.1711ZM392.521 25.1008C391.915 25.1008 391.432 25.2991 391.072 25.6956C390.712 26.092 390.498 26.6458 390.43 27.3567H394.395C394.39 26.9101 394.319 26.5181 394.183 26.1809C394.05 25.8391 393.848 25.5748 393.574 25.3879C393.301 25.1965 392.95 25.1008 392.521 25.1008ZM400.916 24.1711C401.066 24.1711 401.224 24.1803 401.388 24.1985C401.552 24.2122 401.698 24.2327 401.825 24.26L401.682 25.3127C401.559 25.2808 401.422 25.2558 401.271 25.2375C401.121 25.2193 400.98 25.2102 400.848 25.2102C400.547 25.2102 400.262 25.2717 399.993 25.3948C399.729 25.5133 399.496 25.6864 399.296 25.9143C399.095 26.1376 398.938 26.4088 398.824 26.7278C398.71 27.0422 398.653 27.3931 398.653 27.7805V31.8H397.512V24.3079H398.455L398.578 25.6887H398.626C398.781 25.4107 398.968 25.1578 399.187 24.9299C399.405 24.6975 399.658 24.5129 399.945 24.3762C400.237 24.2395 400.561 24.1711 400.916 24.1711ZM406.645 24.1711C406.795 24.1711 406.952 24.1803 407.116 24.1985C407.28 24.2122 407.426 24.2327 407.554 24.26L407.41 25.3127C407.287 25.2808 407.15 25.2558 407 25.2375C406.85 25.2193 406.708 25.2102 406.576 25.2102C406.275 25.2102 405.991 25.2717 405.722 25.3948C405.457 25.5133 405.225 25.6864 405.024 25.9143C404.824 26.1376 404.667 26.4088 404.553 26.7278C404.439 27.0422 404.382 27.3931 404.382 27.7805V31.8H403.24V24.3079H404.184L404.307 25.6887H404.354C404.509 25.4107 404.696 25.1578 404.915 24.9299C405.134 24.6975 405.387 24.5129 405.674 24.3762C405.965 24.2395 406.289 24.1711 406.645 24.1711ZM411.771 24.1848C412.665 24.1848 413.328 24.3853 413.761 24.7864C414.194 25.1874 414.41 25.8277 414.41 26.7073V31.8H413.583L413.364 30.6926H413.31C413.1 30.9661 412.881 31.1962 412.653 31.3831C412.425 31.5653 412.161 31.7043 411.86 31.8C411.564 31.8912 411.2 31.9368 410.767 31.9368C410.311 31.9368 409.905 31.857 409.55 31.6975C409.199 31.538 408.921 31.2965 408.716 30.9729C408.515 30.6493 408.415 30.2392 408.415 29.7424C408.415 28.995 408.711 28.4208 409.304 28.0198C409.896 27.6187 410.799 27.4 412.011 27.3635L413.303 27.3088V26.8508C413.303 26.2037 413.164 25.7502 412.886 25.4905C412.608 25.2307 412.216 25.1008 411.71 25.1008C411.318 25.1008 410.944 25.1578 410.589 25.2717C410.233 25.3857 409.896 25.5201 409.577 25.675L409.229 24.8137C409.566 24.6405 409.953 24.4924 410.391 24.3694C410.828 24.2463 411.288 24.1848 411.771 24.1848ZM413.289 28.1086L412.147 28.1565C411.213 28.193 410.555 28.3456 410.172 28.6145C409.789 28.8834 409.598 29.2639 409.598 29.7561C409.598 30.1845 409.728 30.5012 409.987 30.7063C410.247 30.9114 410.591 31.0139 411.02 31.0139C411.685 31.0139 412.229 30.8293 412.653 30.4602C413.077 30.0911 413.289 29.5374 413.289 28.7991V28.1086ZM417.89 31.8H416.748V21.1633H417.89V31.8ZM425.136 29.7493C425.136 30.2278 425.015 30.6311 424.773 30.9592C424.536 31.2828 424.195 31.5266 423.748 31.6907C423.306 31.8547 422.777 31.9368 422.162 31.9368C421.638 31.9368 421.185 31.8958 420.802 31.8137C420.419 31.7317 420.084 31.6155 419.797 31.4651V30.4192C420.102 30.5696 420.467 30.7063 420.891 30.8293C421.314 30.9524 421.747 31.0139 422.189 31.0139C422.837 31.0139 423.306 30.9091 423.598 30.6995C423.889 30.4898 424.035 30.205 424.035 29.845C424.035 29.6399 423.976 29.4599 423.857 29.3049C423.743 29.1454 423.55 28.9928 423.276 28.8469C423.003 28.6965 422.625 28.5325 422.142 28.3547C421.663 28.1724 421.248 27.9924 420.897 27.8147C420.551 27.6324 420.282 27.4114 420.091 27.1516C419.904 26.8918 419.811 26.5546 419.811 26.1399C419.811 25.5064 420.066 25.0211 420.576 24.6838C421.091 24.342 421.766 24.1711 422.6 24.1711C423.051 24.1711 423.472 24.2167 423.864 24.3079C424.261 24.3944 424.63 24.5129 424.972 24.6633L424.589 25.5725C424.279 25.4403 423.949 25.3287 423.598 25.2375C423.247 25.1464 422.889 25.1008 422.524 25.1008C422 25.1008 421.597 25.1874 421.314 25.3606C421.036 25.5338 420.897 25.7708 420.897 26.0715C420.897 26.304 420.961 26.4954 421.089 26.6458C421.221 26.7961 421.431 26.9374 421.718 27.0696C422.005 27.2017 422.383 27.3567 422.853 27.5344C423.322 27.7076 423.728 27.8876 424.069 28.0745C424.411 28.2568 424.673 28.4801 424.855 28.7444C425.042 29.0042 425.136 29.3391 425.136 29.7493Z" fill="#0166AB"/>
<rect x="446" y="12.8" width="2" height="28" fill="#E9EBED"/>
<path d="M469.458 31.8V21.8059H470.62V31.8H469.458ZM476.745 24.1711C477.634 24.1711 478.306 24.3899 478.762 24.8274C479.217 25.2603 479.445 25.9576 479.445 26.9192V31.8H478.324V26.9944C478.324 26.37 478.181 25.9029 477.894 25.593C477.611 25.2831 477.176 25.1282 476.588 25.1282C475.758 25.1282 475.175 25.3629 474.838 25.8323C474.501 26.3017 474.332 26.983 474.332 27.8762V31.8H473.197V24.3079H474.113L474.284 25.3879H474.346C474.505 25.1236 474.708 24.9026 474.954 24.7249C475.2 24.5426 475.476 24.4058 475.781 24.3147C476.087 24.219 476.408 24.1711 476.745 24.1711ZM482.918 21.1633V23.8225C482.918 24.1278 482.909 24.4241 482.891 24.7112C482.877 24.9983 482.866 25.2216 482.856 25.3811H482.918C483.123 25.0439 483.419 24.759 483.807 24.5266C484.194 24.2942 484.688 24.178 485.29 24.178C486.229 24.178 486.976 24.5038 487.532 25.1555C488.093 25.8027 488.373 26.7665 488.373 28.0471C488.373 28.8902 488.245 29.6012 487.99 30.1799C487.735 30.7587 487.375 31.1962 486.91 31.4924C486.445 31.7887 485.896 31.9368 485.263 31.9368C484.67 31.9368 484.183 31.8274 483.8 31.6086C483.422 31.3853 483.13 31.1142 482.925 30.7952H482.836L482.604 31.8H481.783V21.1633H482.918ZM485.105 25.1282C484.563 25.1282 484.132 25.2353 483.813 25.4495C483.494 25.6591 483.264 25.9781 483.123 26.4065C482.986 26.8303 482.918 27.3681 482.918 28.0198V28.0813C482.918 29.0247 483.075 29.747 483.39 30.2483C483.704 30.745 484.276 30.9934 485.105 30.9934C485.803 30.9934 486.325 30.7382 486.671 30.2278C487.022 29.7174 487.197 28.9882 487.197 28.0403C487.197 27.0741 487.024 26.3472 486.678 25.8596C486.336 25.372 485.812 25.1282 485.105 25.1282ZM496.815 28.0403C496.815 28.6555 496.736 29.2047 496.576 29.6877C496.417 30.1708 496.187 30.5787 495.886 30.9114C495.585 31.2441 495.22 31.4993 494.792 31.677C494.368 31.8502 493.887 31.9368 493.35 31.9368C492.848 31.9368 492.388 31.8502 491.969 31.677C491.554 31.4993 491.194 31.2441 490.889 30.9114C490.588 30.5787 490.353 30.1708 490.185 29.6877C490.021 29.2047 489.938 28.6555 489.938 28.0403C489.938 27.22 490.077 26.5227 490.355 25.9485C490.633 25.3697 491.03 24.9299 491.545 24.6292C492.064 24.3238 492.682 24.1711 493.397 24.1711C494.081 24.1711 494.678 24.3238 495.188 24.6292C495.703 24.9345 496.102 25.3765 496.385 25.9553C496.672 26.5295 496.815 27.2245 496.815 28.0403ZM491.114 28.0403C491.114 28.6418 491.194 29.1637 491.354 29.6057C491.513 30.0478 491.759 30.3896 492.092 30.6311C492.424 30.8726 492.853 30.9934 493.377 30.9934C493.896 30.9934 494.323 30.8726 494.655 30.6311C494.993 30.3896 495.241 30.0478 495.4 29.6057C495.56 29.1637 495.64 28.6418 495.64 28.0403C495.64 27.4433 495.56 26.9283 495.4 26.4954C495.241 26.0579 494.995 25.7206 494.662 25.4836C494.329 25.2467 493.899 25.1282 493.37 25.1282C492.591 25.1282 492.019 25.3857 491.654 25.9006C491.294 26.4156 491.114 27.1288 491.114 28.0403ZM500.562 27.9651L497.971 24.3079H499.27L501.245 27.1926L503.214 24.3079H504.499L501.908 27.9651L504.643 31.8H503.344L501.245 28.7444L499.133 31.8H497.848L500.562 27.9651Z" fill="#0166AB"/>
<rect y="54.8" width="527" height="2" rx="1" fill="#E9EBED"/>
</svg>
