<svg width="1440" height="60" viewBox="0 0 1440 60" fill="none" xmlns="http://www.w3.org/2000/svg">
<rect width="1440" height="60" fill="#141920"/>
<g clip-path="url(#clip0_114_756)">
<path fill-rule="evenodd" clip-rule="evenodd" d="M78.0348 38.4616C72.2453 42.7276 63.8242 45.0001 56.5611 45.0001C46.3856 45.0001 37.2629 41.2588 30.3155 35.0351C29.7892 34.5457 30.2453 33.8813 30.9119 34.2658C38.3856 38.6015 47.6137 41.1889 57.1575 41.1889C63.5786 41.1889 70.6663 39.8603 77.1926 37.098C78.1748 36.7134 78.982 37.7623 78.0347 38.4616H78.0348Z" fill="#FF9900"/>
<path fill-rule="evenodd" clip-rule="evenodd" d="M80.4561 35.6994C79.7195 34.7553 75.5438 35.2448 73.6842 35.4896C73.1228 35.5595 73.0175 35.07 73.5438 34.7203C76.8772 32.3777 82.3158 33.0769 82.9473 33.8462C83.5789 34.6154 82.7719 40.0696 79.6486 42.6573C79.1575 43.0419 78.7012 42.8321 78.912 42.3077C79.614 40.5594 81.1929 36.6781 80.4561 35.6994Z" fill="#FF9900"/>
<path fill-rule="evenodd" clip-rule="evenodd" d="M73.7894 18.2872V16.0139C73.7855 15.9394 73.7973 15.8649 73.8241 15.7952C73.8509 15.7255 73.8921 15.6623 73.945 15.6095C73.998 15.5567 74.0615 15.5157 74.1314 15.489C74.2013 15.4622 74.2761 15.4505 74.3509 15.4545H84.5264C84.6795 15.4513 84.8278 15.5081 84.9394 15.6127C85.0509 15.7173 85.1168 15.8614 85.1229 16.0139V17.937C85.1229 18.2517 84.8422 18.6711 84.351 19.3706L79.0879 26.8532C81.0528 26.8182 83.1233 27.0979 84.8774 28.0766C85.2633 28.2864 85.3684 28.6361 85.4037 28.9507V31.3633C85.4037 31.713 85.0528 32.0973 84.6671 31.8878C81.5442 30.2444 77.3688 30.0696 73.9303 31.9228C73.5794 32.0976 73.1936 31.748 73.1936 31.3983V29.0908C73.1936 28.7412 73.1936 28.1121 73.5796 27.5524L79.6849 18.8462H74.386C74.2329 18.8494 74.0847 18.7926 73.9731 18.6881C73.8616 18.5836 73.7956 18.4397 73.7894 18.2872ZM36.7018 32.3776H33.6141C33.4757 32.3636 33.3458 32.3048 33.2443 32.21C33.1428 32.1152 33.0755 31.9898 33.0526 31.8531V16.0489C33.0587 15.8964 33.1246 15.7524 33.2361 15.6477C33.3477 15.5431 33.4959 15.4863 33.6491 15.4895H36.5263C36.6686 15.4916 36.8049 15.5465 36.9088 15.6435C37.0126 15.7405 37.0764 15.8726 37.0877 16.0139V18.0769H37.1578C37.8945 16.0839 39.3333 15.1399 41.228 15.1399C43.1579 15.1399 44.3859 16.0839 45.2281 18.0769C45.9647 16.0839 47.6842 15.1399 49.509 15.1399C50.8073 15.1399 52.2108 15.6644 53.088 16.8882C54.0702 18.2168 53.86 20.1399 53.86 21.8532V31.8532C53.8539 32.0057 53.788 32.1498 53.6765 32.2544C53.5649 32.359 53.4167 32.4158 53.2635 32.4127H50.2105C49.8947 32.3777 49.6491 32.133 49.6491 31.8532V23.4615C49.6491 22.7971 49.7192 21.1188 49.5789 20.4895C49.3334 19.4405 48.6667 19.1258 47.7544 19.1258C47.3516 19.1373 46.9609 19.2658 46.6305 19.4957C46.3 19.7256 46.0443 20.0467 45.8947 20.4196C45.5789 21.2237 45.614 22.5524 45.614 23.4615V31.8532C45.6079 32.0057 45.5421 32.1498 45.4305 32.2544C45.319 32.359 45.1707 32.4158 45.0176 32.4127H41.9299C41.6141 32.3777 41.3684 32.133 41.3684 31.8532V23.4615C41.3684 21.7132 41.6491 19.0908 39.4737 19.0908C37.2632 19.0908 37.3334 21.6083 37.3334 23.4615V31.8532C37.3113 32.0027 37.2347 32.1389 37.1181 32.2357C37.0016 32.3325 36.8534 32.383 36.7018 32.3777V32.3776ZM93.8948 15.1399C98.4913 15.1399 100.983 19.056 100.983 24.056C100.983 28.8812 98.2457 32.7272 93.8948 32.7272C89.4035 32.7272 86.9474 28.8112 86.9474 23.9161C86.9123 18.986 89.4035 15.1395 93.8948 15.1395V15.1399ZM93.8948 18.3916C91.614 18.3916 91.4737 21.5035 91.4737 23.4266C91.4737 25.3497 91.4386 29.4755 93.8597 29.4755C96.2457 29.4755 96.386 26.1538 96.386 24.1258C96.386 22.7971 96.3159 21.1888 95.9298 19.93C95.5789 18.8111 94.8772 18.3916 93.8948 18.3916ZM106.912 32.3776H103.825C103.509 32.3426 103.263 32.0979 103.263 31.8181V15.9787C103.282 15.8343 103.353 15.7018 103.463 15.6054C103.573 15.509 103.714 15.4554 103.86 15.4543H106.737C106.867 15.4588 106.993 15.5057 107.094 15.5877C107.195 15.6698 107.267 15.7825 107.298 15.9088V18.3214H107.368C108.246 16.1535 109.439 15.1396 111.579 15.1396C112.947 15.1396 114.316 15.6289 115.193 16.9928C116 18.2515 116 20.3844 116 21.9229V31.8879C115.979 32.0285 115.906 32.1563 115.796 32.2467C115.686 32.337 115.546 32.3835 115.403 32.3772H112.316C112.035 32.3422 111.789 32.1326 111.754 31.8879V23.2867C111.754 21.5384 111.965 19.0207 109.824 19.0207C109.088 19.0207 108.386 19.5101 108.035 20.2795C107.614 21.2582 107.544 22.2026 107.544 23.2865V31.8184C107.524 31.972 107.449 32.1133 107.333 32.2161C107.217 32.319 107.068 32.3765 106.912 32.3779L106.912 32.3776ZM65.6844 24.8252C65.6844 26.014 65.7195 27.028 65.123 28.1124C64.6319 28.9866 63.8598 29.5111 62.9826 29.5111C61.7896 29.5111 61.0879 28.602 61.0879 27.2733C61.0879 24.651 63.4388 24.1614 65.6844 24.1614V24.8252ZM68.8072 32.3427C68.7072 32.4296 68.5824 32.4832 68.4502 32.4957C68.3181 32.5083 68.1853 32.4792 68.0706 32.4126C67.0531 31.5734 66.8429 31.1538 66.2812 30.3496C64.597 32.0623 63.3689 32.5873 61.1935 32.5873C58.597 32.5873 56.5619 30.9789 56.5619 27.7971C56.5619 25.2797 57.9303 23.6014 59.8606 22.7621C61.5448 22.0281 63.896 21.888 65.6852 21.6782V21.2936C65.6852 20.5596 65.7553 19.6852 65.2992 19.0559C64.9133 18.4964 64.2115 18.2517 63.5805 18.2517C62.3875 18.2517 61.3348 18.8461 61.0892 20.1049C61.0191 20.3846 60.8437 20.6644 60.5629 20.6644L57.5804 20.3497C57.3349 20.2798 57.0541 20.105 57.1243 19.7203C57.826 16.0839 61.0892 15 64.0365 15C65.5453 15 67.5102 15.3846 68.7032 16.5384C70.2119 17.937 70.0716 19.8256 70.0716 21.8531V26.6433C70.0716 28.0769 70.668 28.7063 71.2294 29.5104C71.44 29.7901 71.475 30.1398 71.2294 30.3146C70.5627 30.839 69.44 31.8181 68.8084 32.3426L68.8072 32.3427ZM25.1579 24.8252C25.1579 26.014 25.193 27.028 24.5965 28.1124C24.1054 28.9866 23.3333 29.5111 22.4561 29.5111C21.2631 29.5111 20.5614 28.602 20.5614 27.2733C20.5614 24.651 22.9123 24.1614 25.1579 24.1614V24.8252ZM28.2456 32.3427C28.1456 32.4296 28.0207 32.4832 27.8886 32.4957C27.7564 32.5083 27.6237 32.4792 27.509 32.4126C26.4915 31.5734 26.2813 31.1538 25.7196 30.3496C24.0354 32.0623 22.8072 32.5873 20.6319 32.5873C18.0353 32.5873 16.0002 30.9789 16.0002 27.7971C16.0002 25.2797 17.3686 23.6014 19.299 22.7621C20.9832 22.0281 23.3344 21.888 25.1235 21.6782V21.2936C25.1235 20.5596 25.1937 19.6852 24.7376 19.0559C24.3517 18.4964 23.6499 18.2517 23.0188 18.2517C21.8258 18.2517 20.7732 18.8461 20.5276 20.1049C20.4574 20.3846 20.282 20.6644 20.0013 20.6644L17.0188 20.3497C16.7733 20.2798 16.4925 20.105 16.5626 19.7203C17.2643 16.0839 20.5276 15 23.4749 15C24.9837 15 26.9485 15.3846 28.1415 16.5384C29.6503 17.937 29.5099 19.8256 29.5099 21.8531V26.6433C29.5099 28.0769 30.1064 28.7063 30.6678 29.5104C30.8783 29.7901 30.9133 30.1398 30.6678 30.3146C30.0011 30.839 28.8784 31.8181 28.2468 32.3426L28.2456 32.3427Z" fill="white"/>
</g>
<path fill-rule="evenodd" clip-rule="evenodd" d="M138.826 27.4275C138.836 24.6005 141.135 22.3165 143.962 22.3261C146.789 22.3357 149.073 24.6353 149.064 27.4623V27.5203C149.029 29.358 148.003 31.0565 146.745 32.3841C146.026 33.1311 145.222 33.7925 144.351 34.3551C144.118 34.5566 143.772 34.5566 143.539 34.3551C142.24 33.5096 141.1 32.4421 140.171 31.2014C139.343 30.1196 138.873 28.8065 138.826 27.4449V27.4275Z" stroke="white" stroke-width="1.5" stroke-linecap="round" stroke-linejoin="round"/>
<path d="M143.945 29.1667C144.851 29.1667 145.586 28.4321 145.586 27.526C145.586 26.6199 144.851 25.8853 143.945 25.8853C143.039 25.8853 142.304 26.6199 142.304 27.526C142.304 28.4321 143.039 29.1667 143.945 29.1667Z" stroke="white" stroke-width="1.5" stroke-linecap="round" stroke-linejoin="round"/>
<path d="M159.008 23.5V15.184H161.744C162.968 15.184 163.9 15.54 164.54 16.252C165.188 16.956 165.512 17.988 165.512 19.348C165.512 20.692 165.184 21.72 164.528 22.432C163.872 23.144 162.932 23.5 161.708 23.5H159.008ZM160.232 16.144V22.54H161.576C163.36 22.54 164.252 21.52 164.252 19.48V19.204C164.252 18.188 164.028 17.424 163.58 16.912C163.132 16.4 162.464 16.144 161.576 16.144H160.232ZM168.013 20.716C168.029 21.404 168.197 21.912 168.517 22.24C168.845 22.568 169.349 22.732 170.029 22.732C170.661 22.732 171.305 22.608 171.961 22.36V23.212C171.385 23.524 170.681 23.68 169.849 23.68C168.865 23.68 168.121 23.408 167.617 22.864C167.113 22.32 166.861 21.516 166.861 20.452C166.861 19.436 167.113 18.648 167.617 18.088C168.121 17.52 168.825 17.236 169.729 17.236C170.489 17.236 171.073 17.452 171.481 17.884C171.889 18.308 172.093 18.912 172.093 19.696C172.093 20.072 172.061 20.412 171.997 20.716H168.013ZM169.669 18.136C169.165 18.136 168.773 18.288 168.493 18.592C168.213 18.888 168.053 19.332 168.013 19.924H171.001C171.009 19.86 171.013 19.756 171.013 19.612C171.013 19.124 170.897 18.756 170.665 18.508C170.441 18.26 170.109 18.136 169.669 18.136ZM175.697 23.416C175.433 23.512 175.145 23.56 174.833 23.56C174.409 23.56 174.085 23.44 173.861 23.2C173.637 22.952 173.525 22.6 173.525 22.144V14.62H174.713V22.072C174.713 22.256 174.749 22.392 174.821 22.48C174.901 22.56 175.029 22.6 175.205 22.6C175.365 22.6 175.529 22.588 175.697 22.564V23.416ZM176.995 23.5V17.416H178.183V23.5H176.995ZM177.595 16.336C177.363 16.336 177.179 16.272 177.043 16.144C176.915 16.008 176.851 15.832 176.851 15.616C176.851 15.4 176.915 15.228 177.043 15.1C177.179 14.964 177.363 14.896 177.595 14.896C177.827 14.896 178.007 14.964 178.135 15.1C178.271 15.228 178.339 15.4 178.339 15.616C178.339 15.832 178.271 16.008 178.135 16.144C178.007 16.272 177.827 16.336 177.595 16.336ZM181.601 23.5L179.213 17.416H180.485L182.201 22.42L183.917 17.416H185.141L182.765 23.5H181.601ZM186.845 20.716C186.861 21.404 187.029 21.912 187.349 22.24C187.677 22.568 188.181 22.732 188.861 22.732C189.493 22.732 190.137 22.608 190.793 22.36V23.212C190.217 23.524 189.513 23.68 188.681 23.68C187.697 23.68 186.953 23.408 186.449 22.864C185.945 22.32 185.693 21.516 185.693 20.452C185.693 19.436 185.945 18.648 186.449 18.088C186.953 17.52 187.657 17.236 188.561 17.236C189.321 17.236 189.905 17.452 190.313 17.884C190.721 18.308 190.925 18.912 190.925 19.696C190.925 20.072 190.893 20.412 190.829 20.716H186.845ZM188.501 18.136C187.997 18.136 187.605 18.288 187.325 18.592C187.045 18.888 186.885 19.332 186.845 19.924H189.833C189.841 19.86 189.845 19.756 189.845 19.612C189.845 19.124 189.729 18.756 189.497 18.508C189.273 18.26 188.941 18.136 188.501 18.136ZM192.357 23.5V17.416H193.353L193.485 18.316C193.709 18.076 193.917 17.892 194.109 17.764C194.301 17.628 194.497 17.528 194.697 17.464C194.897 17.4 195.113 17.368 195.345 17.368C195.497 17.368 195.661 17.38 195.837 17.404V18.484C195.581 18.452 195.365 18.436 195.189 18.436C194.549 18.436 194.001 18.628 193.545 19.012V23.5H192.357ZM203.394 23.356C203.002 23.508 202.558 23.584 202.062 23.584C200.926 23.584 200.358 23.016 200.358 21.88V18.352H199.254V17.584L200.394 17.44L200.574 15.712H201.546V17.416H203.346V18.352H201.546V21.82C201.546 22.116 201.61 22.324 201.738 22.444C201.874 22.564 202.102 22.624 202.422 22.624C202.75 22.624 203.074 22.584 203.394 22.504V23.356ZM207.16 23.68C206.248 23.68 205.536 23.396 205.024 22.828C204.512 22.26 204.256 21.468 204.256 20.452C204.256 19.444 204.512 18.656 205.024 18.088C205.536 17.52 206.248 17.236 207.16 17.236C208.072 17.236 208.784 17.52 209.296 18.088C209.808 18.656 210.064 19.444 210.064 20.452C210.064 21.468 209.808 22.26 209.296 22.828C208.784 23.396 208.072 23.68 207.16 23.68ZM207.16 22.72C208.288 22.72 208.852 21.964 208.852 20.452C208.852 18.948 208.288 18.196 207.16 18.196C206.032 18.196 205.468 18.948 205.468 20.452C205.468 21.964 206.032 22.72 207.16 22.72ZM214.093 22.444C214.549 22.596 215.001 22.672 215.449 22.672C215.945 22.672 216.301 22.548 216.517 22.3C216.733 22.044 216.841 21.628 216.841 21.052V15.184H218.065V21.028C218.065 22.812 217.229 23.704 215.557 23.704C215.085 23.704 214.597 23.6 214.093 23.392V22.444ZM222.5 23.68C221.588 23.68 220.876 23.396 220.364 22.828C219.852 22.26 219.596 21.468 219.596 20.452C219.596 19.444 219.852 18.656 220.364 18.088C220.876 17.52 221.588 17.236 222.5 17.236C223.412 17.236 224.124 17.52 224.636 18.088C225.148 18.656 225.404 19.444 225.404 20.452C225.404 21.468 225.148 22.26 224.636 22.828C224.124 23.396 223.412 23.68 222.5 23.68ZM222.5 22.72C223.628 22.72 224.192 21.964 224.192 20.452C224.192 18.948 223.628 18.196 222.5 18.196C221.372 18.196 220.808 18.948 220.808 20.452C220.808 21.964 221.372 22.72 222.5 22.72ZM230.984 23.5V19.432C230.984 19.008 230.896 18.696 230.72 18.496C230.552 18.296 230.284 18.196 229.916 18.196C229.284 18.196 228.664 18.4 228.056 18.808V23.5H226.868V14.62H228.056V18.04C228.816 17.504 229.592 17.236 230.384 17.236C230.968 17.236 231.412 17.392 231.716 17.704C232.02 18.008 232.172 18.452 232.172 19.036V23.5H230.984ZM238.039 23.5V19.432C238.039 19.008 237.951 18.696 237.775 18.496C237.607 18.296 237.339 18.196 236.971 18.196C236.339 18.196 235.719 18.4 235.111 18.808V23.5H233.923V17.416H234.919L235.039 18.088C235.799 17.52 236.599 17.236 237.439 17.236C238.023 17.236 238.467 17.392 238.771 17.704C239.075 18.008 239.227 18.452 239.227 19.036V23.5H238.039Z" fill="white"/>
<path d="M157.148 44.5V34.798H160.466C161.39 34.798 162.132 35.036 162.692 35.512C163.252 35.9787 163.532 36.5993 163.532 37.374C163.532 37.85 163.42 38.2607 163.196 38.606C162.981 38.9513 162.659 39.2173 162.23 39.404C162.827 39.5813 163.28 39.8753 163.588 40.286C163.905 40.6873 164.064 41.1867 164.064 41.784C164.064 42.6147 163.765 43.2773 163.168 43.772C162.58 44.2573 161.782 44.5 160.774 44.5H157.148ZM158.772 40.174V43.226H160.732C161.824 43.226 162.37 42.722 162.37 41.714C162.37 40.6873 161.805 40.174 160.676 40.174H158.772ZM158.772 36.072V38.928H160.27C161.334 38.928 161.866 38.4473 161.866 37.486C161.866 36.5433 161.357 36.072 160.34 36.072H158.772ZM169.834 44.5L169.708 43.814C169.381 44.094 169.017 44.3133 168.616 44.472C168.224 44.6307 167.832 44.71 167.44 44.71C166.786 44.71 166.254 44.514 165.844 44.122C165.442 43.73 165.242 43.2213 165.242 42.596C165.242 41.9053 165.489 41.3547 165.984 40.944C166.488 40.5333 167.16 40.328 168 40.328C168.494 40.328 169.036 40.398 169.624 40.538V39.712C169.624 39.236 169.521 38.9047 169.316 38.718C169.11 38.5313 168.751 38.438 168.238 38.438C167.51 38.438 166.674 38.592 165.732 38.9V37.738C166.077 37.5607 166.497 37.4207 166.992 37.318C167.496 37.2153 168 37.164 168.504 37.164C169.418 37.164 170.09 37.3507 170.52 37.724C170.958 38.0973 171.178 38.6807 171.178 39.474V44.5H169.834ZM167.902 43.534C168.172 43.534 168.457 43.478 168.756 43.366C169.054 43.2447 169.344 43.0767 169.624 42.862V41.518C169.129 41.4153 168.69 41.364 168.308 41.364C167.337 41.364 166.852 41.742 166.852 42.498C166.852 42.8247 166.945 43.0813 167.132 43.268C167.318 43.4453 167.575 43.534 167.902 43.534ZM177.872 44.5V39.782C177.872 39.3247 177.779 38.9933 177.592 38.788C177.406 38.5733 177.107 38.466 176.696 38.466C176.08 38.466 175.45 38.6713 174.806 39.082V44.5H173.154V37.374H174.526L174.694 38.158C175.572 37.4953 176.486 37.164 177.438 37.164C178.12 37.164 178.638 37.346 178.992 37.71C179.347 38.0647 179.524 38.5827 179.524 39.264V44.5H177.872ZM186.044 43.576C185.438 44.0987 184.752 44.36 183.986 44.36C183.118 44.36 182.423 44.038 181.9 43.394C181.387 42.7407 181.13 41.8727 181.13 40.79C181.13 40.0807 181.247 39.4553 181.48 38.914C181.714 38.3633 182.05 37.934 182.488 37.626C182.927 37.318 183.445 37.164 184.042 37.164C184.854 37.164 185.559 37.4487 186.156 38.018L186.296 37.374H187.668V44.01C187.668 45.1393 187.36 46.012 186.744 46.628C186.138 47.244 185.27 47.552 184.14 47.552C183.282 47.552 182.47 47.3607 181.704 46.978V45.802C182.572 46.0913 183.352 46.236 184.042 46.236C184.742 46.236 185.251 46.0727 185.568 45.746C185.886 45.4287 186.044 44.906 186.044 44.178V43.576ZM184.476 43.086C185.027 43.086 185.55 42.904 186.044 42.54V38.956C185.559 38.62 185.041 38.452 184.49 38.452C183.921 38.452 183.496 38.6387 183.216 39.012C182.946 39.3853 182.81 39.9593 182.81 40.734C182.81 42.302 183.366 43.086 184.476 43.086ZM193.828 44.5L193.702 43.814C193.375 44.094 193.011 44.3133 192.61 44.472C192.218 44.6307 191.826 44.71 191.434 44.71C190.78 44.71 190.248 44.514 189.838 44.122C189.436 43.73 189.236 43.2213 189.236 42.596C189.236 41.9053 189.483 41.3547 189.978 40.944C190.482 40.5333 191.154 40.328 191.994 40.328C192.488 40.328 193.03 40.398 193.618 40.538V39.712C193.618 39.236 193.515 38.9047 193.31 38.718C193.104 38.5313 192.745 38.438 192.232 38.438C191.504 38.438 190.668 38.592 189.726 38.9V37.738C190.071 37.5607 190.491 37.4207 190.986 37.318C191.49 37.2153 191.994 37.164 192.498 37.164C193.412 37.164 194.084 37.3507 194.514 37.724C194.952 38.0973 195.172 38.6807 195.172 39.474V44.5H193.828ZM191.896 43.534C192.166 43.534 192.451 43.478 192.75 43.366C193.048 43.2447 193.338 43.0767 193.618 42.862V41.518C193.123 41.4153 192.684 41.364 192.302 41.364C191.331 41.364 190.846 41.742 190.846 42.498C190.846 42.8247 190.939 43.0813 191.126 43.268C191.312 43.4453 191.569 43.534 191.896 43.534ZM199.935 44.388C199.589 44.5187 199.221 44.584 198.829 44.584C198.278 44.584 197.858 44.43 197.569 44.122C197.289 43.8047 197.149 43.3473 197.149 42.75V34.14H198.801V42.624C198.801 42.8573 198.843 43.0253 198.927 43.128C199.02 43.2307 199.169 43.282 199.375 43.282C199.543 43.282 199.729 43.268 199.935 43.24V44.388ZM204.44 44.71C203.357 44.71 202.512 44.3787 201.906 43.716C201.299 43.044 200.996 42.1153 200.996 40.93C200.996 39.7447 201.299 38.8207 201.906 38.158C202.512 37.4953 203.357 37.164 204.44 37.164C205.522 37.164 206.367 37.4953 206.974 38.158C207.58 38.8207 207.884 39.7447 207.884 40.93C207.884 42.1153 207.58 43.044 206.974 43.716C206.367 44.3787 205.522 44.71 204.44 44.71ZM204.44 43.408C205.616 43.408 206.204 42.582 206.204 40.93C206.204 39.2873 205.616 38.466 204.44 38.466C203.264 38.466 202.676 39.2873 202.676 40.93C202.676 42.582 203.264 43.408 204.44 43.408ZM209.535 44.5V37.374H210.907L211.131 38.438C211.505 38.0273 211.855 37.738 212.181 37.57C212.508 37.402 212.863 37.318 213.245 37.318C213.423 37.318 213.614 37.332 213.819 37.36V38.872C213.558 38.8253 213.292 38.802 213.021 38.802C212.331 38.802 211.719 38.9793 211.187 39.334V44.5H209.535ZM216.098 41.336C216.126 42.0453 216.322 42.568 216.686 42.904C217.059 43.2307 217.628 43.394 218.394 43.394C219.084 43.394 219.831 43.2633 220.634 43.002V44.164C220.316 44.332 219.938 44.4627 219.5 44.556C219.07 44.6587 218.622 44.71 218.156 44.71C216.98 44.71 216.088 44.3927 215.482 43.758C214.875 43.1233 214.572 42.1993 214.572 40.986C214.572 39.782 214.866 38.844 215.454 38.172C216.051 37.5 216.882 37.164 217.946 37.164C218.86 37.164 219.56 37.416 220.046 37.92C220.54 38.4147 220.788 39.1193 220.788 40.034C220.788 40.5193 220.746 40.9533 220.662 41.336H216.098ZM217.876 38.368C217.372 38.368 216.961 38.536 216.644 38.872C216.326 39.208 216.144 39.6607 216.098 40.23H219.332V40.118C219.332 39.5487 219.206 39.1147 218.954 38.816C218.711 38.5173 218.352 38.368 217.876 38.368ZM225.953 42.834C226.979 43.1793 227.866 43.352 228.613 43.352C230.003 43.352 230.699 42.7547 230.699 41.56C230.699 40.9813 230.521 40.5613 230.167 40.3C229.821 40.0293 229.266 39.894 228.501 39.894C227.931 39.894 227.217 39.9407 226.359 40.034V38.97L226.625 34.798H231.889V36.128H227.983L227.815 38.718C228.216 38.6433 228.641 38.606 229.089 38.606C230.106 38.606 230.904 38.8673 231.483 39.39C232.071 39.9127 232.365 40.6267 232.365 41.532C232.365 42.5027 232.029 43.2773 231.357 43.856C230.685 44.4253 229.779 44.71 228.641 44.71C227.707 44.71 226.811 44.5233 225.953 44.15V42.834ZM238.174 35.904C237.324 35.904 236.69 36.184 236.27 36.744C235.85 37.304 235.616 38.1673 235.57 39.334C236.316 38.858 237.11 38.62 237.95 38.62C238.827 38.62 239.532 38.886 240.064 39.418C240.596 39.9407 240.862 40.6407 240.862 41.518C240.862 42.134 240.722 42.6847 240.442 43.17C240.171 43.646 239.774 44.024 239.252 44.304C238.738 44.5747 238.136 44.71 237.446 44.71C236.288 44.71 235.411 44.3133 234.814 43.52C234.226 42.7267 233.932 41.5553 233.932 40.006C233.932 38.2887 234.282 36.954 234.982 36.002C235.691 35.05 236.685 34.574 237.964 34.574C238.365 34.574 238.766 34.6207 239.168 34.714C239.578 34.798 239.928 34.9147 240.218 35.064V36.282C239.928 36.17 239.592 36.0813 239.21 36.016C238.836 35.9413 238.491 35.904 238.174 35.904ZM237.446 39.908C236.83 39.908 236.204 40.0713 235.57 40.398C235.635 42.386 236.298 43.38 237.558 43.38C238.071 43.38 238.472 43.226 238.762 42.918C239.051 42.61 239.196 42.1807 239.196 41.63C239.196 41.07 239.046 40.6453 238.748 40.356C238.449 40.0573 238.015 39.908 237.446 39.908ZM245.565 43.338C246.228 43.338 246.708 43.044 247.007 42.456C247.315 41.868 247.469 40.93 247.469 39.642C247.469 38.354 247.315 37.416 247.007 36.828C246.708 36.24 246.228 35.946 245.565 35.946C244.902 35.946 244.417 36.24 244.109 36.828C243.81 37.416 243.661 38.354 243.661 39.642C243.661 40.93 243.81 41.868 244.109 42.456C244.417 43.044 244.902 43.338 245.565 43.338ZM245.565 44.71C244.408 44.71 243.516 44.276 242.891 43.408C242.275 42.5307 241.967 41.2753 241.967 39.642C241.967 38.0087 242.275 36.758 242.891 35.89C243.516 35.0127 244.408 34.574 245.565 34.574C246.722 34.574 247.609 35.0127 248.225 35.89C248.85 36.758 249.163 38.0087 249.163 39.642C249.163 41.2753 248.85 42.5307 248.225 43.408C247.609 44.276 246.722 44.71 245.565 44.71ZM253.768 43.338C254.431 43.338 254.911 43.044 255.21 42.456C255.518 41.868 255.672 40.93 255.672 39.642C255.672 38.354 255.518 37.416 255.21 36.828C254.911 36.24 254.431 35.946 253.768 35.946C253.105 35.946 252.62 36.24 252.312 36.828C252.013 37.416 251.864 38.354 251.864 39.642C251.864 40.93 252.013 41.868 252.312 42.456C252.62 43.044 253.105 43.338 253.768 43.338ZM253.768 44.71C252.611 44.71 251.719 44.276 251.094 43.408C250.478 42.5307 250.17 41.2753 250.17 39.642C250.17 38.0087 250.478 36.758 251.094 35.89C251.719 35.0127 252.611 34.574 253.768 34.574C254.925 34.574 255.812 35.0127 256.428 35.89C257.053 36.758 257.366 38.0087 257.366 39.642C257.366 41.2753 257.053 42.5307 256.428 43.408C255.812 44.276 254.925 44.71 253.768 44.71ZM261.943 38.928C262.064 38.9187 262.186 38.914 262.307 38.914C262.82 38.914 263.282 39.0307 263.693 39.264C264.113 39.488 264.444 39.81 264.687 40.23C264.939 40.65 265.065 41.1307 265.065 41.672C265.065 42.26 264.916 42.7827 264.617 43.24C264.318 43.6973 263.889 44.0567 263.329 44.318C262.769 44.5793 262.116 44.71 261.369 44.71C260.473 44.71 259.596 44.5233 258.737 44.15V42.834C259.764 43.1793 260.627 43.352 261.327 43.352C261.99 43.352 262.498 43.2073 262.853 42.918C263.217 42.6193 263.399 42.1993 263.399 41.658C263.399 40.6313 262.746 40.118 261.439 40.118C261.019 40.118 260.566 40.146 260.081 40.202V39.124L262.839 36.128H258.877V34.798H264.659V36.072L261.943 38.928ZM271.042 44.5V42.484H266.45V41.238L270.972 34.798H272.54V41.168H273.842V42.484H272.54V44.5H271.042ZM271.042 41.168V36.898L268.06 41.168H271.042Z" fill="white"/>
<g clip-path="url(#clip1_114_756)">
<rect x="295" y="10" width="764" height="40" rx="4" fill="white"/>
<path d="M1014 10H1055C1057.21 10 1059 11.7909 1059 14V46C1059 48.2091 1057.21 50 1055 50H1014V10Z" fill="#F4BF76"/>
<path d="M1028.62 33C1030.01 34.3867 1031.85 35.2191 1033.81 35.3405C1035.76 35.4619 1037.7 34.8638 1039.24 33.659L1044.56 38.977C1044.75 39.1592 1045 39.26 1045.26 39.2577C1045.53 39.2554 1045.78 39.1502 1045.96 38.9648C1046.15 38.7794 1046.25 38.5286 1046.26 38.2664C1046.26 38.0042 1046.16 37.7516 1045.97 37.563L1040.66 32.245C1041.92 30.6302 1042.51 28.5961 1042.32 26.5578C1042.13 24.5194 1041.17 22.6302 1039.64 21.2755C1038.1 19.9207 1036.11 19.2025 1034.06 19.2673C1032.01 19.332 1030.07 20.1749 1028.62 21.624C1027.88 22.3708 1027.28 23.2575 1026.88 24.2335C1026.48 25.2095 1026.27 26.2556 1026.27 27.312C1026.27 28.3684 1026.48 29.4145 1026.88 30.3905C1027.28 31.3665 1027.88 32.2532 1028.62 33ZM1030.04 23.04C1031.03 22.0514 1032.33 21.4362 1033.72 21.2992C1035.11 21.1622 1036.51 21.5117 1037.67 22.2884C1038.83 23.0651 1039.69 24.2208 1040.09 25.5586C1040.5 26.8964 1040.43 28.3336 1039.89 29.6253C1039.36 30.9169 1038.39 31.9831 1037.16 32.6423C1035.93 33.3014 1034.5 33.5127 1033.13 33.2401C1031.76 32.9675 1030.53 32.2279 1029.64 31.1473C1028.75 30.0668 1028.27 28.712 1028.27 27.314C1028.27 26.5196 1028.42 25.7325 1028.72 24.9985C1029.03 24.2645 1029.47 23.5981 1030.04 23.038V23.04Z" fill="#18191A"/>
<path d="M295 14C295 11.7909 296.791 10 299 10H347V50H299C296.791 50 295 48.2091 295 46V14Z" fill="#F3F3F3"/>
<path d="M310.312 34L309.544 31.792H306.124L305.38 34H304.12L307.192 25.684H308.512L311.584 34H310.312ZM306.436 30.868H309.232L307.828 26.788L306.436 30.868ZM314.759 33.916C314.495 34.012 314.207 34.06 313.895 34.06C313.471 34.06 313.147 33.94 312.923 33.7C312.699 33.452 312.587 33.1 312.587 32.644V25.12H313.775V32.572C313.775 32.756 313.811 32.892 313.883 32.98C313.963 33.06 314.091 33.1 314.267 33.1C314.427 33.1 314.591 33.088 314.759 33.064V33.916ZM318.181 33.916C317.917 34.012 317.629 34.06 317.317 34.06C316.893 34.06 316.569 33.94 316.345 33.7C316.121 33.452 316.009 33.1 316.009 32.644V25.12H317.197V32.572C317.197 32.756 317.233 32.892 317.305 32.98C317.385 33.06 317.513 33.1 317.689 33.1C317.849 33.1 318.013 33.088 318.181 33.064V33.916Z" fill="#18191A"/>
<path d="M326.5 27H335.5L331 33.75L326.5 27Z" fill="#A3A3A3"/>
</g>
<path d="M1099 23.3335H1079V36.6665H1099V23.3335Z" fill="#F0F0F0"/>
<path d="M1099 23.3335H1079V27.7778H1099V23.3335Z" fill="#FF9811"/>
<path d="M1099 32.2222H1079V36.6665H1099V32.2222Z" fill="#6DA544"/>
<path d="M1089 31.7147C1089.95 31.7147 1090.71 30.947 1090.71 30C1090.71 29.053 1089.95 28.2853 1089 28.2853C1088.05 28.2853 1087.29 29.053 1087.29 30C1087.29 30.947 1088.05 31.7147 1089 31.7147Z" fill="#0052B4"/>
<path d="M1089 31.0717C1089.59 31.0717 1090.07 30.5919 1090.07 30C1090.07 29.4082 1089.59 28.9284 1089 28.9284C1088.41 28.9284 1087.93 29.4082 1087.93 30C1087.93 30.5919 1088.41 31.0717 1089 31.0717Z" fill="#F0F0F0"/>
<path d="M1089 28.6776L1089.33 29.4274L1090.15 29.3388L1089.66 30L1090.15 30.6612L1089.33 30.5726L1089 31.3224L1088.67 30.5726L1087.85 30.6612L1088.34 30L1087.85 29.3388L1088.67 29.4274L1089 28.6776Z" fill="#0052B4"/>
<path d="M1108 28H1114L1111 32.5L1108 28Z" fill="#A8ACB1"/>
<path d="M1141.38 23.5V19.744H1137.23V23.5H1136.01V15.184H1137.23V18.76H1141.38V15.184H1142.61V23.5H1141.38ZM1145.34 20.716C1145.36 21.404 1145.53 21.912 1145.85 22.24C1146.17 22.568 1146.68 22.732 1147.36 22.732C1147.99 22.732 1148.63 22.608 1149.29 22.36V23.212C1148.71 23.524 1148.01 23.68 1147.18 23.68C1146.19 23.68 1145.45 23.408 1144.95 22.864C1144.44 22.32 1144.19 21.516 1144.19 20.452C1144.19 19.436 1144.44 18.648 1144.95 18.088C1145.45 17.52 1146.15 17.236 1147.06 17.236C1147.82 17.236 1148.4 17.452 1148.81 17.884C1149.22 18.308 1149.42 18.912 1149.42 19.696C1149.42 20.072 1149.39 20.412 1149.33 20.716H1145.34ZM1147 18.136C1146.49 18.136 1146.1 18.288 1145.82 18.592C1145.54 18.888 1145.38 19.332 1145.34 19.924H1148.33C1148.34 19.86 1148.34 19.756 1148.34 19.612C1148.34 19.124 1148.23 18.756 1147.99 18.508C1147.77 18.26 1147.44 18.136 1147 18.136ZM1153.02 23.416C1152.76 23.512 1152.47 23.56 1152.16 23.56C1151.74 23.56 1151.41 23.44 1151.19 23.2C1150.96 22.952 1150.85 22.6 1150.85 22.144V14.62H1152.04V22.072C1152.04 22.256 1152.08 22.392 1152.15 22.48C1152.23 22.56 1152.36 22.6 1152.53 22.6C1152.69 22.6 1152.86 22.588 1153.02 22.564V23.416ZM1156.45 23.416C1156.18 23.512 1155.89 23.56 1155.58 23.56C1155.16 23.56 1154.83 23.44 1154.61 23.2C1154.39 22.952 1154.27 22.6 1154.27 22.144V14.62H1155.46V22.072C1155.46 22.256 1155.5 22.392 1155.57 22.48C1155.65 22.56 1155.78 22.6 1155.95 22.6C1156.11 22.6 1156.28 22.588 1156.45 22.564V23.416ZM1160.29 23.68C1159.38 23.68 1158.66 23.396 1158.15 22.828C1157.64 22.26 1157.38 21.468 1157.38 20.452C1157.38 19.444 1157.64 18.656 1158.15 18.088C1158.66 17.52 1159.38 17.236 1160.29 17.236C1161.2 17.236 1161.91 17.52 1162.42 18.088C1162.94 18.656 1163.19 19.444 1163.19 20.452C1163.19 21.468 1162.94 22.26 1162.42 22.828C1161.91 23.396 1161.2 23.68 1160.29 23.68ZM1160.29 22.72C1161.42 22.72 1161.98 21.964 1161.98 20.452C1161.98 18.948 1161.42 18.196 1160.29 18.196C1159.16 18.196 1158.6 18.948 1158.6 20.452C1158.6 21.964 1159.16 22.72 1160.29 22.72ZM1164.13 25.336L1164.74 22.108H1165.13C1165.4 22.108 1165.59 22.144 1165.7 22.216C1165.82 22.28 1165.88 22.392 1165.88 22.552C1165.88 22.68 1165.83 22.904 1165.71 23.224L1164.95 25.336H1164.13ZM1170.2 22.444C1170.65 22.596 1171.11 22.672 1171.55 22.672C1172.05 22.672 1172.41 22.548 1172.62 22.3C1172.84 22.044 1172.95 21.628 1172.95 21.052V15.184H1174.17V21.028C1174.17 22.812 1173.33 23.704 1171.66 23.704C1171.19 23.704 1170.7 23.6 1170.2 23.392V22.444ZM1178.61 23.68C1177.69 23.68 1176.98 23.396 1176.47 22.828C1175.96 22.26 1175.7 21.468 1175.7 20.452C1175.7 19.444 1175.96 18.656 1176.47 18.088C1176.98 17.52 1177.69 17.236 1178.61 17.236C1179.52 17.236 1180.23 17.52 1180.74 18.088C1181.25 18.656 1181.51 19.444 1181.51 20.452C1181.51 21.468 1181.25 22.26 1180.74 22.828C1180.23 23.396 1179.52 23.68 1178.61 23.68ZM1178.61 22.72C1179.73 22.72 1180.3 21.964 1180.3 20.452C1180.3 18.948 1179.73 18.196 1178.61 18.196C1177.48 18.196 1176.91 18.948 1176.91 20.452C1176.91 21.964 1177.48 22.72 1178.61 22.72ZM1187.09 23.5V19.432C1187.09 19.008 1187 18.696 1186.83 18.496C1186.66 18.296 1186.39 18.196 1186.02 18.196C1185.39 18.196 1184.77 18.4 1184.16 18.808V23.5H1182.97V14.62H1184.16V18.04C1184.92 17.504 1185.7 17.236 1186.49 17.236C1187.07 17.236 1187.52 17.392 1187.82 17.704C1188.13 18.008 1188.28 18.452 1188.28 19.036V23.5H1187.09ZM1194.14 23.5V19.432C1194.14 19.008 1194.06 18.696 1193.88 18.496C1193.71 18.296 1193.44 18.196 1193.08 18.196C1192.44 18.196 1191.82 18.4 1191.22 18.808V23.5H1190.03V17.416H1191.02L1191.14 18.088C1191.9 17.52 1192.7 17.236 1193.54 17.236C1194.13 17.236 1194.57 17.392 1194.88 17.704C1195.18 18.008 1195.33 18.452 1195.33 19.036V23.5H1194.14Z" fill="white"/>
<path d="M1142.2 44.5L1141.38 42.064H1137.66L1136.88 44.5H1135.11L1138.64 34.798H1140.49L1144 44.5H1142.2ZM1138.07 40.818H1140.99L1139.52 36.338L1138.07 40.818ZM1150 44.22C1149.45 44.5093 1148.79 44.654 1148.03 44.654C1146.94 44.654 1146.1 44.3367 1145.51 43.702C1144.92 43.0673 1144.63 42.1667 1144.63 41C1144.63 39.8053 1144.93 38.8767 1145.54 38.214C1146.14 37.5513 1146.99 37.22 1148.08 37.22C1148.77 37.22 1149.39 37.36 1149.95 37.64V38.802C1149.32 38.6247 1148.79 38.536 1148.35 38.536C1147.65 38.536 1147.13 38.7273 1146.8 39.11C1146.47 39.4833 1146.31 40.0667 1146.31 40.86V41.042C1146.31 41.826 1146.47 42.4047 1146.8 42.778C1147.13 43.1513 1147.65 43.338 1148.35 43.338C1148.85 43.338 1149.41 43.2447 1150 43.058V44.22ZM1156.31 44.22C1155.75 44.5093 1155.1 44.654 1154.33 44.654C1153.24 44.654 1152.4 44.3367 1151.81 43.702C1151.22 43.0673 1150.93 42.1667 1150.93 41C1150.93 39.8053 1151.23 38.8767 1151.84 38.214C1152.45 37.5513 1153.3 37.22 1154.39 37.22C1155.07 37.22 1155.69 37.36 1156.25 37.64V38.802C1155.62 38.6247 1155.09 38.536 1154.65 38.536C1153.95 38.536 1153.44 38.7273 1153.1 39.11C1152.77 39.4833 1152.61 40.0667 1152.61 40.86V41.042C1152.61 41.826 1152.77 42.4047 1153.1 42.778C1153.44 43.1513 1153.95 43.338 1154.65 43.338C1155.16 43.338 1155.71 43.2447 1156.31 43.058V44.22ZM1160.68 44.71C1159.59 44.71 1158.75 44.3787 1158.14 43.716C1157.54 43.044 1157.23 42.1153 1157.23 40.93C1157.23 39.7447 1157.54 38.8207 1158.14 38.158C1158.75 37.4953 1159.59 37.164 1160.68 37.164C1161.76 37.164 1162.6 37.4953 1163.21 38.158C1163.82 38.8207 1164.12 39.7447 1164.12 40.93C1164.12 42.1153 1163.82 43.044 1163.21 43.716C1162.6 44.3787 1161.76 44.71 1160.68 44.71ZM1160.68 43.408C1161.85 43.408 1162.44 42.582 1162.44 40.93C1162.44 39.2873 1161.85 38.466 1160.68 38.466C1159.5 38.466 1158.91 39.2873 1158.91 40.93C1158.91 42.582 1159.5 43.408 1160.68 43.408ZM1170.56 44.5L1170.39 43.716C1169.51 44.3787 1168.64 44.71 1167.77 44.71C1167.11 44.71 1166.6 44.528 1166.23 44.164C1165.88 43.7907 1165.7 43.2587 1165.7 42.568V37.374H1167.35V42.078C1167.35 42.5353 1167.45 42.8713 1167.63 43.086C1167.82 43.3007 1168.12 43.408 1168.53 43.408C1169.11 43.408 1169.69 43.2167 1170.28 42.834V37.374H1171.93V44.5H1170.56ZM1178.67 44.5V39.782C1178.67 39.3247 1178.57 38.9933 1178.39 38.788C1178.2 38.5733 1177.9 38.466 1177.49 38.466C1176.87 38.466 1176.24 38.6713 1175.6 39.082V44.5H1173.95V37.374H1175.32L1175.49 38.158C1176.36 37.4953 1177.28 37.164 1178.23 37.164C1178.91 37.164 1179.43 37.346 1179.79 37.71C1180.14 38.0647 1180.32 38.5827 1180.32 39.264V44.5H1178.67ZM1186.4 44.332C1185.92 44.5093 1185.4 44.598 1184.84 44.598C1184.1 44.598 1183.55 44.4253 1183.2 44.08C1182.84 43.7347 1182.67 43.2073 1182.67 42.498V38.634H1181.46V37.598L1182.72 37.416L1182.97 35.414H1184.32V37.374H1186.35V38.634H1184.32V42.414C1184.32 42.7313 1184.39 42.96 1184.54 43.1C1184.7 43.2307 1184.96 43.296 1185.33 43.296C1185.72 43.296 1186.08 43.2587 1186.4 43.184V44.332ZM1190.95 42.568C1190.95 42.3627 1190.88 42.1993 1190.75 42.078C1190.62 41.9473 1190.38 41.8167 1190.02 41.686L1188.86 41.238C1187.82 40.8367 1187.29 40.1833 1187.29 39.278C1187.29 38.6247 1187.54 38.1113 1188.02 37.738C1188.51 37.3553 1189.16 37.164 1189.97 37.164C1190.74 37.164 1191.44 37.3133 1192.07 37.612V38.774C1191.34 38.5407 1190.67 38.424 1190.07 38.424C1189.64 38.424 1189.32 38.4893 1189.11 38.62C1188.92 38.7413 1188.82 38.9373 1188.82 39.208C1188.82 39.4133 1188.89 39.5813 1189.03 39.712C1189.18 39.8333 1189.44 39.9687 1189.81 40.118L1190.89 40.538C1191.45 40.7527 1191.85 41.0093 1192.1 41.308C1192.35 41.6067 1192.47 41.9847 1192.47 42.442C1192.47 43.142 1192.22 43.6973 1191.72 44.108C1191.21 44.5093 1190.51 44.71 1189.62 44.71C1189.18 44.71 1188.75 44.6633 1188.33 44.57C1187.91 44.4767 1187.54 44.346 1187.22 44.178V43.016C1188.12 43.3053 1188.91 43.45 1189.6 43.45C1190.07 43.45 1190.41 43.38 1190.63 43.24C1190.84 43.0907 1190.95 42.8667 1190.95 42.568ZM1196.99 42.036C1196.99 41.4013 1197.16 40.846 1197.52 40.37C1197.87 39.8847 1198.39 39.4973 1199.06 39.208C1198.6 38.6853 1198.29 38.2607 1198.12 37.934C1197.95 37.598 1197.87 37.248 1197.87 36.884C1197.87 36.1747 1198.12 35.6147 1198.61 35.204C1199.11 34.784 1199.8 34.574 1200.67 34.574C1201.5 34.574 1202.16 34.7653 1202.66 35.148C1203.16 35.5213 1203.41 36.0207 1203.41 36.646C1203.41 37.6633 1202.73 38.536 1201.37 39.264L1201.06 39.432L1203.31 41.952C1203.73 41.2987 1203.94 40.4913 1203.94 39.53V39.096H1205.34V39.642C1205.34 40.9393 1204.98 42.0453 1204.24 42.96C1204.4 43.0907 1204.57 43.1887 1204.76 43.254C1204.95 43.31 1205.19 43.338 1205.46 43.338C1205.75 43.338 1206.03 43.3147 1206.31 43.268V44.374C1206.17 44.4393 1205.97 44.4907 1205.72 44.528C1205.48 44.5747 1205.24 44.598 1205.01 44.598C1204.68 44.598 1204.38 44.542 1204.1 44.43C1203.82 44.318 1203.54 44.136 1203.26 43.884C1202.43 44.4533 1201.46 44.738 1200.35 44.738C1199.3 44.738 1198.48 44.5 1197.88 44.024C1197.28 43.5387 1196.99 42.876 1196.99 42.036ZM1200.44 43.464C1201.14 43.464 1201.77 43.296 1202.32 42.96L1199.76 40.006C1198.94 40.4727 1198.53 41.1027 1198.53 41.896C1198.53 42.4 1198.69 42.7873 1199.02 43.058C1199.34 43.3287 1199.82 43.464 1200.44 43.464ZM1199.34 36.912C1199.34 37.1547 1199.41 37.3973 1199.55 37.64C1199.69 37.8733 1199.96 38.214 1200.37 38.662L1200.78 38.452C1201.15 38.256 1201.45 38.0087 1201.66 37.71C1201.88 37.4113 1201.98 37.1033 1201.98 36.786C1201.98 36.45 1201.86 36.1887 1201.62 36.002C1201.38 35.806 1201.06 35.708 1200.67 35.708C1200.26 35.708 1199.93 35.8153 1199.69 36.03C1199.45 36.2447 1199.34 36.5387 1199.34 36.912ZM1211.66 44.5V34.798H1213.37V43.1H1217.83V44.5H1211.66ZM1219.02 44.5V37.374H1220.68V44.5H1219.02ZM1219.85 36.198C1219.54 36.198 1219.3 36.114 1219.12 35.946C1218.95 35.778 1218.86 35.5447 1218.86 35.246C1218.86 34.9473 1218.95 34.714 1219.12 34.546C1219.3 34.378 1219.54 34.294 1219.85 34.294C1220.16 34.294 1220.4 34.378 1220.58 34.546C1220.76 34.714 1220.84 34.9473 1220.84 35.246C1220.84 35.5447 1220.76 35.778 1220.58 35.946C1220.4 36.114 1220.16 36.198 1219.85 36.198ZM1225.96 42.568C1225.96 42.3627 1225.9 42.1993 1225.77 42.078C1225.64 41.9473 1225.39 41.8167 1225.04 41.686L1223.88 41.238C1222.83 40.8367 1222.31 40.1833 1222.31 39.278C1222.31 38.6247 1222.55 38.1113 1223.04 37.738C1223.52 37.3553 1224.17 37.164 1224.98 37.164C1225.76 37.164 1226.46 37.3133 1227.08 37.612V38.774C1226.35 38.5407 1225.69 38.424 1225.08 38.424C1224.65 38.424 1224.33 38.4893 1224.13 38.62C1223.93 38.7413 1223.83 38.9373 1223.83 39.208C1223.83 39.4133 1223.9 39.5813 1224.04 39.712C1224.19 39.8333 1224.46 39.9687 1224.83 40.118L1225.91 40.538C1226.47 40.7527 1226.87 41.0093 1227.11 41.308C1227.36 41.6067 1227.49 41.9847 1227.49 42.442C1227.49 43.142 1227.24 43.6973 1226.73 44.108C1226.23 44.5093 1225.53 44.71 1224.63 44.71C1224.19 44.71 1223.76 44.6633 1223.34 44.57C1222.92 44.4767 1222.56 44.346 1222.24 44.178V43.016C1223.13 43.3053 1223.93 43.45 1224.62 43.45C1225.09 43.45 1225.43 43.38 1225.64 43.24C1225.86 43.0907 1225.96 42.8667 1225.96 42.568ZM1232.97 44.332C1232.48 44.5093 1231.96 44.598 1231.4 44.598C1230.66 44.598 1230.12 44.4253 1229.76 44.08C1229.41 43.7347 1229.23 43.2073 1229.23 42.498V38.634H1228.03V37.598L1229.29 37.416L1229.54 35.414H1230.88V37.374H1232.91V38.634H1230.88V42.414C1230.88 42.7313 1230.96 42.96 1231.11 43.1C1231.27 43.2307 1231.53 43.296 1231.89 43.296C1232.28 43.296 1232.64 43.2587 1232.97 43.184V44.332ZM1237.52 42.568C1237.52 42.3627 1237.45 42.1993 1237.32 42.078C1237.19 41.9473 1236.95 41.8167 1236.59 41.686L1235.43 41.238C1234.38 40.8367 1233.86 40.1833 1233.86 39.278C1233.86 38.6247 1234.1 38.1113 1234.59 37.738C1235.07 37.3553 1235.72 37.164 1236.54 37.164C1237.31 37.164 1238.01 37.3133 1238.64 37.612V38.774C1237.91 38.5407 1237.24 38.424 1236.63 38.424C1236.2 38.424 1235.89 38.4893 1235.68 38.62C1235.49 38.7413 1235.39 38.9373 1235.39 39.208C1235.39 39.4133 1235.46 39.5813 1235.6 39.712C1235.75 39.8333 1236.01 39.9687 1236.38 40.118L1237.46 40.538C1238.02 40.7527 1238.42 41.0093 1238.66 41.308C1238.92 41.6067 1239.04 41.9847 1239.04 42.442C1239.04 43.142 1238.79 43.6973 1238.29 44.108C1237.78 44.5093 1237.08 44.71 1236.19 44.71C1235.75 44.71 1235.32 44.6633 1234.9 44.57C1234.48 44.4767 1234.11 44.346 1233.79 44.178V43.016C1234.69 43.3053 1235.48 43.45 1236.17 43.45C1236.64 43.45 1236.98 43.38 1237.19 43.24C1237.41 43.0907 1237.52 42.8667 1237.52 42.568Z" fill="white"/>
<path d="M1249 28H1255L1252 32.5L1249 28Z" fill="#A8ACB1"/>
<path d="M1281.01 23.5V15.184H1284.04C1284.85 15.184 1285.5 15.408 1285.98 15.856C1286.46 16.296 1286.7 16.892 1286.7 17.644C1286.7 18.196 1286.54 18.676 1286.24 19.084C1285.94 19.484 1285.52 19.776 1284.98 19.96L1287.19 23.5H1285.86L1283.82 20.152H1282.2V23.5H1281.01ZM1282.2 19.18H1283.89C1284.4 19.18 1284.79 19.052 1285.05 18.796C1285.32 18.54 1285.46 18.16 1285.46 17.656C1285.46 17.16 1285.33 16.788 1285.08 16.54C1284.82 16.284 1284.44 16.156 1283.94 16.156H1282.2V19.18ZM1288.97 20.716C1288.99 21.404 1289.15 21.912 1289.47 22.24C1289.8 22.568 1290.31 22.732 1290.99 22.732C1291.62 22.732 1292.26 22.608 1292.92 22.36V23.212C1292.34 23.524 1291.64 23.68 1290.81 23.68C1289.82 23.68 1289.08 23.408 1288.57 22.864C1288.07 22.32 1287.82 21.516 1287.82 20.452C1287.82 19.436 1288.07 18.648 1288.57 18.088C1289.08 17.52 1289.78 17.236 1290.69 17.236C1291.45 17.236 1292.03 17.452 1292.44 17.884C1292.85 18.308 1293.05 18.912 1293.05 19.696C1293.05 20.072 1293.02 20.412 1292.95 20.716H1288.97ZM1290.63 18.136C1290.12 18.136 1289.73 18.288 1289.45 18.592C1289.17 18.888 1289.01 19.332 1288.97 19.924H1291.96C1291.97 19.86 1291.97 19.756 1291.97 19.612C1291.97 19.124 1291.85 18.756 1291.62 18.508C1291.4 18.26 1291.07 18.136 1290.63 18.136ZM1297.9 23.356C1297.51 23.508 1297.07 23.584 1296.57 23.584C1295.43 23.584 1294.87 23.016 1294.87 21.88V18.352H1293.76V17.584L1294.9 17.44L1295.08 15.712H1296.05V17.416H1297.85V18.352H1296.05V21.82C1296.05 22.116 1296.12 22.324 1296.25 22.444C1296.38 22.564 1296.61 22.624 1296.93 22.624C1297.26 22.624 1297.58 22.584 1297.9 22.504V23.356ZM1303.22 23.5L1303.08 22.852C1302.34 23.404 1301.58 23.68 1300.79 23.68C1300.22 23.68 1299.79 23.52 1299.48 23.2C1299.18 22.88 1299.03 22.428 1299.03 21.844V17.416H1300.22V21.46C1300.22 21.892 1300.3 22.212 1300.47 22.42C1300.64 22.62 1300.9 22.72 1301.27 22.72C1301.85 22.72 1302.43 22.528 1303.01 22.144V17.416H1304.2V23.5H1303.22ZM1305.98 23.5V17.416H1306.97L1307.11 18.316C1307.33 18.076 1307.54 17.892 1307.73 17.764C1307.92 17.628 1308.12 17.528 1308.32 17.464C1308.52 17.4 1308.73 17.368 1308.97 17.368C1309.12 17.368 1309.28 17.38 1309.46 17.404V18.484C1309.2 18.452 1308.99 18.436 1308.81 18.436C1308.17 18.436 1307.62 18.628 1307.17 19.012V23.5H1305.98ZM1314.57 23.5V19.432C1314.57 19.008 1314.48 18.696 1314.31 18.496C1314.14 18.296 1313.87 18.196 1313.5 18.196C1312.87 18.196 1312.25 18.4 1311.64 18.808V23.5H1310.45V17.416H1311.45L1311.57 18.088C1312.33 17.52 1313.13 17.236 1313.97 17.236C1314.55 17.236 1315 17.392 1315.3 17.704C1315.61 18.008 1315.76 18.452 1315.76 19.036V23.5H1314.57ZM1320.37 21.868C1320.37 21.676 1320.3 21.52 1320.17 21.4C1320.05 21.28 1319.83 21.16 1319.5 21.04L1318.48 20.656C1317.59 20.328 1317.15 19.768 1317.15 18.976C1317.15 18.456 1317.35 18.036 1317.75 17.716C1318.16 17.396 1318.69 17.236 1319.35 17.236C1319.98 17.236 1320.57 17.364 1321.13 17.62V18.46C1320.51 18.26 1319.93 18.16 1319.41 18.16C1318.64 18.16 1318.25 18.42 1318.25 18.94C1318.25 19.148 1318.32 19.312 1318.45 19.432C1318.57 19.552 1318.83 19.684 1319.2 19.828L1320.14 20.188C1320.61 20.372 1320.95 20.592 1321.16 20.848C1321.37 21.096 1321.47 21.42 1321.47 21.82C1321.47 22.388 1321.26 22.84 1320.83 23.176C1320.41 23.512 1319.85 23.68 1319.14 23.68C1318.35 23.68 1317.66 23.528 1317.08 23.224V22.384C1317.83 22.632 1318.53 22.756 1319.17 22.756C1319.56 22.756 1319.85 22.68 1320.05 22.528C1320.26 22.376 1320.37 22.156 1320.37 21.868Z" fill="white"/>
<path d="M1280.49 42.036C1280.49 41.4013 1280.67 40.846 1281.02 40.37C1281.38 39.8847 1281.89 39.4973 1282.56 39.208C1282.1 38.6853 1281.79 38.2607 1281.62 37.934C1281.46 37.598 1281.37 37.248 1281.37 36.884C1281.37 36.1747 1281.62 35.6147 1282.11 35.204C1282.62 34.784 1283.3 34.574 1284.17 34.574C1285 34.574 1285.67 34.7653 1286.16 35.148C1286.66 35.5213 1286.92 36.0207 1286.92 36.646C1286.92 37.6633 1286.23 38.536 1284.87 39.264L1284.56 39.432L1286.82 41.952C1287.24 41.2987 1287.45 40.4913 1287.45 39.53V39.096H1288.85V39.642C1288.85 40.9393 1288.48 42.0453 1287.74 42.96C1287.9 43.0907 1288.07 43.1887 1288.26 43.254C1288.46 43.31 1288.69 43.338 1288.96 43.338C1289.25 43.338 1289.53 43.3147 1289.81 43.268V44.374C1289.67 44.4393 1289.48 44.4907 1289.23 44.528C1288.98 44.5747 1288.75 44.598 1288.51 44.598C1288.19 44.598 1287.88 44.542 1287.6 44.43C1287.32 44.318 1287.04 44.136 1286.76 43.884C1285.93 44.4533 1284.96 44.738 1283.85 44.738C1282.8 44.738 1281.98 44.5 1281.39 44.024C1280.79 43.5387 1280.49 42.876 1280.49 42.036ZM1283.95 43.464C1284.65 43.464 1285.27 43.296 1285.82 42.96L1283.26 40.006C1282.44 40.4727 1282.03 41.1027 1282.03 41.896C1282.03 42.4 1282.19 42.7873 1282.52 43.058C1282.85 43.3287 1283.32 43.464 1283.95 43.464ZM1282.84 36.912C1282.84 37.1547 1282.91 37.3973 1283.05 37.64C1283.19 37.8733 1283.47 38.214 1283.88 38.662L1284.28 38.452C1284.66 38.256 1284.95 38.0087 1285.17 37.71C1285.38 37.4113 1285.49 37.1033 1285.49 36.786C1285.49 36.45 1285.37 36.1887 1285.12 36.002C1284.88 35.806 1284.56 35.708 1284.17 35.708C1283.76 35.708 1283.43 35.8153 1283.19 36.03C1282.96 36.2447 1282.84 36.5387 1282.84 36.912ZM1296.48 39.656C1296.48 40.8507 1296.73 41.7607 1297.22 42.386C1297.71 43.002 1298.43 43.31 1299.38 43.31C1300.32 43.31 1301.04 43.002 1301.53 42.386C1302.03 41.7607 1302.27 40.8507 1302.27 39.656C1302.27 38.4613 1302.03 37.556 1301.53 36.94C1301.04 36.3147 1300.32 36.002 1299.38 36.002C1298.43 36.002 1297.71 36.3147 1297.22 36.94C1296.73 37.556 1296.48 38.4613 1296.48 39.656ZM1294.74 39.656C1294.74 38.6293 1294.92 37.7333 1295.29 36.968C1295.65 36.2027 1296.18 35.6147 1296.88 35.204C1297.58 34.784 1298.41 34.574 1299.38 34.574C1300.31 34.574 1301.12 34.7747 1301.81 35.176C1302.51 35.5773 1303.05 36.1607 1303.44 36.926C1303.82 37.6913 1304.01 38.6013 1304.01 39.656C1304.01 40.6827 1303.83 41.5787 1303.46 42.344C1303.1 43.1093 1302.57 43.702 1301.87 44.122C1301.17 44.5327 1300.34 44.738 1299.38 44.738C1298.44 44.738 1297.63 44.5373 1296.93 44.136C1296.24 43.7347 1295.7 43.1513 1295.32 42.386C1294.93 41.6207 1294.74 40.7107 1294.74 39.656ZM1305.74 44.5V37.374H1307.11L1307.34 38.438C1307.71 38.0273 1308.06 37.738 1308.39 37.57C1308.71 37.402 1309.07 37.318 1309.45 37.318C1309.63 37.318 1309.82 37.332 1310.02 37.36V38.872C1309.76 38.8253 1309.5 38.802 1309.23 38.802C1308.54 38.802 1307.92 38.9793 1307.39 39.334V44.5H1305.74ZM1316.1 44.5L1315.93 43.814C1315.29 44.374 1314.56 44.654 1313.73 44.654C1312.83 44.654 1312.12 44.3227 1311.57 43.66C1311.04 42.988 1310.78 42.0873 1310.78 40.958C1310.78 40.2113 1310.9 39.5533 1311.14 38.984C1311.38 38.4147 1311.73 37.9713 1312.19 37.654C1312.65 37.3273 1313.19 37.164 1313.81 37.164C1314.56 37.164 1315.24 37.4067 1315.86 37.892V34.14H1317.51V44.5H1316.1ZM1314.25 43.352C1314.8 43.352 1315.34 43.1747 1315.86 42.82V38.97C1315.38 38.634 1314.86 38.466 1314.28 38.466C1313.65 38.466 1313.19 38.6667 1312.89 39.068C1312.6 39.46 1312.46 40.0667 1312.46 40.888C1312.46 42.5307 1313.05 43.352 1314.25 43.352ZM1320.68 41.336C1320.71 42.0453 1320.91 42.568 1321.27 42.904C1321.65 43.2307 1322.21 43.394 1322.98 43.394C1323.67 43.394 1324.42 43.2633 1325.22 43.002V44.164C1324.9 44.332 1324.52 44.4627 1324.09 44.556C1323.66 44.6587 1323.21 44.71 1322.74 44.71C1321.57 44.71 1320.67 44.3927 1320.07 43.758C1319.46 43.1233 1319.16 42.1993 1319.16 40.986C1319.16 39.782 1319.45 38.844 1320.04 38.172C1320.64 37.5 1321.47 37.164 1322.53 37.164C1323.45 37.164 1324.15 37.416 1324.63 37.92C1325.13 38.4147 1325.37 39.1193 1325.37 40.034C1325.37 40.5193 1325.33 40.9533 1325.25 41.336H1320.68ZM1322.46 38.368C1321.96 38.368 1321.55 38.536 1321.23 38.872C1320.91 39.208 1320.73 39.6607 1320.68 40.23H1323.92V40.118C1323.92 39.5487 1323.79 39.1147 1323.54 38.816C1323.3 38.5173 1322.94 38.368 1322.46 38.368ZM1326.99 44.5V37.374H1328.36L1328.58 38.438C1328.96 38.0273 1329.31 37.738 1329.63 37.57C1329.96 37.402 1330.31 37.318 1330.7 37.318C1330.87 37.318 1331.07 37.332 1331.27 37.36V38.872C1331.01 38.8253 1330.74 38.802 1330.47 38.802C1329.78 38.802 1329.17 38.9793 1328.64 39.334V44.5H1326.99ZM1335.61 42.568C1335.61 42.3627 1335.54 42.1993 1335.41 42.078C1335.28 41.9473 1335.04 41.8167 1334.68 41.686L1333.52 41.238C1332.48 40.8367 1331.95 40.1833 1331.95 39.278C1331.95 38.6247 1332.2 38.1113 1332.68 37.738C1333.17 37.3553 1333.81 37.164 1334.63 37.164C1335.4 37.164 1336.1 37.3133 1336.73 37.612V38.774C1336 38.5407 1335.33 38.424 1334.72 38.424C1334.3 38.424 1333.98 38.4893 1333.77 38.62C1333.58 38.7413 1333.48 38.9373 1333.48 39.208C1333.48 39.4133 1333.55 39.5813 1333.69 39.712C1333.84 39.8333 1334.1 39.9687 1334.47 40.118L1335.55 40.538C1336.11 40.7527 1336.51 41.0093 1336.75 41.308C1337.01 41.6067 1337.13 41.9847 1337.13 42.442C1337.13 43.142 1336.88 43.6973 1336.38 44.108C1335.87 44.5093 1335.17 44.71 1334.28 44.71C1333.84 44.71 1333.41 44.6633 1332.99 44.57C1332.57 44.4767 1332.2 44.346 1331.88 44.178V43.016C1332.78 43.3053 1333.57 43.45 1334.26 43.45C1334.73 43.45 1335.07 43.38 1335.28 43.24C1335.5 43.0907 1335.61 42.8667 1335.61 42.568Z" fill="white"/>
<path d="M1347 28H1353L1350 32.5L1347 28Z" fill="#A8ACB1"/>
<g clip-path="url(#clip2_114_756)">
<path d="M1399 26C1398.5 26 1399.04 26 1398.5 26C1398 26 1397.73 26.0056 1397.38 26H1385.13L1384 21.74C1383.94 21.5218 1383.81 21.3299 1383.63 21.1956C1383.45 21.0612 1383.23 20.9923 1383 21H1381C1380.73 21 1380.48 21.1054 1380.29 21.2929C1380.11 21.4804 1380 21.7348 1380 22C1380 22.2652 1380.11 22.5196 1380.29 22.7071C1380.48 22.8946 1380.73 23 1381 23H1382.24L1385 33.26C1385.06 33.4782 1385.19 33.6701 1385.37 33.8044C1385.55 33.9388 1385.77 34.0077 1386 34H1395C1395.18 33.9994 1395.37 33.9478 1395.52 33.8507C1395.68 33.7536 1395.81 33.6149 1395.89 33.45L1399.17 26.89C1399.31 26.592 1399.52 26.3298 1399.5 26C1399.14 26.0663 1399.5 26 1399 26ZM1394.38 32H1386.76L1385.13 26H1397.38L1394.38 32Z" fill="white"/>
<path d="M1385.5 39C1386.33 39 1387 38.3284 1387 37.5C1387 36.6716 1386.33 36 1385.5 36C1384.67 36 1384 36.6716 1384 37.5C1384 38.3284 1384.67 39 1385.5 39Z" fill="white"/>
<path d="M1395.5 39C1396.33 39 1397 38.3284 1397 37.5C1397 36.6716 1396.33 36 1395.5 36C1394.67 36 1394 36.6716 1394 37.5C1394 38.3284 1394.67 39 1395.5 39Z" fill="white"/>
<path d="M1387.87 28V26.74C1389.16 25.4333 1390.1 24.43 1390.71 23.73C1391.32 23.03 1391.74 22.4653 1391.97 22.036C1392.2 21.6067 1392.32 21.21 1392.32 20.846C1392.32 20.4167 1392.19 20.0853 1391.94 19.852C1391.69 19.6093 1391.34 19.488 1390.88 19.488C1390.48 19.488 1390.04 19.5813 1389.56 19.768C1389.1 19.9453 1388.62 20.202 1388.13 20.538V19.166C1389.03 18.438 1390.02 18.074 1391.1 18.074C1391.69 18.074 1392.2 18.1813 1392.64 18.396C1393.08 18.6013 1393.42 18.9 1393.66 19.292C1393.92 19.684 1394.04 20.1507 1394.04 20.692C1394.04 21.2147 1393.9 21.7467 1393.62 22.288C1393.35 22.82 1392.91 23.4313 1392.29 24.122C1391.69 24.8033 1390.85 25.6527 1389.77 26.67H1394.48V28H1387.87Z" fill="#FF9900"/>
</g>
<path d="M1409.94 38.734C1409.2 39.0233 1408.36 39.168 1407.42 39.168C1405.87 39.168 1404.7 38.7573 1403.9 37.936C1403.12 37.1147 1402.73 35.9013 1402.73 34.296C1402.73 32.644 1403.13 31.3747 1403.95 30.488C1404.77 29.592 1405.94 29.144 1407.47 29.144C1408.31 29.144 1409.09 29.27 1409.8 29.522V30.922C1408.87 30.726 1408.15 30.628 1407.63 30.628C1406.57 30.628 1405.79 30.9033 1405.28 31.454C1404.76 32.0047 1404.51 32.854 1404.51 34.002V34.338C1404.51 35.4767 1404.76 36.3213 1405.26 36.872C1405.78 37.4133 1406.55 37.684 1407.6 37.684C1408.19 37.684 1408.97 37.5673 1409.94 37.334V38.734ZM1415.55 39L1415.42 38.314C1415.09 38.594 1414.73 38.8133 1414.33 38.972C1413.94 39.1307 1413.54 39.21 1413.15 39.21C1412.5 39.21 1411.97 39.014 1411.56 38.622C1411.16 38.23 1410.95 37.7213 1410.95 37.096C1410.95 36.4053 1411.2 35.8547 1411.7 35.444C1412.2 35.0333 1412.87 34.828 1413.71 34.828C1414.21 34.828 1414.75 34.898 1415.34 35.038V34.212C1415.34 33.736 1415.23 33.4047 1415.03 33.218C1414.82 33.0313 1414.46 32.938 1413.95 32.938C1413.22 32.938 1412.39 33.092 1411.44 33.4V32.238C1411.79 32.0607 1412.21 31.9207 1412.7 31.818C1413.21 31.7153 1413.71 31.664 1414.22 31.664C1415.13 31.664 1415.8 31.8507 1416.23 32.224C1416.67 32.5973 1416.89 33.1807 1416.89 33.974V39H1415.55ZM1413.61 38.034C1413.89 38.034 1414.17 37.978 1414.47 37.866C1414.77 37.7447 1415.06 37.5767 1415.34 37.362V36.018C1414.84 35.9153 1414.4 35.864 1414.02 35.864C1413.05 35.864 1412.56 36.242 1412.56 36.998C1412.56 37.3247 1412.66 37.5813 1412.84 37.768C1413.03 37.9453 1413.29 38.034 1413.61 38.034ZM1418.87 39V31.874H1420.24L1420.46 32.938C1420.84 32.5273 1421.19 32.238 1421.51 32.07C1421.84 31.902 1422.19 31.818 1422.58 31.818C1422.75 31.818 1422.95 31.832 1423.15 31.86V33.372C1422.89 33.3253 1422.62 33.302 1422.35 33.302C1421.66 33.302 1421.05 33.4793 1420.52 33.834V39H1418.87ZM1428.85 38.832C1428.36 39.0093 1427.84 39.098 1427.28 39.098C1426.54 39.098 1426 38.9253 1425.64 38.58C1425.29 38.2347 1425.11 37.7073 1425.11 36.998V33.134H1423.91V32.098L1425.17 31.916L1425.42 29.914H1426.76V31.874H1428.79V33.134H1426.76V36.914C1426.76 37.2313 1426.84 37.46 1426.99 37.6C1427.15 37.7307 1427.41 37.796 1427.77 37.796C1428.16 37.796 1428.52 37.7587 1428.85 37.684V38.832Z" fill="white"/>
<defs>
<clipPath id="clip0_114_756">
<rect width="100" height="30" fill="white" transform="translate(16 15)"/>
</clipPath>
<clipPath id="clip1_114_756">
<rect x="295" y="10" width="764" height="40" rx="4" fill="white"/>
</clipPath>
<clipPath id="clip2_114_756">
<rect width="24" height="24" fill="white" transform="translate(1378 18)"/>
</clipPath>
</defs>
</svg>
